<svg width="700" height="300" viewbox = "0 0 700 300"  xmlns="http://www.w3.org/2000/svg">
<!--<json>{
  "glyph": "0331,0332,0332,0337,0227,0333,0331,0333,0331,0333,0333,0331,0333,0333,0333,0331,0332,0336,0333,0337,061,060,0153,0365,0333,061,060,0153,0333,0333,0333,0333,0365,061,060,0153,0333,0333,0333,0333,0365,0333,0333,0333,0333,0333,061,060,0153,0365,0333,0333,0333,0333,061,060,0153,0365,0333,0333,0333,0333,0333,061,060,0153,0365,0333,0333,0333,0336,0333,0337,0333,061,060,0153,0365,0333,0333,0333,0333,0336,0332,0337,0333,061,060,0153,0365,0333,0333,0333,0333,0333,061,060,0153,0365,0331,0331,0331,0333,0333,0331,0333,0331,0333,0331,0331,0331,0331,061,060,060,0153,0365,0330,0333,0330,0333,0333,0102,0125,0124,0124,0117,0116,0365,",
  "x0": 168.1818181818182,
  "y0": 159.54545454545456,
  "unit": 23.939204936916337,
  "width": 700,
  "height": 300,
  "style": {
    "color0": "black",
    "fill0": "black",
    "line0": 3,
    "color1": "black",
    "fill1": "black",
    "line1": 5,
    "color2": "red",
    "fill2": "red",
    "line2": 6,
    "color3": "orange",
    "fill3": "#ff000040",
    "line3": 1,
    "color4": "yellow",
    "fill4": "yellow",
    "line4": 1,
    "color5": "green",
    "fill5": "green",
    "line5": 6,
    "color6": "blue",
    "fill6": "blue",
    "line6": 6,
    "color7": "purple",
    "fill7": "purple",
    "line7": 3
  },
  "shapes": [
    "0220:0336,0336,0336,0336,0336,0201,0337,0362,0203,0306,0334,0337,0203,0335,0335,0203,0203,0334,0334,0203,0203,0335,0335,0203,0203,0334,0334,0203,0203,0335,0335,0203,0203,0334,0334,0203,0335,0203,0336,0336,0203,0364,0304,0337,0337,0337,0337,0337,",
    "0221:0336,0336,0201,0337,0220,0336,0201,0337,0337,",
    "0222:0336,0336,0362,0203,0336,0203,0334,0364,0337,0342,0335,0335,0342,0332,0342,0335,0335,0342,0335,0336,0362,0203,0337,0203,0335,0364,0335,0337,0337,0335,0335,",
    "0223:0336,0331,0342,0337,0304,0336,0336,0335,0310,0362,0203,0335,0350,0335,0337,0203,0335,0335,0203,0335,0335,0335,0336,0203,0354,0304,0334,0313,0337,0337,0304,0336,0330,0337,",
    "0224:0336,0336,0201,0330,0330,0342,0334,0334,0336,0336,0330,0341,0330,0330,0330,0330,0330,0330,0341,0335,0335,0330,0332,0332,0331,0332,0337,0337,0337,0336,0201,0336,0201,0331,0336,0331,0337,0334,0337,0201,0335,0331,0333,0333,0331,0336,0336,0332,0337,0337,0337,0337,",
    "0225:0224,0333,0332,0330,0335,0226,0220,0335,0335,0335,0331,",
    "0226:0336,0336,0336,0336,0347,0337,0337,0337,0337,",
    "0227:0225,0225,0225,0225,0225,0225,0225,0225,0225,0334,0201,0201,0201,0201,0201,0201,0201,0201,0201,0335,0226,0333,0226,0333,0226,0333,0226,0333,0226,0333,0226,0333,0226,0333,0226,0333,0226,0333,0226,0335,0335,0220,0335,0335,0223,0335,0335,0335,0335,0330,0335,0236,0332,0201,0201,0335,0335,0335,0223,0336,0336,0331,0362,0203,0334,0203,0364,0335,0333,0337,0337,0332,0332,0332,0332,0332,0332,0332,0332,0332,0332,0332,0334,0362,0203,0335,0203,0364,0336,0336,0337,0336,0330,0341,0336,0331,0332,0337,0210,065,0126,0365,",
    "0230:0335,0201,0336,0331,0335,0337,0234,0220,0234,0334,0336,0331,0337,0342,0334,0333,0330,",
    "0231:0335,0330,0334,0334,0221,0335,0331,0335,0201,0332,0334,",
    "0232:0335,0342,0336,0330,0335,0337,0234,0221,0335,0234,0335,0335,0336,0331,0337,0342,0334,0330,0333,",
    "0233:0335,0236,0333,0236,0334,0330,",
    "0234:0336,0336,0336,0336,0347,0337,0337,0337,0337,",
    "0235:0336,0366,0330,0333,0333,0336,0331,0337,0367,0335,0335,0366,0331,0333,0333,0367,0335,0335,0337,",
    "0236:0336,0201,0336,0336,0330,0341,0331,0337,0337,0331,0337,",
    "0237:0336,0366,0330,0333,0333,0336,0331,0337,0367,0335,0335,0366,0331,0333,0333,0367,0335,0335,0337,",
    "01220:0333,0200,0336,0332,0337,0220,0336,0333,0337,0331,",
    "01221:0333,0200,0336,0332,0337,0336,0336,0336,0332,0337,0337,0337,0221,0331,0336,0333,0336,0336,0333,0337,0337,0337,",
    "01222:0333,0200,0336,0332,0337,0222,0336,0333,0337,0331,",
    "01223:0333,0200,0336,0332,0337,0330,0223,0331,0336,0333,0337,",
    "01224:0333,0200,0336,0330,0332,0336,0332,0224,0333,0333,0333,0331,0331,0337,0337,",
    "01225:0333,0200,0336,0330,0332,0336,0330,0332,0337,0225,0336,0333,0330,0337,0337,0331,",
    "01226:0333,0200,0336,0330,0332,0336,0336,0336,0332,0332,0332,0332,0332,0332,0226,0332,0332,0337,0337,0337,0331,0333,0333,0337,",
    "01227:0333,0200,0336,0330,0332,0336,0336,0332,0332,0336,0336,0227,0337,0337,0337,0332,0337,0331,0333,0333,0337,0333,0331,0333,0331,0333,0337,0337,0211,",
    "01230:0333,0200,0336,0330,0332,0336,0330,0332,0337,0230,0336,0333,0330,0337,0337,0331,",
    "01231:0333,0200,0336,0330,0332,0336,0330,0332,0337,0231,0331,0336,0331,0333,0337,0337,",
    "01232:0333,0200,0336,0330,0332,0336,0330,0332,0337,0232,0336,0333,0330,0337,0337,0331,",
    "01233:0333,0200,0336,0330,0332,0336,0330,0332,0337,0233,0333,0336,0333,0330,0337,0337,0331,",
    "01234:0333,0200,0336,0330,0332,0234,0342,0335,0342,0335,0342,0335,0342,0335,0331,0333,0337,",
    "01235:0333,0200,0336,0330,0332,0336,0332,0330,0337,0235,0331,0336,0333,0331,0337,0337,",
    "01236:0333,0200,0336,0330,0332,0236,0331,0333,0337,",
    "01237:0333,0200,0336,0330,0332,0336,0331,0332,0332,0337,0337,0237,0331,0333,",
    "0240:0220,0336,0331,0333,0336,0321,0335,0342,0335,0335,0342,0335,0330,0330,0332,0332,0337,0337,",
    "01240:0333,0200,0336,0330,0332,0210,0240,0211,0333,0331,0337,",
    "0241:0220,0336,0321,0343,0332,0350,0335,0336,0342,0334,0334,0342,0335,0304,0337,0333,0337,",
    "01241:0333,0200,0336,0332,0330,0210,0241,0211,0333,0331,0337,",
    "0242:0220,0321,0336,0343,0333,0336,0350,0335,0342,0334,0334,0342,0335,0337,0304,0332,0337,",
    "01242:0333,0200,0336,0330,0332,0210,0242,0211,0333,0331,0337,",
    "0243:0220,0336,0331,0332,0336,0321,0343,0332,0350,0334,0336,0342,0335,0335,0342,0337,0334,0334,0335,0304,0332,0330,0330,0337,0337,0333,",
    "01243:0333,0200,0336,0330,0332,0210,0243,0211,0333,0331,0337,",
    "0244:0220,0336,0331,0333,0336,0321,0343,0333,0350,0336,0335,0342,0334,0334,0342,0335,0337,0304,0333,0330,0330,0337,0337,0332,",
    "01244:0333,0200,0336,0330,0332,0210,0244,0211,0333,0331,0337,",
    "0245:0210,0332,0332,0362,0335,0203,0203,0203,0203,0334,0203,0363,0332,0332,0331,0211,",
    "01245:0333,0200,0336,0330,0332,0336,0245,0337,0333,0331,0337,",
    "0246:0210,0332,0332,0335,0306,0336,0330,0335,0335,0335,0321,0362,0203,0335,0335,0203,0364,0331,0350,0335,0337,0366,0333,0333,0333,0333,0334,0334,0334,0334,0367,0335,0336,0342,0334,0334,0342,0330,0330,0330,0330,0335,0335,0335,0304,0337,0211,",
    "01246:0333,0200,0336,0330,0332,0336,0246,",
    "0247:0330,0332,0336,0332,0336,0221,0333,0333,0333,0222,0333,0333,0333,0223,0333,0333,0333,0225,0333,0331,0331,0331,0332,0332,0332,0332,0332,0332,0332,0332,0332,0332,0332,0332,0333,0333,0226,0331,0331,0331,0333,0333,0333,0333,0333,0333,0333,0333,0333,0333,0333,0333,0333,0330,0333,0330,0330,0333,0330,0331,0332,0332,0332,0332,0332,0332,0332,0332,0332,0332,0332,0332,0227,0333,0333,0333,0230,0333,0331,0331,0331,0331,0332,0332,0332,0330,0332,0332,0332,0332,0332,0332,0333,0333,0231,0333,0333,0333,0232,0331,0333,0330,0333,0333,0233,0333,0333,0333,0234,0330,0330,0332,0330,0332,0332,0337,0337,",
    "01247:0333,0200,0336,0330,0332,0220,0336,0247,0337,0331,0333,0337,"
  ]
}</json>-->    <line x1="120" y1="183" x2="120" y2="172" style="stroke:#000000;stroke-width:3" />
    <line x1="120" y1="148" x2="120" y2="136" style="stroke:#000000;stroke-width:3" />
<circle cx="120" cy = "151" r = "2.992400617114542" stroke = "#000000" stroke-width = "3" fill = "none" />
<circle cx="120" cy = "169" r = "2.992400617114542" stroke = "#000000" stroke-width = "3" fill = "none" />
    <line x1="111" y1="169" x2="111" y2="157" style="stroke:#000000;stroke-width:3" />
    <line x1="111" y1="157" x2="111" y2="151" style="stroke:#000000;stroke-width:3" />
    <line x1="111" y1="160" x2="99" y2="160" style="stroke:#000000;stroke-width:3" />
    <circle cx="120" cy = "136" r = "2.992400617114542" stroke = "#000000" stroke-width = "3" fill = "#000000" />
    <line x1="120" y1="136" x2="122" y2="136" style="stroke:#000000;stroke-width:3" />
	<path d = "M122 136 L125 136 L128 130 L131 136 L134 141 L137 136 L140 130 L143 136 L146 141 L149 136 L152 130 L155 136 L158 141 L161 136 L167 136 L168 136 " stroke = "#000000" stroke-width = "3" fill = "none" />    <line x1="168" y1="183" x2="168" y2="172" style="stroke:#000000;stroke-width:3" />
    <line x1="168" y1="148" x2="168" y2="136" style="stroke:#000000;stroke-width:3" />
<circle cx="168" cy = "151" r = "2.992400617114542" stroke = "#000000" stroke-width = "3" fill = "none" />
<circle cx="168" cy = "169" r = "2.992400617114542" stroke = "#000000" stroke-width = "3" fill = "none" />
    <line x1="159" y1="169" x2="159" y2="157" style="stroke:#000000;stroke-width:3" />
    <line x1="159" y1="157" x2="159" y2="151" style="stroke:#000000;stroke-width:3" />
    <line x1="159" y1="160" x2="147" y2="160" style="stroke:#000000;stroke-width:3" />
    <circle cx="168" cy = "136" r = "2.992400617114542" stroke = "#000000" stroke-width = "3" fill = "#000000" />
    <line x1="168" y1="136" x2="170" y2="136" style="stroke:#000000;stroke-width:3" />
	<path d = "M170 136 L173 136 L176 130 L179 136 L182 141 L185 136 L188 130 L191 136 L194 141 L197 136 L200 130 L203 136 L206 141 L209 136 L215 136 L216 136 " stroke = "#000000" stroke-width = "3" fill = "none" />    <line x1="216" y1="183" x2="216" y2="172" style="stroke:#000000;stroke-width:3" />
    <line x1="216" y1="148" x2="216" y2="136" style="stroke:#000000;stroke-width:3" />
<circle cx="216" cy = "151" r = "2.992400617114542" stroke = "#000000" stroke-width = "3" fill = "none" />
<circle cx="216" cy = "169" r = "2.992400617114542" stroke = "#000000" stroke-width = "3" fill = "none" />
    <line x1="207" y1="169" x2="207" y2="157" style="stroke:#000000;stroke-width:3" />
    <line x1="207" y1="157" x2="207" y2="151" style="stroke:#000000;stroke-width:3" />
    <line x1="207" y1="160" x2="195" y2="160" style="stroke:#000000;stroke-width:3" />
    <circle cx="216" cy = "136" r = "2.992400617114542" stroke = "#000000" stroke-width = "3" fill = "#000000" />
    <line x1="216" y1="136" x2="218" y2="136" style="stroke:#000000;stroke-width:3" />
	<path d = "M218 136 L221 136 L224 130 L227 136 L230 141 L233 136 L236 130 L239 136 L241 141 L244 136 L247 130 L250 136 L253 141 L256 136 L262 136 L264 136 " stroke = "#000000" stroke-width = "3" fill = "none" />    <line x1="264" y1="183" x2="264" y2="172" style="stroke:#000000;stroke-width:3" />
    <line x1="264" y1="148" x2="264" y2="136" style="stroke:#000000;stroke-width:3" />
<circle cx="264" cy = "151" r = "2.992400617114542" stroke = "#000000" stroke-width = "3" fill = "none" />
<circle cx="264" cy = "169" r = "2.992400617114542" stroke = "#000000" stroke-width = "3" fill = "none" />
    <line x1="255" y1="169" x2="255" y2="157" style="stroke:#000000;stroke-width:3" />
    <line x1="255" y1="157" x2="255" y2="151" style="stroke:#000000;stroke-width:3" />
    <line x1="255" y1="160" x2="243" y2="160" style="stroke:#000000;stroke-width:3" />
    <circle cx="264" cy = "136" r = "2.992400617114542" stroke = "#000000" stroke-width = "3" fill = "#000000" />
    <line x1="264" y1="136" x2="265" y2="136" style="stroke:#000000;stroke-width:3" />
	<path d = "M265 136 L268 136 L271 130 L274 136 L277 141 L280 136 L283 130 L286 136 L289 141 L292 136 L295 130 L298 136 L301 141 L304 136 L310 136 L312 136 " stroke = "#000000" stroke-width = "3" fill = "none" />    <line x1="312" y1="183" x2="312" y2="172" style="stroke:#000000;stroke-width:3" />
    <line x1="312" y1="148" x2="312" y2="136" style="stroke:#000000;stroke-width:3" />
<circle cx="312" cy = "151" r = "2.992400617114542" stroke = "#000000" stroke-width = "3" fill = "none" />
<circle cx="312" cy = "169" r = "2.992400617114542" stroke = "#000000" stroke-width = "3" fill = "none" />
    <line x1="303" y1="169" x2="303" y2="157" style="stroke:#000000;stroke-width:3" />
    <line x1="303" y1="157" x2="303" y2="151" style="stroke:#000000;stroke-width:3" />
    <line x1="303" y1="160" x2="291" y2="160" style="stroke:#000000;stroke-width:3" />
    <circle cx="312" cy = "136" r = "2.992400617114542" stroke = "#000000" stroke-width = "3" fill = "#000000" />
    <line x1="312" y1="136" x2="313" y2="136" style="stroke:#000000;stroke-width:3" />
	<path d = "M313 136 L316 136 L319 130 L322 136 L325 141 L328 136 L331 130 L334 136 L337 141 L340 136 L343 130 L346 136 L349 141 L352 136 L358 136 L360 136 " stroke = "#000000" stroke-width = "3" fill = "none" />    <line x1="360" y1="183" x2="360" y2="172" style="stroke:#000000;stroke-width:3" />
    <line x1="360" y1="148" x2="360" y2="136" style="stroke:#000000;stroke-width:3" />
<circle cx="360" cy = "151" r = "2.992400617114542" stroke = "#000000" stroke-width = "3" fill = "none" />
<circle cx="360" cy = "169" r = "2.992400617114542" stroke = "#000000" stroke-width = "3" fill = "none" />
    <line x1="351" y1="169" x2="351" y2="157" style="stroke:#000000;stroke-width:3" />
    <line x1="351" y1="157" x2="351" y2="151" style="stroke:#000000;stroke-width:3" />
    <line x1="351" y1="160" x2="339" y2="160" style="stroke:#000000;stroke-width:3" />
    <circle cx="360" cy = "136" r = "2.992400617114542" stroke = "#000000" stroke-width = "3" fill = "#000000" />
    <line x1="360" y1="136" x2="361" y2="136" style="stroke:#000000;stroke-width:3" />
	<path d = "M361 136 L364 136 L367 130 L370 136 L373 141 L376 136 L379 130 L382 136 L385 141 L388 136 L391 130 L394 136 L397 141 L400 136 L406 136 L408 136 " stroke = "#000000" stroke-width = "3" fill = "none" />    <line x1="408" y1="183" x2="408" y2="172" style="stroke:#000000;stroke-width:3" />
    <line x1="408" y1="148" x2="408" y2="136" style="stroke:#000000;stroke-width:3" />
<circle cx="408" cy = "151" r = "2.992400617114542" stroke = "#000000" stroke-width = "3" fill = "none" />
<circle cx="408" cy = "169" r = "2.992400617114542" stroke = "#000000" stroke-width = "3" fill = "none" />
    <line x1="399" y1="169" x2="399" y2="157" style="stroke:#000000;stroke-width:3" />
    <line x1="399" y1="157" x2="399" y2="151" style="stroke:#000000;stroke-width:3" />
    <line x1="399" y1="160" x2="387" y2="160" style="stroke:#000000;stroke-width:3" />
    <circle cx="408" cy = "136" r = "2.992400617114542" stroke = "#000000" stroke-width = "3" fill = "#000000" />
    <line x1="408" y1="136" x2="409" y2="136" style="stroke:#000000;stroke-width:3" />
	<path d = "M409 136 L412 136 L415 130 L418 136 L421 141 L424 136 L427 130 L430 136 L433 141 L436 136 L439 130 L442 136 L445 141 L448 136 L454 136 L455 136 " stroke = "#000000" stroke-width = "3" fill = "none" />    <line x1="455" y1="183" x2="455" y2="172" style="stroke:#000000;stroke-width:3" />
    <line x1="455" y1="148" x2="455" y2="136" style="stroke:#000000;stroke-width:3" />
<circle cx="455" cy = "151" r = "2.992400617114542" stroke = "#000000" stroke-width = "3" fill = "none" />
<circle cx="455" cy = "169" r = "2.992400617114542" stroke = "#000000" stroke-width = "3" fill = "none" />
    <line x1="446" y1="169" x2="446" y2="157" style="stroke:#000000;stroke-width:3" />
    <line x1="446" y1="157" x2="446" y2="151" style="stroke:#000000;stroke-width:3" />
    <line x1="446" y1="160" x2="435" y2="160" style="stroke:#000000;stroke-width:3" />
    <circle cx="455" cy = "136" r = "2.992400617114542" stroke = "#000000" stroke-width = "3" fill = "#000000" />
    <line x1="455" y1="136" x2="457" y2="136" style="stroke:#000000;stroke-width:3" />
	<path d = "M457 136 L460 136 L463 130 L466 136 L469 141 L472 136 L475 130 L478 136 L481 141 L484 136 L487 130 L490 136 L493 141 L496 136 L502 136 L503 136 " stroke = "#000000" stroke-width = "3" fill = "none" />    <line x1="503" y1="183" x2="503" y2="172" style="stroke:#000000;stroke-width:3" />
    <line x1="503" y1="148" x2="503" y2="136" style="stroke:#000000;stroke-width:3" />
<circle cx="503" cy = "151" r = "2.992400617114542" stroke = "#000000" stroke-width = "3" fill = "none" />
<circle cx="503" cy = "169" r = "2.992400617114542" stroke = "#000000" stroke-width = "3" fill = "none" />
    <line x1="494" y1="169" x2="494" y2="157" style="stroke:#000000;stroke-width:3" />
    <line x1="494" y1="157" x2="494" y2="151" style="stroke:#000000;stroke-width:3" />
    <line x1="494" y1="160" x2="482" y2="160" style="stroke:#000000;stroke-width:3" />
    <circle cx="503" cy = "136" r = "2.992400617114542" stroke = "#000000" stroke-width = "3" fill = "#000000" />
    <line x1="503" y1="136" x2="505" y2="136" style="stroke:#000000;stroke-width:3" />
	<path d = "M505 136 L508 136 L511 130 L514 136 L517 141 L520 136 L523 130 L526 136 L529 141 L532 136 L535 130 L538 136 L541 141 L544 136 L550 136 L551 136 " stroke = "#000000" stroke-width = "3" fill = "none" />    <line x1="551" y1="183" x2="503" y2="183" style="stroke:#000000;stroke-width:3" />
    <line x1="503" y1="183" x2="455" y2="183" style="stroke:#000000;stroke-width:3" />
    <line x1="455" y1="183" x2="408" y2="183" style="stroke:#000000;stroke-width:3" />
    <line x1="408" y1="183" x2="360" y2="183" style="stroke:#000000;stroke-width:3" />
    <line x1="360" y1="183" x2="312" y2="183" style="stroke:#000000;stroke-width:3" />
    <line x1="312" y1="183" x2="264" y2="183" style="stroke:#000000;stroke-width:3" />
    <line x1="264" y1="183" x2="216" y2="183" style="stroke:#000000;stroke-width:3" />
    <line x1="216" y1="183" x2="168" y2="183" style="stroke:#000000;stroke-width:3" />
    <line x1="168" y1="183" x2="120" y2="183" style="stroke:#000000;stroke-width:3" />
    <circle cx="120" cy = "183" r = "2.992400617114542" stroke = "#000000" stroke-width = "3" fill = "#000000" />
    <circle cx="168" cy = "183" r = "2.992400617114542" stroke = "#000000" stroke-width = "3" fill = "#000000" />
    <circle cx="216" cy = "183" r = "2.992400617114542" stroke = "#000000" stroke-width = "3" fill = "#000000" />
    <circle cx="264" cy = "183" r = "2.992400617114542" stroke = "#000000" stroke-width = "3" fill = "#000000" />
    <circle cx="312" cy = "183" r = "2.992400617114542" stroke = "#000000" stroke-width = "3" fill = "#000000" />
    <circle cx="360" cy = "183" r = "2.992400617114542" stroke = "#000000" stroke-width = "3" fill = "#000000" />
    <circle cx="408" cy = "183" r = "2.992400617114542" stroke = "#000000" stroke-width = "3" fill = "#000000" />
    <circle cx="455" cy = "183" r = "2.992400617114542" stroke = "#000000" stroke-width = "3" fill = "#000000" />
    <circle cx="503" cy = "183" r = "2.992400617114542" stroke = "#000000" stroke-width = "3" fill = "#000000" />
    <circle cx="551" cy = "183" r = "2.992400617114542" stroke = "#000000" stroke-width = "3" fill = "#000000" />
    <line x1="551" y1="183" x2="551" y2="185" style="stroke:#000000;stroke-width:3" />
	<path d = "M551 185 L551 188 L556 191 L551 194 L546 197 L551 200 L556 203 L551 206 L546 209 L551 212 L556 215 L551 218 L546 221 L551 224 L551 230 L551 231 " stroke = "#000000" stroke-width = "3" fill = "none" />    <line x1="551" y1="255" x2="551" y2="231" style="stroke:#000000;stroke-width:3" />
	<path d = "M551 255 L563 255 L551 267 L539 255 L551 255 Z" stroke = "#000000" stroke-width = "3" fill = "none" />    <line x1="551" y1="183" x2="575" y2="183" style="stroke:#000000;stroke-width:3" />
<circle cx="581" cy = "183" r = "5.984801234229083" stroke = "#000000" stroke-width = "3" fill = "none" />
    <line x1="551" y1="136" x2="599" y2="136" style="stroke:#000000;stroke-width:3" />
    <line x1="599" y1="136" x2="647" y2="136" style="stroke:#000000;stroke-width:3" />
    <line x1="647" y1="160" x2="647" y2="136" style="stroke:#000000;stroke-width:3" />
	<path d = "M647 160 L659 160 L647 172 L635 160 L647 160 Z" stroke = "#000000" stroke-width = "3" fill = "none" />	<path d = "M647 148 L647 136 L635 136 " stroke = "#000000" stroke-width = "3" fill = "none" />	<path d = "M120 136 L72 136 L72 88 " stroke = "#000000" stroke-width = "3" fill = "none" /><circle cx="72" cy = "76" r = "11.969602468458167" stroke = "#000000" stroke-width = "3" fill = "none" />
    <text x="66" y = "82" fill = "#000000" font-size = "10.461816169996768px" font-family = "Arial">5V</text>
    <text x="134" y = "124" fill = "#000000" font-size = "10.461816169996768px" font-family = "Arial">10k</text>
    <text x="187" y = "124" fill = "#000000" font-size = "10.461816169996768px" font-family = "Arial">10k</text>
    <text x="229" y = "124" fill = "#000000" font-size = "10.461816169996768px" font-family = "Arial">10k</text>
    <text x="281" y = "124" fill = "#000000" font-size = "10.461816169996768px" font-family = "Arial">10k</text>
    <text x="323" y = "124" fill = "#000000" font-size = "10.461816169996768px" font-family = "Arial">10k</text>
    <text x="375" y = "124" fill = "#000000" font-size = "10.461816169996768px" font-family = "Arial">10k</text>
    <text x="422" y = "124" fill = "#000000" font-size = "10.461816169996768px" font-family = "Arial">10k</text>
    <text x="469" y = "124" fill = "#000000" font-size = "10.461816169996768px" font-family = "Arial">10k</text>
    <text x="522" y = "124" fill = "#000000" font-size = "10.461816169996768px" font-family = "Arial">10k</text>
    <text x="563" y = "218" fill = "#000000" font-size = "10.461816169996768px" font-family = "Arial">100k</text>
    <text x="595" y = "197" fill = "#000000" font-size = "10.461816169996768px" font-family = "Arial">BUTTON</text>
</svg>