%TF.GenerationSoftware,Altium Limited,Altium Designer,24.1.2 (44)*%
G04 Layer_Color=65535*
%FSLAX45Y45*%
%MOMM*%
%TF.SameCoordinates,7D1D8A4D-2C7A-4F71-9711-01752012572A*%
%TF.FilePolarity,Positive*%
%TF.FileFunction,Legend,Top*%
%TF.Part,Single*%
G01*
G75*
%TA.AperFunction,NonConductor*%
%ADD19C,0.15240*%
%ADD20C,0.20000*%
%ADD21C,0.50800*%
%ADD22C,0.25400*%
%ADD23C,0.76200*%
%ADD24C,1.27000*%
D19*
X5087810Y2235200D02*
G03*
X5087810Y2235200I-537210J0D01*
G01*
X3937190Y2171700D02*
Y2298700D01*
X3873690Y2235200D02*
X4000690D01*
X4152900Y889000D02*
X4737100D01*
Y1155700D01*
X4152900D02*
X4737100D01*
X4152900Y889000D02*
Y1155700D01*
D20*
X200500Y62000D02*
G03*
X200500Y62000I-10000J0D01*
G01*
X9854000Y254000D02*
G03*
X9854000Y254000I-10000J0D01*
G01*
X7184000Y5080000D02*
G03*
X7184000Y5080000I-10000J0D01*
G01*
X7568000Y254000D02*
G03*
X7568000Y254000I-10000J0D01*
G01*
X8330000Y4318000D02*
G03*
X8330000Y4318000I-10000J0D01*
G01*
X7692000Y1016000D02*
G03*
X7692000Y1016000I-10000J0D01*
G01*
X5406000D02*
G03*
X5406000Y1016000I-10000J0D01*
G01*
X6552000Y4318000D02*
G03*
X6552000Y4318000I-10000J0D01*
G01*
X3120000Y254000D02*
G03*
X3120000Y254000I-10000J0D01*
G01*
X4898000Y5080000D02*
G03*
X4898000Y5080000I-10000J0D01*
G01*
X2205600D02*
G03*
X2205600Y5080000I-10000J0D01*
G01*
X317500Y127000D02*
Y1397000D01*
X63500Y127000D02*
Y1397000D01*
X317500D01*
X63500Y127000D02*
X317500D01*
X7747000Y381000D02*
X9779000D01*
X7747000Y127000D02*
X9779000D01*
X7747000D02*
Y381000D01*
X9779000Y127000D02*
Y381000D01*
X7239000Y4953000D02*
X9271000D01*
X7239000Y5207000D02*
X9271000D01*
Y4953000D02*
Y5207000D01*
X7239000Y4953000D02*
Y5207000D01*
X5461000Y381000D02*
X7493000D01*
X5461000Y127000D02*
X7493000D01*
X5461000D02*
Y381000D01*
X7493000Y127000D02*
Y381000D01*
X1206500Y2197100D02*
Y2258600D01*
Y1373600D02*
Y1435100D01*
X1081500D02*
X1331500D01*
Y2197100D01*
X1081500D02*
X1331500D01*
X1081500Y1435100D02*
Y2197100D01*
X8255000Y4191000D02*
Y4445000D01*
X7239000Y4191000D02*
Y4445000D01*
Y4191000D02*
X8255000D01*
X7239000Y4445000D02*
X8255000D01*
X7747000Y889000D02*
Y1143000D01*
X8763000Y889000D02*
Y1143000D01*
X7747000D02*
X8763000D01*
X7747000Y889000D02*
X8763000D01*
X5461000D02*
X7493000D01*
X5461000Y1143000D02*
X7493000D01*
Y889000D02*
Y1143000D01*
X5461000Y889000D02*
Y1143000D01*
X4445000Y4445000D02*
X6477000D01*
X4445000Y4191000D02*
X6477000D01*
X4445000D02*
Y4445000D01*
X6477000Y4191000D02*
Y4445000D01*
X3175000Y127000D02*
X5207000D01*
X3175000Y381000D02*
X5207000D01*
Y127000D02*
Y381000D01*
X3175000Y127000D02*
Y381000D01*
X751300Y1181100D02*
Y1943100D01*
X1001300D01*
Y1181100D02*
Y1943100D01*
X751300Y1181100D02*
X1001300D01*
X876300Y1119600D02*
Y1181100D01*
Y1943100D02*
Y2004600D01*
X8257000Y2882900D02*
Y3644900D01*
X8507000D01*
Y2882900D02*
Y3644900D01*
X8257000Y2882900D02*
X8507000D01*
X8382000Y2821400D02*
Y2882900D01*
Y3644900D02*
Y3706400D01*
X4953000Y4953000D02*
Y5207000D01*
X6985000Y4953000D02*
Y5207000D01*
X4953000D02*
X6985000D01*
X4953000Y4953000D02*
X6985000D01*
X2260600D02*
X4800600D01*
X2260600Y5207000D02*
X4800600D01*
Y4953000D02*
Y5207000D01*
X2260600Y4953000D02*
Y5207000D01*
D21*
X4356100Y825500D02*
G03*
X4356100Y825500I-38100J0D01*
G01*
X296320Y3102979D02*
X380959D01*
X423279Y3060659D01*
Y2933700D01*
X296320D01*
X254000Y2976020D01*
X296320Y3018339D01*
X423279D01*
X507918Y3102979D02*
Y2933700D01*
Y3018339D01*
X550238Y3060659D01*
X592557Y3102979D01*
X634877D01*
X931114Y3187618D02*
Y2933700D01*
X804156D01*
X761836Y2976020D01*
Y3060659D01*
X804156Y3102979D01*
X931114D01*
X1015754D02*
Y2976020D01*
X1058074Y2933700D01*
X1185032D01*
Y3102979D01*
X1269672Y2933700D02*
X1354311D01*
X1311992D01*
Y3102979D01*
X1269672D01*
X1481270Y2933700D02*
Y3102979D01*
X1608229D01*
X1650549Y3060659D01*
Y2933700D01*
X1777508D02*
X1862147D01*
X1904467Y2976020D01*
Y3060659D01*
X1862147Y3102979D01*
X1777508D01*
X1735188Y3060659D01*
Y2976020D01*
X1777508Y2933700D01*
X1989106Y3060659D02*
X2158385D01*
X2285344Y3145298D02*
Y3102979D01*
X2243024D01*
X2327663D01*
X2285344D01*
Y2976020D01*
X2327663Y2933700D01*
X2496942D02*
X2581581D01*
X2623901Y2976020D01*
Y3060659D01*
X2581581Y3102979D01*
X2496942D01*
X2454622Y3060659D01*
Y2976020D01*
X2496942Y2933700D01*
X2708540Y3060659D02*
X2877819D01*
X2962458Y3187618D02*
Y2933700D01*
Y3060659D01*
X3004778Y3102979D01*
X3089417D01*
X3131737Y3060659D01*
Y2933700D01*
X3343335D02*
X3258696D01*
X3216376Y2976020D01*
Y3060659D01*
X3258696Y3102979D01*
X3343335D01*
X3385655Y3060659D01*
Y3018339D01*
X3216376D01*
X3512614Y3102979D02*
X3597253D01*
X3639573Y3060659D01*
Y2933700D01*
X3512614D01*
X3470294Y2976020D01*
X3512614Y3018339D01*
X3639573D01*
X3893491Y3187618D02*
Y2933700D01*
X3766532D01*
X3724212Y2976020D01*
Y3060659D01*
X3766532Y3102979D01*
X3893491D01*
X4105089Y2933700D02*
X4020450D01*
X3978130Y2976020D01*
Y3060659D01*
X4020450Y3102979D01*
X4105089D01*
X4147409Y3060659D01*
Y3018339D01*
X3978130D01*
X4232048Y3102979D02*
Y2933700D01*
Y3018339D01*
X4274368Y3060659D01*
X4316687Y3102979D01*
X4359007D01*
X4485966Y2933700D02*
X4612925D01*
X4655244Y2976020D01*
X4612925Y3018339D01*
X4528286D01*
X4485966Y3060659D01*
X4528286Y3102979D01*
X4655244D01*
X4739884Y3060659D02*
X4909162D01*
X4993802Y2933700D02*
X5120761D01*
X5163080Y2976020D01*
X5120761Y3018339D01*
X5036121D01*
X4993802Y3060659D01*
X5036121Y3102979D01*
X5163080D01*
X5247720Y3187618D02*
Y2933700D01*
Y3060659D01*
X5290039Y3102979D01*
X5374679D01*
X5416998Y3060659D01*
Y2933700D01*
X5501638D02*
X5586277D01*
X5543957D01*
Y3102979D01*
X5501638D01*
X5840195Y2933700D02*
X5755556D01*
X5713236Y2976020D01*
Y3060659D01*
X5755556Y3102979D01*
X5840195D01*
X5882515Y3060659D01*
Y3018339D01*
X5713236D01*
X5967154Y2933700D02*
X6051793D01*
X6009474D01*
Y3187618D01*
X5967154D01*
X6348031D02*
Y2933700D01*
X6221072D01*
X6178752Y2976020D01*
Y3060659D01*
X6221072Y3102979D01*
X6348031D01*
X279400Y4674745D02*
X311140Y4706485D01*
X374619D01*
X406359Y4674745D01*
Y4643005D01*
X374619Y4611266D01*
X342879D01*
X374619D01*
X406359Y4579526D01*
Y4547786D01*
X374619Y4516046D01*
X311140D01*
X279400Y4547786D01*
X469839Y4516046D02*
Y4547786D01*
X501578D01*
Y4516046D01*
X469839D01*
X628537Y4547786D02*
X660277Y4516046D01*
X723756D01*
X755496Y4547786D01*
Y4674745D01*
X723756Y4706485D01*
X660277D01*
X628537Y4674745D01*
Y4643005D01*
X660277Y4611266D01*
X755496D01*
X850716Y4738224D02*
Y4674745D01*
X818976Y4643005D01*
X977674Y4738224D02*
Y4674745D01*
X945935Y4643005D01*
X1263332Y4706485D02*
X1390291Y4516046D01*
Y4706485D02*
X1263332Y4516046D01*
X1771168D02*
X1644209D01*
X1771168Y4643005D01*
Y4674745D01*
X1739428Y4706485D01*
X1675949D01*
X1644209Y4674745D01*
X1834648Y4516046D02*
Y4547786D01*
X1866387D01*
Y4516046D01*
X1834648D01*
X1993346D02*
X2056826D01*
X2025086D01*
Y4706485D01*
X1993346Y4674745D01*
X2183785Y4738224D02*
Y4674745D01*
X2152045Y4643005D01*
X2310744Y4738224D02*
Y4674745D01*
X2279004Y4643005D01*
X279400Y4197340D02*
X311140Y4165600D01*
X374619D01*
X406359Y4197340D01*
Y4324299D01*
X374619Y4356039D01*
X311140D01*
X279400Y4324299D01*
Y4292559D01*
X311140Y4260819D01*
X406359D01*
X469839Y4197340D02*
X501578Y4165600D01*
X565058D01*
X596797Y4197340D01*
Y4324299D01*
X565058Y4356039D01*
X501578D01*
X469839Y4324299D01*
Y4292559D01*
X501578Y4260819D01*
X596797D01*
X660277Y4165600D02*
Y4197340D01*
X692017D01*
Y4165600D01*
X660277D01*
X818976Y4324299D02*
X850716Y4356039D01*
X914195D01*
X945935Y4324299D01*
Y4197340D01*
X914195Y4165600D01*
X850716D01*
X818976Y4197340D01*
Y4324299D01*
X1136373Y4356039D02*
X1072894Y4324299D01*
X1009414Y4260819D01*
Y4197340D01*
X1041154Y4165600D01*
X1104634D01*
X1136373Y4197340D01*
Y4229079D01*
X1104634Y4260819D01*
X1009414D01*
X1390291Y4165600D02*
Y4292559D01*
X1422031D01*
X1453771Y4260819D01*
Y4165600D01*
Y4260819D01*
X1485511Y4292559D01*
X1517250Y4260819D01*
Y4165600D01*
X1580730D02*
Y4292559D01*
X1612470D01*
X1644209Y4260819D01*
Y4165600D01*
Y4260819D01*
X1675949Y4292559D01*
X1707689Y4260819D01*
Y4165600D01*
X1961607Y4356039D02*
X2088566Y4165600D01*
Y4356039D02*
X1961607Y4165600D01*
X2469443Y4356039D02*
X2342484D01*
Y4260819D01*
X2405963Y4292559D01*
X2437703D01*
X2469443Y4260819D01*
Y4197340D01*
X2437703Y4165600D01*
X2374224D01*
X2342484Y4197340D01*
X2532923Y4324299D02*
X2564662Y4356039D01*
X2628142D01*
X2659881Y4324299D01*
Y4292559D01*
X2628142Y4260819D01*
X2596402D01*
X2628142D01*
X2659881Y4229079D01*
Y4197340D01*
X2628142Y4165600D01*
X2564662D01*
X2532923Y4197340D01*
X2723361Y4165600D02*
Y4197340D01*
X2755101D01*
Y4165600D01*
X2723361D01*
X2882060Y4324299D02*
X2913800Y4356039D01*
X2977279D01*
X3009019Y4324299D01*
Y4292559D01*
X2977279Y4260819D01*
X2945539D01*
X2977279D01*
X3009019Y4229079D01*
Y4197340D01*
X2977279Y4165600D01*
X2913800D01*
X2882060Y4197340D01*
X3167718Y4165600D02*
Y4356039D01*
X3072498Y4260819D01*
X3199457D01*
X3453375Y4165600D02*
Y4292559D01*
X3485115D01*
X3516855Y4260819D01*
Y4165600D01*
Y4260819D01*
X3548595Y4292559D01*
X3580334Y4260819D01*
Y4165600D01*
X3643814D02*
Y4292559D01*
X3675554D01*
X3707293Y4260819D01*
Y4165600D01*
Y4260819D01*
X3739033Y4292559D01*
X3770773Y4260819D01*
Y4165600D01*
D22*
X9017000Y4953000D02*
X9271000D01*
X9017000Y5207000D02*
X9271000D01*
X7239000D02*
X7493000D01*
X7239000Y4953000D02*
X7493000D01*
X2260600Y5207000D02*
X2514600D01*
X2260600Y4953000D02*
X2514600D01*
X4546600D02*
X4800600D01*
X4546600Y5207000D02*
X4800600D01*
X6731000Y4953000D02*
X6985000D01*
X6731000Y5207000D02*
X6985000D01*
X4953000Y4953000D02*
X5207000D01*
X4953000Y5207000D02*
X5207000D01*
X4953000Y127000D02*
X5207000D01*
X4953000Y381000D02*
X5207000D01*
X3175000D02*
X3429000D01*
X3175000Y127000D02*
X3429000D01*
X9525000D02*
X9779000D01*
X9525000Y381000D02*
X9779000D01*
X7747000Y127000D02*
X8001000D01*
X7747000Y381000D02*
X8001000D01*
X5461000Y127000D02*
X5715000D01*
X5461000Y381000D02*
X5715000D01*
X7239000Y127000D02*
X7493000D01*
X7239000Y381000D02*
X7493000D01*
X9779000Y127000D02*
Y381000D01*
X7747000Y127000D02*
Y381000D01*
X9271000Y4953000D02*
Y5207000D01*
X7239000Y4953000D02*
Y5207000D01*
X6985000Y4953000D02*
Y5207000D01*
X4953000Y4953000D02*
Y5207000D01*
X4800600Y4953000D02*
Y5207000D01*
X2260600Y4953000D02*
Y5207000D01*
X3175000Y127000D02*
Y381000D01*
X5207000Y127000D02*
Y381000D01*
X7493000Y127000D02*
Y381000D01*
X5461000Y127000D02*
Y381000D01*
X7924800Y1219200D02*
X7797841D01*
Y1282679D01*
X7819001Y1303839D01*
X7861321D01*
X7882480Y1282679D01*
Y1219200D01*
Y1261520D02*
X7924800Y1303839D01*
X7797841Y1430798D02*
Y1346159D01*
X7924800D01*
Y1430798D01*
X7861321Y1346159D02*
Y1388479D01*
X7797841Y1473118D02*
X7924800D01*
Y1536597D01*
X7903640Y1557757D01*
X7819001D01*
X7797841Y1536597D01*
Y1473118D01*
X6642100Y558800D02*
X6575455D01*
X6542132Y592123D01*
X6575455Y625445D01*
X6642100D01*
X6592116D01*
Y558800D01*
X6642100Y708752D02*
X6542132D01*
X6592116Y658768D01*
Y725413D01*
X4802107Y2400806D02*
X4785446Y2417468D01*
X4752123D01*
X4735462Y2400806D01*
Y2334161D01*
X4752123Y2317500D01*
X4785446D01*
X4802107Y2334161D01*
Y2367484D01*
X4768784D01*
X4835429Y2317500D02*
Y2417468D01*
X4902075Y2317500D01*
Y2417468D01*
X4935397D02*
Y2317500D01*
X4985381D01*
X5002042Y2334161D01*
Y2400806D01*
X4985381Y2417468D01*
X4935397D01*
X8674099Y558801D02*
X8607454D01*
X8574132Y592123D01*
X8607454Y625446D01*
X8674099D01*
X8624116D01*
Y558801D01*
X8674099Y658768D02*
Y692091D01*
Y675430D01*
X8574132D01*
X8590793Y658768D01*
X8674099Y742075D02*
Y775397D01*
Y758736D01*
X8574132D01*
X8590793Y742075D01*
X9182100Y431800D02*
X9115455D01*
X9082132Y465123D01*
X9115455Y498445D01*
X9182100D01*
X9132116D01*
Y431800D01*
X9182100Y531768D02*
Y565090D01*
Y548429D01*
X9082132D01*
X9098794Y531768D01*
Y615074D02*
X9082132Y631736D01*
Y665058D01*
X9098794Y681719D01*
X9115455D01*
X9132116Y665058D01*
Y648397D01*
Y665058D01*
X9148777Y681719D01*
X9165439D01*
X9182100Y665058D01*
Y631736D01*
X9165439Y615074D01*
X9115455Y715042D02*
Y731703D01*
X9132116D01*
Y715042D01*
X9115455D01*
X9165439D02*
Y731703D01*
X9182100D01*
Y715042D01*
X9165439D01*
X9098794Y964961D02*
X9082132Y948300D01*
Y914978D01*
X9098794Y898316D01*
X9115455D01*
X9132116Y914978D01*
Y948300D01*
X9148777Y964961D01*
X9165439D01*
X9182100Y948300D01*
Y914978D01*
X9165439Y898316D01*
X9182100Y998284D02*
X9082132D01*
Y1048268D01*
X9098794Y1064929D01*
X9132116D01*
X9148777Y1048268D01*
Y998284D01*
X9165439Y1098252D02*
X9182100Y1114913D01*
Y1148236D01*
X9165439Y1164897D01*
X9098794D01*
X9082132Y1148236D01*
Y1114913D01*
X9098794Y1098252D01*
X9115455D01*
X9132116Y1114913D01*
Y1164897D01*
X9082132Y1198220D02*
Y1264865D01*
Y1231542D01*
X9182100D01*
X9082132Y1398155D02*
X9182100D01*
Y1448139D01*
X9165439Y1464800D01*
X9148777D01*
X9132116Y1448139D01*
Y1398155D01*
Y1448139D01*
X9115455Y1464800D01*
X9098794D01*
X9082132Y1448139D01*
Y1398155D01*
Y1498123D02*
X9165439D01*
X9182100Y1514784D01*
Y1548107D01*
X9165439Y1564768D01*
X9082132D01*
Y1598091D02*
Y1664736D01*
Y1631413D01*
X9182100D01*
X9082132Y1698059D02*
Y1764704D01*
Y1731381D01*
X9182100D01*
X9082132Y1848010D02*
Y1814688D01*
X9098794Y1798026D01*
X9165439D01*
X9182100Y1814688D01*
Y1848010D01*
X9165439Y1864671D01*
X9098794D01*
X9082132Y1848010D01*
X9182100Y1897994D02*
X9082132D01*
X9182100Y1964639D01*
X9082132D01*
X9098794Y2064607D02*
X9082132Y2047946D01*
Y2014623D01*
X9098794Y1997962D01*
X9115455D01*
X9132116Y2014623D01*
Y2047946D01*
X9148777Y2064607D01*
X9165439D01*
X9182100Y2047946D01*
Y2014623D01*
X9165439Y1997962D01*
X381000Y965200D02*
Y1031845D01*
X414323Y1065168D01*
X447645Y1031845D01*
Y965200D01*
Y1015184D01*
X381000D01*
X480968Y965200D02*
X514290D01*
X497629D01*
Y1065168D01*
X480968Y1048506D01*
X630919Y965200D02*
X564274D01*
X630919Y1031845D01*
Y1048506D01*
X614258Y1065168D01*
X580936D01*
X564274Y1048506D01*
X5531878Y4671582D02*
X5631845D01*
Y4721566D01*
X5615184Y4738227D01*
X5548539D01*
X5531878Y4721566D01*
Y4671582D01*
Y4838195D02*
Y4771550D01*
X5581862D01*
X5565200Y4804872D01*
Y4821533D01*
X5581862Y4838195D01*
X5615184D01*
X5631845Y4821533D01*
Y4788211D01*
X5615184Y4771550D01*
X5018132Y469900D02*
X5084777D01*
X5118100Y503223D01*
X5084777Y536545D01*
X5018132D01*
X5118100Y569868D02*
Y603190D01*
Y586529D01*
X5051455D01*
Y569868D01*
X5118100Y653174D02*
X5051455D01*
Y703158D01*
X5068116Y719819D01*
X5118100D01*
X381000Y811168D02*
Y711200D01*
X447645D01*
X547613Y811168D02*
X480968D01*
Y711200D01*
X547613D01*
X480968Y761184D02*
X514290D01*
X580936Y811168D02*
Y711200D01*
X630919D01*
X647581Y727861D01*
Y794506D01*
X630919Y811168D01*
X580936D01*
X5785878Y4671582D02*
X5885845D01*
Y4721566D01*
X5869184Y4738227D01*
X5802539D01*
X5785878Y4721566D01*
Y4671582D01*
X5885845Y4821533D02*
X5785878D01*
X5835862Y4771550D01*
Y4838195D01*
X5880100Y558800D02*
X5813455D01*
X5780132Y592123D01*
X5813455Y625445D01*
X5880100D01*
X5830116D01*
Y558800D01*
X5880100Y658768D02*
Y692090D01*
Y675429D01*
X5780132D01*
X5796794Y658768D01*
X4526794Y536545D02*
X4510132Y519884D01*
Y486561D01*
X4526794Y469900D01*
X4593439D01*
X4610100Y486561D01*
Y519884D01*
X4593439Y536545D01*
X4560116D01*
Y503223D01*
X4610100Y569868D02*
X4510132D01*
X4610100Y636513D01*
X4510132D01*
Y669836D02*
X4610100D01*
Y719819D01*
X4593439Y736481D01*
X4526794D01*
X4510132Y719819D01*
Y669836D01*
X4256132Y536545D02*
Y469900D01*
X4306116D01*
X4289455Y503223D01*
Y519884D01*
X4306116Y536545D01*
X4339439D01*
X4356100Y519884D01*
Y486561D01*
X4339439Y469900D01*
X4256132Y569868D02*
X4322777D01*
X4356100Y603190D01*
X4322777Y636513D01*
X4256132D01*
X6388100Y558800D02*
X6321455D01*
X6288132Y592123D01*
X6321455Y625445D01*
X6388100D01*
X6338116D01*
Y558800D01*
X6304794Y658768D02*
X6288132Y675429D01*
Y708752D01*
X6304794Y725413D01*
X6321455D01*
X6338116Y708752D01*
Y692090D01*
Y708752D01*
X6354777Y725413D01*
X6371439D01*
X6388100Y708752D01*
Y675429D01*
X6371439Y658768D01*
X4433932Y4673600D02*
X4533900D01*
Y4723584D01*
X4517239Y4740245D01*
X4450594D01*
X4433932Y4723584D01*
Y4673600D01*
X4517239Y4773568D02*
X4533900Y4790229D01*
Y4823552D01*
X4517239Y4840213D01*
X4450594D01*
X4433932Y4823552D01*
Y4790229D01*
X4450594Y4773568D01*
X4467255D01*
X4483916Y4790229D01*
Y4840213D01*
X4256132Y1298545D02*
Y1231900D01*
X4306116D01*
X4289455Y1265223D01*
Y1281884D01*
X4306116Y1298545D01*
X4339439D01*
X4356100Y1281884D01*
Y1248561D01*
X4339439Y1231900D01*
X4256132Y1331868D02*
X4322777D01*
X4356100Y1365190D01*
X4322777Y1398513D01*
X4256132D01*
X5290578Y4671582D02*
X5390545D01*
Y4721566D01*
X5373884Y4738227D01*
X5307239D01*
X5290578Y4721566D01*
Y4671582D01*
Y4838195D02*
X5307239Y4804872D01*
X5340562Y4771550D01*
X5373884D01*
X5390545Y4788211D01*
Y4821533D01*
X5373884Y4838195D01*
X5357223D01*
X5340562Y4821533D01*
Y4771550D01*
X8066132Y4597400D02*
X8166100D01*
Y4647384D01*
X8149439Y4664045D01*
X8082794D01*
X8066132Y4647384D01*
Y4597400D01*
X8166100Y4697368D02*
Y4730690D01*
Y4714029D01*
X8066132D01*
X8082794Y4697368D01*
X8066132Y4780674D02*
Y4847319D01*
X8082794D01*
X8149439Y4780674D01*
X8166100D01*
X6134100Y558800D02*
X6067455D01*
X6034132Y592123D01*
X6067455Y625445D01*
X6134100D01*
X6084116D01*
Y558800D01*
X6134100Y725413D02*
Y658768D01*
X6067455Y725413D01*
X6050794D01*
X6034132Y708752D01*
Y675429D01*
X6050794Y658768D01*
X7315200Y4114800D02*
X7442159D01*
Y4051321D01*
X7420999Y4030161D01*
X7378679D01*
X7357520Y4051321D01*
Y4114800D01*
Y4072480D02*
X7315200Y4030161D01*
X7442159Y3903202D02*
Y3987841D01*
X7315200D01*
Y3903202D01*
X7378679Y3987841D02*
Y3945521D01*
X7442159Y3860882D02*
X7315200D01*
Y3797403D01*
X7336360Y3776243D01*
X7420999D01*
X7442159Y3797403D01*
Y3860882D01*
X8928100Y431800D02*
X8861455D01*
X8828132Y465123D01*
X8861455Y498445D01*
X8928100D01*
X8878116D01*
Y431800D01*
X8928100Y531768D02*
Y565090D01*
Y548429D01*
X8828132D01*
X8844794Y531768D01*
X8928100Y681719D02*
Y615074D01*
X8861455Y681719D01*
X8844794D01*
X8828132Y665058D01*
Y631736D01*
X8844794Y615074D01*
X8861455Y715042D02*
Y731703D01*
X8878116D01*
Y715042D01*
X8861455D01*
X8911439D02*
Y731703D01*
X8928100D01*
Y715042D01*
X8911439D01*
X8844794Y964961D02*
X8828132Y948300D01*
Y914978D01*
X8844794Y898316D01*
X8861455D01*
X8878116Y914978D01*
Y948300D01*
X8894777Y964961D01*
X8911439D01*
X8928100Y948300D01*
Y914978D01*
X8911439Y898316D01*
X8928100Y1098252D02*
X8828132D01*
Y1148236D01*
X8844794Y1164897D01*
X8878116D01*
X8894777Y1148236D01*
Y1098252D01*
X8928100Y1198220D02*
X8861455D01*
X8828132Y1231542D01*
X8861455Y1264865D01*
X8928100D01*
X8878116D01*
Y1198220D01*
X8928100Y1298187D02*
X8828132D01*
Y1348171D01*
X8844794Y1364832D01*
X8878116D01*
X8894777Y1348171D01*
Y1298187D01*
Y1331510D02*
X8928100Y1364832D01*
Y1398155D02*
X8861455D01*
X8828132Y1431478D01*
X8861455Y1464800D01*
X8928100D01*
X8878116D01*
Y1398155D01*
X8928100Y1498123D02*
X8828132D01*
X8861455Y1531446D01*
X8828132Y1564768D01*
X8928100D01*
X8828132Y1664736D02*
Y1598091D01*
X8928100D01*
Y1664736D01*
X8878116Y1598091D02*
Y1631413D01*
X8828132Y1698059D02*
Y1764704D01*
Y1731381D01*
X8928100D01*
X8828132Y1864671D02*
Y1798026D01*
X8928100D01*
Y1864671D01*
X8878116Y1798026D02*
Y1831349D01*
X8928100Y1897994D02*
X8828132D01*
Y1947978D01*
X8844794Y1964639D01*
X8878116D01*
X8894777Y1947978D01*
Y1897994D01*
Y1931317D02*
X8928100Y1964639D01*
X8844794Y2164575D02*
X8828132Y2147914D01*
Y2114591D01*
X8844794Y2097930D01*
X8861455D01*
X8878116Y2114591D01*
Y2147914D01*
X8894777Y2164575D01*
X8911439D01*
X8928100Y2147914D01*
Y2114591D01*
X8911439Y2097930D01*
X8828132Y2264543D02*
Y2197898D01*
X8928100D01*
Y2264543D01*
X8878116Y2197898D02*
Y2231220D01*
X8828132Y2297865D02*
X8928100D01*
Y2364510D01*
X8828132Y2464478D02*
Y2397833D01*
X8928100D01*
Y2464478D01*
X8878116Y2397833D02*
Y2431156D01*
X8844794Y2564446D02*
X8828132Y2547785D01*
Y2514462D01*
X8844794Y2497801D01*
X8911439D01*
X8928100Y2514462D01*
Y2547785D01*
X8911439Y2564446D01*
X8828132Y2597769D02*
Y2664414D01*
Y2631091D01*
X8928100D01*
X8828132Y2797704D02*
X8928100D01*
Y2847688D01*
X8911439Y2864349D01*
X8894777D01*
X8878116Y2847688D01*
Y2797704D01*
Y2847688D01*
X8861455Y2864349D01*
X8844794D01*
X8828132Y2847688D01*
Y2797704D01*
Y2897672D02*
X8911439D01*
X8928100Y2914334D01*
Y2947656D01*
X8911439Y2964317D01*
X8828132D01*
Y2997640D02*
Y3064285D01*
Y3030962D01*
X8928100D01*
X8828132Y3097608D02*
Y3164253D01*
Y3130930D01*
X8928100D01*
X8828132Y3247559D02*
Y3214237D01*
X8844794Y3197576D01*
X8911439D01*
X8928100Y3214237D01*
Y3247559D01*
X8911439Y3264221D01*
X8844794D01*
X8828132Y3247559D01*
X8928100Y3297543D02*
X8828132D01*
X8928100Y3364188D01*
X8828132D01*
X8844794Y3464156D02*
X8828132Y3447495D01*
Y3414172D01*
X8844794Y3397511D01*
X8861455D01*
X8878116Y3414172D01*
Y3447495D01*
X8894777Y3464156D01*
X8911439D01*
X8928100Y3447495D01*
Y3414172D01*
X8911439Y3397511D01*
X381000Y1231900D02*
Y1298545D01*
X414323Y1331868D01*
X447645Y1298545D01*
Y1231900D01*
Y1281884D01*
X381000D01*
X480968Y1231900D02*
X514290D01*
X497629D01*
Y1331868D01*
X480968Y1315206D01*
X564274D02*
X580936Y1331868D01*
X614258D01*
X630919Y1315206D01*
Y1298545D01*
X614258Y1281884D01*
X597597D01*
X614258D01*
X630919Y1265223D01*
Y1248561D01*
X614258Y1231900D01*
X580936D01*
X564274Y1248561D01*
X7912100Y558800D02*
X7845455D01*
X7812132Y592123D01*
X7845455Y625445D01*
X7912100D01*
X7862116D01*
Y558800D01*
X7828794Y658768D02*
X7812132Y675429D01*
Y708752D01*
X7828794Y725413D01*
X7845455D01*
X7862116Y708752D01*
X7878777Y725413D01*
X7895439D01*
X7912100Y708752D01*
Y675429D01*
X7895439Y658768D01*
X7878777D01*
X7862116Y675429D01*
X7845455Y658768D01*
X7828794D01*
X7862116Y675429D02*
Y708752D01*
X8443868Y4864100D02*
X8343900D01*
Y4814116D01*
X8360561Y4797455D01*
X8427206D01*
X8443868Y4814116D01*
Y4864100D01*
X8343900Y4764132D02*
Y4730810D01*
Y4747471D01*
X8443868D01*
X8427206Y4764132D01*
Y4680826D02*
X8443868Y4664164D01*
Y4630842D01*
X8427206Y4614181D01*
X8410545D01*
X8393884Y4630842D01*
X8377223Y4614181D01*
X8360561D01*
X8343900Y4630842D01*
Y4664164D01*
X8360561Y4680826D01*
X8377223D01*
X8393884Y4664164D01*
X8410545Y4680826D01*
X8427206D01*
X8393884Y4664164D02*
Y4630842D01*
X8410545Y4580858D02*
Y4564197D01*
X8393884D01*
Y4580858D01*
X8410545D01*
X8360561D02*
Y4564197D01*
X8343900D01*
Y4580858D01*
X8360561D01*
X8443868Y4397584D02*
X8343900D01*
Y4330939D01*
X8443868Y4230971D02*
Y4297616D01*
X8343900D01*
Y4230971D01*
X8393884Y4297616D02*
Y4264293D01*
X8443868Y4197648D02*
X8343900D01*
Y4147664D01*
X8360561Y4131003D01*
X8427206D01*
X8443868Y4147664D01*
Y4197648D01*
X7150100Y558800D02*
X7083455D01*
X7050132Y592123D01*
X7083455Y625445D01*
X7150100D01*
X7100116D01*
Y558800D01*
X7050132Y725413D02*
X7066794Y692090D01*
X7100116Y658768D01*
X7133439D01*
X7150100Y675429D01*
Y708752D01*
X7133439Y725413D01*
X7116777D01*
X7100116Y708752D01*
Y658768D01*
X6293878Y4671582D02*
X6393845D01*
Y4721566D01*
X6377184Y4738227D01*
X6310539D01*
X6293878Y4721566D01*
Y4671582D01*
X6393845Y4838195D02*
Y4771550D01*
X6327200Y4838195D01*
X6310539D01*
X6293878Y4821533D01*
Y4788211D01*
X6310539Y4771550D01*
X8420100Y558800D02*
X8353455D01*
X8320132Y592123D01*
X8353455Y625445D01*
X8420100D01*
X8370116D01*
Y558800D01*
X8420100Y658768D02*
Y692090D01*
Y675429D01*
X8320132D01*
X8336794Y658768D01*
Y742074D02*
X8320132Y758736D01*
Y792058D01*
X8336794Y808719D01*
X8403439D01*
X8420100Y792058D01*
Y758736D01*
X8403439Y742074D01*
X8336794D01*
X6896100Y558800D02*
X6829455D01*
X6796132Y592123D01*
X6829455Y625445D01*
X6896100D01*
X6846116D01*
Y558800D01*
X6796132Y725413D02*
Y658768D01*
X6846116D01*
X6829455Y692090D01*
Y708752D01*
X6846116Y725413D01*
X6879439D01*
X6896100Y708752D01*
Y675429D01*
X6879439Y658768D01*
X6311900Y4102100D02*
X6438859D01*
Y4038621D01*
X6417699Y4017461D01*
X6375379D01*
X6354220Y4038621D01*
Y4102100D01*
Y4059780D02*
X6311900Y4017461D01*
X6438859Y3890502D02*
Y3975141D01*
X6311900D01*
Y3890502D01*
X6375379Y3975141D02*
Y3932821D01*
X6438859Y3848182D02*
X6311900D01*
Y3784703D01*
X6333060Y3763543D01*
X6417699D01*
X6438859Y3784703D01*
Y3848182D01*
X4539494Y1273145D02*
X4522832Y1256484D01*
Y1223161D01*
X4539494Y1206500D01*
X4606139D01*
X4622800Y1223161D01*
Y1256484D01*
X4606139Y1273145D01*
X4572816D01*
Y1239823D01*
X4622800Y1306468D02*
X4522832D01*
X4622800Y1373113D01*
X4522832D01*
Y1406436D02*
X4622800D01*
Y1456419D01*
X4606139Y1473081D01*
X4539494D01*
X4522832Y1456419D01*
Y1406436D01*
X698499Y1397001D02*
Y1439320D01*
Y1418160D01*
X571541D01*
X592700Y1397001D01*
Y1502800D02*
X571541Y1523959D01*
Y1566279D01*
X592700Y1587439D01*
X677340D01*
X698499Y1566279D01*
Y1523959D01*
X677340Y1502800D01*
X592700D01*
Y1629758D02*
X571541Y1650918D01*
Y1693238D01*
X592700Y1714398D01*
X677340D01*
X698499Y1693238D01*
Y1650918D01*
X677340Y1629758D01*
X592700D01*
X698499Y1756717D02*
X571541D01*
X656180D02*
X613860Y1820197D01*
X656180Y1756717D02*
X698499Y1820197D01*
X5257800Y2258011D02*
X5300120D01*
X5278960D01*
Y2384970D01*
X5257800Y2363810D01*
X5363599D02*
X5384759Y2384970D01*
X5427079D01*
X5448239Y2363810D01*
Y2279170D01*
X5427079Y2258011D01*
X5384759D01*
X5363599Y2279170D01*
Y2363810D01*
X5490558D02*
X5511718Y2384970D01*
X5554037D01*
X5575197Y2363810D01*
Y2279170D01*
X5554037Y2258011D01*
X5511718D01*
X5490558Y2279170D01*
Y2363810D01*
X5617517D02*
X5638677Y2384970D01*
X5680996D01*
X5702156Y2363810D01*
Y2279170D01*
X5680996Y2258011D01*
X5638677D01*
X5617517Y2279170D01*
Y2363810D01*
X5871435Y2342650D02*
Y2279170D01*
X5892594Y2258011D01*
X5956074D01*
Y2342650D01*
X6083033Y2384970D02*
X5998393D01*
Y2321490D01*
X6040713D01*
X5998393D01*
Y2258011D01*
X5257800Y2044700D02*
X5300120D01*
X5278960D01*
Y2171659D01*
X5257800Y2150499D01*
X5448239Y2171659D02*
X5405919Y2150499D01*
X5363599Y2108179D01*
Y2065860D01*
X5384759Y2044700D01*
X5427079D01*
X5448239Y2065860D01*
Y2087020D01*
X5427079Y2108179D01*
X5363599D01*
X5617517Y2171659D02*
Y2087020D01*
X5659837Y2044700D01*
X5702156Y2087020D01*
Y2171659D01*
X447645Y290468D02*
X381000D01*
Y240484D01*
X414323Y257145D01*
X430984D01*
X447645Y240484D01*
Y207161D01*
X430984Y190500D01*
X397661D01*
X381000Y207161D01*
X480968Y290468D02*
Y223823D01*
X514290Y190500D01*
X547613Y223823D01*
Y290468D01*
X5638800Y1219200D02*
X5511841D01*
Y1282679D01*
X5533001Y1303839D01*
X5575321D01*
X5596480Y1282679D01*
Y1219200D01*
Y1261520D02*
X5638800Y1303839D01*
X5511841Y1430798D02*
Y1346159D01*
X5638800D01*
Y1430798D01*
X5575321Y1346159D02*
Y1388479D01*
X5511841Y1473118D02*
X5638800D01*
Y1536597D01*
X5617640Y1557757D01*
X5533001D01*
X5511841Y1536597D01*
Y1473118D01*
X4780794Y536545D02*
X4764132Y519884D01*
Y486561D01*
X4780794Y469900D01*
X4847439D01*
X4864100Y486561D01*
Y519884D01*
X4847439Y536545D01*
X4814116D01*
Y503223D01*
X4864100Y569868D02*
X4764132D01*
X4864100Y636513D01*
X4764132D01*
Y669836D02*
X4864100D01*
Y719819D01*
X4847439Y736481D01*
X4780794D01*
X4764132Y719819D01*
Y669836D01*
X5050499Y4671903D02*
X5150467D01*
Y4721887D01*
X5133805Y4738548D01*
X5067160D01*
X5050499Y4721887D01*
Y4671903D01*
Y4771871D02*
Y4838516D01*
X5067160D01*
X5133805Y4771871D01*
X5150467D01*
X434945Y527806D02*
X418284Y544468D01*
X384961D01*
X368300Y527806D01*
Y461161D01*
X384961Y444500D01*
X418284D01*
X434945Y461161D01*
Y494484D01*
X401623D01*
X468268Y444500D02*
Y544468D01*
X534913Y444500D01*
Y544468D01*
X568236D02*
Y444500D01*
X618219D01*
X634881Y461161D01*
Y527806D01*
X618219Y544468D01*
X568236D01*
X8085701Y3136900D02*
X8064541Y3158060D01*
Y3200379D01*
X8085701Y3221539D01*
X8106861D01*
X8128021Y3200379D01*
Y3179220D01*
Y3200379D01*
X8149180Y3221539D01*
X8170340D01*
X8191500Y3200379D01*
Y3158060D01*
X8170340Y3136900D01*
X8085701Y3263859D02*
X8064541Y3285019D01*
Y3327338D01*
X8085701Y3348498D01*
X8106861D01*
X8128021Y3327338D01*
Y3306179D01*
Y3327338D01*
X8149180Y3348498D01*
X8170340D01*
X8191500Y3327338D01*
Y3285019D01*
X8170340Y3263859D01*
X8085701Y3390818D02*
X8064541Y3411977D01*
Y3454297D01*
X8085701Y3475457D01*
X8170340D01*
X8191500Y3454297D01*
Y3411977D01*
X8170340Y3390818D01*
X8085701D01*
X7812132Y4597400D02*
X7912100D01*
Y4647384D01*
X7895439Y4664045D01*
X7828794D01*
X7812132Y4647384D01*
Y4597400D01*
X7912100Y4697368D02*
Y4730690D01*
Y4714029D01*
X7812132D01*
X7828794Y4697368D01*
X7812132Y4847319D02*
X7828794Y4813997D01*
X7862116Y4780674D01*
X7895439D01*
X7912100Y4797336D01*
Y4830658D01*
X7895439Y4847319D01*
X7878777D01*
X7862116Y4830658D01*
Y4780674D01*
X6052578Y4671582D02*
X6152545D01*
Y4721566D01*
X6135884Y4738227D01*
X6069239D01*
X6052578Y4721566D01*
Y4671582D01*
X6069239Y4771550D02*
X6052578Y4788211D01*
Y4821533D01*
X6069239Y4838195D01*
X6085900D01*
X6102562Y4821533D01*
Y4804872D01*
Y4821533D01*
X6119223Y4838195D01*
X6135884D01*
X6152545Y4821533D01*
Y4788211D01*
X6135884Y4771550D01*
X1498599Y1612901D02*
Y1655220D01*
Y1634060D01*
X1371641D01*
X1392800Y1612901D01*
Y1718700D02*
X1371641Y1739859D01*
Y1782179D01*
X1392800Y1803339D01*
X1477440D01*
X1498599Y1782179D01*
Y1739859D01*
X1477440Y1718700D01*
X1392800D01*
Y1845658D02*
X1371641Y1866818D01*
Y1909138D01*
X1392800Y1930298D01*
X1477440D01*
X1498599Y1909138D01*
Y1866818D01*
X1477440Y1845658D01*
X1392800D01*
X1498599Y1972617D02*
X1371641D01*
X1456280D02*
X1413960Y2036097D01*
X1456280Y1972617D02*
X1498599Y2036097D01*
X7558132Y4597400D02*
X7658100D01*
Y4647384D01*
X7641439Y4664045D01*
X7574794D01*
X7558132Y4647384D01*
Y4597400D01*
X7658100Y4697368D02*
Y4730690D01*
Y4714029D01*
X7558132D01*
X7574794Y4697368D01*
X7558132Y4847319D02*
Y4780674D01*
X7608116D01*
X7591455Y4813997D01*
Y4830658D01*
X7608116Y4847319D01*
X7641439D01*
X7658100Y4830658D01*
Y4797336D01*
X7641439Y4780674D01*
X7404100Y558800D02*
X7337455D01*
X7304132Y592123D01*
X7337455Y625445D01*
X7404100D01*
X7354116D01*
Y558800D01*
X7304132Y658768D02*
Y725413D01*
X7320794D01*
X7387439Y658768D01*
X7404100D01*
X8166100Y558800D02*
X8099455D01*
X8066132Y592123D01*
X8099455Y625445D01*
X8166100D01*
X8116116D01*
Y558800D01*
X8149439Y658768D02*
X8166100Y675429D01*
Y708752D01*
X8149439Y725413D01*
X8082794D01*
X8066132Y708752D01*
Y675429D01*
X8082794Y658768D01*
X8099455D01*
X8116116Y675429D01*
Y725413D01*
X4700632Y4673600D02*
X4800600D01*
Y4723584D01*
X4783939Y4740245D01*
X4717294D01*
X4700632Y4723584D01*
Y4673600D01*
X4717294Y4773568D02*
X4700632Y4790229D01*
Y4823552D01*
X4717294Y4840213D01*
X4733955D01*
X4750616Y4823552D01*
X4767277Y4840213D01*
X4783939D01*
X4800600Y4823552D01*
Y4790229D01*
X4783939Y4773568D01*
X4767277D01*
X4750616Y4790229D01*
X4733955Y4773568D01*
X4717294D01*
X4750616Y4790229D02*
Y4823552D01*
X7304132Y4597400D02*
X7404100D01*
Y4647384D01*
X7387439Y4664045D01*
X7320794D01*
X7304132Y4647384D01*
Y4597400D01*
X7404100Y4697368D02*
Y4730690D01*
Y4714029D01*
X7304132D01*
X7320794Y4697368D01*
X7404100Y4830658D02*
X7304132D01*
X7354116Y4780674D01*
Y4847319D01*
X5626100Y558800D02*
X5559455D01*
X5526132Y592123D01*
X5559455Y625445D01*
X5626100D01*
X5576116D01*
Y558800D01*
X5542794Y658768D02*
X5526132Y675429D01*
Y708752D01*
X5542794Y725413D01*
X5609439D01*
X5626100Y708752D01*
Y675429D01*
X5609439Y658768D01*
X5542794D01*
D23*
X8026400Y1549301D02*
Y1244600D01*
X8178751D01*
X8229534Y1295383D01*
Y1346167D01*
X8178751Y1396951D01*
X8026400D01*
X8178751D01*
X8229534Y1447734D01*
Y1498518D01*
X8178751Y1549301D01*
X8026400D01*
X8534236Y1244600D02*
X8331101D01*
X8534236Y1447734D01*
Y1498518D01*
X8483452Y1549301D01*
X8381885D01*
X8331101Y1498518D01*
X7594600Y4102001D02*
Y3797300D01*
X7746951D01*
X7797734Y3848083D01*
Y3898867D01*
X7746951Y3949651D01*
X7594600D01*
X7746951D01*
X7797734Y4000434D01*
Y4051218D01*
X7746951Y4102001D01*
X7594600D01*
X7899301Y3797300D02*
X8000869D01*
X7950085D01*
Y4102001D01*
X7899301Y4051218D01*
X5295900Y3797300D02*
Y4000434D01*
X5397467Y4102001D01*
X5499034Y4000434D01*
Y3797300D01*
Y3949651D01*
X5295900D01*
X5930834Y1485818D02*
X5880051Y1536601D01*
X5778483D01*
X5727700Y1485818D01*
Y1282683D01*
X5778483Y1231900D01*
X5880051D01*
X5930834Y1282683D01*
D24*
X422690Y3946527D02*
X362226Y3916295D01*
X301763Y3855832D01*
X271532Y3795369D01*
X241300Y3704674D01*
Y3553516D01*
X271532Y3462821D01*
X301763Y3402358D01*
X362226Y3341895D01*
X422690Y3311663D01*
X543616D01*
X604079Y3341895D01*
X664543Y3402358D01*
X694774Y3462821D01*
X725006Y3553516D01*
Y3704674D01*
X694774Y3795369D01*
X664543Y3855832D01*
X604079Y3916295D01*
X543616Y3946527D01*
X422690D01*
X513385Y3432590D02*
X694774Y3251200D01*
X873141Y3946527D02*
Y3311663D01*
Y3946527D02*
X1296383Y3311663D01*
Y3946527D02*
Y3311663D01*
X1955433D02*
X1713580Y3946527D01*
X1471727Y3311663D01*
X1562422Y3523285D02*
X1864738D01*
%TF.MD5,046c5651a2b16fcab26d64e21d559d87*%
M02*
