%TF.GenerationSoftware,Altium Limited,Altium Designer,24.1.2 (44)*%
G04 Layer_Physical_Order=2*
G04 Layer_Color=16711680*
%FSLAX45Y45*%
%MOMM*%
%TF.SameCoordinates,7D1D8A4D-2C7A-4F71-9711-01752012572A*%
%TF.FilePolarity,Positive*%
%TF.FileFunction,Copper,L2,Bot,Signal*%
%TF.Part,Single*%
G01*
G75*
%TA.AperFunction,Conductor*%
%ADD10C,0.63500*%
%TA.AperFunction,ComponentPad*%
%ADD11C,1.37160*%
%ADD12C,1.37000*%
%ADD13R,1.37000X1.37000*%
%ADD14R,1.37000X1.37000*%
%ADD15C,1.35000*%
%ADD16R,1.35000X1.35000*%
%ADD17C,1.39700*%
%TA.AperFunction,ViaPad*%
%ADD18C,0.71120*%
G36*
X9867154Y38847D02*
X38847Y38846D01*
Y1333500D01*
Y4000500D01*
Y5295153D01*
X9867153Y5295153D01*
X9867154Y38847D01*
D02*
G37*
%LPC*%
G36*
X3162300Y5173810D02*
Y5092700D01*
X3243410D01*
X3237101Y5116244D01*
X3224739Y5137656D01*
X3207256Y5155139D01*
X3185844Y5167501D01*
X3162300Y5173810D01*
D02*
G37*
G36*
X3136900D02*
X3113356Y5167501D01*
X3091944Y5155139D01*
X3074461Y5137656D01*
X3062099Y5116244D01*
X3055790Y5092700D01*
X3136900D01*
Y5173810D01*
D02*
G37*
G36*
X3243410Y5067300D02*
X3162300D01*
Y4986190D01*
X3185844Y4992499D01*
X3207256Y5004861D01*
X3224739Y5022344D01*
X3237101Y5043756D01*
X3243410Y5067300D01*
D02*
G37*
G36*
X3136900D02*
X3055790D01*
X3062099Y5043756D01*
X3074461Y5022344D01*
X3091944Y5004861D01*
X3113356Y4992499D01*
X3136900Y4986190D01*
Y5067300D01*
D02*
G37*
G36*
X9156362Y5173900D02*
X9131638D01*
X9107756Y5167501D01*
X9086344Y5155139D01*
X9068861Y5137656D01*
X9056499Y5116244D01*
X9050100Y5092362D01*
Y5067638D01*
X9056499Y5043756D01*
X9068861Y5022344D01*
X9086344Y5004861D01*
X9107756Y4992499D01*
X9131638Y4986100D01*
X9156362D01*
X9180244Y4992499D01*
X9201656Y5004861D01*
X9219139Y5022344D01*
X9231501Y5043756D01*
X9237900Y5067638D01*
Y5092362D01*
X9231501Y5116244D01*
X9219139Y5137656D01*
X9201656Y5155139D01*
X9180244Y5167501D01*
X9156362Y5173900D01*
D02*
G37*
G36*
X8902362D02*
X8877638D01*
X8853756Y5167501D01*
X8832344Y5155139D01*
X8814861Y5137656D01*
X8802499Y5116244D01*
X8796100Y5092362D01*
Y5067638D01*
X8802499Y5043756D01*
X8814861Y5022344D01*
X8832344Y5004861D01*
X8853756Y4992499D01*
X8877638Y4986100D01*
X8902362D01*
X8926244Y4992499D01*
X8947656Y5004861D01*
X8965139Y5022344D01*
X8977501Y5043756D01*
X8983900Y5067638D01*
Y5092362D01*
X8977501Y5116244D01*
X8965139Y5137656D01*
X8947656Y5155139D01*
X8926244Y5167501D01*
X8902362Y5173900D01*
D02*
G37*
G36*
X8648362D02*
X8623638D01*
X8599756Y5167501D01*
X8578344Y5155139D01*
X8560861Y5137656D01*
X8548499Y5116244D01*
X8542100Y5092362D01*
Y5067638D01*
X8548499Y5043756D01*
X8560861Y5022344D01*
X8578344Y5004861D01*
X8599756Y4992499D01*
X8623638Y4986100D01*
X8648362D01*
X8672244Y4992499D01*
X8693656Y5004861D01*
X8711139Y5022344D01*
X8723501Y5043756D01*
X8729900Y5067638D01*
Y5092362D01*
X8723501Y5116244D01*
X8711139Y5137656D01*
X8693656Y5155139D01*
X8672244Y5167501D01*
X8648362Y5173900D01*
D02*
G37*
G36*
X8394362D02*
X8369638D01*
X8345756Y5167501D01*
X8324344Y5155139D01*
X8306861Y5137656D01*
X8294499Y5116244D01*
X8288100Y5092362D01*
Y5067638D01*
X8294499Y5043756D01*
X8306861Y5022344D01*
X8324344Y5004861D01*
X8345756Y4992499D01*
X8369638Y4986100D01*
X8394362D01*
X8418244Y4992499D01*
X8439656Y5004861D01*
X8457139Y5022344D01*
X8469501Y5043756D01*
X8475900Y5067638D01*
Y5092362D01*
X8469501Y5116244D01*
X8457139Y5137656D01*
X8439656Y5155139D01*
X8418244Y5167501D01*
X8394362Y5173900D01*
D02*
G37*
G36*
X8140362D02*
X8115638D01*
X8091756Y5167501D01*
X8070344Y5155139D01*
X8052861Y5137656D01*
X8040499Y5116244D01*
X8034100Y5092362D01*
Y5067638D01*
X8040499Y5043756D01*
X8052861Y5022344D01*
X8070344Y5004861D01*
X8091756Y4992499D01*
X8115638Y4986100D01*
X8140362D01*
X8164244Y4992499D01*
X8185656Y5004861D01*
X8203139Y5022344D01*
X8215501Y5043756D01*
X8221900Y5067638D01*
Y5092362D01*
X8215501Y5116244D01*
X8203139Y5137656D01*
X8185656Y5155139D01*
X8164244Y5167501D01*
X8140362Y5173900D01*
D02*
G37*
G36*
X7886362D02*
X7861638D01*
X7837756Y5167501D01*
X7816344Y5155139D01*
X7798861Y5137656D01*
X7786499Y5116244D01*
X7780100Y5092362D01*
Y5067638D01*
X7786499Y5043756D01*
X7798861Y5022344D01*
X7816344Y5004861D01*
X7837756Y4992499D01*
X7861638Y4986100D01*
X7886362D01*
X7910244Y4992499D01*
X7931656Y5004861D01*
X7949139Y5022344D01*
X7961501Y5043756D01*
X7967900Y5067638D01*
Y5092362D01*
X7961501Y5116244D01*
X7949139Y5137656D01*
X7931656Y5155139D01*
X7910244Y5167501D01*
X7886362Y5173900D01*
D02*
G37*
G36*
X7632362D02*
X7607638D01*
X7583756Y5167501D01*
X7562344Y5155139D01*
X7544861Y5137656D01*
X7532499Y5116244D01*
X7526100Y5092362D01*
Y5067638D01*
X7532499Y5043756D01*
X7544861Y5022344D01*
X7562344Y5004861D01*
X7583756Y4992499D01*
X7607638Y4986100D01*
X7632362D01*
X7656244Y4992499D01*
X7677656Y5004861D01*
X7695139Y5022344D01*
X7707501Y5043756D01*
X7713900Y5067638D01*
Y5092362D01*
X7707501Y5116244D01*
X7695139Y5137656D01*
X7677656Y5155139D01*
X7656244Y5167501D01*
X7632362Y5173900D01*
D02*
G37*
G36*
X7459900D02*
X7272100D01*
Y4986100D01*
X7459900D01*
Y5173900D01*
D02*
G37*
G36*
X6870362D02*
X6845638D01*
X6821756Y5167501D01*
X6800344Y5155139D01*
X6782861Y5137656D01*
X6770499Y5116244D01*
X6764100Y5092362D01*
Y5067638D01*
X6770499Y5043756D01*
X6782861Y5022344D01*
X6800344Y5004861D01*
X6821756Y4992499D01*
X6845638Y4986100D01*
X6870362D01*
X6894244Y4992499D01*
X6915656Y5004861D01*
X6933139Y5022344D01*
X6945501Y5043756D01*
X6951900Y5067638D01*
Y5092362D01*
X6945501Y5116244D01*
X6933139Y5137656D01*
X6915656Y5155139D01*
X6894244Y5167501D01*
X6870362Y5173900D01*
D02*
G37*
G36*
X6616362D02*
X6591638D01*
X6567756Y5167501D01*
X6546344Y5155139D01*
X6528861Y5137656D01*
X6516499Y5116244D01*
X6510100Y5092362D01*
Y5067638D01*
X6516499Y5043756D01*
X6528861Y5022344D01*
X6546344Y5004861D01*
X6567756Y4992499D01*
X6591638Y4986100D01*
X6616362D01*
X6640244Y4992499D01*
X6661656Y5004861D01*
X6679139Y5022344D01*
X6691501Y5043756D01*
X6697900Y5067638D01*
Y5092362D01*
X6691501Y5116244D01*
X6679139Y5137656D01*
X6661656Y5155139D01*
X6640244Y5167501D01*
X6616362Y5173900D01*
D02*
G37*
G36*
X6362362D02*
X6337638D01*
X6313756Y5167501D01*
X6292344Y5155139D01*
X6274861Y5137656D01*
X6262499Y5116244D01*
X6256100Y5092362D01*
Y5067638D01*
X6262499Y5043756D01*
X6274861Y5022344D01*
X6292344Y5004861D01*
X6313756Y4992499D01*
X6337638Y4986100D01*
X6362362D01*
X6386244Y4992499D01*
X6407656Y5004861D01*
X6425139Y5022344D01*
X6437501Y5043756D01*
X6443900Y5067638D01*
Y5092362D01*
X6437501Y5116244D01*
X6425139Y5137656D01*
X6407656Y5155139D01*
X6386244Y5167501D01*
X6362362Y5173900D01*
D02*
G37*
G36*
X6108362D02*
X6083638D01*
X6059756Y5167501D01*
X6038344Y5155139D01*
X6020861Y5137656D01*
X6008499Y5116244D01*
X6002100Y5092362D01*
Y5067638D01*
X6008499Y5043756D01*
X6020861Y5022344D01*
X6038344Y5004861D01*
X6059756Y4992499D01*
X6083638Y4986100D01*
X6108362D01*
X6132244Y4992499D01*
X6153656Y5004861D01*
X6171139Y5022344D01*
X6183501Y5043756D01*
X6189900Y5067638D01*
Y5092362D01*
X6183501Y5116244D01*
X6171139Y5137656D01*
X6153656Y5155139D01*
X6132244Y5167501D01*
X6108362Y5173900D01*
D02*
G37*
G36*
X5854362D02*
X5829638D01*
X5805756Y5167501D01*
X5784344Y5155139D01*
X5766861Y5137656D01*
X5754499Y5116244D01*
X5748100Y5092362D01*
Y5067638D01*
X5754499Y5043756D01*
X5766861Y5022344D01*
X5784344Y5004861D01*
X5805756Y4992499D01*
X5829638Y4986100D01*
X5854362D01*
X5878244Y4992499D01*
X5899656Y5004861D01*
X5917139Y5022344D01*
X5929501Y5043756D01*
X5935900Y5067638D01*
Y5092362D01*
X5929501Y5116244D01*
X5917139Y5137656D01*
X5899656Y5155139D01*
X5878244Y5167501D01*
X5854362Y5173900D01*
D02*
G37*
G36*
X5600362D02*
X5575638D01*
X5551756Y5167501D01*
X5530344Y5155139D01*
X5512861Y5137656D01*
X5500499Y5116244D01*
X5494100Y5092362D01*
Y5067638D01*
X5500499Y5043756D01*
X5512861Y5022344D01*
X5530344Y5004861D01*
X5551756Y4992499D01*
X5575638Y4986100D01*
X5600362D01*
X5624244Y4992499D01*
X5645656Y5004861D01*
X5663139Y5022344D01*
X5675501Y5043756D01*
X5681900Y5067638D01*
Y5092362D01*
X5675501Y5116244D01*
X5663139Y5137656D01*
X5645656Y5155139D01*
X5624244Y5167501D01*
X5600362Y5173900D01*
D02*
G37*
G36*
X5346362D02*
X5321638D01*
X5297756Y5167501D01*
X5276344Y5155139D01*
X5258861Y5137656D01*
X5246499Y5116244D01*
X5240100Y5092362D01*
Y5067638D01*
X5246499Y5043756D01*
X5258861Y5022344D01*
X5276344Y5004861D01*
X5297756Y4992499D01*
X5321638Y4986100D01*
X5346362D01*
X5370244Y4992499D01*
X5391656Y5004861D01*
X5409139Y5022344D01*
X5421501Y5043756D01*
X5427900Y5067638D01*
Y5092362D01*
X5421501Y5116244D01*
X5409139Y5137656D01*
X5391656Y5155139D01*
X5370244Y5167501D01*
X5346362Y5173900D01*
D02*
G37*
G36*
X5173900D02*
X4986100D01*
Y4986100D01*
X5173900D01*
Y5173900D01*
D02*
G37*
G36*
X4685962D02*
X4661238D01*
X4637356Y5167501D01*
X4615944Y5155139D01*
X4598461Y5137656D01*
X4586099Y5116244D01*
X4579700Y5092362D01*
Y5067638D01*
X4586099Y5043756D01*
X4598461Y5022344D01*
X4615944Y5004861D01*
X4637356Y4992499D01*
X4661238Y4986100D01*
X4685962D01*
X4709844Y4992499D01*
X4731256Y5004861D01*
X4748739Y5022344D01*
X4761101Y5043756D01*
X4767500Y5067638D01*
Y5092362D01*
X4761101Y5116244D01*
X4748739Y5137656D01*
X4731256Y5155139D01*
X4709844Y5167501D01*
X4685962Y5173900D01*
D02*
G37*
G36*
X4431962D02*
X4407238D01*
X4383356Y5167501D01*
X4361944Y5155139D01*
X4344461Y5137656D01*
X4332099Y5116244D01*
X4325700Y5092362D01*
Y5067638D01*
X4332099Y5043756D01*
X4344461Y5022344D01*
X4361944Y5004861D01*
X4383356Y4992499D01*
X4407238Y4986100D01*
X4431962D01*
X4455844Y4992499D01*
X4477256Y5004861D01*
X4494739Y5022344D01*
X4507101Y5043756D01*
X4513500Y5067638D01*
Y5092362D01*
X4507101Y5116244D01*
X4494739Y5137656D01*
X4477256Y5155139D01*
X4455844Y5167501D01*
X4431962Y5173900D01*
D02*
G37*
G36*
X4177962D02*
X4153238D01*
X4129356Y5167501D01*
X4107944Y5155139D01*
X4090461Y5137656D01*
X4078099Y5116244D01*
X4071700Y5092362D01*
Y5067638D01*
X4078099Y5043756D01*
X4090461Y5022344D01*
X4107944Y5004861D01*
X4129356Y4992499D01*
X4153238Y4986100D01*
X4177962D01*
X4201844Y4992499D01*
X4223256Y5004861D01*
X4240739Y5022344D01*
X4253101Y5043756D01*
X4259500Y5067638D01*
Y5092362D01*
X4253101Y5116244D01*
X4240739Y5137656D01*
X4223256Y5155139D01*
X4201844Y5167501D01*
X4177962Y5173900D01*
D02*
G37*
G36*
X3923962D02*
X3899238D01*
X3875356Y5167501D01*
X3853944Y5155139D01*
X3836461Y5137656D01*
X3824099Y5116244D01*
X3817700Y5092362D01*
Y5067638D01*
X3824099Y5043756D01*
X3836461Y5022344D01*
X3853944Y5004861D01*
X3875356Y4992499D01*
X3899238Y4986100D01*
X3923962D01*
X3947844Y4992499D01*
X3969256Y5004861D01*
X3986739Y5022344D01*
X3999101Y5043756D01*
X4005500Y5067638D01*
Y5092362D01*
X3999101Y5116244D01*
X3986739Y5137656D01*
X3969256Y5155139D01*
X3947844Y5167501D01*
X3923962Y5173900D01*
D02*
G37*
G36*
X3669962D02*
X3645238D01*
X3621356Y5167501D01*
X3599944Y5155139D01*
X3582461Y5137656D01*
X3570099Y5116244D01*
X3563700Y5092362D01*
Y5067638D01*
X3570099Y5043756D01*
X3582461Y5022344D01*
X3599944Y5004861D01*
X3621356Y4992499D01*
X3645238Y4986100D01*
X3669962D01*
X3693844Y4992499D01*
X3715256Y5004861D01*
X3732739Y5022344D01*
X3745101Y5043756D01*
X3751500Y5067638D01*
Y5092362D01*
X3745101Y5116244D01*
X3732739Y5137656D01*
X3715256Y5155139D01*
X3693844Y5167501D01*
X3669962Y5173900D01*
D02*
G37*
G36*
X3415962D02*
X3391238D01*
X3367356Y5167501D01*
X3345944Y5155139D01*
X3328461Y5137656D01*
X3316099Y5116244D01*
X3309700Y5092362D01*
Y5067638D01*
X3316099Y5043756D01*
X3328461Y5022344D01*
X3345944Y5004861D01*
X3367356Y4992499D01*
X3391238Y4986100D01*
X3415962D01*
X3439844Y4992499D01*
X3461256Y5004861D01*
X3478739Y5022344D01*
X3491101Y5043756D01*
X3497500Y5067638D01*
Y5092362D01*
X3491101Y5116244D01*
X3478739Y5137656D01*
X3461256Y5155139D01*
X3439844Y5167501D01*
X3415962Y5173900D01*
D02*
G37*
G36*
X2907962D02*
X2883238D01*
X2859356Y5167501D01*
X2837944Y5155139D01*
X2820461Y5137656D01*
X2808099Y5116244D01*
X2801700Y5092362D01*
Y5067638D01*
X2808099Y5043756D01*
X2820461Y5022344D01*
X2837944Y5004861D01*
X2859356Y4992499D01*
X2883238Y4986100D01*
X2907962D01*
X2931844Y4992499D01*
X2953256Y5004861D01*
X2970739Y5022344D01*
X2983101Y5043756D01*
X2989500Y5067638D01*
Y5092362D01*
X2983101Y5116244D01*
X2970739Y5137656D01*
X2953256Y5155139D01*
X2931844Y5167501D01*
X2907962Y5173900D01*
D02*
G37*
G36*
X2653962D02*
X2629238D01*
X2605356Y5167501D01*
X2583944Y5155139D01*
X2566461Y5137656D01*
X2554099Y5116244D01*
X2547700Y5092362D01*
Y5067638D01*
X2554099Y5043756D01*
X2566461Y5022344D01*
X2583944Y5004861D01*
X2605356Y4992499D01*
X2629238Y4986100D01*
X2653962D01*
X2677844Y4992499D01*
X2699256Y5004861D01*
X2716739Y5022344D01*
X2729101Y5043756D01*
X2735500Y5067638D01*
Y5092362D01*
X2729101Y5116244D01*
X2716739Y5137656D01*
X2699256Y5155139D01*
X2677844Y5167501D01*
X2653962Y5173900D01*
D02*
G37*
G36*
X2481500D02*
X2293700D01*
Y4986100D01*
X2481500D01*
Y5173900D01*
D02*
G37*
G36*
X8221900Y4411900D02*
X8034100D01*
Y4224100D01*
X8221900D01*
Y4411900D01*
D02*
G37*
G36*
X7886362D02*
X7861638D01*
X7837756Y4405501D01*
X7816344Y4393139D01*
X7798861Y4375656D01*
X7786499Y4354244D01*
X7780100Y4330362D01*
Y4305638D01*
X7786499Y4281756D01*
X7798861Y4260344D01*
X7816344Y4242861D01*
X7837756Y4230499D01*
X7861638Y4224100D01*
X7886362D01*
X7910244Y4230499D01*
X7931656Y4242861D01*
X7949139Y4260344D01*
X7961501Y4281756D01*
X7967900Y4305638D01*
Y4330362D01*
X7961501Y4354244D01*
X7949139Y4375656D01*
X7931656Y4393139D01*
X7910244Y4405501D01*
X7886362Y4411900D01*
D02*
G37*
G36*
X7632362D02*
X7607638D01*
X7583756Y4405501D01*
X7562344Y4393139D01*
X7544861Y4375656D01*
X7532499Y4354244D01*
X7526100Y4330362D01*
Y4305638D01*
X7532499Y4281756D01*
X7544861Y4260344D01*
X7562344Y4242861D01*
X7583756Y4230499D01*
X7607638Y4224100D01*
X7632362D01*
X7656244Y4230499D01*
X7677656Y4242861D01*
X7695139Y4260344D01*
X7707501Y4281756D01*
X7713900Y4305638D01*
Y4330362D01*
X7707501Y4354244D01*
X7695139Y4375656D01*
X7677656Y4393139D01*
X7656244Y4405501D01*
X7632362Y4411900D01*
D02*
G37*
G36*
X7378362D02*
X7353638D01*
X7329756Y4405501D01*
X7308344Y4393139D01*
X7290861Y4375656D01*
X7278499Y4354244D01*
X7272100Y4330362D01*
Y4305638D01*
X7278499Y4281756D01*
X7290861Y4260344D01*
X7308344Y4242861D01*
X7329756Y4230499D01*
X7353638Y4224100D01*
X7378362D01*
X7402244Y4230499D01*
X7423656Y4242861D01*
X7441139Y4260344D01*
X7453501Y4281756D01*
X7459900Y4305638D01*
Y4330362D01*
X7453501Y4354244D01*
X7441139Y4375656D01*
X7423656Y4393139D01*
X7402244Y4405501D01*
X7378362Y4411900D01*
D02*
G37*
G36*
X6443900D02*
X6256100D01*
Y4224100D01*
X6443900D01*
Y4411900D01*
D02*
G37*
G36*
X6108362D02*
X6083638D01*
X6059756Y4405501D01*
X6038344Y4393139D01*
X6020861Y4375656D01*
X6008499Y4354244D01*
X6002100Y4330362D01*
Y4305638D01*
X6008499Y4281756D01*
X6020861Y4260344D01*
X6038344Y4242861D01*
X6059756Y4230499D01*
X6083638Y4224100D01*
X6108362D01*
X6132244Y4230499D01*
X6153656Y4242861D01*
X6171139Y4260344D01*
X6183501Y4281756D01*
X6189900Y4305638D01*
Y4330362D01*
X6183501Y4354244D01*
X6171139Y4375656D01*
X6153656Y4393139D01*
X6132244Y4405501D01*
X6108362Y4411900D01*
D02*
G37*
G36*
X5854362D02*
X5829638D01*
X5805756Y4405501D01*
X5784344Y4393139D01*
X5766861Y4375656D01*
X5754499Y4354244D01*
X5748100Y4330362D01*
Y4305638D01*
X5754499Y4281756D01*
X5766861Y4260344D01*
X5784344Y4242861D01*
X5805756Y4230499D01*
X5829638Y4224100D01*
X5854362D01*
X5878244Y4230499D01*
X5899656Y4242861D01*
X5917139Y4260344D01*
X5929501Y4281756D01*
X5935900Y4305638D01*
Y4330362D01*
X5929501Y4354244D01*
X5917139Y4375656D01*
X5899656Y4393139D01*
X5878244Y4405501D01*
X5854362Y4411900D01*
D02*
G37*
G36*
X5600362D02*
X5575638D01*
X5551756Y4405501D01*
X5530344Y4393139D01*
X5512861Y4375656D01*
X5500499Y4354244D01*
X5494100Y4330362D01*
Y4305638D01*
X5500499Y4281756D01*
X5512861Y4260344D01*
X5530344Y4242861D01*
X5551756Y4230499D01*
X5575638Y4224100D01*
X5600362D01*
X5624244Y4230499D01*
X5645656Y4242861D01*
X5663139Y4260344D01*
X5675501Y4281756D01*
X5681900Y4305638D01*
Y4330362D01*
X5675501Y4354244D01*
X5663139Y4375656D01*
X5645656Y4393139D01*
X5624244Y4405501D01*
X5600362Y4411900D01*
D02*
G37*
G36*
X5346362D02*
X5321638D01*
X5297756Y4405501D01*
X5276344Y4393139D01*
X5258861Y4375656D01*
X5246499Y4354244D01*
X5240100Y4330362D01*
Y4305638D01*
X5246499Y4281756D01*
X5258861Y4260344D01*
X5276344Y4242861D01*
X5297756Y4230499D01*
X5321638Y4224100D01*
X5346362D01*
X5370244Y4230499D01*
X5391656Y4242861D01*
X5409139Y4260344D01*
X5421501Y4281756D01*
X5427900Y4305638D01*
Y4330362D01*
X5421501Y4354244D01*
X5409139Y4375656D01*
X5391656Y4393139D01*
X5370244Y4405501D01*
X5346362Y4411900D01*
D02*
G37*
G36*
X5092362D02*
X5067638D01*
X5043756Y4405501D01*
X5022344Y4393139D01*
X5004861Y4375656D01*
X4992499Y4354244D01*
X4986100Y4330362D01*
Y4305638D01*
X4992499Y4281756D01*
X5004861Y4260344D01*
X5022344Y4242861D01*
X5043756Y4230499D01*
X5067638Y4224100D01*
X5092362D01*
X5116244Y4230499D01*
X5137656Y4242861D01*
X5155139Y4260344D01*
X5167501Y4281756D01*
X5173900Y4305638D01*
Y4330362D01*
X5167501Y4354244D01*
X5155139Y4375656D01*
X5137656Y4393139D01*
X5116244Y4405501D01*
X5092362Y4411900D01*
D02*
G37*
G36*
X4838362D02*
X4813638D01*
X4789756Y4405501D01*
X4768344Y4393139D01*
X4750861Y4375656D01*
X4738499Y4354244D01*
X4732100Y4330362D01*
Y4305638D01*
X4738499Y4281756D01*
X4750861Y4260344D01*
X4768344Y4242861D01*
X4789756Y4230499D01*
X4813638Y4224100D01*
X4838362D01*
X4862244Y4230499D01*
X4883656Y4242861D01*
X4901139Y4260344D01*
X4913501Y4281756D01*
X4919900Y4305638D01*
Y4330362D01*
X4913501Y4354244D01*
X4901139Y4375656D01*
X4883656Y4393139D01*
X4862244Y4405501D01*
X4838362Y4411900D01*
D02*
G37*
G36*
X4584362D02*
X4559638D01*
X4535756Y4405501D01*
X4514344Y4393139D01*
X4496861Y4375656D01*
X4484499Y4354244D01*
X4478100Y4330362D01*
Y4305638D01*
X4484499Y4281756D01*
X4496861Y4260344D01*
X4514344Y4242861D01*
X4535756Y4230499D01*
X4559638Y4224100D01*
X4584362D01*
X4608244Y4230499D01*
X4629656Y4242861D01*
X4647139Y4260344D01*
X4659501Y4281756D01*
X4665900Y4305638D01*
Y4330362D01*
X4659501Y4354244D01*
X4647139Y4375656D01*
X4629656Y4393139D01*
X4608244Y4405501D01*
X4584362Y4411900D01*
D02*
G37*
G36*
X8394231Y3906800D02*
X8369769D01*
X8346142Y3900469D01*
X8324958Y3888238D01*
X8307662Y3870942D01*
X8295431Y3849758D01*
X8289100Y3826131D01*
Y3801669D01*
X8295431Y3778042D01*
X8307662Y3756858D01*
X8324958Y3739561D01*
X8346142Y3727331D01*
X8369769Y3721000D01*
X8394231D01*
X8417858Y3727331D01*
X8439042Y3739561D01*
X8456338Y3756858D01*
X8468569Y3778042D01*
X8474900Y3801669D01*
Y3826131D01*
X8468569Y3849758D01*
X8456338Y3870942D01*
X8439042Y3888238D01*
X8417858Y3900469D01*
X8394231Y3906800D01*
D02*
G37*
G36*
X8474900Y2806800D02*
X8289100D01*
Y2621000D01*
X8474900D01*
Y2806800D01*
D02*
G37*
G36*
X1219200Y2458874D02*
Y2378800D01*
X1299274D01*
X1293069Y2401958D01*
X1280838Y2423142D01*
X1263542Y2440438D01*
X1242358Y2452669D01*
X1219200Y2458874D01*
D02*
G37*
G36*
X1193800D02*
X1170642Y2452669D01*
X1149458Y2440438D01*
X1132162Y2423142D01*
X1119931Y2401958D01*
X1113726Y2378800D01*
X1193800D01*
Y2458874D01*
D02*
G37*
G36*
X1299274Y2353400D02*
X1219200D01*
Y2273326D01*
X1242358Y2279531D01*
X1263542Y2291761D01*
X1280838Y2309058D01*
X1293069Y2330242D01*
X1299274Y2353400D01*
D02*
G37*
G36*
X1193800D02*
X1113726D01*
X1119931Y2330242D01*
X1132162Y2309058D01*
X1149458Y2291761D01*
X1170642Y2279531D01*
X1193800Y2273326D01*
Y2353400D01*
D02*
G37*
G36*
X4813300Y2329092D02*
Y2247900D01*
X4894492D01*
X4888175Y2271475D01*
X4875803Y2292905D01*
X4858305Y2310403D01*
X4836875Y2322775D01*
X4813300Y2329092D01*
D02*
G37*
G36*
X4787900D02*
X4764325Y2322775D01*
X4742895Y2310403D01*
X4725397Y2292905D01*
X4713025Y2271475D01*
X4706708Y2247900D01*
X4787900D01*
Y2329092D01*
D02*
G37*
G36*
X4894492Y2222500D02*
X4813300D01*
Y2141308D01*
X4836875Y2147625D01*
X4858305Y2159997D01*
X4875803Y2177495D01*
X4888175Y2198925D01*
X4894492Y2222500D01*
D02*
G37*
G36*
X4787900D02*
X4706708D01*
X4713025Y2198925D01*
X4725397Y2177495D01*
X4742895Y2159997D01*
X4764325Y2147625D01*
X4787900Y2141308D01*
Y2222500D01*
D02*
G37*
G36*
X889000Y2204874D02*
Y2124800D01*
X969074D01*
X962869Y2147958D01*
X950638Y2169142D01*
X933342Y2186438D01*
X912158Y2198669D01*
X889000Y2204874D01*
D02*
G37*
G36*
X863600D02*
X840442Y2198669D01*
X819258Y2186438D01*
X801962Y2169142D01*
X789731Y2147958D01*
X783526Y2124800D01*
X863600D01*
Y2204874D01*
D02*
G37*
G36*
X969074Y2099400D02*
X889000D01*
Y2019326D01*
X912158Y2025531D01*
X933342Y2037761D01*
X950638Y2055058D01*
X962869Y2076242D01*
X969074Y2099400D01*
D02*
G37*
G36*
X863600D02*
X783526D01*
X789731Y2076242D01*
X801962Y2055058D01*
X819258Y2037761D01*
X840442Y2025531D01*
X863600Y2019326D01*
Y2099400D01*
D02*
G37*
G36*
X202862Y1363900D02*
X178138D01*
X154256Y1357501D01*
X132844Y1345139D01*
X115361Y1327656D01*
X102999Y1306244D01*
X96600Y1282362D01*
Y1257638D01*
X102999Y1233756D01*
X115361Y1212344D01*
X132844Y1194861D01*
X154256Y1182499D01*
X178138Y1176100D01*
X202862D01*
X226744Y1182499D01*
X248156Y1194861D01*
X265639Y1212344D01*
X278001Y1233756D01*
X284400Y1257638D01*
Y1282362D01*
X278001Y1306244D01*
X265639Y1327656D01*
X248156Y1345139D01*
X226744Y1357501D01*
X202862Y1363900D01*
D02*
G37*
G36*
X1299400Y1359000D02*
X1113600D01*
Y1173200D01*
X1299400D01*
Y1359000D01*
D02*
G37*
G36*
X2564826Y1800860D02*
X2540574D01*
X2518169Y1791579D01*
X2501021Y1774431D01*
X2491740Y1752026D01*
Y1727774D01*
X2494430Y1721279D01*
Y1123521D01*
X2491740Y1117026D01*
Y1092774D01*
X2501021Y1070369D01*
X2518169Y1053221D01*
X2540574Y1043940D01*
X2564826D01*
X2587231Y1053221D01*
X2604379Y1070369D01*
X2613660Y1092774D01*
Y1117026D01*
X2610970Y1123521D01*
Y1721279D01*
X2613660Y1727774D01*
Y1752026D01*
X2604379Y1774431D01*
X2587231Y1791579D01*
X2564826Y1800860D01*
D02*
G37*
G36*
X4584700Y1111207D02*
Y1028700D01*
X4667207D01*
X4660759Y1052765D01*
X4648219Y1074485D01*
X4630485Y1092219D01*
X4608765Y1104759D01*
X4584700Y1111207D01*
D02*
G37*
G36*
X4559300D02*
X4535235Y1104759D01*
X4513515Y1092219D01*
X4495781Y1074485D01*
X4483241Y1052765D01*
X4476793Y1028700D01*
X4559300D01*
Y1111207D01*
D02*
G37*
G36*
X8648362Y1109900D02*
X8623638D01*
X8599756Y1103501D01*
X8578344Y1091139D01*
X8560861Y1073656D01*
X8548499Y1052244D01*
X8542100Y1028362D01*
Y1003638D01*
X8548499Y979756D01*
X8560861Y958344D01*
X8578344Y940861D01*
X8599756Y928499D01*
X8623638Y922100D01*
X8648362D01*
X8672244Y928499D01*
X8693656Y940861D01*
X8711139Y958344D01*
X8723501Y979756D01*
X8729900Y1003638D01*
Y1028362D01*
X8723501Y1052244D01*
X8711139Y1073656D01*
X8693656Y1091139D01*
X8672244Y1103501D01*
X8648362Y1109900D01*
D02*
G37*
G36*
X8394362D02*
X8369638D01*
X8345756Y1103501D01*
X8324344Y1091139D01*
X8306861Y1073656D01*
X8294499Y1052244D01*
X8288100Y1028362D01*
Y1003638D01*
X8294499Y979756D01*
X8306861Y958344D01*
X8324344Y940861D01*
X8345756Y928499D01*
X8369638Y922100D01*
X8394362D01*
X8418244Y928499D01*
X8439656Y940861D01*
X8457139Y958344D01*
X8469501Y979756D01*
X8475900Y1003638D01*
Y1028362D01*
X8469501Y1052244D01*
X8457139Y1073656D01*
X8439656Y1091139D01*
X8418244Y1103501D01*
X8394362Y1109900D01*
D02*
G37*
G36*
X8140362D02*
X8115638D01*
X8091756Y1103501D01*
X8070344Y1091139D01*
X8052861Y1073656D01*
X8040499Y1052244D01*
X8034100Y1028362D01*
Y1003638D01*
X8040499Y979756D01*
X8052861Y958344D01*
X8070344Y940861D01*
X8091756Y928499D01*
X8115638Y922100D01*
X8140362D01*
X8164244Y928499D01*
X8185656Y940861D01*
X8203139Y958344D01*
X8215501Y979756D01*
X8221900Y1003638D01*
Y1028362D01*
X8215501Y1052244D01*
X8203139Y1073656D01*
X8185656Y1091139D01*
X8164244Y1103501D01*
X8140362Y1109900D01*
D02*
G37*
G36*
X7967900D02*
X7780100D01*
Y922100D01*
X7967900D01*
Y1109900D01*
D02*
G37*
G36*
X7378362D02*
X7353638D01*
X7329756Y1103501D01*
X7308344Y1091139D01*
X7290861Y1073656D01*
X7278499Y1052244D01*
X7272100Y1028362D01*
Y1003638D01*
X7278499Y979756D01*
X7290861Y958344D01*
X7308344Y940861D01*
X7329756Y928499D01*
X7353638Y922100D01*
X7378362D01*
X7402244Y928499D01*
X7423656Y940861D01*
X7441139Y958344D01*
X7453501Y979756D01*
X7459900Y1003638D01*
Y1028362D01*
X7453501Y1052244D01*
X7441139Y1073656D01*
X7423656Y1091139D01*
X7402244Y1103501D01*
X7378362Y1109900D01*
D02*
G37*
G36*
X7124362D02*
X7099638D01*
X7075756Y1103501D01*
X7054344Y1091139D01*
X7036861Y1073656D01*
X7024499Y1052244D01*
X7018100Y1028362D01*
Y1003638D01*
X7024499Y979756D01*
X7036861Y958344D01*
X7054344Y940861D01*
X7075756Y928499D01*
X7099638Y922100D01*
X7124362D01*
X7148244Y928499D01*
X7169656Y940861D01*
X7187139Y958344D01*
X7199501Y979756D01*
X7205900Y1003638D01*
Y1028362D01*
X7199501Y1052244D01*
X7187139Y1073656D01*
X7169656Y1091139D01*
X7148244Y1103501D01*
X7124362Y1109900D01*
D02*
G37*
G36*
X6870362D02*
X6845638D01*
X6821756Y1103501D01*
X6800344Y1091139D01*
X6782861Y1073656D01*
X6770499Y1052244D01*
X6764100Y1028362D01*
Y1003638D01*
X6770499Y979756D01*
X6782861Y958344D01*
X6800344Y940861D01*
X6821756Y928499D01*
X6845638Y922100D01*
X6870362D01*
X6894244Y928499D01*
X6915656Y940861D01*
X6933139Y958344D01*
X6945501Y979756D01*
X6951900Y1003638D01*
Y1028362D01*
X6945501Y1052244D01*
X6933139Y1073656D01*
X6915656Y1091139D01*
X6894244Y1103501D01*
X6870362Y1109900D01*
D02*
G37*
G36*
X6616362D02*
X6591638D01*
X6567756Y1103501D01*
X6546344Y1091139D01*
X6528861Y1073656D01*
X6516499Y1052244D01*
X6510100Y1028362D01*
Y1003638D01*
X6516499Y979756D01*
X6528861Y958344D01*
X6546344Y940861D01*
X6567756Y928499D01*
X6591638Y922100D01*
X6616362D01*
X6640244Y928499D01*
X6661656Y940861D01*
X6679139Y958344D01*
X6691501Y979756D01*
X6697900Y1003638D01*
Y1028362D01*
X6691501Y1052244D01*
X6679139Y1073656D01*
X6661656Y1091139D01*
X6640244Y1103501D01*
X6616362Y1109900D01*
D02*
G37*
G36*
X6362362D02*
X6337638D01*
X6313756Y1103501D01*
X6292344Y1091139D01*
X6274861Y1073656D01*
X6262499Y1052244D01*
X6256100Y1028362D01*
Y1003638D01*
X6262499Y979756D01*
X6274861Y958344D01*
X6292344Y940861D01*
X6313756Y928499D01*
X6337638Y922100D01*
X6362362D01*
X6386244Y928499D01*
X6407656Y940861D01*
X6425139Y958344D01*
X6437501Y979756D01*
X6443900Y1003638D01*
Y1028362D01*
X6437501Y1052244D01*
X6425139Y1073656D01*
X6407656Y1091139D01*
X6386244Y1103501D01*
X6362362Y1109900D01*
D02*
G37*
G36*
X6108362D02*
X6083638D01*
X6059756Y1103501D01*
X6038344Y1091139D01*
X6020861Y1073656D01*
X6008499Y1052244D01*
X6002100Y1028362D01*
Y1003638D01*
X6008499Y979756D01*
X6020861Y958344D01*
X6038344Y940861D01*
X6059756Y928499D01*
X6083638Y922100D01*
X6108362D01*
X6132244Y928499D01*
X6153656Y940861D01*
X6171139Y958344D01*
X6183501Y979756D01*
X6189900Y1003638D01*
Y1028362D01*
X6183501Y1052244D01*
X6171139Y1073656D01*
X6153656Y1091139D01*
X6132244Y1103501D01*
X6108362Y1109900D01*
D02*
G37*
G36*
X5854362D02*
X5829638D01*
X5805756Y1103501D01*
X5784344Y1091139D01*
X5766861Y1073656D01*
X5754499Y1052244D01*
X5748100Y1028362D01*
Y1003638D01*
X5754499Y979756D01*
X5766861Y958344D01*
X5784344Y940861D01*
X5805756Y928499D01*
X5829638Y922100D01*
X5854362D01*
X5878244Y928499D01*
X5899656Y940861D01*
X5917139Y958344D01*
X5929501Y979756D01*
X5935900Y1003638D01*
Y1028362D01*
X5929501Y1052244D01*
X5917139Y1073656D01*
X5899656Y1091139D01*
X5878244Y1103501D01*
X5854362Y1109900D01*
D02*
G37*
G36*
X5681900D02*
X5494100D01*
Y922100D01*
X5681900D01*
Y1109900D01*
D02*
G37*
G36*
X202862D02*
X178138D01*
X154256Y1103501D01*
X132844Y1091139D01*
X115361Y1073656D01*
X102999Y1052244D01*
X96600Y1028362D01*
Y1003638D01*
X102999Y979756D01*
X115361Y958344D01*
X132844Y940861D01*
X154256Y928499D01*
X178138Y922100D01*
X202862D01*
X226744Y928499D01*
X248156Y940861D01*
X265639Y958344D01*
X278001Y979756D01*
X284400Y1003638D01*
Y1028362D01*
X278001Y1052244D01*
X265639Y1073656D01*
X248156Y1091139D01*
X226744Y1103501D01*
X202862Y1109900D01*
D02*
G37*
G36*
X4667207Y1003300D02*
X4584700D01*
Y920793D01*
X4608765Y927241D01*
X4630485Y939781D01*
X4648219Y957515D01*
X4660759Y979235D01*
X4667207Y1003300D01*
D02*
G37*
G36*
X4559300D02*
X4476793D01*
X4483241Y979235D01*
X4495781Y957515D01*
X4513515Y939781D01*
X4535235Y927241D01*
X4559300Y920793D01*
Y1003300D01*
D02*
G37*
G36*
X4312973Y2329180D02*
X4288227D01*
X4264325Y2322775D01*
X4242895Y2310403D01*
X4225397Y2292905D01*
X4213025Y2271475D01*
X4206620Y2247573D01*
Y2222827D01*
X4213025Y2198925D01*
X4225397Y2177495D01*
X4242330Y2160562D01*
Y1075034D01*
X4241781Y1074485D01*
X4229241Y1052765D01*
X4222750Y1028540D01*
Y1003460D01*
X4229241Y979235D01*
X4241781Y957515D01*
X4259515Y939781D01*
X4281235Y927241D01*
X4305460Y920750D01*
X4330540D01*
X4354765Y927241D01*
X4376485Y939781D01*
X4394219Y957515D01*
X4406759Y979235D01*
X4413250Y1003460D01*
Y1028540D01*
X4406759Y1052765D01*
X4394219Y1074485D01*
X4376485Y1092219D01*
X4358870Y1102389D01*
Y2160562D01*
X4375803Y2177495D01*
X4388175Y2198925D01*
X4394580Y2222827D01*
Y2247573D01*
X4388175Y2271475D01*
X4375803Y2292905D01*
X4358305Y2310403D01*
X4336875Y2322775D01*
X4312973Y2329180D01*
D02*
G37*
G36*
X969200Y1105000D02*
X783400D01*
Y919200D01*
X969200D01*
Y1105000D01*
D02*
G37*
G36*
X202862Y855900D02*
X178138D01*
X154256Y849501D01*
X132844Y837139D01*
X115361Y819656D01*
X102999Y798244D01*
X96600Y774362D01*
Y749638D01*
X102999Y725756D01*
X115361Y704344D01*
X132844Y686861D01*
X154256Y674499D01*
X178138Y668100D01*
X202862D01*
X226744Y674499D01*
X248156Y686861D01*
X265639Y704344D01*
X278001Y725756D01*
X284400Y749638D01*
Y774362D01*
X278001Y798244D01*
X265639Y819656D01*
X248156Y837139D01*
X226744Y849501D01*
X202862Y855900D01*
D02*
G37*
G36*
X203200Y601810D02*
Y520700D01*
X284310D01*
X278001Y544244D01*
X265639Y565656D01*
X248156Y583139D01*
X226744Y595501D01*
X203200Y601810D01*
D02*
G37*
G36*
X177800D02*
X154256Y595501D01*
X132844Y583139D01*
X115361Y565656D01*
X102999Y544244D01*
X96690Y520700D01*
X177800D01*
Y601810D01*
D02*
G37*
G36*
X284310Y495300D02*
X203200D01*
Y414190D01*
X226744Y420499D01*
X248156Y432861D01*
X265639Y450344D01*
X278001Y471756D01*
X284310Y495300D01*
D02*
G37*
G36*
X177800D02*
X96690D01*
X102999Y471756D01*
X115361Y450344D01*
X132844Y432861D01*
X154256Y420499D01*
X177800Y414190D01*
Y495300D01*
D02*
G37*
G36*
X4838700Y347810D02*
Y266700D01*
X4919810D01*
X4913501Y290244D01*
X4901139Y311656D01*
X4883656Y329139D01*
X4862244Y341501D01*
X4838700Y347810D01*
D02*
G37*
G36*
X4813300D02*
X4789756Y341501D01*
X4768344Y329139D01*
X4750861Y311656D01*
X4738499Y290244D01*
X4732190Y266700D01*
X4813300D01*
Y347810D01*
D02*
G37*
G36*
X4584700D02*
Y266700D01*
X4665810D01*
X4659501Y290244D01*
X4647139Y311656D01*
X4629656Y329139D01*
X4608244Y341501D01*
X4584700Y347810D01*
D02*
G37*
G36*
X4559300D02*
X4535756Y341501D01*
X4514344Y329139D01*
X4496861Y311656D01*
X4484499Y290244D01*
X4478190Y266700D01*
X4559300D01*
Y347810D01*
D02*
G37*
G36*
X4919810Y241300D02*
X4838700D01*
Y160190D01*
X4862244Y166499D01*
X4883656Y178861D01*
X4901139Y196344D01*
X4913501Y217756D01*
X4919810Y241300D01*
D02*
G37*
G36*
X4813300D02*
X4732190D01*
X4738499Y217756D01*
X4750861Y196344D01*
X4768344Y178861D01*
X4789756Y166499D01*
X4813300Y160190D01*
Y241300D01*
D02*
G37*
G36*
X4665810D02*
X4584700D01*
Y160190D01*
X4608244Y166499D01*
X4629656Y178861D01*
X4647139Y196344D01*
X4659501Y217756D01*
X4665810Y241300D01*
D02*
G37*
G36*
X4559300D02*
X4478190D01*
X4484499Y217756D01*
X4496861Y196344D01*
X4514344Y178861D01*
X4535756Y166499D01*
X4559300Y160190D01*
Y241300D01*
D02*
G37*
G36*
X9745900Y347900D02*
X9558100D01*
Y160100D01*
X9745900D01*
Y347900D01*
D02*
G37*
G36*
X9410362D02*
X9385638D01*
X9361756Y341501D01*
X9340344Y329139D01*
X9322861Y311656D01*
X9310499Y290244D01*
X9304100Y266362D01*
Y241638D01*
X9310499Y217756D01*
X9322861Y196344D01*
X9340344Y178861D01*
X9361756Y166499D01*
X9385638Y160100D01*
X9410362D01*
X9434244Y166499D01*
X9455656Y178861D01*
X9473139Y196344D01*
X9485501Y217756D01*
X9491900Y241638D01*
Y266362D01*
X9485501Y290244D01*
X9473139Y311656D01*
X9455656Y329139D01*
X9434244Y341501D01*
X9410362Y347900D01*
D02*
G37*
G36*
X9156362D02*
X9131638D01*
X9107756Y341501D01*
X9086344Y329139D01*
X9068861Y311656D01*
X9056499Y290244D01*
X9050100Y266362D01*
Y241638D01*
X9056499Y217756D01*
X9068861Y196344D01*
X9086344Y178861D01*
X9107756Y166499D01*
X9131638Y160100D01*
X9156362D01*
X9180244Y166499D01*
X9201656Y178861D01*
X9219139Y196344D01*
X9231501Y217756D01*
X9237900Y241638D01*
Y266362D01*
X9231501Y290244D01*
X9219139Y311656D01*
X9201656Y329139D01*
X9180244Y341501D01*
X9156362Y347900D01*
D02*
G37*
G36*
X8902362D02*
X8877638D01*
X8853756Y341501D01*
X8832344Y329139D01*
X8814861Y311656D01*
X8802499Y290244D01*
X8796100Y266362D01*
Y241638D01*
X8802499Y217756D01*
X8814861Y196344D01*
X8832344Y178861D01*
X8853756Y166499D01*
X8877638Y160100D01*
X8902362D01*
X8926244Y166499D01*
X8947656Y178861D01*
X8965139Y196344D01*
X8977501Y217756D01*
X8983900Y241638D01*
Y266362D01*
X8977501Y290244D01*
X8965139Y311656D01*
X8947656Y329139D01*
X8926244Y341501D01*
X8902362Y347900D01*
D02*
G37*
G36*
X8648362D02*
X8623638D01*
X8599756Y341501D01*
X8578344Y329139D01*
X8560861Y311656D01*
X8548499Y290244D01*
X8542100Y266362D01*
Y241638D01*
X8548499Y217756D01*
X8560861Y196344D01*
X8578344Y178861D01*
X8599756Y166499D01*
X8623638Y160100D01*
X8648362D01*
X8672244Y166499D01*
X8693656Y178861D01*
X8711139Y196344D01*
X8723501Y217756D01*
X8729900Y241638D01*
Y266362D01*
X8723501Y290244D01*
X8711139Y311656D01*
X8693656Y329139D01*
X8672244Y341501D01*
X8648362Y347900D01*
D02*
G37*
G36*
X8394362D02*
X8369638D01*
X8345756Y341501D01*
X8324344Y329139D01*
X8306861Y311656D01*
X8294499Y290244D01*
X8288100Y266362D01*
Y241638D01*
X8294499Y217756D01*
X8306861Y196344D01*
X8324344Y178861D01*
X8345756Y166499D01*
X8369638Y160100D01*
X8394362D01*
X8418244Y166499D01*
X8439656Y178861D01*
X8457139Y196344D01*
X8469501Y217756D01*
X8475900Y241638D01*
Y266362D01*
X8469501Y290244D01*
X8457139Y311656D01*
X8439656Y329139D01*
X8418244Y341501D01*
X8394362Y347900D01*
D02*
G37*
G36*
X8140362D02*
X8115638D01*
X8091756Y341501D01*
X8070344Y329139D01*
X8052861Y311656D01*
X8040499Y290244D01*
X8034100Y266362D01*
Y241638D01*
X8040499Y217756D01*
X8052861Y196344D01*
X8070344Y178861D01*
X8091756Y166499D01*
X8115638Y160100D01*
X8140362D01*
X8164244Y166499D01*
X8185656Y178861D01*
X8203139Y196344D01*
X8215501Y217756D01*
X8221900Y241638D01*
Y266362D01*
X8215501Y290244D01*
X8203139Y311656D01*
X8185656Y329139D01*
X8164244Y341501D01*
X8140362Y347900D01*
D02*
G37*
G36*
X7886362D02*
X7861638D01*
X7837756Y341501D01*
X7816344Y329139D01*
X7798861Y311656D01*
X7786499Y290244D01*
X7780100Y266362D01*
Y241638D01*
X7786499Y217756D01*
X7798861Y196344D01*
X7816344Y178861D01*
X7837756Y166499D01*
X7861638Y160100D01*
X7886362D01*
X7910244Y166499D01*
X7931656Y178861D01*
X7949139Y196344D01*
X7961501Y217756D01*
X7967900Y241638D01*
Y266362D01*
X7961501Y290244D01*
X7949139Y311656D01*
X7931656Y329139D01*
X7910244Y341501D01*
X7886362Y347900D01*
D02*
G37*
G36*
X7459900D02*
X7272100D01*
Y160100D01*
X7459900D01*
Y347900D01*
D02*
G37*
G36*
X7124362D02*
X7099638D01*
X7075756Y341501D01*
X7054344Y329139D01*
X7036861Y311656D01*
X7024499Y290244D01*
X7018100Y266362D01*
Y241638D01*
X7024499Y217756D01*
X7036861Y196344D01*
X7054344Y178861D01*
X7075756Y166499D01*
X7099638Y160100D01*
X7124362D01*
X7148244Y166499D01*
X7169656Y178861D01*
X7187139Y196344D01*
X7199501Y217756D01*
X7205900Y241638D01*
Y266362D01*
X7199501Y290244D01*
X7187139Y311656D01*
X7169656Y329139D01*
X7148244Y341501D01*
X7124362Y347900D01*
D02*
G37*
G36*
X6870362D02*
X6845638D01*
X6821756Y341501D01*
X6800344Y329139D01*
X6782861Y311656D01*
X6770499Y290244D01*
X6764100Y266362D01*
Y241638D01*
X6770499Y217756D01*
X6782861Y196344D01*
X6800344Y178861D01*
X6821756Y166499D01*
X6845638Y160100D01*
X6870362D01*
X6894244Y166499D01*
X6915656Y178861D01*
X6933139Y196344D01*
X6945501Y217756D01*
X6951900Y241638D01*
Y266362D01*
X6945501Y290244D01*
X6933139Y311656D01*
X6915656Y329139D01*
X6894244Y341501D01*
X6870362Y347900D01*
D02*
G37*
G36*
X6616362D02*
X6591638D01*
X6567756Y341501D01*
X6546344Y329139D01*
X6528861Y311656D01*
X6516499Y290244D01*
X6510100Y266362D01*
Y241638D01*
X6516499Y217756D01*
X6528861Y196344D01*
X6546344Y178861D01*
X6567756Y166499D01*
X6591638Y160100D01*
X6616362D01*
X6640244Y166499D01*
X6661656Y178861D01*
X6679139Y196344D01*
X6691501Y217756D01*
X6697900Y241638D01*
Y266362D01*
X6691501Y290244D01*
X6679139Y311656D01*
X6661656Y329139D01*
X6640244Y341501D01*
X6616362Y347900D01*
D02*
G37*
G36*
X6362362D02*
X6337638D01*
X6313756Y341501D01*
X6292344Y329139D01*
X6274861Y311656D01*
X6262499Y290244D01*
X6256100Y266362D01*
Y241638D01*
X6262499Y217756D01*
X6274861Y196344D01*
X6292344Y178861D01*
X6313756Y166499D01*
X6337638Y160100D01*
X6362362D01*
X6386244Y166499D01*
X6407656Y178861D01*
X6425139Y196344D01*
X6437501Y217756D01*
X6443900Y241638D01*
Y266362D01*
X6437501Y290244D01*
X6425139Y311656D01*
X6407656Y329139D01*
X6386244Y341501D01*
X6362362Y347900D01*
D02*
G37*
G36*
X6108362D02*
X6083638D01*
X6059756Y341501D01*
X6038344Y329139D01*
X6020861Y311656D01*
X6008499Y290244D01*
X6002100Y266362D01*
Y241638D01*
X6008499Y217756D01*
X6020861Y196344D01*
X6038344Y178861D01*
X6059756Y166499D01*
X6083638Y160100D01*
X6108362D01*
X6132244Y166499D01*
X6153656Y178861D01*
X6171139Y196344D01*
X6183501Y217756D01*
X6189900Y241638D01*
Y266362D01*
X6183501Y290244D01*
X6171139Y311656D01*
X6153656Y329139D01*
X6132244Y341501D01*
X6108362Y347900D01*
D02*
G37*
G36*
X5854362D02*
X5829638D01*
X5805756Y341501D01*
X5784344Y329139D01*
X5766861Y311656D01*
X5754499Y290244D01*
X5748100Y266362D01*
Y241638D01*
X5754499Y217756D01*
X5766861Y196344D01*
X5784344Y178861D01*
X5805756Y166499D01*
X5829638Y160100D01*
X5854362D01*
X5878244Y166499D01*
X5899656Y178861D01*
X5917139Y196344D01*
X5929501Y217756D01*
X5935900Y241638D01*
Y266362D01*
X5929501Y290244D01*
X5917139Y311656D01*
X5899656Y329139D01*
X5878244Y341501D01*
X5854362Y347900D01*
D02*
G37*
G36*
X5600362D02*
X5575638D01*
X5551756Y341501D01*
X5530344Y329139D01*
X5512861Y311656D01*
X5500499Y290244D01*
X5494100Y266362D01*
Y241638D01*
X5500499Y217756D01*
X5512861Y196344D01*
X5530344Y178861D01*
X5551756Y166499D01*
X5575638Y160100D01*
X5600362D01*
X5624244Y166499D01*
X5645656Y178861D01*
X5663139Y196344D01*
X5675501Y217756D01*
X5681900Y241638D01*
Y266362D01*
X5675501Y290244D01*
X5663139Y311656D01*
X5645656Y329139D01*
X5624244Y341501D01*
X5600362Y347900D01*
D02*
G37*
G36*
X5092362D02*
X5067638D01*
X5043756Y341501D01*
X5022344Y329139D01*
X5004861Y311656D01*
X4992499Y290244D01*
X4986100Y266362D01*
Y241638D01*
X4992499Y217756D01*
X5004861Y196344D01*
X5022344Y178861D01*
X5043756Y166499D01*
X5067638Y160100D01*
X5092362D01*
X5116244Y166499D01*
X5137656Y178861D01*
X5155139Y196344D01*
X5167501Y217756D01*
X5173900Y241638D01*
Y266362D01*
X5167501Y290244D01*
X5155139Y311656D01*
X5137656Y329139D01*
X5116244Y341501D01*
X5092362Y347900D01*
D02*
G37*
G36*
X4330362D02*
X4305638D01*
X4281756Y341501D01*
X4260344Y329139D01*
X4242861Y311656D01*
X4230499Y290244D01*
X4224100Y266362D01*
Y241638D01*
X4230499Y217756D01*
X4242861Y196344D01*
X4260344Y178861D01*
X4281756Y166499D01*
X4305638Y160100D01*
X4330362D01*
X4354244Y166499D01*
X4375656Y178861D01*
X4393139Y196344D01*
X4405501Y217756D01*
X4411900Y241638D01*
Y266362D01*
X4405501Y290244D01*
X4393139Y311656D01*
X4375656Y329139D01*
X4354244Y341501D01*
X4330362Y347900D01*
D02*
G37*
G36*
X4076362D02*
X4051638D01*
X4027756Y341501D01*
X4006344Y329139D01*
X3988861Y311656D01*
X3976499Y290244D01*
X3970100Y266362D01*
Y241638D01*
X3976499Y217756D01*
X3988861Y196344D01*
X4006344Y178861D01*
X4027756Y166499D01*
X4051638Y160100D01*
X4076362D01*
X4100244Y166499D01*
X4121656Y178861D01*
X4139139Y196344D01*
X4151501Y217756D01*
X4157900Y241638D01*
Y266362D01*
X4151501Y290244D01*
X4139139Y311656D01*
X4121656Y329139D01*
X4100244Y341501D01*
X4076362Y347900D01*
D02*
G37*
G36*
X3822362D02*
X3797638D01*
X3773756Y341501D01*
X3752344Y329139D01*
X3734861Y311656D01*
X3722499Y290244D01*
X3716100Y266362D01*
Y241638D01*
X3722499Y217756D01*
X3734861Y196344D01*
X3752344Y178861D01*
X3773756Y166499D01*
X3797638Y160100D01*
X3822362D01*
X3846244Y166499D01*
X3867656Y178861D01*
X3885139Y196344D01*
X3897501Y217756D01*
X3903900Y241638D01*
Y266362D01*
X3897501Y290244D01*
X3885139Y311656D01*
X3867656Y329139D01*
X3846244Y341501D01*
X3822362Y347900D01*
D02*
G37*
G36*
X3568362D02*
X3543638D01*
X3519756Y341501D01*
X3498344Y329139D01*
X3480861Y311656D01*
X3468499Y290244D01*
X3462100Y266362D01*
Y241638D01*
X3468499Y217756D01*
X3480861Y196344D01*
X3498344Y178861D01*
X3519756Y166499D01*
X3543638Y160100D01*
X3568362D01*
X3592244Y166499D01*
X3613656Y178861D01*
X3631139Y196344D01*
X3643501Y217756D01*
X3649900Y241638D01*
Y266362D01*
X3643501Y290244D01*
X3631139Y311656D01*
X3613656Y329139D01*
X3592244Y341501D01*
X3568362Y347900D01*
D02*
G37*
G36*
X3395900D02*
X3208100D01*
Y160100D01*
X3395900D01*
Y347900D01*
D02*
G37*
G36*
X284400D02*
X96600D01*
Y160100D01*
X284400D01*
Y347900D01*
D02*
G37*
%LPD*%
D10*
X4300600Y1033400D02*
G03*
X4318000Y1016000I17400J0D01*
G01*
X2552700Y1104900D02*
Y1739900D01*
X4300600Y1033400D02*
Y2235200D01*
D11*
X4800600D02*
D03*
X4300600D02*
D03*
D12*
X190500Y1270000D02*
D03*
Y1016000D02*
D03*
Y762000D02*
D03*
Y508000D02*
D03*
X7874000Y254000D02*
D03*
X8128000D02*
D03*
X8382000D02*
D03*
X8636000D02*
D03*
X8890000D02*
D03*
X9144000D02*
D03*
X9398000D02*
D03*
X9144000Y5080000D02*
D03*
X8890000D02*
D03*
X8636000D02*
D03*
X8382000D02*
D03*
X8128000D02*
D03*
X7874000D02*
D03*
X7620000D02*
D03*
X5588000Y254000D02*
D03*
X5842000D02*
D03*
X6096000D02*
D03*
X6350000D02*
D03*
X6604000D02*
D03*
X6858000D02*
D03*
X7112000D02*
D03*
X7874000Y4318000D02*
D03*
X7620000D02*
D03*
X7366000D02*
D03*
X8128000Y1016000D02*
D03*
X8382000D02*
D03*
X8636000D02*
D03*
X7366000D02*
D03*
X7112000D02*
D03*
X6858000D02*
D03*
X6604000D02*
D03*
X6350000D02*
D03*
X6096000D02*
D03*
X5842000D02*
D03*
X4572000Y4318000D02*
D03*
X4826000D02*
D03*
X5080000D02*
D03*
X5334000D02*
D03*
X5588000D02*
D03*
X5842000D02*
D03*
X6096000D02*
D03*
X5080000Y254000D02*
D03*
X4826000D02*
D03*
X4572000D02*
D03*
X4318000D02*
D03*
X4064000D02*
D03*
X3810000D02*
D03*
X3556000D02*
D03*
X5334000Y5080000D02*
D03*
X5588000D02*
D03*
X5842000D02*
D03*
X6096000D02*
D03*
X6350000D02*
D03*
X6604000D02*
D03*
X6858000D02*
D03*
X4673600D02*
D03*
X4419600D02*
D03*
X4165600D02*
D03*
X3911600D02*
D03*
X3657600D02*
D03*
X3403600D02*
D03*
X3149600D02*
D03*
X2895600D02*
D03*
X2641600D02*
D03*
D13*
X190500Y254000D02*
D03*
D14*
X9652000D02*
D03*
X7366000Y5080000D02*
D03*
Y254000D02*
D03*
X8128000Y4318000D02*
D03*
X7874000Y1016000D02*
D03*
X5588000D02*
D03*
X6350000Y4318000D02*
D03*
X3302000Y254000D02*
D03*
X5080000Y5080000D02*
D03*
X2387600D02*
D03*
D15*
X1206500Y2366100D02*
D03*
X876300Y2112100D02*
D03*
X8382000Y3813900D02*
D03*
D16*
X1206500Y1266100D02*
D03*
X876300Y1012100D02*
D03*
X8382000Y2713900D02*
D03*
D17*
X4318000Y1016000D02*
D03*
X4572000D02*
D03*
D18*
X2552700Y1739900D02*
D03*
Y1104900D02*
D03*
%TF.MD5,9194b0b610ecbaf78abc9f114136527c*%
M02*
