%TF.GenerationSoftware,Altium Limited,Altium Designer,24.1.2 (44)*%
G04 Layer_Color=0*
%FSLAX45Y45*%
%MOMM*%
%TF.SameCoordinates,7D1D8A4D-2C7A-4F71-9711-01752012572A*%
%TF.FilePolarity,Positive*%
%TF.FileFunction,Plated,1,2,PTH,Drill*%
%TF.Part,Single*%
G01*
G75*
%TA.AperFunction,ComponentDrill*%
%ADD30C,0.86360*%
%ADD31C,1.02000*%
%ADD32C,1.02000*%
%ADD33C,0.85000*%
%ADD34C,0.88900*%
%TA.AperFunction,ViaDrill,NotFilled*%
%ADD35C,0.71120*%
D30*
X4800600Y2235200D02*
D03*
X4300600D02*
D03*
D31*
X190500Y1270000D02*
D03*
Y1016000D02*
D03*
Y762000D02*
D03*
Y508000D02*
D03*
Y254000D02*
D03*
D32*
X7874000D02*
D03*
X8128000D02*
D03*
X8382000D02*
D03*
X8636000D02*
D03*
X8890000D02*
D03*
X9144000D02*
D03*
X9398000D02*
D03*
X9652000D02*
D03*
X9144000Y5080000D02*
D03*
X8890000D02*
D03*
X8636000D02*
D03*
X8382000D02*
D03*
X8128000D02*
D03*
X7874000D02*
D03*
X7620000D02*
D03*
X7366000D02*
D03*
X5588000Y254000D02*
D03*
X5842000D02*
D03*
X6096000D02*
D03*
X6350000D02*
D03*
X6604000D02*
D03*
X6858000D02*
D03*
X7112000D02*
D03*
X7366000D02*
D03*
X8128000Y4318000D02*
D03*
X7874000D02*
D03*
X7620000D02*
D03*
X7366000D02*
D03*
X7874000Y1016000D02*
D03*
X8128000D02*
D03*
X8382000D02*
D03*
X8636000D02*
D03*
X7366000D02*
D03*
X7112000D02*
D03*
X6858000D02*
D03*
X6604000D02*
D03*
X6350000D02*
D03*
X6096000D02*
D03*
X5842000D02*
D03*
X5588000D02*
D03*
X4572000Y4318000D02*
D03*
X4826000D02*
D03*
X5080000D02*
D03*
X5334000D02*
D03*
X5588000D02*
D03*
X5842000D02*
D03*
X6096000D02*
D03*
X6350000D02*
D03*
X5080000Y254000D02*
D03*
X4826000D02*
D03*
X4572000D02*
D03*
X4318000D02*
D03*
X4064000D02*
D03*
X3810000D02*
D03*
X3556000D02*
D03*
X3302000D02*
D03*
X5080000Y5080000D02*
D03*
X5334000D02*
D03*
X5588000D02*
D03*
X5842000D02*
D03*
X6096000D02*
D03*
X6350000D02*
D03*
X6604000D02*
D03*
X6858000D02*
D03*
X4673600D02*
D03*
X4419600D02*
D03*
X4165600D02*
D03*
X3911600D02*
D03*
X3657600D02*
D03*
X3403600D02*
D03*
X3149600D02*
D03*
X2895600D02*
D03*
X2641600D02*
D03*
X2387600D02*
D03*
D33*
X1206500Y2366100D02*
D03*
Y1266100D02*
D03*
X876300Y1012100D02*
D03*
Y2112100D02*
D03*
X8382000Y2713900D02*
D03*
Y3813900D02*
D03*
D34*
X4318000Y1016000D02*
D03*
X4572000D02*
D03*
D35*
X2552700Y1739900D02*
D03*
Y1104900D02*
D03*
%TF.MD5,e096be255c86f132e36b08a915d04f85*%
M02*
