%TF.GenerationSoftware,Altium Limited,Altium Designer,24.1.2 (44)*%
G04 Layer_Color=16711935*
%FSLAX45Y45*%
%MOMM*%
%TF.SameCoordinates,7D1D8A4D-2C7A-4F71-9711-01752012572A*%
%TF.FilePolarity,Negative*%
%TF.FileFunction,Soldermask,Bot*%
%TF.Part,Single*%
G01*
G75*
%TA.AperFunction,ComponentPad*%
%ADD11C,1.37160*%
%ADD15C,1.35000*%
%ADD16R,1.35000X1.35000*%
%ADD17C,1.39700*%
%ADD25C,1.57320*%
%ADD26R,1.57320X1.57320*%
%ADD27R,1.57320X1.57320*%
%TA.AperFunction,ViaPad*%
%ADD28C,0.91440*%
D11*
X4800600Y2235200D02*
D03*
X4300600D02*
D03*
D15*
X1206500Y2366100D02*
D03*
X876300Y2112100D02*
D03*
X8382000Y3813900D02*
D03*
D16*
X1206500Y1266100D02*
D03*
X876300Y1012100D02*
D03*
X8382000Y2713900D02*
D03*
D17*
X4318000Y1016000D02*
D03*
X4572000D02*
D03*
D25*
X190500Y1270000D02*
D03*
Y1016000D02*
D03*
Y762000D02*
D03*
Y508000D02*
D03*
X7874000Y254000D02*
D03*
X8128000D02*
D03*
X8382000D02*
D03*
X8636000D02*
D03*
X8890000D02*
D03*
X9144000D02*
D03*
X9398000D02*
D03*
X9144000Y5080000D02*
D03*
X8890000D02*
D03*
X8636000D02*
D03*
X8382000D02*
D03*
X8128000D02*
D03*
X7874000D02*
D03*
X7620000D02*
D03*
X5588000Y254000D02*
D03*
X5842000D02*
D03*
X6096000D02*
D03*
X6350000D02*
D03*
X6604000D02*
D03*
X6858000D02*
D03*
X7112000D02*
D03*
X7874000Y4318000D02*
D03*
X7620000D02*
D03*
X7366000D02*
D03*
X8128000Y1016000D02*
D03*
X8382000D02*
D03*
X8636000D02*
D03*
X7366000D02*
D03*
X7112000D02*
D03*
X6858000D02*
D03*
X6604000D02*
D03*
X6350000D02*
D03*
X6096000D02*
D03*
X5842000D02*
D03*
X4572000Y4318000D02*
D03*
X4826000D02*
D03*
X5080000D02*
D03*
X5334000D02*
D03*
X5588000D02*
D03*
X5842000D02*
D03*
X6096000D02*
D03*
X5080000Y254000D02*
D03*
X4826000D02*
D03*
X4572000D02*
D03*
X4318000D02*
D03*
X4064000D02*
D03*
X3810000D02*
D03*
X3556000D02*
D03*
X5334000Y5080000D02*
D03*
X5588000D02*
D03*
X5842000D02*
D03*
X6096000D02*
D03*
X6350000D02*
D03*
X6604000D02*
D03*
X6858000D02*
D03*
X4673600D02*
D03*
X4419600D02*
D03*
X4165600D02*
D03*
X3911600D02*
D03*
X3657600D02*
D03*
X3403600D02*
D03*
X3149600D02*
D03*
X2895600D02*
D03*
X2641600D02*
D03*
D26*
X190500Y254000D02*
D03*
D27*
X9652000D02*
D03*
X7366000Y5080000D02*
D03*
Y254000D02*
D03*
X8128000Y4318000D02*
D03*
X7874000Y1016000D02*
D03*
X5588000D02*
D03*
X6350000Y4318000D02*
D03*
X3302000Y254000D02*
D03*
X5080000Y5080000D02*
D03*
X2387600D02*
D03*
D28*
X2552700Y1739900D02*
D03*
Y1104900D02*
D03*
%TF.MD5,1a2386b641d432cccc498bc3a1b1c336*%
M02*
