<svg width="300" height="700" viewbox = "0 0 300 700"  xmlns="http://www.w3.org/2000/svg">
<!--<json>{
  "glyph": "0336,0332,0336,0332,0337,0337,0331,0331,0331,0331,0336,0336,0332,0337,0337,0222,0334,0201,0333,0350,0334,0343,0335,0335,0335,0331,0335,0335,0330,0330,0330,0201,0335,0335,0331,0334,0343,0334,0334,0333,0334,0201,0201,0201,0201,0201,0201,0304,0331,0331,0332,0332,0332,0331,0332,0332,0332,0331,0331,0331,0201,0201,0201,0201,0201,0201,0201,0333,0333,0333,0333,0333,0331,0333,0201,0332,0332,0332,0332,0332,0332,0223,0333,0333,0333,0333,0333,0333,0335,0335,0331,0331,0331,0331,0223,0335,0335,0201,0331,0332,0332,0332,0332,0332,0332,0201,0333,0350,0334,0343,0335,0335,0335,0330,0330,0330,0330,0334,0343,0334,0330,0334,0334,0201,0330,0330,0330,0335,0335,0335,0335,0201,0336,0201,0330,0330,0342,0335,0335,0335,0335,0335,0335,0304,0331,0337,0200,0331,0331,0331,0331,0331,0336,0331,0337,0200,0336,0330,0335,0337,0342,0330,0342,0335,0335,0330,0330,0342,0330,0342,0335,0333,0333,0330,0330,0330,0330,0330,0336,0332,0337,0331,0331,0331,0331,0330,0336,0331,0337,0331,0331,0331,0331,0326,0225,0330,0330,0330,0330,0330,0331,0336,0330,0337,0330,0330,0322,0330,0330,0336,0330,0337,0225,0331,0331,0331,0331,0331,0327,0330,0336,0331,0337,0225,0333,0333,0321,0330,0336,0333,0334,0342,0335,0331,0332,0336,0330,0337,0326,0204,0332,0332,0332,0332,0332,0332,0332,0204,0321,0330,0332,0336,0331,0337,0334,0342,0335,0331,0331,0331,0333,0333,0331,0333,0333,0333,0331,0333,0333,0331,0331,0331,0331,0331,0331,",
  "x0": 150,
  "y0": 395.45454545454544,
  "unit": 31.046066152957756,
  "width": 300,
  "height": 700,
  "style": {
    "color0": "black",
    "fill0": "black",
    "line0": 1,
    "color1": "black",
    "fill1": "black",
    "line1": 5,
    "color2": "red",
    "fill2": "red",
    "line2": 1,
    "color3": "#FF7900",
    "fill3": "#FF7900",
    "line3": 1,
    "color4": "yellow",
    "fill4": "yellow",
    "line4": 1,
    "color5": "green",
    "fill5": "green",
    "line5": 1,
    "color6": "blue",
    "fill6": "blue",
    "line6": 1,
    "color7": "purple",
    "fill7": "purple",
    "line7": 1
  },
  "shapes": [
    "0220:0336,0336,0347,0337,0337,",
    "0221:0321,0220,0336,0201,0333,0350,0334,0343,0335,0335,0335,0331,0334,0334,0330,0331,0331,0337,0201,0336,0201,0335,0333,0334,0334,0343,0335,0335,0335,0331,0334,0334,0201,0201,0335,0333,0334,0334,0343,0335,0335,0335,0331,0334,0334,0201,0201,0334,0334,0331,0335,0343,0332,0335,0331,0331,0331,0331,0331,0331,0331,0335,0335,0342,0335,0335,0201,0335,0335,0331,0334,0343,0335,0330,0334,0334,0201,0201,0335,0335,0331,0334,0343,0335,0330,0334,0334,0201,0201,0335,0335,0331,0334,0343,0335,0330,0334,0334,0201,0201,0335,0335,0331,0334,0343,0335,0335,0335,0330,0330,0330,0330,0330,0330,0330,0335,0335,0331,0334,0334,0304,0337,0335,0334,",
    "0222:0221,0333,0333,0335,0335,0335,0336,0334,0337,0221,0335,0335,0332,0332,0336,0333,0337,0336,0331,0331,0331,0331,0331,0331,0331,0331,0331,0332,0336,0336,0333,0333,0333,0333,0333,0337,0337,0337,061,0365,0330,062,0365,0330,063,0365,0330,064,0365,0330,065,0365,0330,066,0365,0330,067,0365,0330,070,0365,0330,071,0365,0331,0331,0331,0331,0331,0330,0332,0336,0330,0336,0333,0336,0333,0337,0337,0337,",
    "0223:0321,0336,0334,0362,0203,0335,0337,0203,0203,0203,0203,0335,0203,0335,0203,0203,0203,0203,0335,0336,0203,0354,0335,0337,0201,0201,0201,0342,0336,0330,0333,0330,0334,0335,0331,0331,0350,0330,0330,0334,0334,0334,0343,0335,0335,0335,0331,0331,0331,0331,0331,0331,0331,0331,0334,0343,0335,0304,0332,0337,",
    "0224:0222,0334,0201,0336,0333,0350,0334,0343,0335,0335,0335,0304,0332,0337,0337,0342,0330,0342,0330,0331,0331,0336,0333,0333,0331,0333,0336,0333,0330,0335,0337,0201,0336,0332,0350,0335,0343,0334,0330,0334,0334,0337,0304,0201,0201,0201,0201,0201,0201,0335,0335,0331,0331,0331,0331,0223,0335,0335,0332,0332,0332,0332,0332,0331,0331,0331,0331,0223,0335,0335,0201,0201,0335,0335,0330,0330,0330,0330,0330,0330,0201,0333,0333,0333,0333,0333,0331,0201,0332,0332,0332,0332,0350,0334,0343,0335,0335,0335,0330,0330,0330,0334,0343,0334,0330,0334,0334,0201,0330,0201,0335,0335,0304,0333,0336,0331,0333,0333,0337,0200,0331,0331,0331,0331,0331,0331,0336,0330,0337,0200,0336,0330,0337,0335,0342,0330,0336,0342,0335,0335,0335,0332,0332,0332,0332,0334,0201,0201,0201,0335,0335,0335,0334,0337,0334,0333,0333,0336,0330,0337,0337,0336,0201,0330,0330,0330,0336,0330,0335,0335,0337,0201,0336,0342,0335,0335,0331,0331,0331,0331,0331,0342,0337,0336,0330,0333,0337,0362,0203,0336,0203,0334,0203,0203,0334,0203,0203,0203,0334,0203,0203,0354,0334,0331,0331,0331,0331,0331,0332,0335,0335,0330,",
    "0225:0334,0336,0336,0362,0203,0335,0337,0203,0203,0334,0336,0203,0335,0350,0335,0310,0337,0203,0203,0335,0335,0203,0203,0335,0335,0335,0336,0203,0334,0334,0203,0203,0203,0203,0335,0335,0203,0363,0304,0335,0313,0337,0337,",
    "01220:0333,0200,0336,0330,0332,0220,0331,0333,0337,",
    "01221:0333,0200,0336,0330,0332,0336,0336,0221,0337,0337,0331,0333,0337,0320,",
    "01222:0333,0200,0336,0336,0336,0330,0332,0332,0330,0332,0330,0332,0330,0332,0222,0337,0337,0333,0331,0336,0336,0333,0337,0337,0337,0320,",
    "01223:0333,0200,0336,0330,0332,0336,0331,0337,0336,0223,0331,0333,0333,0337,0337,0320,",
    "01224:0333,0200,0336,0336,0330,0224,0337,0337,",
    "01225:0333,0200,0336,0330,0332,0336,0225,0337,0331,0333,0337,",
    "01226:0333,0200,0336,0336,0330,0226,0337,0337,",
    "01227:0333,0200,0336,0336,0330,0227,0337,0337,",
    "01230:0333,0200,0336,0336,0330,0230,0331,0337,0337,",
    "01231:0333,0200,0336,0336,0330,0231,0331,0337,0337,",
    "01232:0333,0200,0336,0336,0232,0337,0337,",
    "01233:0333,0200,0336,0336,0330,0233,0331,0330,0337,0337,",
    "01234:0333,0200,0336,0336,0330,0330,0330,0234,0331,0331,0333,0333,0331,0331,0333,0333,0337,0337,0333,0333,0333,",
    "01235:0333,0200,0336,0336,0330,0235,0331,0333,0337,0337,",
    "01236:0333,0200,",
    "01237:0333,0200,",
    "0240:0220,0336,0331,0333,0336,0321,0335,0342,0335,0335,0342,0335,0330,0330,0332,0332,0337,0337,",
    "01240:0333,0200,0336,0330,0332,0210,0240,0211,0333,0331,0337,",
    "0241:0220,0336,0321,0343,0332,0350,0335,0336,0342,0334,0334,0342,0335,0304,0337,0333,0337,",
    "01241:0333,0200,0336,0332,0330,0210,0241,0211,0333,0331,0337,",
    "0242:0220,0321,0336,0343,0333,0336,0350,0335,0342,0334,0334,0342,0335,0337,0304,0332,0337,",
    "01242:0333,0200,0336,0330,0332,0210,0242,0211,0333,0331,0337,",
    "0243:0220,0336,0331,0332,0336,0321,0343,0332,0350,0334,0336,0342,0335,0335,0342,0337,0334,0334,0335,0304,0332,0330,0330,0337,0337,0333,",
    "01243:0333,0200,0336,0330,0332,0210,0243,0211,0333,0331,0337,",
    "0244:0220,0336,0331,0333,0336,0321,0343,0333,0350,0336,0335,0342,0334,0334,0342,0335,0337,0304,0333,0330,0330,0337,0337,0332,",
    "01244:0333,0200,0336,0330,0332,0210,0244,0211,0333,0331,0337,",
    "0245:0210,0332,0332,0362,0335,0203,0203,0203,0203,0334,0203,0363,0332,0332,0331,0211,",
    "01245:0333,0200,0336,0330,0332,0336,0245,0337,0333,0331,0337,",
    "0246:0210,0332,0332,0335,0306,0336,0330,0335,0335,0335,0321,0362,0203,0335,0335,0203,0364,0331,0350,0335,0337,0366,0333,0333,0333,0333,0334,0334,0334,0334,0367,0335,0336,0342,0334,0334,0342,0330,0330,0330,0330,0335,0335,0335,0304,0337,0211,",
    "01246:0333,0200,0336,0330,0332,0336,0246,",
    "0247:0330,0332,0336,0332,0336,0221,0333,0333,0333,0222,0333,0333,0333,0223,0333,0333,0333,0225,0333,0331,0331,0331,0332,0332,0332,0332,0332,0332,0332,0332,0332,0332,0332,0332,0333,0333,0226,0331,0331,0331,0333,0333,0333,0333,0333,0333,0333,0333,0333,0333,0333,0333,0333,0330,0333,0330,0330,0333,0330,0331,0332,0332,0332,0332,0332,0332,0332,0332,0332,0332,0332,0332,0227,0333,0333,0333,0230,0333,0331,0331,0331,0331,0332,0332,0332,0330,0332,0332,0332,0332,0332,0332,0333,0333,0231,0333,0333,0333,0232,0331,0333,0330,0333,0333,0233,0333,0333,0333,0234,0330,0330,0332,0330,0332,0332,0337,0337,",
    "01247:0333,0200,0336,0330,0332,0220,0336,0247,0337,0331,0333,0337,"
  ]
}</json>-->    <circle cx="119" cy = "520" r = "7.761516538239439" stroke = "#000000" stroke-width = "5" fill = "#000000" />
    <line x1="119" y1="520" x2="119" y2="504" style="stroke:#000000;stroke-width:5" />
  <path d="M118.95393384704225 504.11577698989754           A15.523033076478878 15.523033076478878 0 0 1 134.47696692352113 488.59274391341864" fill = "none" stroke = "#000000" stroke-width = "5" />
    <line x1="119" y1="520" x2="119" y2="489" style="stroke:#000000;stroke-width:5" />
    <line x1="119" y1="489" x2="119" y2="473" style="stroke:#000000;stroke-width:5" />
  <path d="M118.95393384704225 473.0697108369398           A15.523033076478878 15.523033076478878 0 0 1 134.47696692352113 457.5466777604609" fill = "none" stroke = "#000000" stroke-width = "5" />
    <line x1="119" y1="473" x2="119" y2="458" style="stroke:#000000;stroke-width:5" />
    <line x1="119" y1="458" x2="119" y2="442" style="stroke:#000000;stroke-width:5" />
  <path d="M118.95393384704225 442.023644683982           A15.523033076478878 15.523033076478878 0 0 1 134.47696692352113 426.5006116075031" fill = "none" stroke = "#000000" stroke-width = "5" />
    <line x1="119" y1="442" x2="119" y2="427" style="stroke:#000000;stroke-width:5" />
    <line x1="119" y1="427" x2="119" y2="411" style="stroke:#000000;stroke-width:5" />
  <path d="M118.95393384704225 410.9775785310242           A15.523033076478878 15.523033076478878 0 0 1 134.47696692352113 395.4545454545453" fill = "none" stroke = "#000000" stroke-width = "5" />
    <line x1="119" y1="520" x2="134" y2="520" style="stroke:#000000;stroke-width:5" />
    <line x1="119" y1="520" x2="119" y2="535" style="stroke:#000000;stroke-width:5" />
  <path d="M134.47696692352113 550.6848762193342           A15.523033076478878 15.523033076478878 0 0 1 118.95393384704225 535.1618431428553" fill = "none" stroke = "#000000" stroke-width = "5" />
    <line x1="119" y1="535" x2="119" y2="551" style="stroke:#000000;stroke-width:5" />
    <line x1="119" y1="551" x2="119" y2="566" style="stroke:#000000;stroke-width:5" />
  <path d="M134.47696692352113 581.730942372292           A15.523033076478878 15.523033076478878 0 0 1 118.95393384704225 566.2079092958131" fill = "none" stroke = "#000000" stroke-width = "5" />
    <line x1="119" y1="566" x2="119" y2="582" style="stroke:#000000;stroke-width:5" />
    <line x1="119" y1="582" x2="119" y2="597" style="stroke:#000000;stroke-width:5" />
  <path d="M134.47696692352113 612.7770085252498           A15.523033076478878 15.523033076478878 0 0 1 118.95393384704225 597.2539754487709" fill = "none" stroke = "#000000" stroke-width = "5" />
    <line x1="119" y1="597" x2="119" y2="613" style="stroke:#000000;stroke-width:5" />
    <line x1="119" y1="613" x2="119" y2="628" style="stroke:#000000;stroke-width:5" />
  <path d="M134.47696692352113 643.8230746782076           A15.523033076478878 15.523033076478878 0 0 1 118.95393384704225 628.3000416017287" fill = "none" stroke = "#000000" stroke-width = "5" />
    <circle cx="181" cy = "520" r = "7.761516538239439" stroke = "#000000" stroke-width = "5" fill = "#000000" />
    <line x1="181" y1="520" x2="181" y2="535" style="stroke:#000000;stroke-width:5" />
  <path d="M181.04606615295776 535.1618431428553           A15.523033076478878 15.523033076478878 0 0 1 165.5230330764789 550.6848762193342" fill = "none" stroke = "#000000" stroke-width = "5" />
    <line x1="181" y1="520" x2="181" y2="551" style="stroke:#000000;stroke-width:5" />
    <line x1="181" y1="551" x2="181" y2="566" style="stroke:#000000;stroke-width:5" />
  <path d="M181.0460661529578 566.2079092958131           A15.523033076478878 15.523033076478878 0 0 1 165.52303307647895 581.730942372292" fill = "none" stroke = "#000000" stroke-width = "5" />
    <line x1="181" y1="566" x2="181" y2="582" style="stroke:#000000;stroke-width:5" />
    <line x1="181" y1="582" x2="181" y2="597" style="stroke:#000000;stroke-width:5" />
  <path d="M181.04606615295785 597.2539754487709           A15.523033076478878 15.523033076478878 0 0 1 165.523033076479 612.7770085252498" fill = "none" stroke = "#000000" stroke-width = "5" />
    <line x1="181" y1="597" x2="181" y2="613" style="stroke:#000000;stroke-width:5" />
    <line x1="181" y1="613" x2="181" y2="628" style="stroke:#000000;stroke-width:5" />
  <path d="M181.0460661529579 628.3000416017287           A15.523033076478878 15.523033076478878 0 0 1 165.52303307647907 643.8230746782076" fill = "none" stroke = "#000000" stroke-width = "5" />
    <line x1="181" y1="520" x2="166" y2="520" style="stroke:#000000;stroke-width:5" />
    <line x1="181" y1="520" x2="181" y2="504" style="stroke:#000000;stroke-width:5" />
  <path d="M165.5230330764789 488.5927439134186           A15.523033076478878 15.523033076478878 0 0 1 181.04606615295774 504.11577698989754" fill = "none" stroke = "#000000" stroke-width = "5" />
    <line x1="181" y1="504" x2="181" y2="489" style="stroke:#000000;stroke-width:5" />
    <line x1="181" y1="489" x2="181" y2="473" style="stroke:#000000;stroke-width:5" />
  <path d="M165.52303307647895 457.5466777604608           A15.523033076478878 15.523033076478878 0 0 1 181.0460661529578 473.06971083693975" fill = "none" stroke = "#000000" stroke-width = "5" />
    <line x1="181" y1="473" x2="181" y2="458" style="stroke:#000000;stroke-width:5" />
    <line x1="181" y1="458" x2="181" y2="442" style="stroke:#000000;stroke-width:5" />
  <path d="M165.523033076479 426.500611607503           A15.523033076478878 15.523033076478878 0 0 1 181.04606615295785 442.02364468398196" fill = "none" stroke = "#000000" stroke-width = "5" />
    <line x1="181" y1="442" x2="181" y2="427" style="stroke:#000000;stroke-width:5" />
    <line x1="181" y1="427" x2="181" y2="411" style="stroke:#000000;stroke-width:5" />
  <path d="M165.52303307647907 395.4545454545452           A15.523033076478878 15.523033076478878 0 0 1 181.0460661529579 410.97757853102416" fill = "none" stroke = "#000000" stroke-width = "5" />
    <text x="138" y = "659" fill = "#000000" font-size = "31.046066152957756px" font-family = "Arial">1</text>
    <text x="138" y = "628" fill = "#000000" font-size = "31.046066152957756px" font-family = "Arial">2</text>
    <text x="138" y = "597" fill = "#000000" font-size = "31.046066152957756px" font-family = "Arial">3</text>
    <text x="138" y = "566" fill = "#000000" font-size = "31.046066152957756px" font-family = "Arial">4</text>
    <text x="138" y = "535" fill = "#000000" font-size = "31.046066152957756px" font-family = "Arial">5</text>
    <text x="138" y = "504" fill = "#000000" font-size = "31.046066152957756px" font-family = "Arial">6</text>
    <text x="138" y = "473" fill = "#000000" font-size = "31.046066152957756px" font-family = "Arial">7</text>
    <text x="138" y = "442" fill = "#000000" font-size = "31.046066152957756px" font-family = "Arial">8</text>
    <text x="138" y = "411" fill = "#000000" font-size = "31.046066152957756px" font-family = "Arial">9</text>
    <line x1="119" y1="520" x2="88" y2="520" style="stroke:#000000;stroke-width:5" />
  <path d="M87.90786769408388 519.638810066376           A31.046066152957756 31.046066152957756 0 0 1 56.86180154112626 488.592743913418" fill = "none" stroke = "#000000" stroke-width = "5" />
    <line x1="181" y1="520" x2="212" y2="520" style="stroke:#000000;stroke-width:5" />
  <path d="M243.13819845887295 488.5927439134199           A31.046066152957756 31.046066152957756 0 0 1 212.09213230591482 519.6388100663773" fill = "none" stroke = "#000000" stroke-width = "5" />
    <line x1="243" y1="489" x2="243" y2="458" style="stroke:#000000;stroke-width:5" />
    <line x1="243" y1="458" x2="243" y2="427" style="stroke:#000000;stroke-width:5" />
    <line x1="243" y1="427" x2="243" y2="395" style="stroke:#000000;stroke-width:5" />
    <line x1="243" y1="395" x2="243" y2="364" style="stroke:#000000;stroke-width:5" />
    <line x1="243" y1="364" x2="243" y2="333" style="stroke:#000000;stroke-width:5" />
    <line x1="243" y1="333" x2="243" y2="302" style="stroke:#000000;stroke-width:5" />
    <line x1="57" y1="489" x2="57" y2="458" style="stroke:#000000;stroke-width:5" />
    <line x1="57" y1="458" x2="57" y2="427" style="stroke:#000000;stroke-width:5" />
    <line x1="57" y1="427" x2="57" y2="395" style="stroke:#000000;stroke-width:5" />
    <line x1="57" y1="395" x2="57" y2="364" style="stroke:#000000;stroke-width:5" />
    <line x1="57" y1="364" x2="57" y2="333" style="stroke:#000000;stroke-width:5" />
    <line x1="57" y1="333" x2="57" y2="302" style="stroke:#000000;stroke-width:5" />
    <line x1="57" y1="302" x2="57" y2="271" style="stroke:#000000;stroke-width:5" />
    <line x1="243" y1="302" x2="243" y2="271" style="stroke:#000000;stroke-width:5" />
	<path d = "M57 271 L41 271 L41 240 L41 209 L41 178 L41 147 L72 147 L72 178 L72 209 L72 240 L72 271 L57 271 Z" stroke = "#000000" stroke-width = "5" fill = "none" />    <line x1="57" y1="271" x2="57" y2="240" style="stroke:#000000;stroke-width:5" />
    <line x1="57" y1="240" x2="57" y2="209" style="stroke:#000000;stroke-width:5" />
    <line x1="57" y1="209" x2="57" y2="178" style="stroke:#000000;stroke-width:5" />
    <line x1="57" y1="178" x2="57" y2="147" style="stroke:#000000;stroke-width:5" />
  <path d="M72.38483461760835 162.6090493073613           A15.523033076478878 15.523033076478878 0 0 1 56.861801541129594 147.08601623088228" fill = "none" stroke = "#000000" stroke-width = "5" />
  <path d="M56.861801541128116 271.2702808427132           A15.523033076478878 15.523033076478878 0 0 1 72.38483461760718 255.7472477662345" fill = "none" stroke = "#000000" stroke-width = "5" />
	<path d = "M243 147 L259 147 L259 178 L259 209 L259 240 L259 271 L228 271 L228 240 L228 209 L228 178 L228 147 L243 147 Z" stroke = "#000000" stroke-width = "5" fill = "none" />    <line x1="243" y1="147" x2="243" y2="178" style="stroke:#000000;stroke-width:5" />
    <line x1="243" y1="178" x2="243" y2="209" style="stroke:#000000;stroke-width:5" />
    <line x1="243" y1="209" x2="243" y2="240" style="stroke:#000000;stroke-width:5" />
    <line x1="243" y1="240" x2="243" y2="271" style="stroke:#000000;stroke-width:5" />
  <path d="M227.6151653823957 255.7472477662363           A15.523033076478878 15.523033076478878 0 0 1 243.13819845887423 271.2702808427155" fill = "none" stroke = "#000000" stroke-width = "5" />
  <path d="M243.13819845887696 147.0860162308846           A15.523033076478878 15.523033076478878 0 0 1 227.61516538239775 162.6090493073631" fill = "none" stroke = "#000000" stroke-width = "5" />
    <line x1="243" y1="147" x2="243" y2="116" style="stroke:#000000;stroke-width:5" />
    <line x1="57" y1="147" x2="57" y2="116" style="stroke:#000000;stroke-width:5" />
  <path d="M56.861801541131165 116.03995007792224           A31.046066152957756 31.046066152957756 0 0 1 87.9078676940897 84.99388392496544" fill = "none" stroke = "#000000" stroke-width = "5" />
  <path d="M212.09213230592076 84.99388392496789           A31.046066152957756 31.046066152957756 0 0 1 243.13819845887772 116.03995007792625" fill = "none" stroke = "#000000" stroke-width = "5" />
    <line x1="212" y1="85" x2="181" y2="85" style="stroke:#000000;stroke-width:5" />
    <line x1="88" y1="85" x2="119" y2="85" style="stroke:#000000;stroke-width:5" />
    <line x1="119" y1="85" x2="134" y2="85" style="stroke:#000000;stroke-width:5" />
    <line x1="166" y1="85" x2="181" y2="85" style="stroke:#000000;stroke-width:5" />
	<path d = "M166 101 L166 69 L134 69 L134 101 L166 101 Z" stroke = "#000000" stroke-width = "5" fill = "none" />	<path d = "M166 271 L166 240 L134 240 L134 271 L166 271 Z" stroke = "#000000" stroke-width = "5" fill = "none" />    <line x1="166" y1="256" x2="197" y2="256" style="stroke:#000000;stroke-width:5" />
    <line x1="197" y1="256" x2="228" y2="256" style="stroke:#000000;stroke-width:5" />
    <line x1="134" y1="256" x2="103" y2="256" style="stroke:#000000;stroke-width:5" />
    <line x1="103" y1="256" x2="72" y2="256" style="stroke:#000000;stroke-width:5" />
	<path d = "M150 333 L142 333 L142 318 L142 302 L134 302 L142 295 L150 287 L158 295 L166 302 L158 302 L158 310 L158 318 L158 326 L158 333 L150 333 Z" stroke = "#0000ff" stroke-width = "1" fill = "#0000ff" />	<path d = "M150 54 L142 54 L142 38 L142 23 L134 23 L142 15 L150 7 L158 15 L166 23 L158 23 L158 31 L158 38 L158 46 L158 54 L150 54 Z" stroke = "#ff0000" stroke-width = "1" fill = "#ff0000" />	<path d = "M150 194 L142 194 L142 178 L142 163 L134 163 L142 155 L150 147 L158 155 L166 163 L158 163 L158 170 L158 178 L158 186 L158 194 L150 194 Z" stroke = "#800080" stroke-width = "1" fill = "#800080" />    <line x1="228" y1="163" x2="212" y2="163" style="stroke:#000000;stroke-width:5" />
	<path d = "M212 170 L212 155 L197 155 L197 170 L212 170 Z" stroke = "#0000ff" stroke-width = "1" fill = "#0000ff" />	<path d = "M103 170 L103 155 L88 155 L88 170 L103 170 Z" stroke = "#0000ff" stroke-width = "1" fill = "#0000ff" />    <line x1="88" y1="163" x2="72" y2="163" style="stroke:#000000;stroke-width:5" />
</svg>