<svg width="300" height="800" viewbox = "0 0 300 800"  xmlns="http://www.w3.org/2000/svg">
<!--<json>{
  "glyph": "0336,0332,0337,0331,0331,0331,0331,0336,0336,0332,0337,0337,0222,0334,0201,0333,0350,0334,0343,0335,0335,0335,0331,0335,0335,0330,0330,0330,0201,0335,0335,0331,0334,0343,0334,0334,0333,0334,0201,0201,0201,0304,0331,0331,0332,0332,0332,0331,0332,0332,0332,0201,0201,0201,0201,0333,0333,0333,0333,0333,0331,0333,0201,0332,0332,0332,0332,0332,0332,0223,0333,0333,0333,0333,0333,0333,0335,0335,0331,0331,0331,0331,0223,0335,0335,0201,0331,0332,0332,0332,0332,0332,0332,0201,0333,0350,0334,0343,0335,0335,0335,0330,0330,0330,0330,0334,0343,0334,0330,0334,0334,0201,0330,0330,0330,0335,0335,0335,0335,0201,0336,0201,0330,0330,0342,0335,0335,0335,0335,0335,0335,0304,0331,0337,0200,0331,0331,0331,0331,0331,0336,0331,0337,0200,0336,0330,0335,0337,0342,0330,0342,0335,0335,0330,0330,0342,0330,0342,0335,0333,0333,0330,0330,0330,0330,0330,",
  "x0": 150,
  "y0": 400,
  "unit": 34.150672768253536,
  "width": 300,
  "height": 800,
  "style": {
    "color0": "black",
    "fill0": "black",
    "line0": 1,
    "color1": "black",
    "fill1": "black",
    "line1": 5,
    "color2": "red",
    "fill2": "red",
    "line2": 1,
    "color3": "#FF7900",
    "fill3": "#FF7900",
    "line3": 1,
    "color4": "yellow",
    "fill4": "yellow",
    "line4": 1,
    "color5": "green",
    "fill5": "green",
    "line5": 1,
    "color6": "blue",
    "fill6": "blue",
    "line6": 1,
    "color7": "purple",
    "fill7": "purple",
    "line7": 1
  },
  "shapes": [
    "0220:0336,0336,0347,0337,0337,",
    "0221:0321,0220,0336,0201,0333,0350,0334,0343,0335,0335,0335,0331,0334,0334,0330,0331,0331,0337,0201,0336,0201,0335,0333,0334,0334,0343,0335,0335,0335,0331,0334,0334,0201,0201,0335,0333,0334,0334,0343,0335,0335,0335,0331,0334,0334,0201,0201,0334,0334,0331,0335,0343,0332,0335,0331,0331,0331,0331,0331,0331,0331,0335,0335,0342,0335,0335,0201,0335,0335,0331,0334,0343,0335,0330,0334,0334,0201,0201,0335,0335,0331,0334,0343,0335,0330,0334,0334,0201,0201,0335,0335,0331,0334,0343,0335,0330,0334,0334,0201,0201,0335,0335,0331,0334,0343,0335,0335,0335,0330,0330,0330,0330,0330,0330,0330,0335,0335,0331,0334,0334,0304,0337,0335,0334,",
    "0222:0221,0333,0333,0335,0335,0335,0336,0334,0337,0221,0335,0335,0332,0332,0336,0333,0337,0336,0331,0331,0331,0331,0331,0331,0331,0331,0331,0332,0336,0336,0333,0333,0333,0333,0333,0337,0337,0337,061,0365,0330,062,0365,0330,063,0365,0330,064,0365,0330,065,0365,0330,066,0365,0330,067,0365,0330,070,0365,0330,071,0365,0331,0331,0331,0331,0331,0330,0332,0336,0330,0336,0333,0336,0333,0337,0337,0337,",
    "0223:0321,0336,0334,0362,0203,0335,0337,0203,0203,0203,0203,0335,0203,0335,0203,0203,0203,0203,0335,0336,0203,0354,0335,0337,0201,0201,0201,0342,0336,0330,0333,0330,0334,0335,0331,0331,0350,0330,0330,0334,0334,0334,0343,0335,0335,0335,0331,0331,0331,0331,0331,0331,0331,0331,0334,0343,0335,0304,0332,0337,",
    "0224:0222,0334,0201,0336,0333,0350,0334,0343,0335,0335,0335,0304,0332,0337,0337,0342,0330,0342,0330,0331,0331,0336,0333,0333,0331,0333,0336,0333,0330,0335,0337,0201,0336,0332,0350,0335,0343,0334,0330,0334,0334,0337,0304,0201,0201,0201,0201,0201,0201,0335,0335,0331,0331,0331,0331,0223,0335,0335,0332,0332,0332,0332,0332,0331,0331,0331,0331,0223,0335,0335,0201,0201,0335,0335,0330,0330,0330,0330,0330,0330,0201,0333,0333,0333,0333,0333,0331,0201,0332,0332,0332,0332,0350,0334,0343,0335,0335,0335,0330,0330,0330,0334,0343,0334,0330,0334,0334,0201,0330,0201,0335,0335,0304,0333,0336,0331,0333,0333,0337,0200,0331,0331,0331,0331,0331,0331,0336,0330,0337,0200,0336,0330,0337,0335,0342,0330,0336,0342,0335,0335,0335,0332,0332,0332,0332,0334,0201,0201,0201,0335,0335,0335,0334,0337,0334,0333,0333,0336,0330,0337,0337,0336,0201,0330,0330,0330,0336,0330,0335,0335,0337,0201,0336,0342,0335,0335,0331,0331,0331,0331,0331,0342,0337,0336,0330,0333,0337,0362,0203,0336,0203,0334,0203,0203,0334,0203,0203,0203,0334,0203,0203,0354,0334,0331,0331,0331,0331,0331,0332,0335,0335,0330,",
    "01220:0333,0200,0336,0330,0332,0220,0331,0333,0337,",
    "01221:0333,0200,0336,0330,0332,0336,0336,0221,0337,0337,0331,0333,0337,0320,",
    "01222:0333,0200,0336,0336,0336,0330,0332,0332,0330,0332,0330,0332,0330,0332,0222,0337,0337,0333,0331,0336,0336,0333,0337,0337,0337,0320,",
    "01223:0333,0200,0336,0330,0332,0336,0331,0337,0336,0223,0331,0333,0333,0337,0337,0320,",
    "01224:0333,0200,0336,0336,0330,0224,0337,0337,",
    "01225:0333,0200,0336,0336,0330,0225,0337,0337,",
    "01226:0333,0200,0336,0336,0330,0226,0337,0337,",
    "01227:0333,0200,0336,0336,0330,0227,0337,0337,",
    "01230:0333,0200,0336,0336,0330,0230,0331,0337,0337,",
    "01231:0333,0200,0336,0336,0330,0231,0331,0337,0337,",
    "01232:0333,0200,0336,0336,0232,0337,0337,",
    "01233:0333,0200,0336,0336,0330,0233,0331,0330,0337,0337,",
    "01234:0333,0200,0336,0336,0330,0330,0330,0234,0331,0331,0333,0333,0331,0331,0333,0333,0337,0337,0333,0333,0333,",
    "01235:0333,0200,0336,0336,0330,0235,0331,0333,0337,0337,",
    "01236:0333,0200,",
    "01237:0333,0200,",
    "0240:0220,0336,0331,0333,0336,0321,0335,0342,0335,0335,0342,0335,0330,0330,0332,0332,0337,0337,",
    "01240:0333,0200,0336,0330,0332,0210,0240,0211,0333,0331,0337,",
    "0241:0220,0336,0321,0343,0332,0350,0335,0336,0342,0334,0334,0342,0335,0304,0337,0333,0337,",
    "01241:0333,0200,0336,0332,0330,0210,0241,0211,0333,0331,0337,",
    "0242:0220,0321,0336,0343,0333,0336,0350,0335,0342,0334,0334,0342,0335,0337,0304,0332,0337,",
    "01242:0333,0200,0336,0330,0332,0210,0242,0211,0333,0331,0337,",
    "0243:0220,0336,0331,0332,0336,0321,0343,0332,0350,0334,0336,0342,0335,0335,0342,0337,0334,0334,0335,0304,0332,0330,0330,0337,0337,0333,",
    "01243:0333,0200,0336,0330,0332,0210,0243,0211,0333,0331,0337,",
    "0244:0220,0336,0331,0333,0336,0321,0343,0333,0350,0336,0335,0342,0334,0334,0342,0335,0337,0304,0333,0330,0330,0337,0337,0332,",
    "01244:0333,0200,0336,0330,0332,0210,0244,0211,0333,0331,0337,",
    "0245:0210,0332,0332,0362,0335,0203,0203,0203,0203,0334,0203,0363,0332,0332,0331,0211,",
    "01245:0333,0200,0336,0330,0332,0336,0245,0337,0333,0331,0337,",
    "0246:0210,0332,0332,0335,0306,0336,0330,0335,0335,0335,0321,0362,0203,0335,0335,0203,0364,0331,0350,0335,0337,0366,0333,0333,0333,0333,0334,0334,0334,0334,0367,0335,0336,0342,0334,0334,0342,0330,0330,0330,0330,0335,0335,0335,0304,0337,0211,",
    "01246:0333,0200,0336,0330,0332,0336,0246,",
    "0247:0330,0332,0336,0332,0336,0221,0333,0333,0333,0222,0333,0333,0333,0223,0333,0333,0333,0225,0333,0331,0331,0331,0332,0332,0332,0332,0332,0332,0332,0332,0332,0332,0332,0332,0333,0333,0226,0331,0331,0331,0333,0333,0333,0333,0333,0333,0333,0333,0333,0333,0333,0333,0333,0330,0333,0330,0330,0333,0330,0331,0332,0332,0332,0332,0332,0332,0332,0332,0332,0332,0332,0332,0227,0333,0333,0333,0230,0333,0331,0331,0331,0331,0332,0332,0332,0330,0332,0332,0332,0332,0332,0332,0333,0333,0231,0333,0333,0333,0232,0331,0333,0330,0333,0333,0233,0333,0333,0333,0234,0330,0330,0332,0330,0332,0332,0337,0337,",
    "01247:0333,0200,0336,0330,0332,0220,0336,0247,0337,0331,0333,0337,"
  ]
}</json>-->    <circle cx="124" cy = "537" r = "8.537668192063384" stroke = "#000000" stroke-width = "5" fill = "#000000" />
    <line x1="124" y1="537" x2="124" y2="520" style="stroke:#000000;stroke-width:5" />
  <path d="M124.38699542380986 519.5273546888873           A17.075336384126768 17.075336384126768 0 0 1 141.46233180793664 502.4520183047605" fill = "none" stroke = "#000000" stroke-width = "5" />
    <line x1="124" y1="537" x2="124" y2="502" style="stroke:#000000;stroke-width:5" />
    <line x1="124" y1="502" x2="124" y2="485" style="stroke:#000000;stroke-width:5" />
  <path d="M124.38699542380986 485.37668192063376           A17.075336384126768 17.075336384126768 0 0 1 141.46233180793664 468.301345536507" fill = "none" stroke = "#000000" stroke-width = "5" />
    <line x1="124" y1="485" x2="124" y2="468" style="stroke:#000000;stroke-width:5" />
    <line x1="124" y1="468" x2="124" y2="451" style="stroke:#000000;stroke-width:5" />
  <path d="M124.38699542380986 451.2260091523802           A17.075336384126768 17.075336384126768 0 0 1 141.46233180793664 434.1506727682534" fill = "none" stroke = "#000000" stroke-width = "5" />
    <line x1="124" y1="451" x2="124" y2="434" style="stroke:#000000;stroke-width:5" />
    <line x1="124" y1="434" x2="124" y2="417" style="stroke:#000000;stroke-width:5" />
  <path d="M124.38699542380986 417.0753363841266           A17.075336384126768 17.075336384126768 0 0 1 141.46233180793664 399.99999999999983" fill = "none" stroke = "#000000" stroke-width = "5" />
    <line x1="124" y1="537" x2="141" y2="537" style="stroke:#000000;stroke-width:5" />
    <line x1="124" y1="537" x2="124" y2="554" style="stroke:#000000;stroke-width:5" />
  <path d="M141.46233180793664 570.7533638412676           A17.075336384126768 17.075336384126768 0 0 1 124.38699542380986 553.6780274571408" fill = "none" stroke = "#000000" stroke-width = "5" />
    <line x1="124" y1="554" x2="124" y2="571" style="stroke:#000000;stroke-width:5" />
    <line x1="124" y1="571" x2="124" y2="588" style="stroke:#000000;stroke-width:5" />
  <path d="M141.46233180793664 604.9040366095212           A17.075336384126768 17.075336384126768 0 0 1 124.38699542380986 587.8287002253944" fill = "none" stroke = "#000000" stroke-width = "5" />
    <line x1="124" y1="588" x2="124" y2="605" style="stroke:#000000;stroke-width:5" />
    <line x1="124" y1="605" x2="124" y2="622" style="stroke:#000000;stroke-width:5" />
  <path d="M141.46233180793664 639.0547093777748           A17.075336384126768 17.075336384126768 0 0 1 124.38699542380986 621.979372993648" fill = "none" stroke = "#000000" stroke-width = "5" />
    <line x1="124" y1="622" x2="124" y2="639" style="stroke:#000000;stroke-width:5" />
    <line x1="124" y1="639" x2="124" y2="656" style="stroke:#000000;stroke-width:5" />
  <path d="M141.46233180793664 673.2053821460283           A17.075336384126768 17.075336384126768 0 0 1 124.38699542380986 656.1300457619016" fill = "none" stroke = "#000000" stroke-width = "5" />
    <circle cx="193" cy = "537" r = "8.537668192063384" stroke = "#000000" stroke-width = "5" fill = "#000000" />
    <line x1="193" y1="537" x2="193" y2="554" style="stroke:#000000;stroke-width:5" />
  <path d="M192.68834096031694 553.6780274571408           A17.075336384126768 17.075336384126768 0 0 1 175.61300457619018 570.7533638412676" fill = "none" stroke = "#000000" stroke-width = "5" />
    <line x1="193" y1="537" x2="193" y2="571" style="stroke:#000000;stroke-width:5" />
    <line x1="193" y1="571" x2="193" y2="588" style="stroke:#000000;stroke-width:5" />
  <path d="M192.68834096031696 587.8287002253944           A17.075336384126768 17.075336384126768 0 0 1 175.61300457619024 604.9040366095212" fill = "none" stroke = "#000000" stroke-width = "5" />
    <line x1="193" y1="588" x2="193" y2="605" style="stroke:#000000;stroke-width:5" />
    <line x1="193" y1="605" x2="193" y2="622" style="stroke:#000000;stroke-width:5" />
  <path d="M192.68834096031702 621.979372993648           A17.075336384126768 17.075336384126768 0 0 1 175.6130045761903 639.0547093777748" fill = "none" stroke = "#000000" stroke-width = "5" />
    <line x1="193" y1="622" x2="193" y2="639" style="stroke:#000000;stroke-width:5" />
    <line x1="193" y1="639" x2="193" y2="656" style="stroke:#000000;stroke-width:5" />
  <path d="M192.68834096031708 656.1300457619016           A17.075336384126768 17.075336384126768 0 0 1 175.61300457619035 673.2053821460283" fill = "none" stroke = "#000000" stroke-width = "5" />
    <line x1="193" y1="537" x2="176" y2="537" style="stroke:#000000;stroke-width:5" />
    <line x1="193" y1="537" x2="193" y2="520" style="stroke:#000000;stroke-width:5" />
  <path d="M175.61300457619018 502.4520183047605           A17.075336384126768 17.075336384126768 0 0 1 192.6883409603169 519.5273546888873" fill = "none" stroke = "#000000" stroke-width = "5" />
    <line x1="193" y1="520" x2="193" y2="502" style="stroke:#000000;stroke-width:5" />
    <line x1="193" y1="502" x2="193" y2="485" style="stroke:#000000;stroke-width:5" />
  <path d="M175.61300457619024 468.30134553650686           A17.075336384126768 17.075336384126768 0 0 1 192.68834096031696 485.3766819206337" fill = "none" stroke = "#000000" stroke-width = "5" />
    <line x1="193" y1="485" x2="193" y2="468" style="stroke:#000000;stroke-width:5" />
    <line x1="193" y1="468" x2="193" y2="451" style="stroke:#000000;stroke-width:5" />
  <path d="M175.6130045761903 434.1506727682533           A17.075336384126768 17.075336384126768 0 0 1 192.68834096031702 451.22600915238013" fill = "none" stroke = "#000000" stroke-width = "5" />
    <line x1="193" y1="451" x2="193" y2="434" style="stroke:#000000;stroke-width:5" />
    <line x1="193" y1="434" x2="193" y2="417" style="stroke:#000000;stroke-width:5" />
  <path d="M175.61300457619035 399.9999999999997           A17.075336384126768 17.075336384126768 0 0 1 192.68834096031708 417.07533638412656" fill = "none" stroke = "#000000" stroke-width = "5" />
    <text x="146" y = "690" fill = "#000000" font-size = "34.150672768253536px" font-family = "Arial">1</text>
    <text x="146" y = "656" fill = "#000000" font-size = "34.150672768253536px" font-family = "Arial">2</text>
    <text x="146" y = "622" fill = "#000000" font-size = "34.150672768253536px" font-family = "Arial">3</text>
    <text x="146" y = "588" fill = "#000000" font-size = "34.150672768253536px" font-family = "Arial">4</text>
    <text x="146" y = "554" fill = "#000000" font-size = "34.150672768253536px" font-family = "Arial">5</text>
    <text x="146" y = "520" fill = "#000000" font-size = "34.150672768253536px" font-family = "Arial">6</text>
    <text x="146" y = "485" fill = "#000000" font-size = "34.150672768253536px" font-family = "Arial">7</text>
    <text x="146" y = "451" fill = "#000000" font-size = "34.150672768253536px" font-family = "Arial">8</text>
    <text x="146" y = "417" fill = "#000000" font-size = "34.150672768253536px" font-family = "Arial">9</text>
    <line x1="124" y1="537" x2="90" y2="537" style="stroke:#000000;stroke-width:5" />
  <path d="M90.23632265555585 536.6026910730136           A34.150672768253536 34.150672768253536 0 0 1 56.08564988730247 502.45201830475986" fill = "none" stroke = "#000000" stroke-width = "5" />
    <line x1="193" y1="537" x2="227" y2="537" style="stroke:#000000;stroke-width:5" />
  <path d="M260.9896864968238 502.4520183047618           A34.150672768253536 34.150672768253536 0 0 1 226.83901372856988 536.602691073015" fill = "none" stroke = "#000000" stroke-width = "5" />
    <line x1="261" y1="502" x2="261" y2="468" style="stroke:#000000;stroke-width:5" />
    <line x1="261" y1="468" x2="261" y2="434" style="stroke:#000000;stroke-width:5" />
    <line x1="261" y1="434" x2="261" y2="400" style="stroke:#000000;stroke-width:5" />
    <line x1="56" y1="502" x2="56" y2="468" style="stroke:#000000;stroke-width:5" />
    <line x1="56" y1="468" x2="56" y2="434" style="stroke:#000000;stroke-width:5" />
    <line x1="56" y1="434" x2="56" y2="400" style="stroke:#000000;stroke-width:5" />
    <line x1="56" y1="400" x2="56" y2="366" style="stroke:#000000;stroke-width:5" />
    <line x1="261" y1="400" x2="261" y2="366" style="stroke:#000000;stroke-width:5" />
	<path d = "M56 366 L39 366 L39 332 L39 298 L39 263 L39 229 L73 229 L73 263 L73 298 L73 332 L73 366 L56 366 Z" stroke = "#000000" stroke-width = "5" fill = "none" />    <line x1="56" y1="366" x2="56" y2="332" style="stroke:#000000;stroke-width:5" />
    <line x1="56" y1="332" x2="56" y2="298" style="stroke:#000000;stroke-width:5" />
    <line x1="56" y1="298" x2="56" y2="263" style="stroke:#000000;stroke-width:5" />
    <line x1="56" y1="263" x2="56" y2="229" style="stroke:#000000;stroke-width:5" />
  <path d="M73.16098627143188 246.32197254285856           A17.075336384126768 17.075336384126768 0 0 1 56.08564988730525 229.24663615873163" fill = "none" stroke = "#000000" stroke-width = "5" />
  <path d="M56.08564988730366 365.84932723174586           A17.075336384126768 17.075336384126768 0 0 1 73.16098627143063 348.77399084761925" fill = "none" stroke = "#000000" stroke-width = "5" />
	<path d = "M261 229 L278 229 L278 263 L278 298 L278 332 L278 366 L244 366 L244 332 L244 298 L244 263 L244 229 L261 229 Z" stroke = "#000000" stroke-width = "5" fill = "none" />    <line x1="261" y1="229" x2="261" y2="263" style="stroke:#000000;stroke-width:5" />
    <line x1="261" y1="263" x2="261" y2="298" style="stroke:#000000;stroke-width:5" />
    <line x1="261" y1="298" x2="261" y2="332" style="stroke:#000000;stroke-width:5" />
    <line x1="261" y1="332" x2="261" y2="366" style="stroke:#000000;stroke-width:5" />
  <path d="M243.91435011269803 348.77399084762146           A17.075336384126768 17.075336384126768 0 0 1 260.98968649682445 365.84932723174865" fill = "none" stroke = "#000000" stroke-width = "5" />
  <path d="M260.9896864968274 229.24663615873442           A17.075336384126768 17.075336384126768 0 0 1 243.91435011270025 246.32197254286078" fill = "none" stroke = "#000000" stroke-width = "5" />
    <line x1="261" y1="229" x2="261" y2="195" style="stroke:#000000;stroke-width:5" />
    <line x1="56" y1="229" x2="56" y2="195" style="stroke:#000000;stroke-width:5" />
  <path d="M56.08564988730701 195.0959633904759           A34.150672768253536 34.150672768253536 0 0 1 90.23632265556141 160.9452906222234" fill = "none" stroke = "#000000" stroke-width = "5" />
  <path d="M226.83901372857557 160.94529062222614           A34.150672768253536 34.150672768253536 0 0 1 260.98968649682826 195.09596339048036" fill = "none" stroke = "#000000" stroke-width = "5" />
    <line x1="227" y1="161" x2="193" y2="161" style="stroke:#000000;stroke-width:5" />
    <line x1="90" y1="161" x2="124" y2="161" style="stroke:#000000;stroke-width:5" />
    <line x1="124" y1="161" x2="141" y2="161" style="stroke:#000000;stroke-width:5" />
    <line x1="176" y1="161" x2="193" y2="161" style="stroke:#000000;stroke-width:5" />
	<path d = "M176 178 L176 144 L141 144 L141 178 L176 178 Z" stroke = "#000000" stroke-width = "5" fill = "none" />	<path d = "M176 366 L176 332 L141 332 L141 366 L176 366 Z" stroke = "#000000" stroke-width = "5" fill = "none" />    <line x1="176" y1="349" x2="210" y2="349" style="stroke:#000000;stroke-width:5" />
    <line x1="210" y1="349" x2="244" y2="349" style="stroke:#000000;stroke-width:5" />
    <line x1="141" y1="349" x2="107" y2="349" style="stroke:#000000;stroke-width:5" />
    <line x1="107" y1="349" x2="73" y2="349" style="stroke:#000000;stroke-width:5" />
</svg>