<svg width="300" height="800" viewbox = "0 0 300 800"  xmlns="http://www.w3.org/2000/svg">
<!--<json>{
  "glyph": "0336,0332,0337,0331,0331,0331,0331,0336,0336,0332,0337,0337,0222,0334,0201,0333,0350,0334,0343,0335,0335,0335,0331,0335,0335,0330,0330,0330,0201,0335,0335,0331,0334,0343,0334,0334,0333,0334,0201,0201,0201,0201,0201,0201,0304,0331,0331,0332,0332,0332,0331,0332,0332,0332,0331,0331,0331,0201,0201,0201,0201,0201,0201,0201,0333,0333,0333,0333,0333,0331,0333,0201,0332,0332,0332,0332,0332,0332,0223,0333,0333,0333,0333,0333,0333,0335,0335,0331,0331,0331,0331,0223,0335,0335,0201,0331,0332,0332,0332,0332,0332,0332,0201,0333,0350,0334,0343,0335,0335,0335,0330,0330,0330,0330,0334,0343,0334,0330,0334,0334,0201,0330,0330,0330,0335,0335,0335,0335,0201,0336,0201,0330,0330,0342,0335,0335,0335,0335,0335,0335,0304,0331,0337,0200,0331,0331,0331,0331,0331,0336,0331,0337,0200,0336,0330,0335,0337,0342,0330,0342,0335,0335,0330,0330,0342,0330,0342,0335,0333,0333,0330,0330,0330,0330,0330,",
  "x0": 150,
  "y0": 450,
  "unit": 34.150672768253536,
  "width": 300,
  "height": 800,
  "style": {
    "color0": "black",
    "fill0": "black",
    "line0": 1,
    "color1": "black",
    "fill1": "black",
    "line1": 5,
    "color2": "red",
    "fill2": "red",
    "line2": 1,
    "color3": "#FF7900",
    "fill3": "#FF7900",
    "line3": 1,
    "color4": "yellow",
    "fill4": "yellow",
    "line4": 1,
    "color5": "green",
    "fill5": "green",
    "line5": 1,
    "color6": "blue",
    "fill6": "blue",
    "line6": 1,
    "color7": "purple",
    "fill7": "purple",
    "line7": 1
  },
  "shapes": [
    "0220:0336,0336,0347,0337,0337,",
    "0221:0321,0220,0336,0201,0333,0350,0334,0343,0335,0335,0335,0331,0334,0334,0330,0331,0331,0337,0201,0336,0201,0335,0333,0334,0334,0343,0335,0335,0335,0331,0334,0334,0201,0201,0335,0333,0334,0334,0343,0335,0335,0335,0331,0334,0334,0201,0201,0334,0334,0331,0335,0343,0332,0335,0331,0331,0331,0331,0331,0331,0331,0335,0335,0342,0335,0335,0201,0335,0335,0331,0334,0343,0335,0330,0334,0334,0201,0201,0335,0335,0331,0334,0343,0335,0330,0334,0334,0201,0201,0335,0335,0331,0334,0343,0335,0330,0334,0334,0201,0201,0335,0335,0331,0334,0343,0335,0335,0335,0330,0330,0330,0330,0330,0330,0330,0335,0335,0331,0334,0334,0304,0337,0335,0334,",
    "0222:0221,0333,0333,0335,0335,0335,0336,0334,0337,0221,0335,0335,0332,0332,0336,0333,0337,0336,0331,0331,0331,0331,0331,0331,0331,0331,0331,0332,0336,0336,0333,0333,0333,0333,0333,0337,0337,0337,061,0365,0330,062,0365,0330,063,0365,0330,064,0365,0330,065,0365,0330,066,0365,0330,067,0365,0330,070,0365,0330,071,0365,0331,0331,0331,0331,0331,0330,0332,0336,0330,0336,0333,0336,0333,0337,0337,0337,",
    "0223:0321,0336,0334,0362,0203,0335,0337,0203,0203,0203,0203,0335,0203,0335,0203,0203,0203,0203,0335,0336,0203,0354,0335,0337,0201,0201,0201,0342,0336,0330,0333,0330,0334,0335,0331,0331,0350,0330,0330,0334,0334,0334,0343,0335,0335,0335,0331,0331,0331,0331,0331,0331,0331,0331,0334,0343,0335,0304,0332,0337,",
    "0224:0222,0334,0201,0336,0333,0350,0334,0343,0335,0335,0335,0304,0332,0337,0337,0342,0330,0342,0330,0331,0331,0336,0333,0333,0331,0333,0336,0333,0330,0335,0337,0201,0336,0332,0350,0335,0343,0334,0330,0334,0334,0337,0304,0201,0201,0201,0201,0201,0201,0335,0335,0331,0331,0331,0331,0223,0335,0335,0332,0332,0332,0332,0332,0331,0331,0331,0331,0223,0335,0335,0201,0201,0335,0335,0330,0330,0330,0330,0330,0330,0201,0333,0333,0333,0333,0333,0331,0201,0332,0332,0332,0332,0350,0334,0343,0335,0335,0335,0330,0330,0330,0334,0343,0334,0330,0334,0334,0201,0330,0201,0335,0335,0304,0333,0336,0331,0333,0333,0337,0200,0331,0331,0331,0331,0331,0331,0336,0330,0337,0200,0336,0330,0337,0335,0342,0330,0336,0342,0335,0335,0335,0332,0332,0332,0332,0334,0201,0201,0201,0335,0335,0335,0334,0337,0334,0333,0333,0336,0330,0337,0337,0336,0201,0330,0330,0330,0336,0330,0335,0335,0337,0201,0336,0342,0335,0335,0331,0331,0331,0331,0331,0342,0337,0336,0330,0333,0337,0362,0203,0336,0203,0334,0203,0203,0334,0203,0203,0203,0334,0203,0203,0354,0334,0331,0331,0331,0331,0331,0332,0335,0335,0330,",
    "01220:0333,0200,0336,0330,0332,0220,0331,0333,0337,",
    "01221:0333,0200,0336,0330,0332,0336,0336,0221,0337,0337,0331,0333,0337,0320,",
    "01222:0333,0200,0336,0336,0336,0330,0332,0332,0330,0332,0330,0332,0330,0332,0222,0337,0337,0333,0331,0336,0336,0333,0337,0337,0337,0320,",
    "01223:0333,0200,0336,0330,0332,0336,0331,0337,0336,0223,0331,0333,0333,0337,0337,0320,",
    "01224:0333,0200,0336,0336,0330,0224,0337,0337,",
    "01225:0333,0200,0336,0336,0330,0225,0337,0337,",
    "01226:0333,0200,0336,0336,0330,0226,0337,0337,",
    "01227:0333,0200,0336,0336,0330,0227,0337,0337,",
    "01230:0333,0200,0336,0336,0330,0230,0331,0337,0337,",
    "01231:0333,0200,0336,0336,0330,0231,0331,0337,0337,",
    "01232:0333,0200,0336,0336,0232,0337,0337,",
    "01233:0333,0200,0336,0336,0330,0233,0331,0330,0337,0337,",
    "01234:0333,0200,0336,0336,0330,0330,0330,0234,0331,0331,0333,0333,0331,0331,0333,0333,0337,0337,0333,0333,0333,",
    "01235:0333,0200,0336,0336,0330,0235,0331,0333,0337,0337,",
    "01236:0333,0200,",
    "01237:0333,0200,",
    "0240:0220,0336,0331,0333,0336,0321,0335,0342,0335,0335,0342,0335,0330,0330,0332,0332,0337,0337,",
    "01240:0333,0200,0336,0330,0332,0210,0240,0211,0333,0331,0337,",
    "0241:0220,0336,0321,0343,0332,0350,0335,0336,0342,0334,0334,0342,0335,0304,0337,0333,0337,",
    "01241:0333,0200,0336,0332,0330,0210,0241,0211,0333,0331,0337,",
    "0242:0220,0321,0336,0343,0333,0336,0350,0335,0342,0334,0334,0342,0335,0337,0304,0332,0337,",
    "01242:0333,0200,0336,0330,0332,0210,0242,0211,0333,0331,0337,",
    "0243:0220,0336,0331,0332,0336,0321,0343,0332,0350,0334,0336,0342,0335,0335,0342,0337,0334,0334,0335,0304,0332,0330,0330,0337,0337,0333,",
    "01243:0333,0200,0336,0330,0332,0210,0243,0211,0333,0331,0337,",
    "0244:0220,0336,0331,0333,0336,0321,0343,0333,0350,0336,0335,0342,0334,0334,0342,0335,0337,0304,0333,0330,0330,0337,0337,0332,",
    "01244:0333,0200,0336,0330,0332,0210,0244,0211,0333,0331,0337,",
    "0245:0210,0332,0332,0362,0335,0203,0203,0203,0203,0334,0203,0363,0332,0332,0331,0211,",
    "01245:0333,0200,0336,0330,0332,0336,0245,0337,0333,0331,0337,",
    "0246:0210,0332,0332,0335,0306,0336,0330,0335,0335,0335,0321,0362,0203,0335,0335,0203,0364,0331,0350,0335,0337,0366,0333,0333,0333,0333,0334,0334,0334,0334,0367,0335,0336,0342,0334,0334,0342,0330,0330,0330,0330,0335,0335,0335,0304,0337,0211,",
    "01246:0333,0200,0336,0330,0332,0336,0246,",
    "0247:0330,0332,0336,0332,0336,0221,0333,0333,0333,0222,0333,0333,0333,0223,0333,0333,0333,0225,0333,0331,0331,0331,0332,0332,0332,0332,0332,0332,0332,0332,0332,0332,0332,0332,0333,0333,0226,0331,0331,0331,0333,0333,0333,0333,0333,0333,0333,0333,0333,0333,0333,0333,0333,0330,0333,0330,0330,0333,0330,0331,0332,0332,0332,0332,0332,0332,0332,0332,0332,0332,0332,0332,0227,0333,0333,0333,0230,0333,0331,0331,0331,0331,0332,0332,0332,0330,0332,0332,0332,0332,0332,0332,0333,0333,0231,0333,0333,0333,0232,0331,0333,0330,0333,0333,0233,0333,0333,0333,0234,0330,0330,0332,0330,0332,0332,0337,0337,",
    "01247:0333,0200,0336,0330,0332,0220,0336,0247,0337,0331,0333,0337,"
  ]
}</json>-->    <circle cx="124" cy = "587" r = "8.537668192063384" stroke = "#000000" stroke-width = "5" fill = "#000000" />
    <line x1="124" y1="587" x2="124" y2="570" style="stroke:#000000;stroke-width:5" />
  <path d="M124.38699542380986 569.5273546888874           A17.075336384126768 17.075336384126768 0 0 1 141.46233180793664 552.4520183047606" fill = "none" stroke = "#000000" stroke-width = "5" />
    <line x1="124" y1="587" x2="124" y2="552" style="stroke:#000000;stroke-width:5" />
    <line x1="124" y1="552" x2="124" y2="535" style="stroke:#000000;stroke-width:5" />
  <path d="M124.38699542380986 535.3766819206338           A17.075336384126768 17.075336384126768 0 0 1 141.46233180793664 518.301345536507" fill = "none" stroke = "#000000" stroke-width = "5" />
    <line x1="124" y1="535" x2="124" y2="518" style="stroke:#000000;stroke-width:5" />
    <line x1="124" y1="518" x2="124" y2="501" style="stroke:#000000;stroke-width:5" />
  <path d="M124.38699542380986 501.22600915238024           A17.075336384126768 17.075336384126768 0 0 1 141.46233180793664 484.15067276825346" fill = "none" stroke = "#000000" stroke-width = "5" />
    <line x1="124" y1="501" x2="124" y2="484" style="stroke:#000000;stroke-width:5" />
    <line x1="124" y1="484" x2="124" y2="467" style="stroke:#000000;stroke-width:5" />
  <path d="M124.38699542380986 467.0753363841267           A17.075336384126768 17.075336384126768 0 0 1 141.46233180793664 449.9999999999999" fill = "none" stroke = "#000000" stroke-width = "5" />
    <line x1="124" y1="587" x2="141" y2="587" style="stroke:#000000;stroke-width:5" />
    <line x1="124" y1="587" x2="124" y2="604" style="stroke:#000000;stroke-width:5" />
  <path d="M141.46233180793664 620.7533638412677           A17.075336384126768 17.075336384126768 0 0 1 124.38699542380986 603.678027457141" fill = "none" stroke = "#000000" stroke-width = "5" />
    <line x1="124" y1="604" x2="124" y2="621" style="stroke:#000000;stroke-width:5" />
    <line x1="124" y1="621" x2="124" y2="638" style="stroke:#000000;stroke-width:5" />
  <path d="M141.46233180793664 654.9040366095213           A17.075336384126768 17.075336384126768 0 0 1 124.38699542380986 637.8287002253945" fill = "none" stroke = "#000000" stroke-width = "5" />
    <line x1="124" y1="638" x2="124" y2="655" style="stroke:#000000;stroke-width:5" />
    <line x1="124" y1="655" x2="124" y2="672" style="stroke:#000000;stroke-width:5" />
  <path d="M141.46233180793664 689.0547093777749           A17.075336384126768 17.075336384126768 0 0 1 124.38699542380986 671.9793729936481" fill = "none" stroke = "#000000" stroke-width = "5" />
    <line x1="124" y1="672" x2="124" y2="689" style="stroke:#000000;stroke-width:5" />
    <line x1="124" y1="689" x2="124" y2="706" style="stroke:#000000;stroke-width:5" />
  <path d="M141.46233180793664 723.2053821460285           A17.075336384126768 17.075336384126768 0 0 1 124.38699542380986 706.1300457619017" fill = "none" stroke = "#000000" stroke-width = "5" />
    <circle cx="193" cy = "587" r = "8.537668192063384" stroke = "#000000" stroke-width = "5" fill = "#000000" />
    <line x1="193" y1="587" x2="193" y2="604" style="stroke:#000000;stroke-width:5" />
  <path d="M192.68834096031694 603.678027457141           A17.075336384126768 17.075336384126768 0 0 1 175.61300457619018 620.7533638412677" fill = "none" stroke = "#000000" stroke-width = "5" />
    <line x1="193" y1="587" x2="193" y2="621" style="stroke:#000000;stroke-width:5" />
    <line x1="193" y1="621" x2="193" y2="638" style="stroke:#000000;stroke-width:5" />
  <path d="M192.68834096031696 637.8287002253945           A17.075336384126768 17.075336384126768 0 0 1 175.61300457619024 654.9040366095213" fill = "none" stroke = "#000000" stroke-width = "5" />
    <line x1="193" y1="638" x2="193" y2="655" style="stroke:#000000;stroke-width:5" />
    <line x1="193" y1="655" x2="193" y2="672" style="stroke:#000000;stroke-width:5" />
  <path d="M192.68834096031702 671.9793729936481           A17.075336384126768 17.075336384126768 0 0 1 175.6130045761903 689.0547093777749" fill = "none" stroke = "#000000" stroke-width = "5" />
    <line x1="193" y1="672" x2="193" y2="689" style="stroke:#000000;stroke-width:5" />
    <line x1="193" y1="689" x2="193" y2="706" style="stroke:#000000;stroke-width:5" />
  <path d="M192.68834096031708 706.1300457619017           A17.075336384126768 17.075336384126768 0 0 1 175.61300457619035 723.2053821460285" fill = "none" stroke = "#000000" stroke-width = "5" />
    <line x1="193" y1="587" x2="176" y2="587" style="stroke:#000000;stroke-width:5" />
    <line x1="193" y1="587" x2="193" y2="570" style="stroke:#000000;stroke-width:5" />
  <path d="M175.61300457619018 552.4520183047606           A17.075336384126768 17.075336384126768 0 0 1 192.6883409603169 569.5273546888874" fill = "none" stroke = "#000000" stroke-width = "5" />
    <line x1="193" y1="570" x2="193" y2="552" style="stroke:#000000;stroke-width:5" />
    <line x1="193" y1="552" x2="193" y2="535" style="stroke:#000000;stroke-width:5" />
  <path d="M175.61300457619024 518.301345536507           A17.075336384126768 17.075336384126768 0 0 1 192.68834096031696 535.3766819206338" fill = "none" stroke = "#000000" stroke-width = "5" />
    <line x1="193" y1="535" x2="193" y2="518" style="stroke:#000000;stroke-width:5" />
    <line x1="193" y1="518" x2="193" y2="501" style="stroke:#000000;stroke-width:5" />
  <path d="M175.6130045761903 484.1506727682534           A17.075336384126768 17.075336384126768 0 0 1 192.68834096031702 501.22600915238024" fill = "none" stroke = "#000000" stroke-width = "5" />
    <line x1="193" y1="501" x2="193" y2="484" style="stroke:#000000;stroke-width:5" />
    <line x1="193" y1="484" x2="193" y2="467" style="stroke:#000000;stroke-width:5" />
  <path d="M175.61300457619035 449.99999999999983           A17.075336384126768 17.075336384126768 0 0 1 192.68834096031708 467.0753363841267" fill = "none" stroke = "#000000" stroke-width = "5" />
    <text x="146" y = "740" fill = "#000000" font-size = "34.150672768253536px" font-family = "Arial">1</text>
    <text x="146" y = "706" fill = "#000000" font-size = "34.150672768253536px" font-family = "Arial">2</text>
    <text x="146" y = "672" fill = "#000000" font-size = "34.150672768253536px" font-family = "Arial">3</text>
    <text x="146" y = "638" fill = "#000000" font-size = "34.150672768253536px" font-family = "Arial">4</text>
    <text x="146" y = "604" fill = "#000000" font-size = "34.150672768253536px" font-family = "Arial">5</text>
    <text x="146" y = "570" fill = "#000000" font-size = "34.150672768253536px" font-family = "Arial">6</text>
    <text x="146" y = "535" fill = "#000000" font-size = "34.150672768253536px" font-family = "Arial">7</text>
    <text x="146" y = "501" fill = "#000000" font-size = "34.150672768253536px" font-family = "Arial">8</text>
    <text x="146" y = "467" fill = "#000000" font-size = "34.150672768253536px" font-family = "Arial">9</text>
    <line x1="124" y1="587" x2="90" y2="587" style="stroke:#000000;stroke-width:5" />
  <path d="M90.23632265555585 586.6026910730137           A34.150672768253536 34.150672768253536 0 0 1 56.08564988730247 552.4520183047599" fill = "none" stroke = "#000000" stroke-width = "5" />
    <line x1="193" y1="587" x2="227" y2="587" style="stroke:#000000;stroke-width:5" />
  <path d="M260.9896864968238 552.4520183047619           A34.150672768253536 34.150672768253536 0 0 1 226.83901372856988 586.6026910730151" fill = "none" stroke = "#000000" stroke-width = "5" />
    <line x1="261" y1="552" x2="261" y2="518" style="stroke:#000000;stroke-width:5" />
    <line x1="261" y1="518" x2="261" y2="484" style="stroke:#000000;stroke-width:5" />
    <line x1="261" y1="484" x2="261" y2="450" style="stroke:#000000;stroke-width:5" />
    <line x1="261" y1="450" x2="261" y2="416" style="stroke:#000000;stroke-width:5" />
    <line x1="261" y1="416" x2="261" y2="382" style="stroke:#000000;stroke-width:5" />
    <line x1="261" y1="382" x2="261" y2="348" style="stroke:#000000;stroke-width:5" />
    <line x1="56" y1="552" x2="56" y2="518" style="stroke:#000000;stroke-width:5" />
    <line x1="56" y1="518" x2="56" y2="484" style="stroke:#000000;stroke-width:5" />
    <line x1="56" y1="484" x2="56" y2="450" style="stroke:#000000;stroke-width:5" />
    <line x1="56" y1="450" x2="56" y2="416" style="stroke:#000000;stroke-width:5" />
    <line x1="56" y1="416" x2="56" y2="382" style="stroke:#000000;stroke-width:5" />
    <line x1="56" y1="382" x2="56" y2="348" style="stroke:#000000;stroke-width:5" />
    <line x1="56" y1="348" x2="56" y2="313" style="stroke:#000000;stroke-width:5" />
    <line x1="261" y1="348" x2="261" y2="313" style="stroke:#000000;stroke-width:5" />
	<path d = "M56 313 L39 313 L39 279 L39 245 L39 211 L39 177 L73 177 L73 211 L73 245 L73 279 L73 313 L56 313 Z" stroke = "#000000" stroke-width = "5" fill = "none" />    <line x1="56" y1="313" x2="56" y2="279" style="stroke:#000000;stroke-width:5" />
    <line x1="56" y1="279" x2="56" y2="245" style="stroke:#000000;stroke-width:5" />
    <line x1="56" y1="245" x2="56" y2="211" style="stroke:#000000;stroke-width:5" />
    <line x1="56" y1="211" x2="56" y2="177" style="stroke:#000000;stroke-width:5" />
  <path d="M73.16098627143273 193.86995423809796           A17.075336384126768 17.075336384126768 0 0 1 56.085649887306104 176.79461785397103" fill = "none" stroke = "#000000" stroke-width = "5" />
  <path d="M56.08564988730451 313.3973089269852           A17.075336384126768 17.075336384126768 0 0 1 73.16098627143148 296.3219725428586" fill = "none" stroke = "#000000" stroke-width = "5" />
	<path d = "M261 177 L278 177 L278 211 L278 245 L278 279 L278 313 L244 313 L244 279 L244 245 L244 211 L244 177 L261 177 Z" stroke = "#000000" stroke-width = "5" fill = "none" />    <line x1="261" y1="177" x2="261" y2="211" style="stroke:#000000;stroke-width:5" />
    <line x1="261" y1="211" x2="261" y2="245" style="stroke:#000000;stroke-width:5" />
    <line x1="261" y1="245" x2="261" y2="279" style="stroke:#000000;stroke-width:5" />
    <line x1="261" y1="279" x2="261" y2="313" style="stroke:#000000;stroke-width:5" />
  <path d="M243.91435011269888 296.3219725428608           A17.075336384126768 17.075336384126768 0 0 1 260.9896864968253 313.397308926988" fill = "none" stroke = "#000000" stroke-width = "5" />
  <path d="M260.98968649682826 176.79461785397385           A17.075336384126768 17.075336384126768 0 0 1 243.9143501127011 193.8699542381002" fill = "none" stroke = "#000000" stroke-width = "5" />
    <line x1="261" y1="177" x2="261" y2="143" style="stroke:#000000;stroke-width:5" />
    <line x1="56" y1="177" x2="56" y2="143" style="stroke:#000000;stroke-width:5" />
  <path d="M56.08564988730786 142.64394508571533           A34.150672768253536 34.150672768253536 0 0 1 90.23632265556226 108.49327231746284" fill = "none" stroke = "#000000" stroke-width = "5" />
  <path d="M226.83901372857642 108.49327231746557           A34.150672768253536 34.150672768253536 0 0 1 260.9896864968291 142.6439450857198" fill = "none" stroke = "#000000" stroke-width = "5" />
    <line x1="227" y1="108" x2="193" y2="108" style="stroke:#000000;stroke-width:5" />
    <line x1="90" y1="108" x2="124" y2="108" style="stroke:#000000;stroke-width:5" />
    <line x1="124" y1="108" x2="141" y2="108" style="stroke:#000000;stroke-width:5" />
    <line x1="176" y1="108" x2="193" y2="108" style="stroke:#000000;stroke-width:5" />
	<path d = "M176 126 L176 91 L141 91 L141 126 L176 126 Z" stroke = "#000000" stroke-width = "5" fill = "none" />	<path d = "M176 313 L176 279 L141 279 L141 313 L176 313 Z" stroke = "#000000" stroke-width = "5" fill = "none" />    <line x1="176" y1="296" x2="210" y2="296" style="stroke:#000000;stroke-width:5" />
    <line x1="210" y1="296" x2="244" y2="296" style="stroke:#000000;stroke-width:5" />
    <line x1="141" y1="296" x2="107" y2="296" style="stroke:#000000;stroke-width:5" />
    <line x1="107" y1="296" x2="73" y2="296" style="stroke:#000000;stroke-width:5" />
</svg>