<svg width="300" height="700" viewbox = "0 0 300 700"  xmlns="http://www.w3.org/2000/svg">
<!--<json>{
  "glyph": "0336,0332,0337,0331,0331,0331,0331,0336,0336,0332,0337,0337,0222,0334,0201,0333,0350,0334,0343,0335,0335,0335,0331,0335,0335,0330,0330,0330,0201,0335,0335,0331,0334,0343,0334,0334,0333,0334,0201,0201,0201,0201,0201,0201,0304,0331,0331,0332,0332,0332,0331,0332,0332,0332,0331,0331,0331,0201,0201,0201,0201,0201,0201,0201,0333,0333,0333,0333,0333,0331,0333,0201,0332,0332,0332,0332,0332,0332,0223,0333,0333,0333,0333,0333,0333,0335,0335,0331,0331,0331,0331,0223,0335,0335,0201,0331,0332,0332,0332,0332,0332,0332,0201,0333,0350,0334,0343,0335,0335,0335,0330,0330,0330,0330,0334,0343,0334,0330,0334,0334,0201,0330,0330,0330,0335,0335,0335,0335,0201,0336,0201,0330,0330,0342,0335,0335,0335,0335,0335,0335,0304,0331,0337,0200,0331,0331,0331,0331,0331,0336,0331,0337,0200,0336,0330,0335,0337,0342,0330,0342,0335,0335,0330,0330,0342,0330,0342,0335,0333,0333,0330,0330,0330,0330,0330,",
  "x0": 150,
  "y0": 395.45454545454544,
  "unit": 31.046066152957756,
  "width": 300,
  "height": 700,
  "style": {
    "color0": "black",
    "fill0": "black",
    "line0": 1,
    "color1": "black",
    "fill1": "black",
    "line1": 5,
    "color2": "red",
    "fill2": "red",
    "line2": 1,
    "color3": "#FF7900",
    "fill3": "#FF7900",
    "line3": 1,
    "color4": "yellow",
    "fill4": "yellow",
    "line4": 1,
    "color5": "green",
    "fill5": "green",
    "line5": 1,
    "color6": "blue",
    "fill6": "blue",
    "line6": 1,
    "color7": "purple",
    "fill7": "purple",
    "line7": 1
  },
  "shapes": [
    "0220:0336,0336,0347,0337,0337,",
    "0221:0321,0220,0336,0201,0333,0350,0334,0343,0335,0335,0335,0331,0334,0334,0330,0331,0331,0337,0201,0336,0201,0335,0333,0334,0334,0343,0335,0335,0335,0331,0334,0334,0201,0201,0335,0333,0334,0334,0343,0335,0335,0335,0331,0334,0334,0201,0201,0334,0334,0331,0335,0343,0332,0335,0331,0331,0331,0331,0331,0331,0331,0335,0335,0342,0335,0335,0201,0335,0335,0331,0334,0343,0335,0330,0334,0334,0201,0201,0335,0335,0331,0334,0343,0335,0330,0334,0334,0201,0201,0335,0335,0331,0334,0343,0335,0330,0334,0334,0201,0201,0335,0335,0331,0334,0343,0335,0335,0335,0330,0330,0330,0330,0330,0330,0330,0335,0335,0331,0334,0334,0304,0337,0335,0334,",
    "0222:0221,0333,0333,0335,0335,0335,0336,0334,0337,0221,0335,0335,0332,0332,0336,0333,0337,0336,0331,0331,0331,0331,0331,0331,0331,0331,0331,0332,0336,0336,0333,0333,0333,0333,0333,0337,0337,0337,061,0365,0330,062,0365,0330,063,0365,0330,064,0365,0330,065,0365,0330,066,0365,0330,067,0365,0330,070,0365,0330,071,0365,0331,0331,0331,0331,0331,0330,0332,0336,0330,0336,0333,0336,0333,0337,0337,0337,",
    "0223:0321,0336,0334,0362,0203,0335,0337,0203,0203,0203,0203,0335,0203,0335,0203,0203,0203,0203,0335,0336,0203,0354,0335,0337,0201,0201,0201,0342,0336,0330,0333,0330,0334,0335,0331,0331,0350,0330,0330,0334,0334,0334,0343,0335,0335,0335,0331,0331,0331,0331,0331,0331,0331,0331,0334,0343,0335,0304,0332,0337,",
    "0224:0222,0334,0201,0336,0333,0350,0334,0343,0335,0335,0335,0304,0332,0337,0337,0342,0330,0342,0330,0331,0331,0336,0333,0333,0331,0333,0336,0333,0330,0335,0337,0201,0336,0332,0350,0335,0343,0334,0330,0334,0334,0337,0304,0201,0201,0201,0201,0201,0201,0335,0335,0331,0331,0331,0331,0223,0335,0335,0332,0332,0332,0332,0332,0331,0331,0331,0331,0223,0335,0335,0201,0201,0335,0335,0330,0330,0330,0330,0330,0330,0201,0333,0333,0333,0333,0333,0331,0201,0332,0332,0332,0332,0350,0334,0343,0335,0335,0335,0330,0330,0330,0334,0343,0334,0330,0334,0334,0201,0330,0201,0335,0335,0304,0333,0336,0331,0333,0333,0337,0200,0331,0331,0331,0331,0331,0331,0336,0330,0337,0200,0336,0330,0337,0335,0342,0330,0336,0342,0335,0335,0335,0332,0332,0332,0332,0334,0201,0201,0201,0335,0335,0335,0334,0337,0334,0333,0333,0336,0330,0337,0337,0336,0201,0330,0330,0330,0336,0330,0335,0335,0337,0201,0336,0342,0335,0335,0331,0331,0331,0331,0331,0342,0337,0336,0330,0333,0337,0362,0203,0336,0203,0334,0203,0203,0334,0203,0203,0203,0334,0203,0203,0354,0334,0331,0331,0331,0331,0331,0332,0335,0335,0330,",
    "01220:0333,0200,0336,0330,0332,0220,0331,0333,0337,",
    "01221:0333,0200,0336,0330,0332,0336,0336,0221,0337,0337,0331,0333,0337,0320,",
    "01222:0333,0200,0336,0336,0336,0330,0332,0332,0330,0332,0330,0332,0330,0332,0222,0337,0337,0333,0331,0336,0336,0333,0337,0337,0337,0320,",
    "01223:0333,0200,0336,0330,0332,0336,0331,0337,0336,0223,0331,0333,0333,0337,0337,0320,",
    "01224:0333,0200,0336,0336,0330,0224,0337,0337,",
    "01225:0333,0200,0336,0336,0330,0225,0337,0337,",
    "01226:0333,0200,0336,0336,0330,0226,0337,0337,",
    "01227:0333,0200,0336,0336,0330,0227,0337,0337,",
    "01230:0333,0200,0336,0336,0330,0230,0331,0337,0337,",
    "01231:0333,0200,0336,0336,0330,0231,0331,0337,0337,",
    "01232:0333,0200,0336,0336,0232,0337,0337,",
    "01233:0333,0200,0336,0336,0330,0233,0331,0330,0337,0337,",
    "01234:0333,0200,0336,0336,0330,0330,0330,0234,0331,0331,0333,0333,0331,0331,0333,0333,0337,0337,0333,0333,0333,",
    "01235:0333,0200,0336,0336,0330,0235,0331,0333,0337,0337,",
    "01236:0333,0200,",
    "01237:0333,0200,",
    "0240:0220,0336,0331,0333,0336,0321,0335,0342,0335,0335,0342,0335,0330,0330,0332,0332,0337,0337,",
    "01240:0333,0200,0336,0330,0332,0210,0240,0211,0333,0331,0337,",
    "0241:0220,0336,0321,0343,0332,0350,0335,0336,0342,0334,0334,0342,0335,0304,0337,0333,0337,",
    "01241:0333,0200,0336,0332,0330,0210,0241,0211,0333,0331,0337,",
    "0242:0220,0321,0336,0343,0333,0336,0350,0335,0342,0334,0334,0342,0335,0337,0304,0332,0337,",
    "01242:0333,0200,0336,0330,0332,0210,0242,0211,0333,0331,0337,",
    "0243:0220,0336,0331,0332,0336,0321,0343,0332,0350,0334,0336,0342,0335,0335,0342,0337,0334,0334,0335,0304,0332,0330,0330,0337,0337,0333,",
    "01243:0333,0200,0336,0330,0332,0210,0243,0211,0333,0331,0337,",
    "0244:0220,0336,0331,0333,0336,0321,0343,0333,0350,0336,0335,0342,0334,0334,0342,0335,0337,0304,0333,0330,0330,0337,0337,0332,",
    "01244:0333,0200,0336,0330,0332,0210,0244,0211,0333,0331,0337,",
    "0245:0210,0332,0332,0362,0335,0203,0203,0203,0203,0334,0203,0363,0332,0332,0331,0211,",
    "01245:0333,0200,0336,0330,0332,0336,0245,0337,0333,0331,0337,",
    "0246:0210,0332,0332,0335,0306,0336,0330,0335,0335,0335,0321,0362,0203,0335,0335,0203,0364,0331,0350,0335,0337,0366,0333,0333,0333,0333,0334,0334,0334,0334,0367,0335,0336,0342,0334,0334,0342,0330,0330,0330,0330,0335,0335,0335,0304,0337,0211,",
    "01246:0333,0200,0336,0330,0332,0336,0246,",
    "0247:0330,0332,0336,0332,0336,0221,0333,0333,0333,0222,0333,0333,0333,0223,0333,0333,0333,0225,0333,0331,0331,0331,0332,0332,0332,0332,0332,0332,0332,0332,0332,0332,0332,0332,0333,0333,0226,0331,0331,0331,0333,0333,0333,0333,0333,0333,0333,0333,0333,0333,0333,0333,0333,0330,0333,0330,0330,0333,0330,0331,0332,0332,0332,0332,0332,0332,0332,0332,0332,0332,0332,0332,0227,0333,0333,0333,0230,0333,0331,0331,0331,0331,0332,0332,0332,0330,0332,0332,0332,0332,0332,0332,0333,0333,0231,0333,0333,0333,0232,0331,0333,0330,0333,0333,0233,0333,0333,0333,0234,0330,0330,0332,0330,0332,0332,0337,0337,",
    "01247:0333,0200,0336,0330,0332,0220,0336,0247,0337,0331,0333,0337,"
  ]
}</json>-->    <circle cx="127" cy = "520" r = "7.761516538239439" stroke = "#000000" stroke-width = "5" fill = "#000000" />
    <line x1="127" y1="520" x2="127" y2="504" style="stroke:#000000;stroke-width:5" />
  <path d="M126.7154503852817 504.11577698989754           A15.523033076478878 15.523033076478878 0 0 1 142.23848346176058 488.59274391341864" fill = "none" stroke = "#000000" stroke-width = "5" />
    <line x1="127" y1="520" x2="127" y2="489" style="stroke:#000000;stroke-width:5" />
    <line x1="127" y1="489" x2="127" y2="473" style="stroke:#000000;stroke-width:5" />
  <path d="M126.7154503852817 473.0697108369398           A15.523033076478878 15.523033076478878 0 0 1 142.23848346176058 457.5466777604609" fill = "none" stroke = "#000000" stroke-width = "5" />
    <line x1="127" y1="473" x2="127" y2="458" style="stroke:#000000;stroke-width:5" />
    <line x1="127" y1="458" x2="127" y2="442" style="stroke:#000000;stroke-width:5" />
  <path d="M126.7154503852817 442.023644683982           A15.523033076478878 15.523033076478878 0 0 1 142.23848346176058 426.5006116075031" fill = "none" stroke = "#000000" stroke-width = "5" />
    <line x1="127" y1="442" x2="127" y2="427" style="stroke:#000000;stroke-width:5" />
    <line x1="127" y1="427" x2="127" y2="411" style="stroke:#000000;stroke-width:5" />
  <path d="M126.7154503852817 410.9775785310242           A15.523033076478878 15.523033076478878 0 0 1 142.23848346176058 395.4545454545453" fill = "none" stroke = "#000000" stroke-width = "5" />
    <line x1="127" y1="520" x2="142" y2="520" style="stroke:#000000;stroke-width:5" />
    <line x1="127" y1="520" x2="127" y2="535" style="stroke:#000000;stroke-width:5" />
  <path d="M142.23848346176058 550.6848762193342           A15.523033076478878 15.523033076478878 0 0 1 126.7154503852817 535.1618431428553" fill = "none" stroke = "#000000" stroke-width = "5" />
    <line x1="127" y1="535" x2="127" y2="551" style="stroke:#000000;stroke-width:5" />
    <line x1="127" y1="551" x2="127" y2="566" style="stroke:#000000;stroke-width:5" />
  <path d="M142.23848346176058 581.730942372292           A15.523033076478878 15.523033076478878 0 0 1 126.7154503852817 566.2079092958131" fill = "none" stroke = "#000000" stroke-width = "5" />
    <line x1="127" y1="566" x2="127" y2="582" style="stroke:#000000;stroke-width:5" />
    <line x1="127" y1="582" x2="127" y2="597" style="stroke:#000000;stroke-width:5" />
  <path d="M142.23848346176058 612.7770085252498           A15.523033076478878 15.523033076478878 0 0 1 126.7154503852817 597.2539754487709" fill = "none" stroke = "#000000" stroke-width = "5" />
    <line x1="127" y1="597" x2="127" y2="613" style="stroke:#000000;stroke-width:5" />
    <line x1="127" y1="613" x2="127" y2="628" style="stroke:#000000;stroke-width:5" />
  <path d="M142.23848346176058 643.8230746782076           A15.523033076478878 15.523033076478878 0 0 1 126.7154503852817 628.3000416017287" fill = "none" stroke = "#000000" stroke-width = "5" />
    <circle cx="189" cy = "520" r = "7.761516538239439" stroke = "#000000" stroke-width = "5" fill = "#000000" />
    <line x1="189" y1="520" x2="189" y2="535" style="stroke:#000000;stroke-width:5" />
  <path d="M188.8075826911972 535.1618431428553           A15.523033076478878 15.523033076478878 0 0 1 173.28454961471834 550.6848762193342" fill = "none" stroke = "#000000" stroke-width = "5" />
    <line x1="189" y1="520" x2="189" y2="551" style="stroke:#000000;stroke-width:5" />
    <line x1="189" y1="551" x2="189" y2="566" style="stroke:#000000;stroke-width:5" />
  <path d="M188.80758269119724 566.2079092958131           A15.523033076478878 15.523033076478878 0 0 1 173.2845496147184 581.730942372292" fill = "none" stroke = "#000000" stroke-width = "5" />
    <line x1="189" y1="566" x2="189" y2="582" style="stroke:#000000;stroke-width:5" />
    <line x1="189" y1="582" x2="189" y2="597" style="stroke:#000000;stroke-width:5" />
  <path d="M188.8075826911973 597.2539754487709           A15.523033076478878 15.523033076478878 0 0 1 173.28454961471846 612.7770085252498" fill = "none" stroke = "#000000" stroke-width = "5" />
    <line x1="189" y1="597" x2="189" y2="613" style="stroke:#000000;stroke-width:5" />
    <line x1="189" y1="613" x2="189" y2="628" style="stroke:#000000;stroke-width:5" />
  <path d="M188.80758269119735 628.3000416017287           A15.523033076478878 15.523033076478878 0 0 1 173.28454961471851 643.8230746782076" fill = "none" stroke = "#000000" stroke-width = "5" />
    <line x1="189" y1="520" x2="173" y2="520" style="stroke:#000000;stroke-width:5" />
    <line x1="189" y1="520" x2="189" y2="504" style="stroke:#000000;stroke-width:5" />
  <path d="M173.28454961471834 488.5927439134186           A15.523033076478878 15.523033076478878 0 0 1 188.80758269119718 504.11577698989754" fill = "none" stroke = "#000000" stroke-width = "5" />
    <line x1="189" y1="504" x2="189" y2="489" style="stroke:#000000;stroke-width:5" />
    <line x1="189" y1="489" x2="189" y2="473" style="stroke:#000000;stroke-width:5" />
  <path d="M173.2845496147184 457.5466777604608           A15.523033076478878 15.523033076478878 0 0 1 188.80758269119724 473.06971083693975" fill = "none" stroke = "#000000" stroke-width = "5" />
    <line x1="189" y1="473" x2="189" y2="458" style="stroke:#000000;stroke-width:5" />
    <line x1="189" y1="458" x2="189" y2="442" style="stroke:#000000;stroke-width:5" />
  <path d="M173.28454961471846 426.500611607503           A15.523033076478878 15.523033076478878 0 0 1 188.8075826911973 442.02364468398196" fill = "none" stroke = "#000000" stroke-width = "5" />
    <line x1="189" y1="442" x2="189" y2="427" style="stroke:#000000;stroke-width:5" />
    <line x1="189" y1="427" x2="189" y2="411" style="stroke:#000000;stroke-width:5" />
  <path d="M173.28454961471851 395.4545454545452           A15.523033076478878 15.523033076478878 0 0 1 188.80758269119735 410.97757853102416" fill = "none" stroke = "#000000" stroke-width = "5" />
    <text x="146" y = "659" fill = "#000000" font-size = "31.046066152957756px" font-family = "Arial">1</text>
    <text x="146" y = "628" fill = "#000000" font-size = "31.046066152957756px" font-family = "Arial">2</text>
    <text x="146" y = "597" fill = "#000000" font-size = "31.046066152957756px" font-family = "Arial">3</text>
    <text x="146" y = "566" fill = "#000000" font-size = "31.046066152957756px" font-family = "Arial">4</text>
    <text x="146" y = "535" fill = "#000000" font-size = "31.046066152957756px" font-family = "Arial">5</text>
    <text x="146" y = "504" fill = "#000000" font-size = "31.046066152957756px" font-family = "Arial">6</text>
    <text x="146" y = "473" fill = "#000000" font-size = "31.046066152957756px" font-family = "Arial">7</text>
    <text x="146" y = "442" fill = "#000000" font-size = "31.046066152957756px" font-family = "Arial">8</text>
    <text x="146" y = "411" fill = "#000000" font-size = "31.046066152957756px" font-family = "Arial">9</text>
    <line x1="127" y1="520" x2="96" y2="520" style="stroke:#000000;stroke-width:5" />
  <path d="M95.66938423232332 519.638810066376           A31.046066152957756 31.046066152957756 0 0 1 64.6233180793657 488.592743913418" fill = "none" stroke = "#000000" stroke-width = "5" />
    <line x1="189" y1="520" x2="220" y2="520" style="stroke:#000000;stroke-width:5" />
  <path d="M250.8997149971124 488.5927439134199           A31.046066152957756 31.046066152957756 0 0 1 219.85364884415426 519.6388100663773" fill = "none" stroke = "#000000" stroke-width = "5" />
    <line x1="251" y1="489" x2="251" y2="458" style="stroke:#000000;stroke-width:5" />
    <line x1="251" y1="458" x2="251" y2="427" style="stroke:#000000;stroke-width:5" />
    <line x1="251" y1="427" x2="251" y2="395" style="stroke:#000000;stroke-width:5" />
    <line x1="251" y1="395" x2="251" y2="364" style="stroke:#000000;stroke-width:5" />
    <line x1="251" y1="364" x2="251" y2="333" style="stroke:#000000;stroke-width:5" />
    <line x1="251" y1="333" x2="251" y2="302" style="stroke:#000000;stroke-width:5" />
    <line x1="65" y1="489" x2="65" y2="458" style="stroke:#000000;stroke-width:5" />
    <line x1="65" y1="458" x2="65" y2="427" style="stroke:#000000;stroke-width:5" />
    <line x1="65" y1="427" x2="65" y2="395" style="stroke:#000000;stroke-width:5" />
    <line x1="65" y1="395" x2="65" y2="364" style="stroke:#000000;stroke-width:5" />
    <line x1="65" y1="364" x2="65" y2="333" style="stroke:#000000;stroke-width:5" />
    <line x1="65" y1="333" x2="65" y2="302" style="stroke:#000000;stroke-width:5" />
    <line x1="65" y1="302" x2="65" y2="271" style="stroke:#000000;stroke-width:5" />
    <line x1="251" y1="302" x2="251" y2="271" style="stroke:#000000;stroke-width:5" />
	<path d = "M65 271 L49 271 L49 240 L49 209 L49 178 L49 147 L80 147 L80 178 L80 209 L80 240 L80 271 L65 271 Z" stroke = "#000000" stroke-width = "5" fill = "none" />    <line x1="65" y1="271" x2="65" y2="240" style="stroke:#000000;stroke-width:5" />
    <line x1="65" y1="240" x2="65" y2="209" style="stroke:#000000;stroke-width:5" />
    <line x1="65" y1="209" x2="65" y2="178" style="stroke:#000000;stroke-width:5" />
    <line x1="65" y1="178" x2="65" y2="147" style="stroke:#000000;stroke-width:5" />
  <path d="M80.14635115584778 162.6090493073613           A15.523033076478878 15.523033076478878 0 0 1 64.62331807936903 147.08601623088228" fill = "none" stroke = "#000000" stroke-width = "5" />
  <path d="M64.62331807936755 271.2702808427132           A15.523033076478878 15.523033076478878 0 0 1 80.14635115584662 255.7472477662345" fill = "none" stroke = "#000000" stroke-width = "5" />
	<path d = "M251 147 L266 147 L266 178 L266 209 L266 240 L266 271 L235 271 L235 240 L235 209 L235 178 L235 147 L251 147 Z" stroke = "#000000" stroke-width = "5" fill = "none" />    <line x1="251" y1="147" x2="251" y2="178" style="stroke:#000000;stroke-width:5" />
    <line x1="251" y1="178" x2="251" y2="209" style="stroke:#000000;stroke-width:5" />
    <line x1="251" y1="209" x2="251" y2="240" style="stroke:#000000;stroke-width:5" />
    <line x1="251" y1="240" x2="251" y2="271" style="stroke:#000000;stroke-width:5" />
  <path d="M235.37668192063515 255.7472477662363           A15.523033076478878 15.523033076478878 0 0 1 250.89971499711368 271.2702808427155" fill = "none" stroke = "#000000" stroke-width = "5" />
  <path d="M250.8997149971164 147.0860162308846           A15.523033076478878 15.523033076478878 0 0 1 235.3766819206372 162.6090493073631" fill = "none" stroke = "#000000" stroke-width = "5" />
    <line x1="251" y1="147" x2="251" y2="116" style="stroke:#000000;stroke-width:5" />
    <line x1="65" y1="147" x2="65" y2="116" style="stroke:#000000;stroke-width:5" />
  <path d="M64.62331807937059 116.03995007792224           A31.046066152957756 31.046066152957756 0 0 1 95.66938423232914 84.99388392496544" fill = "none" stroke = "#000000" stroke-width = "5" />
  <path d="M219.8536488441602 84.99388392496789           A31.046066152957756 31.046066152957756 0 0 1 250.89971499711717 116.03995007792625" fill = "none" stroke = "#000000" stroke-width = "5" />
    <line x1="220" y1="85" x2="189" y2="85" style="stroke:#000000;stroke-width:5" />
    <line x1="96" y1="85" x2="127" y2="85" style="stroke:#000000;stroke-width:5" />
    <line x1="127" y1="85" x2="142" y2="85" style="stroke:#000000;stroke-width:5" />
    <line x1="173" y1="85" x2="189" y2="85" style="stroke:#000000;stroke-width:5" />
	<path d = "M173 101 L173 69 L142 69 L142 101 L173 101 Z" stroke = "#000000" stroke-width = "5" fill = "none" />	<path d = "M173 271 L173 240 L142 240 L142 271 L173 271 Z" stroke = "#000000" stroke-width = "5" fill = "none" />    <line x1="173" y1="256" x2="204" y2="256" style="stroke:#000000;stroke-width:5" />
    <line x1="204" y1="256" x2="235" y2="256" style="stroke:#000000;stroke-width:5" />
    <line x1="142" y1="256" x2="111" y2="256" style="stroke:#000000;stroke-width:5" />
    <line x1="111" y1="256" x2="80" y2="256" style="stroke:#000000;stroke-width:5" />
</svg>