<svg width="600" height="1400" viewbox = "0 0 600 1400"  xmlns="http://www.w3.org/2000/svg">
<!--<json>{
  "glyph": "0336,0332,0336,0332,0337,0337,0331,0331,0331,0331,0336,0336,0332,0337,0337,0222,0334,0201,0333,0350,0334,0343,0335,0335,0335,0331,0335,0335,0330,0330,0330,0201,0335,0335,0331,0334,0343,0334,0334,0333,0334,0201,0201,0201,0201,0201,0201,0304,0331,0331,0332,0332,0332,0331,0332,0332,0332,0331,0331,0331,0201,0201,0201,0201,0201,0201,0201,0333,0333,0333,0333,0333,0331,0333,0201,0332,0332,0332,0332,0332,0332,0223,0333,0333,0333,0333,0333,0333,0335,0335,0331,0331,0331,0331,0223,0335,0335,0201,0331,0332,0332,0332,0332,0332,0332,0201,0333,0350,0334,0343,0335,0335,0335,0330,0330,0330,0330,0334,0343,0334,0330,0334,0334,0201,0330,0330,0330,0335,0335,0335,0335,0201,0336,0201,0330,0330,0342,0335,0335,0335,0335,0335,0335,0304,0331,0337,0200,0331,0331,0331,0331,0331,0336,0331,0337,0200,0336,0330,0335,0337,0342,0330,0342,0335,0335,0330,0330,0342,0330,0342,0335,0333,0333,0330,0330,0330,0330,0330,0336,0332,0337,0331,0331,0331,0331,0330,0336,0331,0337,0331,0331,0331,0331,0326,0225,0330,0330,0330,0330,0330,0331,0336,0330,0337,0330,0330,0322,0330,0330,0336,0330,0337,0225,0331,0331,0331,0331,0331,0327,0330,0336,0331,0337,0225,0333,0333,0321,0330,0336,0333,0334,0342,0335,0331,0332,0336,0330,0337,0326,0204,0332,0332,0332,0332,0332,0332,0332,0204,0321,0330,0332,0336,0331,0337,0334,0342,0335,0331,0331,0331,0333,0333,0331,0333,0333,0333,0331,0333,0333,0331,0331,0331,0331,0331,",
  "x0": 300,
  "y0": 759.8848699999998,
  "unit": 60.50000000000002,
  "width": 600,
  "height": 1400,
  "style": {
    "color0": "black",
    "fill0": "black",
    "line0": 1,
    "color1": "black",
    "fill1": "black",
    "line1": 5,
    "color2": "red",
    "fill2": "red",
    "line2": 1,
    "color3": "#FF7900",
    "fill3": "#FF7900",
    "line3": 1,
    "color4": "yellow",
    "fill4": "yellow",
    "line4": 1,
    "color5": "green",
    "fill5": "green",
    "line5": 1,
    "color6": "blue",
    "fill6": "blue",
    "line6": 1,
    "color7": "purple",
    "fill7": "purple",
    "line7": 1
  },
  "shapes": [
    "0220:0336,0336,0347,0337,0337,",
    "0221:0321,0220,0336,0201,0333,0350,0334,0343,0335,0335,0335,0331,0334,0334,0330,0331,0331,0337,0201,0336,0201,0335,0333,0334,0334,0343,0335,0335,0335,0331,0334,0334,0201,0201,0335,0333,0334,0334,0343,0335,0335,0335,0331,0334,0334,0201,0201,0334,0334,0331,0335,0343,0332,0335,0331,0331,0331,0331,0331,0331,0331,0335,0335,0342,0335,0335,0201,0335,0335,0331,0334,0343,0335,0330,0334,0334,0201,0201,0335,0335,0331,0334,0343,0335,0330,0334,0334,0201,0201,0335,0335,0331,0334,0343,0335,0330,0334,0334,0201,0201,0335,0335,0331,0334,0343,0335,0335,0335,0330,0330,0330,0330,0330,0330,0330,0335,0335,0331,0334,0334,0304,0337,0335,0334,",
    "0222:0221,0333,0333,0335,0335,0335,0336,0334,0337,0221,0335,0335,0332,0332,0336,0333,0337,0336,0331,0331,0331,0331,0331,0331,0331,0331,0331,0332,0336,0336,0333,0333,0333,0333,0333,0337,0337,0337,061,0365,0330,062,0365,0330,063,0365,0330,064,0365,0330,065,0365,0330,066,0365,0330,067,0365,0330,070,0365,0330,071,0365,0331,0331,0331,0331,0331,0330,0332,0336,0330,0336,0333,0336,0333,0337,0337,0337,",
    "0223:0321,0336,0334,0362,0203,0335,0337,0203,0203,0203,0203,0335,0203,0335,0203,0203,0203,0203,0335,0336,0203,0354,0335,0337,0201,0201,0201,0342,0336,0330,0333,0330,0334,0335,0331,0331,0350,0330,0330,0334,0334,0334,0343,0335,0335,0335,0331,0331,0331,0331,0331,0331,0331,0331,0334,0343,0335,0304,0332,0337,",
    "0224:0222,0334,0201,0336,0333,0350,0334,0343,0335,0335,0335,0304,0332,0337,0337,0342,0330,0342,0330,0331,0331,0336,0333,0333,0331,0333,0336,0333,0330,0335,0337,0201,0336,0332,0350,0335,0343,0334,0330,0334,0334,0337,0304,0201,0201,0201,0201,0201,0201,0335,0335,0331,0331,0331,0331,0223,0335,0335,0332,0332,0332,0332,0332,0331,0331,0331,0331,0223,0335,0335,0201,0201,0335,0335,0330,0330,0330,0330,0330,0330,0201,0333,0333,0333,0333,0333,0331,0201,0332,0332,0332,0332,0350,0334,0343,0335,0335,0335,0330,0330,0330,0334,0343,0334,0330,0334,0334,0201,0330,0201,0335,0335,0304,0333,0336,0331,0333,0333,0337,0200,0331,0331,0331,0331,0331,0331,0336,0330,0337,0200,0336,0330,0337,0335,0342,0330,0336,0342,0335,0335,0335,0332,0332,0332,0332,0334,0201,0201,0201,0335,0335,0335,0334,0337,0334,0333,0333,0336,0330,0337,0337,0336,0201,0330,0330,0330,0336,0330,0335,0335,0337,0201,0336,0342,0335,0335,0331,0331,0331,0331,0331,0342,0337,0336,0330,0333,0337,0362,0203,0336,0203,0334,0203,0203,0334,0203,0203,0203,0334,0203,0203,0354,0334,0331,0331,0331,0331,0331,0332,0335,0335,0330,",
    "0225:0334,0336,0336,0362,0203,0335,0337,0203,0203,0334,0336,0203,0335,0350,0335,0310,0337,0203,0203,0335,0335,0203,0203,0335,0335,0335,0336,0203,0334,0334,0203,0203,0203,0203,0335,0335,0203,0363,0304,0335,0313,0337,0337,",
    "01220:0333,0200,0336,0330,0332,0220,0331,0333,0337,",
    "01221:0333,0200,0336,0330,0332,0336,0336,0221,0337,0337,0331,0333,0337,0320,",
    "01222:0333,0200,0336,0336,0336,0330,0332,0332,0330,0332,0330,0332,0330,0332,0222,0337,0337,0333,0331,0336,0336,0333,0337,0337,0337,0320,",
    "01223:0333,0200,0336,0330,0332,0336,0331,0337,0336,0223,0331,0333,0333,0337,0337,0320,",
    "01224:0333,0200,0336,0336,0330,0224,0337,0337,",
    "01225:0333,0200,0336,0330,0332,0336,0225,0337,0331,0333,0337,",
    "01226:0333,0200,0336,0336,0330,0226,0337,0337,",
    "01227:0333,0200,0336,0336,0330,0227,0337,0337,",
    "01230:0333,0200,0336,0336,0330,0230,0331,0337,0337,",
    "01231:0333,0200,0336,0336,0330,0231,0331,0337,0337,",
    "01232:0333,0200,0336,0336,0232,0337,0337,",
    "01233:0333,0200,0336,0336,0330,0233,0331,0330,0337,0337,",
    "01234:0333,0200,0336,0336,0330,0330,0330,0234,0331,0331,0333,0333,0331,0331,0333,0333,0337,0337,0333,0333,0333,",
    "01235:0333,0200,0336,0336,0330,0235,0331,0333,0337,0337,",
    "01236:0333,0200,",
    "01237:0333,0200,",
    "0240:0220,0336,0331,0333,0336,0321,0335,0342,0335,0335,0342,0335,0330,0330,0332,0332,0337,0337,",
    "01240:0333,0200,0336,0330,0332,0210,0240,0211,0333,0331,0337,",
    "0241:0220,0336,0321,0343,0332,0350,0335,0336,0342,0334,0334,0342,0335,0304,0337,0333,0337,",
    "01241:0333,0200,0336,0332,0330,0210,0241,0211,0333,0331,0337,",
    "0242:0220,0321,0336,0343,0333,0336,0350,0335,0342,0334,0334,0342,0335,0337,0304,0332,0337,",
    "01242:0333,0200,0336,0330,0332,0210,0242,0211,0333,0331,0337,",
    "0243:0220,0336,0331,0332,0336,0321,0343,0332,0350,0334,0336,0342,0335,0335,0342,0337,0334,0334,0335,0304,0332,0330,0330,0337,0337,0333,",
    "01243:0333,0200,0336,0330,0332,0210,0243,0211,0333,0331,0337,",
    "0244:0220,0336,0331,0333,0336,0321,0343,0333,0350,0336,0335,0342,0334,0334,0342,0335,0337,0304,0333,0330,0330,0337,0337,0332,",
    "01244:0333,0200,0336,0330,0332,0210,0244,0211,0333,0331,0337,",
    "0245:0210,0332,0332,0362,0335,0203,0203,0203,0203,0334,0203,0363,0332,0332,0331,0211,",
    "01245:0333,0200,0336,0330,0332,0336,0245,0337,0333,0331,0337,",
    "0246:0210,0332,0332,0335,0306,0336,0330,0335,0335,0335,0321,0362,0203,0335,0335,0203,0364,0331,0350,0335,0337,0366,0333,0333,0333,0333,0334,0334,0334,0334,0367,0335,0336,0342,0334,0334,0342,0330,0330,0330,0330,0335,0335,0335,0304,0337,0211,",
    "01246:0333,0200,0336,0330,0332,0336,0246,",
    "0247:0330,0332,0336,0332,0336,0221,0333,0333,0333,0222,0333,0333,0333,0223,0333,0333,0333,0225,0333,0331,0331,0331,0332,0332,0332,0332,0332,0332,0332,0332,0332,0332,0332,0332,0333,0333,0226,0331,0331,0331,0333,0333,0333,0333,0333,0333,0333,0333,0333,0333,0333,0333,0333,0330,0333,0330,0330,0333,0330,0331,0332,0332,0332,0332,0332,0332,0332,0332,0332,0332,0332,0332,0227,0333,0333,0333,0230,0333,0331,0331,0331,0331,0332,0332,0332,0330,0332,0332,0332,0332,0332,0332,0333,0333,0231,0333,0333,0333,0232,0331,0333,0330,0333,0333,0233,0333,0333,0333,0234,0330,0330,0332,0330,0332,0332,0337,0337,",
    "01247:0333,0200,0336,0330,0332,0220,0336,0247,0337,0331,0333,0337,"
  ]
}</json>-->    <circle cx="240" cy = "1002" r = "15.125000000000005" stroke = "#000000" stroke-width = "5" fill = "#000000" />
    <line x1="240" y1="1002" x2="240" y2="972" style="stroke:#000000;stroke-width:5" />
  <path d="M239.5 971.6348699999998           A30.25000000000001 30.25000000000001 0 0 1 269.75 941.3848699999998" fill = "none" stroke = "#000000" stroke-width = "5" />
    <line x1="240" y1="1002" x2="240" y2="941" style="stroke:#000000;stroke-width:5" />
    <line x1="240" y1="941" x2="240" y2="911" style="stroke:#000000;stroke-width:5" />
  <path d="M239.5 911.1348699999998           A30.25000000000001 30.25000000000001 0 0 1 269.75 880.8848699999998" fill = "none" stroke = "#000000" stroke-width = "5" />
    <line x1="240" y1="911" x2="240" y2="881" style="stroke:#000000;stroke-width:5" />
    <line x1="240" y1="881" x2="240" y2="851" style="stroke:#000000;stroke-width:5" />
  <path d="M239.5 850.6348699999998           A30.25000000000001 30.25000000000001 0 0 1 269.75 820.3848699999998" fill = "none" stroke = "#000000" stroke-width = "5" />
    <line x1="240" y1="851" x2="240" y2="820" style="stroke:#000000;stroke-width:5" />
    <line x1="240" y1="820" x2="240" y2="790" style="stroke:#000000;stroke-width:5" />
  <path d="M239.5 790.1348699999998           A30.25000000000001 30.25000000000001 0 0 1 269.75 759.8848699999998" fill = "none" stroke = "#000000" stroke-width = "5" />
    <line x1="240" y1="1002" x2="270" y2="1002" style="stroke:#000000;stroke-width:5" />
    <line x1="240" y1="1002" x2="240" y2="1032" style="stroke:#000000;stroke-width:5" />
  <path d="M269.75 1062.3848699999999           A30.25000000000001 30.25000000000001 0 0 1 239.5 1032.1348699999999" fill = "none" stroke = "#000000" stroke-width = "5" />
    <line x1="240" y1="1032" x2="240" y2="1062" style="stroke:#000000;stroke-width:5" />
    <line x1="240" y1="1062" x2="240" y2="1093" style="stroke:#000000;stroke-width:5" />
  <path d="M269.75 1122.8848699999999           A30.25000000000001 30.25000000000001 0 0 1 239.5 1092.6348699999999" fill = "none" stroke = "#000000" stroke-width = "5" />
    <line x1="240" y1="1093" x2="240" y2="1123" style="stroke:#000000;stroke-width:5" />
    <line x1="240" y1="1123" x2="240" y2="1153" style="stroke:#000000;stroke-width:5" />
  <path d="M269.75 1183.3848699999999           A30.25000000000001 30.25000000000001 0 0 1 239.5 1153.1348699999999" fill = "none" stroke = "#000000" stroke-width = "5" />
    <line x1="240" y1="1153" x2="240" y2="1183" style="stroke:#000000;stroke-width:5" />
    <line x1="240" y1="1183" x2="240" y2="1214" style="stroke:#000000;stroke-width:5" />
  <path d="M269.75 1243.8848699999999           A30.25000000000001 30.25000000000001 0 0 1 239.5 1213.6348699999999" fill = "none" stroke = "#000000" stroke-width = "5" />
    <circle cx="361" cy = "1002" r = "15.125000000000005" stroke = "#000000" stroke-width = "5" fill = "#000000" />
    <line x1="361" y1="1002" x2="361" y2="1032" style="stroke:#000000;stroke-width:5" />
  <path d="M360.5 1032.1348699999999           A30.25000000000001 30.25000000000001 0 0 1 330.25 1062.3848699999999" fill = "none" stroke = "#000000" stroke-width = "5" />
    <line x1="360" y1="1002" x2="361" y2="1062" style="stroke:#000000;stroke-width:5" />
    <line x1="361" y1="1062" x2="361" y2="1093" style="stroke:#000000;stroke-width:5" />
  <path d="M360.50000000000006 1092.6348699999999           A30.25000000000001 30.25000000000001 0 0 1 330.2500000000001 1122.8848699999999" fill = "none" stroke = "#000000" stroke-width = "5" />
    <line x1="361" y1="1093" x2="361" y2="1123" style="stroke:#000000;stroke-width:5" />
    <line x1="361" y1="1123" x2="361" y2="1153" style="stroke:#000000;stroke-width:5" />
  <path d="M360.50000000000017 1153.1348699999999           A30.25000000000001 30.25000000000001 0 0 1 330.2500000000002 1183.3848699999999" fill = "none" stroke = "#000000" stroke-width = "5" />
    <line x1="361" y1="1153" x2="361" y2="1183" style="stroke:#000000;stroke-width:5" />
    <line x1="361" y1="1183" x2="361" y2="1214" style="stroke:#000000;stroke-width:5" />
  <path d="M360.5000000000003 1213.6348699999999           A30.25000000000001 30.25000000000001 0 0 1 330.25000000000034 1243.8848699999999" fill = "none" stroke = "#000000" stroke-width = "5" />
    <line x1="360" y1="1002" x2="330" y2="1002" style="stroke:#000000;stroke-width:5" />
    <line x1="360" y1="1002" x2="360" y2="972" style="stroke:#000000;stroke-width:5" />
  <path d="M330.25 941.3848699999998           A30.25000000000001 30.25000000000001 0 0 1 360.49999999999994 971.6348699999999" fill = "none" stroke = "#000000" stroke-width = "5" />
    <line x1="360" y1="972" x2="361" y2="941" style="stroke:#000000;stroke-width:5" />
    <line x1="361" y1="941" x2="361" y2="911" style="stroke:#000000;stroke-width:5" />
  <path d="M330.2500000000001 880.8848699999998           A30.25000000000001 30.25000000000001 0 0 1 360.50000000000006 911.1348699999999" fill = "none" stroke = "#000000" stroke-width = "5" />
    <line x1="361" y1="911" x2="361" y2="881" style="stroke:#000000;stroke-width:5" />
    <line x1="361" y1="881" x2="361" y2="851" style="stroke:#000000;stroke-width:5" />
  <path d="M330.2500000000002 820.3848699999998           A30.25000000000001 30.25000000000001 0 0 1 360.50000000000017 850.6348699999999" fill = "none" stroke = "#000000" stroke-width = "5" />
    <line x1="361" y1="851" x2="361" y2="820" style="stroke:#000000;stroke-width:5" />
    <line x1="361" y1="820" x2="361" y2="790" style="stroke:#000000;stroke-width:5" />
  <path d="M330.25000000000034 759.8848699999998           A30.25000000000001 30.25000000000001 0 0 1 360.5000000000003 790.1348699999999" fill = "none" stroke = "#000000" stroke-width = "5" />
    <text x="277" y = "1274" fill = "#000000" font-size = "60.50000000000002px" font-family = "Arial">1</text>
    <text x="277" y = "1214" fill = "#000000" font-size = "60.50000000000002px" font-family = "Arial">2</text>
    <text x="277" y = "1153" fill = "#000000" font-size = "60.50000000000002px" font-family = "Arial">3</text>
    <text x="277" y = "1093" fill = "#000000" font-size = "60.50000000000002px" font-family = "Arial">4</text>
    <text x="277" y = "1032" fill = "#000000" font-size = "60.50000000000002px" font-family = "Arial">5</text>
    <text x="277" y = "972" fill = "#000000" font-size = "60.50000000000002px" font-family = "Arial">6</text>
    <text x="277" y = "911" fill = "#000000" font-size = "60.50000000000002px" font-family = "Arial">7</text>
    <text x="277" y = "851" fill = "#000000" font-size = "60.50000000000002px" font-family = "Arial">8</text>
    <text x="277" y = "790" fill = "#000000" font-size = "60.50000000000002px" font-family = "Arial">9</text>
    <line x1="239" y1="1002" x2="179" y2="1002" style="stroke:#000000;stroke-width:5" />
  <path d="M178.9999999999993 1001.884869999999           A60.50000000000002 60.50000000000002 0 0 1 118.49999999999955 941.3848699999986" fill = "none" stroke = "#000000" stroke-width = "5" />
    <line x1="360" y1="1002" x2="421" y2="1002" style="stroke:#000000;stroke-width:5" />
  <path d="M481.49999999999983 941.3848700000018           A60.50000000000002 60.50000000000002 0 0 1 420.99999999999915 1001.8848700000012" fill = "none" stroke = "#000000" stroke-width = "5" />
    <line x1="481" y1="941" x2="482" y2="881" style="stroke:#000000;stroke-width:5" />
    <line x1="482" y1="881" x2="482" y2="820" style="stroke:#000000;stroke-width:5" />
    <line x1="482" y1="820" x2="482" y2="760" style="stroke:#000000;stroke-width:5" />
    <line x1="482" y1="760" x2="482" y2="699" style="stroke:#000000;stroke-width:5" />
    <line x1="482" y1="699" x2="482" y2="639" style="stroke:#000000;stroke-width:5" />
    <line x1="482" y1="639" x2="482" y2="578" style="stroke:#000000;stroke-width:5" />
    <line x1="118" y1="941" x2="119" y2="881" style="stroke:#000000;stroke-width:5" />
    <line x1="119" y1="881" x2="119" y2="820" style="stroke:#000000;stroke-width:5" />
    <line x1="119" y1="820" x2="119" y2="760" style="stroke:#000000;stroke-width:5" />
    <line x1="119" y1="760" x2="119" y2="699" style="stroke:#000000;stroke-width:5" />
    <line x1="119" y1="699" x2="119" y2="639" style="stroke:#000000;stroke-width:5" />
    <line x1="119" y1="639" x2="119" y2="578" style="stroke:#000000;stroke-width:5" />
    <line x1="119" y1="578" x2="119" y2="518" style="stroke:#000000;stroke-width:5" />
    <line x1="482" y1="578" x2="482" y2="518" style="stroke:#000000;stroke-width:5" />
	<path d = "M119 518 L88 518 L88 457 L88 397 L88 336 L88 276 L149 276 L149 336 L149 397 L149 457 L149 518 L119 518 Z" stroke = "#000000" stroke-width = "5" fill = "none" />    <line x1="119" y1="518" x2="119" y2="457" style="stroke:#000000;stroke-width:5" />
    <line x1="119" y1="457" x2="119" y2="397" style="stroke:#000000;stroke-width:5" />
    <line x1="119" y1="397" x2="119" y2="336" style="stroke:#000000;stroke-width:5" />
    <line x1="119" y1="336" x2="119" y2="276" style="stroke:#000000;stroke-width:5" />
  <path d="M148.75000000000585 306.13486999999867           A30.25000000000001 30.25000000000001 0 0 1 118.5000000000061 275.8848699999984" fill = "none" stroke = "#000000" stroke-width = "5" />
  <path d="M118.50000000000337 517.8848699999984           A30.25000000000001 30.25000000000001 0 0 1 148.75000000000372 487.6348699999987" fill = "none" stroke = "#000000" stroke-width = "5" />
	<path d = "M482 276 L512 276 L512 336 L512 397 L512 457 L512 518 L451 518 L451 457 L451 397 L451 336 L451 276 L482 276 Z" stroke = "#000000" stroke-width = "5" fill = "none" />    <line x1="482" y1="276" x2="482" y2="336" style="stroke:#000000;stroke-width:5" />
    <line x1="482" y1="336" x2="482" y2="397" style="stroke:#000000;stroke-width:5" />
    <line x1="482" y1="397" x2="482" y2="457" style="stroke:#000000;stroke-width:5" />
    <line x1="482" y1="457" x2="482" y2="518" style="stroke:#000000;stroke-width:5" />
  <path d="M451.25000000000335 487.6348700000025           A30.25000000000001 30.25000000000001 0 0 1 481.5000000000027 517.8848700000032" fill = "none" stroke = "#000000" stroke-width = "5" />
  <path d="M481.50000000000813 275.8848700000032           A30.25000000000001 30.25000000000001 0 0 1 451.25000000000745 306.1348700000025" fill = "none" stroke = "#000000" stroke-width = "5" />
    <line x1="482" y1="276" x2="482" y2="215" style="stroke:#000000;stroke-width:5" />
    <line x1="119" y1="276" x2="119" y2="215" style="stroke:#000000;stroke-width:5" />
  <path d="M118.50000000000955 215.38486999999432           A60.50000000000002 60.50000000000002 0 0 1 179.0000000000111 154.88486999999614" fill = "none" stroke = "#000000" stroke-width = "5" />
  <path d="M421.00000000001114 154.88487000000092           A60.50000000000002 60.50000000000002 0 0 1 481.5000000000096 215.38487000000214" fill = "none" stroke = "#000000" stroke-width = "5" />
    <line x1="421" y1="155" x2="361" y2="155" style="stroke:#000000;stroke-width:5" />
    <line x1="179" y1="155" x2="240" y2="155" style="stroke:#000000;stroke-width:5" />
    <line x1="240" y1="155" x2="270" y2="155" style="stroke:#000000;stroke-width:5" />
    <line x1="330" y1="155" x2="361" y2="155" style="stroke:#000000;stroke-width:5" />
	<path d = "M330 185 L330 125 L270 125 L270 185 L330 185 Z" stroke = "#000000" stroke-width = "5" fill = "none" />	<path d = "M330 518 L330 457 L270 457 L270 518 L330 518 Z" stroke = "#000000" stroke-width = "5" fill = "none" />    <line x1="330" y1="488" x2="391" y2="488" style="stroke:#000000;stroke-width:5" />
    <line x1="391" y1="488" x2="451" y2="488" style="stroke:#000000;stroke-width:5" />
    <line x1="270" y1="488" x2="209" y2="488" style="stroke:#000000;stroke-width:5" />
    <line x1="209" y1="488" x2="149" y2="488" style="stroke:#000000;stroke-width:5" />
	<path d = "M300 639 L285 639 L285 609 L285 578 L270 578 L285 563 L300 548 L315 563 L330 578 L315 578 L315 594 L315 609 L315 624 L315 639 L300 639 Z" stroke = "#0000ff" stroke-width = "1" fill = "#0000ff" />	<path d = "M300 94 L285 94 L285 64 L285 34 L270 34 L285 19 L300 4 L315 19 L330 34 L315 34 L315 49 L315 64 L315 79 L315 94 L300 94 Z" stroke = "#ff0000" stroke-width = "1" fill = "#ff0000" />	<path d = "M300 367 L285 367 L285 336 L285 306 L270 306 L285 291 L300 276 L315 291 L330 306 L315 306 L315 321 L315 336 L315 352 L315 367 L300 367 Z" stroke = "#800080" stroke-width = "1" fill = "#800080" />    <line x1="451" y1="306" x2="421" y2="306" style="stroke:#000000;stroke-width:5" />
	<path d = "M421 321 L421 291 L391 291 L391 321 L421 321 Z" stroke = "#0000ff" stroke-width = "1" fill = "#0000ff" />	<path d = "M209 321 L209 291 L179 291 L179 321 L209 321 Z" stroke = "#0000ff" stroke-width = "1" fill = "#0000ff" />    <line x1="179" y1="306" x2="149" y2="306" style="stroke:#000000;stroke-width:5" />
</svg>