%TF.GenerationSoftware,Altium Limited,Altium Designer,24.1.2 (44)*%
G04 Layer_Color=32896*
%FSLAX45Y45*%
%MOMM*%
%TF.SameCoordinates,7409CC48-22DB-44E9-B9CF-AE3C77DAA70A*%
%TF.FilePolarity,Positive*%
%TF.FileFunction,Legend,Bot*%
%TF.Part,Single*%
G01*
G75*
%TA.AperFunction,NonConductor*%
%ADD20C,0.50800*%
%ADD21C,0.15240*%
%ADD22C,0.25400*%
%ADD23C,0.76200*%
D20*
X7467600Y3683000D02*
G03*
X7467600Y3683000I-38100J0D01*
G01*
D21*
X5953760Y340360D02*
X5852193D01*
Y289577D01*
X5869121Y272649D01*
X5902977D01*
X5919904Y289577D01*
Y340360D01*
Y306504D02*
X5953760Y272649D01*
X5852193Y171081D02*
Y238793D01*
X5953760D01*
Y171081D01*
X5902977Y238793D02*
Y204937D01*
X5852193Y137226D02*
X5953760D01*
Y86442D01*
X5936832Y69514D01*
X5869121D01*
X5852193Y86442D01*
Y137226D01*
X4150360Y7020560D02*
X4048793D01*
Y6969777D01*
X4065721Y6952849D01*
X4099577D01*
X4116504Y6969777D01*
Y7020560D01*
Y6986704D02*
X4150360Y6952849D01*
X4048793Y6851281D02*
Y6918993D01*
X4150360D01*
Y6851281D01*
X4099577Y6918993D02*
Y6885137D01*
X4048793Y6817426D02*
X4150360D01*
Y6766642D01*
X4133432Y6749714D01*
X4065721D01*
X4048793Y6766642D01*
Y6817426D01*
X835660Y7007860D02*
X734093D01*
Y6957077D01*
X751021Y6940149D01*
X784877D01*
X801804Y6957077D01*
Y7007860D01*
Y6974004D02*
X835660Y6940149D01*
X734093Y6838581D02*
Y6906293D01*
X835660D01*
Y6838581D01*
X784877Y6906293D02*
Y6872437D01*
X734093Y6804726D02*
X835660D01*
Y6753942D01*
X818732Y6737014D01*
X751021D01*
X734093Y6753942D01*
Y6804726D01*
X1597660Y365760D02*
X1496093D01*
Y314977D01*
X1513021Y298049D01*
X1546877D01*
X1563804Y314977D01*
Y365760D01*
Y331904D02*
X1597660Y298049D01*
X1496093Y196481D02*
Y264193D01*
X1597660D01*
Y196481D01*
X1546877Y264193D02*
Y230337D01*
X1496093Y162626D02*
X1597660D01*
Y111842D01*
X1580732Y94914D01*
X1513021D01*
X1496093Y111842D01*
Y162626D01*
X7284975Y687616D02*
X7217263Y619905D01*
X7284975D02*
X7217263Y687616D01*
X7284975Y653760D02*
X7217263D01*
X7251119Y619905D02*
Y687616D01*
X6649975D02*
X6582263Y619905D01*
X6649975D02*
X6582263Y687616D01*
X6649975Y653760D02*
X6582263D01*
X6616119Y619905D02*
Y687616D01*
X6995160Y439394D02*
Y358140D01*
X6954533D01*
X6940991Y371682D01*
Y425851D01*
X6954533Y439394D01*
X6995160D01*
X6913906Y358140D02*
X6886822D01*
X6900364D01*
Y439394D01*
X6913906Y425851D01*
X6846195Y439394D02*
X6792026D01*
Y425851D01*
X6846195Y371682D01*
Y358140D01*
X6728460Y439394D02*
Y358140D01*
X6687833D01*
X6674291Y371682D01*
Y425851D01*
X6687833Y439394D01*
X6728460D01*
X6647206Y358140D02*
X6620122D01*
X6633664D01*
Y439394D01*
X6647206Y425851D01*
X6525326Y439394D02*
X6552410Y425851D01*
X6579495Y398767D01*
Y371682D01*
X6565953Y358140D01*
X6538868D01*
X6525326Y371682D01*
Y385225D01*
X6538868Y398767D01*
X6579495D01*
X6474460Y439394D02*
Y358140D01*
X6433833D01*
X6420291Y371682D01*
Y425851D01*
X6433833Y439394D01*
X6474460D01*
X6393206Y358140D02*
X6366122D01*
X6379664D01*
Y439394D01*
X6393206Y425851D01*
X6271326Y439394D02*
X6325495D01*
Y398767D01*
X6298410Y412309D01*
X6284868D01*
X6271326Y398767D01*
Y371682D01*
X6284868Y358140D01*
X6311953D01*
X6325495Y371682D01*
X6195060Y439394D02*
Y358140D01*
X6154433D01*
X6140891Y371682D01*
Y425851D01*
X6154433Y439394D01*
X6195060D01*
X6113806Y358140D02*
X6086722D01*
X6100264D01*
Y439394D01*
X6113806Y425851D01*
X6005468Y358140D02*
Y439394D01*
X6046095Y398767D01*
X5991926D01*
X480060Y4460240D02*
X446204D01*
X463132D01*
Y4561807D01*
X480060Y4544879D01*
X344637Y4460240D02*
Y4561807D01*
X395421Y4511023D01*
X327709D01*
X1127760Y4460240D02*
X1093904D01*
X1110832D01*
Y4561807D01*
X1127760Y4544879D01*
X975409Y4561807D02*
X1043121D01*
Y4511023D01*
X1009265Y4527951D01*
X992337D01*
X975409Y4511023D01*
Y4477168D01*
X992337Y4460240D01*
X1026193D01*
X1043121Y4477168D01*
X1762760Y4447540D02*
X1728904D01*
X1745832D01*
Y4549107D01*
X1762760Y4532179D01*
X1610409Y4549107D02*
X1644265Y4532179D01*
X1678121Y4498323D01*
Y4464468D01*
X1661193Y4447540D01*
X1627337D01*
X1610409Y4464468D01*
Y4481396D01*
X1627337Y4498323D01*
X1678121D01*
X2385060Y4447540D02*
X2351204D01*
X2368132D01*
Y4549107D01*
X2385060Y4532179D01*
X2300421Y4549107D02*
X2232709D01*
Y4532179D01*
X2300421Y4464468D01*
Y4447540D01*
X3083560Y4434840D02*
X3049704D01*
X3066632D01*
Y4536407D01*
X3083560Y4519479D01*
X2998921D02*
X2981993Y4536407D01*
X2948137D01*
X2931209Y4519479D01*
Y4502551D01*
X2948137Y4485623D01*
X2931209Y4468696D01*
Y4451768D01*
X2948137Y4434840D01*
X2981993D01*
X2998921Y4451768D01*
Y4468696D01*
X2981993Y4485623D01*
X2998921Y4502551D01*
Y4519479D01*
X2981993Y4485623D02*
X2948137D01*
X3718560Y4434840D02*
X3684704D01*
X3701632D01*
Y4536407D01*
X3718560Y4519479D01*
X3633921Y4451768D02*
X3616993Y4434840D01*
X3583137D01*
X3566209Y4451768D01*
Y4519479D01*
X3583137Y4536407D01*
X3616993D01*
X3633921Y4519479D01*
Y4502551D01*
X3616993Y4485623D01*
X3566209D01*
X4260449Y4447540D02*
X4328160D01*
X4260449Y4515251D01*
Y4532179D01*
X4277377Y4549107D01*
X4311232D01*
X4328160Y4532179D01*
X4226593D02*
X4209665Y4549107D01*
X4175809D01*
X4158881Y4532179D01*
Y4464468D01*
X4175809Y4447540D01*
X4209665D01*
X4226593Y4464468D01*
Y4532179D01*
X4882749Y4447540D02*
X4950460D01*
X4882749Y4515251D01*
Y4532179D01*
X4899677Y4549107D01*
X4933532D01*
X4950460Y4532179D01*
X4848893Y4447540D02*
X4815037D01*
X4831965D01*
Y4549107D01*
X4848893Y4532179D01*
X7435449Y4460240D02*
X7503160D01*
X7435449Y4527951D01*
Y4544879D01*
X7452377Y4561807D01*
X7486232D01*
X7503160Y4544879D01*
X7333881Y4561807D02*
X7401593D01*
Y4511023D01*
X7367737Y4527951D01*
X7350809D01*
X7333881Y4511023D01*
Y4477168D01*
X7350809Y4460240D01*
X7384665D01*
X7401593Y4477168D01*
X6800449Y4460240D02*
X6868160D01*
X6800449Y4527951D01*
Y4544879D01*
X6817377Y4561807D01*
X6851232D01*
X6868160Y4544879D01*
X6715809Y4460240D02*
Y4561807D01*
X6766593Y4511023D01*
X6698881D01*
X6152749Y4460240D02*
X6220460D01*
X6152749Y4527951D01*
Y4544879D01*
X6169677Y4561807D01*
X6203532D01*
X6220460Y4544879D01*
X6118893D02*
X6101965Y4561807D01*
X6068109D01*
X6051181Y4544879D01*
Y4527951D01*
X6068109Y4511023D01*
X6085037D01*
X6068109D01*
X6051181Y4494096D01*
Y4477168D01*
X6068109Y4460240D01*
X6101965D01*
X6118893Y4477168D01*
X5530449Y4447540D02*
X5598160D01*
X5530449Y4515251D01*
Y4532179D01*
X5547377Y4549107D01*
X5581232D01*
X5598160Y4532179D01*
X5428881Y4447540D02*
X5496593D01*
X5428881Y4515251D01*
Y4532179D01*
X5445809Y4549107D01*
X5479665D01*
X5496593Y4532179D01*
X6195060Y6644640D02*
Y6712351D01*
X6161204Y6746207D01*
X6127349Y6712351D01*
Y6644640D01*
Y6695423D01*
X6195060D01*
X6093493Y6746207D02*
X6025781D01*
Y6729279D01*
X6093493Y6661568D01*
Y6644640D01*
X5915660D02*
Y6712351D01*
X5881804Y6746207D01*
X5847949Y6712351D01*
Y6644640D01*
Y6695423D01*
X5915660D01*
X5746381Y6746207D02*
X5780237Y6729279D01*
X5814093Y6695423D01*
Y6661568D01*
X5797165Y6644640D01*
X5763309D01*
X5746381Y6661568D01*
Y6678496D01*
X5763309Y6695423D01*
X5814093D01*
X5674360Y6644640D02*
Y6712351D01*
X5640504Y6746207D01*
X5606649Y6712351D01*
Y6644640D01*
Y6695423D01*
X5674360D01*
X5505081Y6746207D02*
X5572793D01*
Y6695423D01*
X5538937Y6712351D01*
X5522009D01*
X5505081Y6695423D01*
Y6661568D01*
X5522009Y6644640D01*
X5555865D01*
X5572793Y6661568D01*
X5407660Y6657340D02*
Y6725051D01*
X5373804Y6758907D01*
X5339949Y6725051D01*
Y6657340D01*
Y6708123D01*
X5407660D01*
X5255309Y6657340D02*
Y6758907D01*
X5306093Y6708123D01*
X5238381D01*
X5153660Y6644640D02*
Y6712351D01*
X5119804Y6746207D01*
X5085949Y6712351D01*
Y6644640D01*
Y6695423D01*
X5153660D01*
X5052093Y6729279D02*
X5035165Y6746207D01*
X5001309D01*
X4984381Y6729279D01*
Y6712351D01*
X5001309Y6695423D01*
X5018237D01*
X5001309D01*
X4984381Y6678496D01*
Y6661568D01*
X5001309Y6644640D01*
X5035165D01*
X5052093Y6661568D01*
X4912360Y6644640D02*
Y6712351D01*
X4878504Y6746207D01*
X4844649Y6712351D01*
Y6644640D01*
Y6695423D01*
X4912360D01*
X4743081Y6644640D02*
X4810793D01*
X4743081Y6712351D01*
Y6729279D01*
X4760009Y6746207D01*
X4793865D01*
X4810793Y6729279D01*
X4620260Y6657340D02*
Y6725051D01*
X4586404Y6758907D01*
X4552549Y6725051D01*
Y6657340D01*
Y6708123D01*
X4620260D01*
X4518693Y6657340D02*
X4484837D01*
X4501765D01*
Y6758907D01*
X4518693Y6741979D01*
X4391660Y6657340D02*
Y6725051D01*
X4357804Y6758907D01*
X4323949Y6725051D01*
Y6657340D01*
Y6708123D01*
X4391660D01*
X4290093Y6741979D02*
X4273165Y6758907D01*
X4239309D01*
X4222381Y6741979D01*
Y6674268D01*
X4239309Y6657340D01*
X4273165D01*
X4290093Y6674268D01*
Y6741979D01*
X1915160Y6670040D02*
Y6737751D01*
X1881304Y6771607D01*
X1847449Y6737751D01*
Y6670040D01*
Y6720823D01*
X1915160D01*
X1813593Y6670040D02*
X1779737D01*
X1796665D01*
Y6771607D01*
X1813593Y6754679D01*
X1728953Y6670040D02*
X1695098D01*
X1712026D01*
Y6771607D01*
X1728953Y6754679D01*
X1661160Y6670040D02*
Y6737751D01*
X1627304Y6771607D01*
X1593449Y6737751D01*
Y6670040D01*
Y6720823D01*
X1661160D01*
X1559593Y6670040D02*
X1525737D01*
X1542665D01*
Y6771607D01*
X1559593Y6754679D01*
X1474953D02*
X1458026Y6771607D01*
X1424170D01*
X1407242Y6754679D01*
Y6686968D01*
X1424170Y6670040D01*
X1458026D01*
X1474953Y6686968D01*
Y6754679D01*
X1343660Y6670040D02*
Y6737751D01*
X1309804Y6771607D01*
X1275949Y6737751D01*
Y6670040D01*
Y6720823D01*
X1343660D01*
X1242093Y6686968D02*
X1225165Y6670040D01*
X1191309D01*
X1174381Y6686968D01*
Y6754679D01*
X1191309Y6771607D01*
X1225165D01*
X1242093Y6754679D01*
Y6737751D01*
X1225165Y6720823D01*
X1174381D01*
X1089660Y6670040D02*
Y6737751D01*
X1055804Y6771607D01*
X1021949Y6737751D01*
Y6670040D01*
Y6720823D01*
X1089660D01*
X988093Y6754679D02*
X971165Y6771607D01*
X937309D01*
X920381Y6754679D01*
Y6737751D01*
X937309Y6720823D01*
X920381Y6703896D01*
Y6686968D01*
X937309Y6670040D01*
X971165D01*
X988093Y6686968D01*
Y6703896D01*
X971165Y6720823D01*
X988093Y6737751D01*
Y6754679D01*
X971165Y6720823D02*
X937309D01*
X3629660Y472407D02*
Y370840D01*
X3578877D01*
X3561949Y387768D01*
Y455479D01*
X3578877Y472407D01*
X3629660D01*
X3528093Y387768D02*
X3511165Y370840D01*
X3477309D01*
X3460381Y387768D01*
Y455479D01*
X3477309Y472407D01*
X3511165D01*
X3528093Y455479D01*
Y438551D01*
X3511165Y421623D01*
X3460381D01*
X3388360Y472407D02*
Y370840D01*
X3337577D01*
X3320649Y387768D01*
Y455479D01*
X3337577Y472407D01*
X3388360D01*
X3286793Y455479D02*
X3269865Y472407D01*
X3236009D01*
X3219081Y455479D01*
Y438551D01*
X3236009Y421623D01*
X3219081Y404696D01*
Y387768D01*
X3236009Y370840D01*
X3269865D01*
X3286793Y387768D01*
Y404696D01*
X3269865Y421623D01*
X3286793Y438551D01*
Y455479D01*
X3269865Y421623D02*
X3236009D01*
X3147060Y472407D02*
Y370840D01*
X3096277D01*
X3079349Y387768D01*
Y455479D01*
X3096277Y472407D01*
X3147060D01*
X3045493D02*
X2977781D01*
Y455479D01*
X3045493Y387768D01*
Y370840D01*
X2893060Y472407D02*
Y370840D01*
X2842277D01*
X2825349Y387768D01*
Y455479D01*
X2842277Y472407D01*
X2893060D01*
X2723781D02*
X2757637Y455479D01*
X2791493Y421623D01*
Y387768D01*
X2774565Y370840D01*
X2740709D01*
X2723781Y387768D01*
Y404696D01*
X2740709Y421623D01*
X2791493D01*
X2677160Y472407D02*
Y370840D01*
X2626377D01*
X2609449Y387768D01*
Y455479D01*
X2626377Y472407D01*
X2677160D01*
X2507881D02*
X2575593D01*
Y421623D01*
X2541737Y438551D01*
X2524809D01*
X2507881Y421623D01*
Y387768D01*
X2524809Y370840D01*
X2558665D01*
X2575593Y387768D01*
X2385060Y459707D02*
Y358140D01*
X2334277D01*
X2317349Y375068D01*
Y442779D01*
X2334277Y459707D01*
X2385060D01*
X2232709Y358140D02*
Y459707D01*
X2283493Y408923D01*
X2215781D01*
X2105660Y459707D02*
Y358140D01*
X2054877D01*
X2037949Y375068D01*
Y442779D01*
X2054877Y459707D01*
X2105660D01*
X2004093Y442779D02*
X1987165Y459707D01*
X1953309D01*
X1936381Y442779D01*
Y425851D01*
X1953309Y408923D01*
X1970237D01*
X1953309D01*
X1936381Y391996D01*
Y375068D01*
X1953309Y358140D01*
X1987165D01*
X2004093Y375068D01*
X1877060Y459707D02*
Y358140D01*
X1826277D01*
X1809349Y375068D01*
Y442779D01*
X1826277Y459707D01*
X1877060D01*
X1707781Y358140D02*
X1775493D01*
X1707781Y425851D01*
Y442779D01*
X1724709Y459707D01*
X1758565D01*
X1775493Y442779D01*
X403860Y2567940D02*
X370004D01*
X386932D01*
Y2669507D01*
X403860Y2652579D01*
X958449Y2567940D02*
X1026160D01*
X958449Y2635651D01*
Y2652579D01*
X975377Y2669507D01*
X1009232D01*
X1026160Y2652579D01*
X1661160D02*
X1644232Y2669507D01*
X1610377D01*
X1593449Y2652579D01*
Y2635651D01*
X1610377Y2618723D01*
X1627304D01*
X1610377D01*
X1593449Y2601796D01*
Y2584868D01*
X1610377Y2567940D01*
X1644232D01*
X1661160Y2584868D01*
X2232677Y2567940D02*
Y2669507D01*
X2283460Y2618723D01*
X2215749D01*
X2863449Y2669507D02*
X2931160D01*
Y2618723D01*
X2897304Y2635651D01*
X2880377D01*
X2863449Y2618723D01*
Y2584868D01*
X2880377Y2567940D01*
X2914232D01*
X2931160Y2584868D01*
X3498449Y2669507D02*
X3532304Y2652579D01*
X3566160Y2618723D01*
Y2584868D01*
X3549232Y2567940D01*
X3515377D01*
X3498449Y2584868D01*
Y2601796D01*
X3515377Y2618723D01*
X3566160D01*
X4201160Y2669507D02*
X4133449D01*
Y2652579D01*
X4201160Y2584868D01*
Y2567940D01*
X4836160Y2652579D02*
X4819232Y2669507D01*
X4785377D01*
X4768449Y2652579D01*
Y2635651D01*
X4785377Y2618723D01*
X4768449Y2601796D01*
Y2584868D01*
X4785377Y2567940D01*
X4819232D01*
X4836160Y2584868D01*
Y2601796D01*
X4819232Y2618723D01*
X4836160Y2635651D01*
Y2652579D01*
X4819232Y2618723D02*
X4785377D01*
X5458460Y2597568D02*
X5441532Y2580640D01*
X5407677D01*
X5390749Y2597568D01*
Y2665279D01*
X5407677Y2682207D01*
X5441532D01*
X5458460Y2665279D01*
Y2648351D01*
X5441532Y2631423D01*
X5390749D01*
X6068060Y2580640D02*
X6034204D01*
X6051132D01*
Y2682207D01*
X6068060Y2665279D01*
X5983421D02*
X5966493Y2682207D01*
X5932637D01*
X5915709Y2665279D01*
Y2597568D01*
X5932637Y2580640D01*
X5966493D01*
X5983421Y2597568D01*
Y2665279D01*
X6728460Y2580640D02*
X6694604D01*
X6711532D01*
Y2682207D01*
X6728460Y2665279D01*
X6643821Y2580640D02*
X6609965D01*
X6626893D01*
Y2682207D01*
X6643821Y2665279D01*
X7325360Y2580640D02*
X7291504D01*
X7308432D01*
Y2682207D01*
X7325360Y2665279D01*
X7173009Y2580640D02*
X7240721D01*
X7173009Y2648351D01*
Y2665279D01*
X7189937Y2682207D01*
X7223793D01*
X7240721Y2665279D01*
X5382260Y3164840D02*
X5348404D01*
X5365332D01*
Y3266407D01*
X5382260Y3249479D01*
X5229909Y3164840D02*
X5297621D01*
X5229909Y3232551D01*
Y3249479D01*
X5246837Y3266407D01*
X5280693D01*
X5297621Y3249479D01*
X6639560Y6496452D02*
X6571849Y6428740D01*
X6639560D02*
X6571849Y6496452D01*
X6639560Y6462596D02*
X6571849D01*
X6605704Y6428740D02*
Y6496452D01*
X6004560D02*
X5936849Y6428740D01*
X6004560D02*
X5936849Y6496452D01*
X6004560Y6462596D02*
X5936849D01*
X5970704Y6428740D02*
Y6496452D01*
X5458460Y6509152D02*
X5390749Y6441440D01*
X5458460D02*
X5390749Y6509152D01*
X5458460Y6475296D02*
X5390749D01*
X5424604Y6441440D02*
Y6509152D01*
X4734560Y6496452D02*
X4666849Y6428740D01*
X4734560D02*
X4666849Y6496452D01*
X4734560Y6462596D02*
X4666849D01*
X4700704Y6428740D02*
Y6496452D01*
X4099560D02*
X4031849Y6428740D01*
X4099560D02*
X4031849Y6496452D01*
X4099560Y6462596D02*
X4031849D01*
X4065704Y6428740D02*
Y6496452D01*
X3464560D02*
X3396849Y6428740D01*
X3464560D02*
X3396849Y6496452D01*
X3464560Y6462596D02*
X3396849D01*
X3430704Y6428740D02*
Y6496452D01*
X2829560Y6509152D02*
X2761849Y6441440D01*
X2829560D02*
X2761849Y6509152D01*
X2829560Y6475296D02*
X2761849D01*
X2795704Y6441440D02*
Y6509152D01*
X2207260Y6496452D02*
X2139549Y6428740D01*
X2207260D02*
X2139549Y6496452D01*
X2207260Y6462596D02*
X2139549D01*
X2173404Y6428740D02*
Y6496452D01*
X937260D02*
X869549Y6428740D01*
X937260D02*
X869549Y6496452D01*
X937260Y6462596D02*
X869549D01*
X903404Y6428740D02*
Y6496452D01*
X645160D02*
X577449Y6428740D01*
X645160D02*
X577449Y6496452D01*
X645160Y6462596D02*
X577449D01*
X611304Y6428740D02*
Y6496452D01*
X314960Y679852D02*
X247249Y612140D01*
X314960D02*
X247249Y679852D01*
X314960Y645996D02*
X247249D01*
X281104Y612140D02*
Y679852D01*
X937260Y692552D02*
X869549Y624840D01*
X937260D02*
X869549Y692552D01*
X937260Y658696D02*
X869549D01*
X903404Y624840D02*
Y692552D01*
X1572260Y679852D02*
X1504549Y612140D01*
X1572260D02*
X1504549Y679852D01*
X1572260Y645996D02*
X1504549D01*
X1538404Y612140D02*
Y679852D01*
X2207260Y692552D02*
X2139549Y624840D01*
X2207260D02*
X2139549Y692552D01*
X2207260Y658696D02*
X2139549D01*
X2173404Y624840D02*
Y692552D01*
X2854960D02*
X2787249Y624840D01*
X2854960D02*
X2787249Y692552D01*
X2854960Y658696D02*
X2787249D01*
X2821104Y624840D02*
Y692552D01*
X3477260D02*
X3409549Y624840D01*
X3477260D02*
X3409549Y692552D01*
X3477260Y658696D02*
X3409549D01*
X3443404Y624840D02*
Y692552D01*
X4112260D02*
X4044549Y624840D01*
X4112260D02*
X4044549Y692552D01*
X4112260Y658696D02*
X4044549D01*
X4078404Y624840D02*
Y692552D01*
X4747260D02*
X4679549Y624840D01*
X4747260D02*
X4679549Y692552D01*
X4747260Y658696D02*
X4679549D01*
X4713404Y624840D02*
Y692552D01*
X5369560Y679852D02*
X5301849Y612140D01*
X5369560D02*
X5301849Y679852D01*
X5369560Y645996D02*
X5301849D01*
X5335704Y612140D02*
Y679852D01*
X6017260D02*
X5949549Y612140D01*
X6017260D02*
X5949549Y679852D01*
X6017260Y645996D02*
X5949549D01*
X5983404Y612140D02*
Y679852D01*
X2520549Y3164840D02*
X2588260D01*
X2520549Y3232551D01*
Y3249479D01*
X2537477Y3266407D01*
X2571332D01*
X2588260Y3249479D01*
X2867660D02*
X2850732Y3266407D01*
X2816877D01*
X2799949Y3249479D01*
Y3232551D01*
X2816877Y3215623D01*
X2833804D01*
X2816877D01*
X2799949Y3198696D01*
Y3181768D01*
X2816877Y3164840D01*
X2850732D01*
X2867660Y3181768D01*
X3358749Y3266407D02*
X3426460D01*
Y3215623D01*
X3392604Y3232551D01*
X3375677D01*
X3358749Y3215623D01*
Y3181768D01*
X3375677Y3164840D01*
X3409532D01*
X3426460Y3181768D01*
X3612749Y3266407D02*
X3646604Y3249479D01*
X3680460Y3215623D01*
Y3181768D01*
X3663532Y3164840D01*
X3629677D01*
X3612749Y3181768D01*
Y3198696D01*
X3629677Y3215623D01*
X3680460D01*
X3959860Y3266407D02*
X3892149D01*
Y3249479D01*
X3959860Y3181768D01*
Y3164840D01*
X4264660Y3249479D02*
X4247732Y3266407D01*
X4213877D01*
X4196949Y3249479D01*
Y3232551D01*
X4213877Y3215623D01*
X4196949Y3198696D01*
Y3181768D01*
X4213877Y3164840D01*
X4247732D01*
X4264660Y3181768D01*
Y3198696D01*
X4247732Y3215623D01*
X4264660Y3232551D01*
Y3249479D01*
X4247732Y3215623D02*
X4213877D01*
X3096277Y3164840D02*
Y3266407D01*
X3147060Y3215623D01*
X3079349D01*
X2283460Y3164840D02*
X2249604D01*
X2266532D01*
Y3266407D01*
X2283460Y3249479D01*
X4518660Y3181768D02*
X4501732Y3164840D01*
X4467877D01*
X4450949Y3181768D01*
Y3249479D01*
X4467877Y3266407D01*
X4501732D01*
X4518660Y3249479D01*
Y3232551D01*
X4501732Y3215623D01*
X4450949D01*
X4848860Y3164840D02*
X4815004D01*
X4831932D01*
Y3266407D01*
X4848860Y3249479D01*
X4764221D02*
X4747293Y3266407D01*
X4713437D01*
X4696509Y3249479D01*
Y3181768D01*
X4713437Y3164840D01*
X4747293D01*
X4764221Y3181768D01*
Y3249479D01*
X5102860Y3164840D02*
X5069004D01*
X5085932D01*
Y3266407D01*
X5102860Y3249479D01*
X5018221Y3164840D02*
X4984365D01*
X5001293D01*
Y3266407D01*
X5018221Y3249479D01*
X4651095Y3817556D02*
X4718807D01*
X4651095Y3885268D01*
Y3902196D01*
X4668023Y3919123D01*
X4701879D01*
X4718807Y3902196D01*
X4549528Y3817556D02*
X4617239D01*
X4549528Y3885268D01*
Y3902196D01*
X4566456Y3919123D01*
X4600312D01*
X4617239Y3902196D01*
X4920849Y3825240D02*
X4988560D01*
X4920849Y3892951D01*
Y3909879D01*
X4937777Y3926807D01*
X4971632D01*
X4988560Y3909879D01*
X4886993D02*
X4870065Y3926807D01*
X4836209D01*
X4819281Y3909879D01*
Y3892951D01*
X4836209Y3876023D01*
X4853137D01*
X4836209D01*
X4819281Y3859096D01*
Y3842168D01*
X4836209Y3825240D01*
X4870065D01*
X4886993Y3842168D01*
X5184495Y3817556D02*
X5252207D01*
X5184495Y3885268D01*
Y3902196D01*
X5201423Y3919123D01*
X5235279D01*
X5252207Y3902196D01*
X5099856Y3817556D02*
Y3919123D01*
X5150639Y3868340D01*
X5082928D01*
X5463895Y3817556D02*
X5531607D01*
X5463895Y3885268D01*
Y3902196D01*
X5480823Y3919123D01*
X5514679D01*
X5531607Y3902196D01*
X5362328Y3919123D02*
X5430039D01*
Y3868340D01*
X5396184Y3885268D01*
X5379256D01*
X5362328Y3868340D01*
Y3834484D01*
X5379256Y3817556D01*
X5413112D01*
X5430039Y3834484D01*
X4336649Y3812540D02*
X4404360D01*
X4336649Y3880251D01*
Y3897179D01*
X4353577Y3914107D01*
X4387432D01*
X4404360Y3897179D01*
X4302793Y3812540D02*
X4268937D01*
X4285865D01*
Y3914107D01*
X4302793Y3897179D01*
X4057249Y3812540D02*
X4124960D01*
X4057249Y3880251D01*
Y3897179D01*
X4074177Y3914107D01*
X4108032D01*
X4124960Y3897179D01*
X4023393D02*
X4006465Y3914107D01*
X3972609D01*
X3955681Y3897179D01*
Y3829468D01*
X3972609Y3812540D01*
X4006465D01*
X4023393Y3829468D01*
Y3897179D01*
X3855158Y3813595D02*
X3821302D01*
X3838230D01*
Y3915162D01*
X3855158Y3898234D01*
X3770519Y3830523D02*
X3753591Y3813595D01*
X3719735D01*
X3702807Y3830523D01*
Y3898234D01*
X3719735Y3915162D01*
X3753591D01*
X3770519Y3898234D01*
Y3881306D01*
X3753591Y3864378D01*
X3702807D01*
X3575758Y3813595D02*
X3541902D01*
X3558830D01*
Y3915162D01*
X3575758Y3898234D01*
X3491119D02*
X3474191Y3915162D01*
X3440335D01*
X3423407Y3898234D01*
Y3881306D01*
X3440335Y3864378D01*
X3423407Y3847451D01*
Y3830523D01*
X3440335Y3813595D01*
X3474191D01*
X3491119Y3830523D01*
Y3847451D01*
X3474191Y3864378D01*
X3491119Y3881306D01*
Y3898234D01*
X3474191Y3864378D02*
X3440335D01*
X3296358Y3813595D02*
X3262502D01*
X3279430D01*
Y3915162D01*
X3296358Y3898234D01*
X3211719Y3915162D02*
X3144007D01*
Y3898234D01*
X3211719Y3830523D01*
Y3813595D01*
X3016958D02*
X2983102D01*
X3000030D01*
Y3915162D01*
X3016958Y3898234D01*
X2864607Y3915162D02*
X2898463Y3898234D01*
X2932319Y3864378D01*
Y3830523D01*
X2915391Y3813595D01*
X2881535D01*
X2864607Y3830523D01*
Y3847451D01*
X2881535Y3864378D01*
X2932319D01*
X2737558Y3813595D02*
X2703702D01*
X2720630D01*
Y3915162D01*
X2737558Y3898234D01*
X2585207Y3915162D02*
X2652919D01*
Y3864378D01*
X2619063Y3881306D01*
X2602135D01*
X2585207Y3864378D01*
Y3830523D01*
X2602135Y3813595D01*
X2635991D01*
X2652919Y3830523D01*
X2473960Y3812540D02*
X2440104D01*
X2457032D01*
Y3914107D01*
X2473960Y3897179D01*
X2338537Y3812540D02*
Y3914107D01*
X2389321Y3863323D01*
X2321609D01*
D22*
X6045200Y4271346D02*
Y4068211D01*
X5943633D01*
X5909777Y4102067D01*
Y4237490D01*
X5943633Y4271346D01*
X6045200D01*
X5842066D02*
Y4068211D01*
X5740499D01*
X5706643Y4102067D01*
Y4135923D01*
X5740499Y4169779D01*
X5842066D01*
X5740499D01*
X5706643Y4203634D01*
Y4237490D01*
X5740499Y4271346D01*
X5842066D01*
X5503509Y4068211D02*
X5638932D01*
X5503509Y4203634D01*
Y4237490D01*
X5537364Y4271346D01*
X5605076D01*
X5638932Y4237490D01*
X5300374Y4271346D02*
X5435797D01*
Y4169779D01*
X5368086Y4203634D01*
X5334230D01*
X5300374Y4169779D01*
Y4102067D01*
X5334230Y4068211D01*
X5401942D01*
X5435797Y4102067D01*
X5232663Y4169779D02*
X5097240D01*
X5029529Y4203634D02*
Y4068211D01*
Y4135923D01*
X4995673Y4169779D01*
X4961818Y4203634D01*
X4927962D01*
X4724827Y4068211D02*
X4792539D01*
X4826395Y4102067D01*
Y4169779D01*
X4792539Y4203634D01*
X4724827D01*
X4690972Y4169779D01*
Y4135923D01*
X4826395D01*
X4623261Y4068211D02*
X4555549D01*
X4589405D01*
Y4271346D01*
X4623261D01*
X4420126Y4203634D02*
X4352415D01*
X4318559Y4169779D01*
Y4068211D01*
X4420126D01*
X4453982Y4102067D01*
X4420126Y4135923D01*
X4318559D01*
X4250848Y4203634D02*
Y4102067D01*
X4216992Y4068211D01*
X4115425D01*
Y4034356D01*
X4149280Y4000500D01*
X4183136D01*
X4115425Y4068211D02*
Y4203634D01*
X4047714Y4169779D02*
X3912291D01*
X3844579Y4271346D02*
Y4068211D01*
Y4169779D01*
X3709156D01*
Y4271346D01*
Y4068211D01*
X3641445Y4271346D02*
Y4135923D01*
X3573734Y4068211D01*
X3506022Y4135923D01*
Y4271346D01*
X3438311Y4169779D02*
X3302888D01*
X3099754Y4203634D02*
X3201321D01*
X3235177Y4169779D01*
Y4102067D01*
X3201321Y4068211D01*
X3099754D01*
X2998187D02*
X2930475D01*
X2896620Y4102067D01*
Y4169779D01*
X2930475Y4203634D01*
X2998187D01*
X3032042Y4169779D01*
Y4102067D01*
X2998187Y4068211D01*
X2828908D02*
Y4203634D01*
X2727341D01*
X2693485Y4169779D01*
Y4068211D01*
X2591918Y4237490D02*
Y4203634D01*
X2625774D01*
X2558063D01*
X2591918D01*
Y4102067D01*
X2558063Y4068211D01*
X2456495Y4203634D02*
Y4068211D01*
Y4135923D01*
X2422640Y4169779D01*
X2388784Y4203634D01*
X2354928D01*
X2219506Y4068211D02*
X2151794D01*
X2117938Y4102067D01*
Y4169779D01*
X2151794Y4203634D01*
X2219506D01*
X2253361Y4169779D01*
Y4102067D01*
X2219506Y4068211D01*
X2050227D02*
X1982516D01*
X2016371D01*
Y4271346D01*
X2050227D01*
X3225800Y6773311D02*
X3212258Y6786854D01*
X3185173D01*
X3171631Y6773311D01*
Y6759769D01*
X3185173Y6746227D01*
X3198715D01*
X3185173D01*
X3171631Y6732685D01*
Y6719142D01*
X3185173Y6705600D01*
X3212258D01*
X3225800Y6719142D01*
X3144546Y6705600D02*
Y6719142D01*
X3131004D01*
Y6705600D01*
X3144546D01*
X3076835D02*
X3049750D01*
X3063293D01*
Y6786854D01*
X3076835Y6773311D01*
X2927870Y6705600D02*
X2900785D01*
X2914327D01*
Y6759769D01*
X2927870D01*
X2860158Y6705600D02*
Y6759769D01*
X2819532D01*
X2805989Y6746227D01*
Y6705600D01*
X2697651Y6759769D02*
X2643482Y6705600D01*
X2670566Y6732685D01*
X2643482Y6759769D01*
X2697651Y6705600D01*
X2480974D02*
X2535143D01*
X2480974Y6759769D01*
Y6773311D01*
X2494516Y6786854D01*
X2521601D01*
X2535143Y6773311D01*
X2453889Y6705600D02*
Y6719142D01*
X2440347D01*
Y6705600D01*
X2453889D01*
X2386178Y6773311D02*
X2372636Y6786854D01*
X2345551D01*
X2332009Y6773311D01*
Y6759769D01*
X2345551Y6746227D01*
X2332009Y6732685D01*
Y6719142D01*
X2345551Y6705600D01*
X2372636D01*
X2386178Y6719142D01*
Y6732685D01*
X2372636Y6746227D01*
X2386178Y6759769D01*
Y6773311D01*
X2372636Y6746227D02*
X2345551D01*
X2223670Y6705600D02*
X2196586D01*
X2210128D01*
Y6759769D01*
X2223670D01*
X2155959Y6705600D02*
Y6759769D01*
X2115332D01*
X2101790Y6746227D01*
Y6705600D01*
X3784600Y6659854D02*
X3730431D01*
Y6646311D01*
X3784600Y6592142D01*
Y6578600D01*
X3703346Y6646311D02*
X3689804Y6659854D01*
X3662719D01*
X3649177Y6646311D01*
Y6632769D01*
X3662719Y6619227D01*
X3649177Y6605685D01*
Y6592142D01*
X3662719Y6578600D01*
X3689804D01*
X3703346Y6592142D01*
Y6605685D01*
X3689804Y6619227D01*
X3703346Y6632769D01*
Y6646311D01*
X3689804Y6619227D02*
X3662719D01*
X3622092Y6578600D02*
Y6592142D01*
X3608550D01*
Y6578600D01*
X3622092D01*
X3554381Y6659854D02*
X3500212D01*
Y6646311D01*
X3554381Y6592142D01*
Y6578600D01*
X3432500D02*
Y6659854D01*
X3473127Y6619227D01*
X3418958D01*
X3310619Y6578600D02*
Y6632769D01*
X3297077D01*
X3283535Y6619227D01*
Y6578600D01*
Y6619227D01*
X3269993Y6632769D01*
X3256450Y6619227D01*
Y6578600D01*
X3229366D02*
Y6632769D01*
X3215823D01*
X3202281Y6619227D01*
Y6578600D01*
Y6619227D01*
X3188739Y6632769D01*
X3175197Y6619227D01*
Y6578600D01*
X3066858D02*
X3039773D01*
X3053316D01*
Y6632769D01*
X3066858D01*
X2999147Y6578600D02*
Y6632769D01*
X2958520D01*
X2944978Y6619227D01*
Y6578600D01*
X2836639Y6632769D02*
X2782470Y6578600D01*
X2809554Y6605685D01*
X2782470Y6632769D01*
X2836639Y6578600D01*
X2674131Y6659854D02*
X2619962D01*
Y6646311D01*
X2674131Y6592142D01*
Y6578600D01*
X2592877D02*
X2565793D01*
X2579335D01*
Y6659854D01*
X2592877Y6646311D01*
X2525166Y6578600D02*
Y6592142D01*
X2511624D01*
Y6578600D01*
X2525166D01*
X2457455D02*
X2430370D01*
X2443913D01*
Y6659854D01*
X2457455Y6646311D01*
X2335574Y6578600D02*
X2389744D01*
X2335574Y6632769D01*
Y6646311D01*
X2349117Y6659854D01*
X2376201D01*
X2389744Y6646311D01*
X2227236Y6578600D02*
Y6632769D01*
X2213694D01*
X2200151Y6619227D01*
Y6578600D01*
Y6619227D01*
X2186609Y6632769D01*
X2173067Y6619227D01*
Y6578600D01*
X2145982D02*
Y6632769D01*
X2132440D01*
X2118897Y6619227D01*
Y6578600D01*
Y6619227D01*
X2105355Y6632769D01*
X2091813Y6619227D01*
Y6578600D01*
X5765800Y160823D02*
Y59256D01*
X5715017D01*
X5698089Y76183D01*
Y143895D01*
X5715017Y160823D01*
X5765800D01*
X5664233D02*
Y59256D01*
X5613449D01*
X5596521Y76183D01*
Y93111D01*
X5613449Y110039D01*
X5664233D01*
X5613449D01*
X5596521Y126967D01*
Y143895D01*
X5613449Y160823D01*
X5664233D01*
X5494954Y59256D02*
X5562666D01*
X5494954Y126967D01*
Y143895D01*
X5511882Y160823D01*
X5545738D01*
X5562666Y143895D01*
X5393387Y160823D02*
X5461098D01*
Y110039D01*
X5427243Y126967D01*
X5410315D01*
X5393387Y110039D01*
Y76183D01*
X5410315Y59256D01*
X5444170D01*
X5461098Y76183D01*
X5359531Y110039D02*
X5291820D01*
X5257964Y126967D02*
Y59256D01*
Y93111D01*
X5241036Y110039D01*
X5224108Y126967D01*
X5207180D01*
X5105613Y59256D02*
X5139469D01*
X5156397Y76183D01*
Y110039D01*
X5139469Y126967D01*
X5105613D01*
X5088685Y110039D01*
Y93111D01*
X5156397D01*
X5054829Y59256D02*
X5020974D01*
X5037902D01*
Y160823D01*
X5054829D01*
X4953262Y126967D02*
X4919406D01*
X4902479Y110039D01*
Y59256D01*
X4953262D01*
X4970190Y76183D01*
X4953262Y93111D01*
X4902479D01*
X4868623Y126967D02*
Y76183D01*
X4851695Y59256D01*
X4800911D01*
Y42328D01*
X4817839Y25400D01*
X4834767D01*
X4800911Y59256D02*
Y126967D01*
X4767055Y110039D02*
X4699344D01*
X4665488Y160823D02*
Y59256D01*
Y110039D01*
X4597777D01*
Y160823D01*
Y59256D01*
X4563921Y160823D02*
Y93111D01*
X4530065Y59256D01*
X4496210Y93111D01*
Y160823D01*
X4462354Y110039D02*
X4394642D01*
X4293075Y126967D02*
X4343859D01*
X4360787Y110039D01*
Y76183D01*
X4343859Y59256D01*
X4293075D01*
X4242291D02*
X4208436D01*
X4191508Y76183D01*
Y110039D01*
X4208436Y126967D01*
X4242291D01*
X4259219Y110039D01*
Y76183D01*
X4242291Y59256D01*
X4157652D02*
Y126967D01*
X4106869D01*
X4089941Y110039D01*
Y59256D01*
X4039157Y143895D02*
Y126967D01*
X4056085D01*
X4022229D01*
X4039157D01*
Y76183D01*
X4022229Y59256D01*
X3971445Y126967D02*
Y59256D01*
Y93111D01*
X3954518Y110039D01*
X3937590Y126967D01*
X3920662D01*
X3852950Y59256D02*
X3819095D01*
X3802167Y76183D01*
Y110039D01*
X3819095Y126967D01*
X3852950D01*
X3869878Y110039D01*
Y76183D01*
X3852950Y59256D01*
X3768311D02*
X3734455D01*
X3751383D01*
Y160823D01*
X3768311D01*
X5105400Y2946400D02*
Y3031039D01*
X5063080Y3073359D01*
X5020761Y3031039D01*
Y2946400D01*
Y3009879D01*
X5105400D01*
X4893802Y3052199D02*
X4914962Y3073359D01*
X4957281D01*
X4978441Y3052199D01*
Y3031039D01*
X4957281Y3009879D01*
X4914962D01*
X4893802Y2988720D01*
Y2967560D01*
X4914962Y2946400D01*
X4957281D01*
X4978441Y2967560D01*
X4766843Y3052199D02*
X4788003Y3073359D01*
X4830323D01*
X4851482Y3052199D01*
Y3031039D01*
X4830323Y3009879D01*
X4788003D01*
X4766843Y2988720D01*
Y2967560D01*
X4788003Y2946400D01*
X4830323D01*
X4851482Y2967560D01*
X4724523Y2946400D02*
Y3073359D01*
X4682204Y3031039D01*
X4639884Y3073359D01*
Y2946400D01*
X4597565D02*
Y3031039D01*
X4555245Y3073359D01*
X4512925Y3031039D01*
Y2946400D01*
Y3009879D01*
X4597565D01*
X4470606Y2946400D02*
Y3073359D01*
X4385966Y2946400D01*
Y3073359D01*
X4343647Y2946400D02*
Y3073359D01*
X4259007Y2946400D01*
Y3073359D01*
X4089729Y2946400D02*
Y3031039D01*
X4047409Y3073359D01*
X4005090Y3031039D01*
Y2946400D01*
Y3009879D01*
X4089729D01*
X3962770D02*
X3878131D01*
X3835811Y3073359D02*
Y2946400D01*
X3772332D01*
X3751172Y2967560D01*
Y3052199D01*
X3772332Y3073359D01*
X3835811D01*
X3624213D02*
X3708853D01*
Y3009879D01*
X3666533D01*
X3708853D01*
Y2946400D01*
X3370296D02*
X3454935D01*
X3370296Y3031039D01*
Y3052199D01*
X3391455Y3073359D01*
X3433775D01*
X3454935Y3052199D01*
X3243337Y3073359D02*
X3327976D01*
Y3009879D01*
X3285656Y3031039D01*
X3264497D01*
X3243337Y3009879D01*
Y2967560D01*
X3264497Y2946400D01*
X3306816D01*
X3327976Y2967560D01*
X3074058Y2946400D02*
Y3073359D01*
X3010579D01*
X2989419Y3052199D01*
Y3009879D01*
X3010579Y2988720D01*
X3074058D01*
X2947100Y2946400D02*
Y3073359D01*
X2883620D01*
X2862460Y3052199D01*
Y3009879D01*
X2883620Y2988720D01*
X2947100D01*
X2820141Y2946400D02*
X2735501Y3031039D01*
X2693182Y3073359D02*
X2608542D01*
Y3052199D01*
X2693182Y2967560D01*
Y2946400D01*
X2608542D01*
X7742789Y2650931D02*
X7729246Y2664473D01*
Y2691558D01*
X7742789Y2705100D01*
X7796958D01*
X7810500Y2691558D01*
Y2664473D01*
X7796958Y2650931D01*
X7729246Y2583219D02*
Y2610304D01*
X7742789Y2623846D01*
X7796958D01*
X7810500Y2610304D01*
Y2583219D01*
X7796958Y2569677D01*
X7742789D01*
X7729246Y2583219D01*
X7810500Y2542592D02*
X7729246D01*
X7756331Y2515508D01*
X7729246Y2488423D01*
X7810500D01*
X7729246Y2461338D02*
X7796958D01*
X7810500Y2447796D01*
Y2420712D01*
X7796958Y2407169D01*
X7729246D01*
X7742789Y2325916D02*
X7729246Y2339458D01*
Y2366542D01*
X7742789Y2380085D01*
X7756331D01*
X7769873Y2366542D01*
Y2339458D01*
X7783415Y2325916D01*
X7796958D01*
X7810500Y2339458D01*
Y2366542D01*
X7796958Y2380085D01*
X7742789Y2217577D02*
X7729246Y2204035D01*
Y2176950D01*
X7742789Y2163408D01*
X7756331D01*
X7769873Y2176950D01*
Y2190492D01*
Y2176950D01*
X7783415Y2163408D01*
X7796958D01*
X7810500Y2176950D01*
Y2204035D01*
X7796958Y2217577D01*
X7729246Y2082154D02*
Y2136323D01*
X7769873D01*
X7756331Y2109239D01*
Y2095696D01*
X7769873Y2082154D01*
X7796958D01*
X7810500Y2095696D01*
Y2122781D01*
X7796958Y2136323D01*
X7729246Y2055069D02*
Y2000900D01*
X7742789D01*
X7796958Y2055069D01*
X7810500D01*
X7742789Y1973815D02*
X7729246Y1960273D01*
Y1933189D01*
X7742789Y1919646D01*
X7796958D01*
X7810500Y1933189D01*
Y1960273D01*
X7796958Y1973815D01*
X7742789D01*
X7769873Y1892562D02*
Y1838393D01*
X7810500Y1811308D02*
Y1784223D01*
Y1797766D01*
X7729246D01*
X7742789Y1811308D01*
Y1743596D02*
X7729246Y1730054D01*
Y1702970D01*
X7742789Y1689427D01*
X7756331D01*
X7769873Y1702970D01*
Y1716512D01*
Y1702970D01*
X7783415Y1689427D01*
X7796958D01*
X7810500Y1702970D01*
Y1730054D01*
X7796958Y1743596D01*
X7742789Y1662343D02*
X7729246Y1648800D01*
Y1621716D01*
X7742789Y1608174D01*
X7756331D01*
X7769873Y1621716D01*
Y1635258D01*
Y1621716D01*
X7783415Y1608174D01*
X7796958D01*
X7810500Y1621716D01*
Y1648800D01*
X7796958Y1662343D01*
X7810500Y1581089D02*
Y1554004D01*
Y1567547D01*
X7729246D01*
X7742789Y1581089D01*
X7769873Y1513377D02*
Y1459208D01*
X7742789Y1432124D02*
X7729246Y1418581D01*
Y1391497D01*
X7742789Y1377955D01*
X7796958D01*
X7810500Y1391497D01*
Y1418581D01*
X7796958Y1432124D01*
X7742789D01*
X7729246Y1296701D02*
Y1350870D01*
X7769873D01*
X7756331Y1323785D01*
Y1310243D01*
X7769873Y1296701D01*
X7796958D01*
X7810500Y1310243D01*
Y1337328D01*
X7796958Y1350870D01*
X7810500Y1269616D02*
Y1242531D01*
Y1256074D01*
X7729246D01*
X7742789Y1269616D01*
X7810500Y1120651D02*
X7729246D01*
Y1080024D01*
X7742789Y1066482D01*
X7769873D01*
X7783415Y1080024D01*
Y1120651D01*
Y1093566D02*
X7810500Y1066482D01*
X7729246Y985228D02*
Y1039397D01*
X7810500D01*
Y985228D01*
X7769873Y1039397D02*
Y1012312D01*
X7729246Y958143D02*
X7810500D01*
Y903974D01*
Y876889D02*
X7756331D01*
X7729246Y849805D01*
X7756331Y822720D01*
X7810500D01*
X7769873D01*
Y876889D01*
X7729246Y795635D02*
X7742789D01*
X7769873Y768551D01*
X7742789Y741466D01*
X7729246D01*
X7769873Y768551D02*
X7810500D01*
X7772400Y3128428D02*
X7755472Y3111500D01*
X7721617D01*
X7704689Y3128428D01*
Y3196139D01*
X7721617Y3213067D01*
X7755472D01*
X7772400Y3196139D01*
Y3179211D01*
X7755472Y3162283D01*
X7704689D01*
X7670833Y3196139D02*
X7653905Y3213067D01*
X7620049D01*
X7603121Y3196139D01*
Y3128428D01*
X7620049Y3111500D01*
X7653905D01*
X7670833Y3128428D01*
Y3196139D01*
X7569266Y3213067D02*
Y3145356D01*
X7535410Y3111500D01*
X7501554Y3145356D01*
Y3213067D01*
X7704689Y3983539D02*
X7721617Y4000467D01*
X7755472D01*
X7772400Y3983539D01*
Y3915828D01*
X7755472Y3898900D01*
X7721617D01*
X7704689Y3915828D01*
Y3949683D01*
X7738544D01*
X7670833Y3898900D02*
Y4000467D01*
X7603121Y3898900D01*
Y4000467D01*
X7569266D02*
Y3898900D01*
X7518482D01*
X7501554Y3915828D01*
Y3983539D01*
X7518482Y4000467D01*
X7569266D01*
X4940300Y427539D02*
X4872589Y359828D01*
X4940300D02*
X4872589Y427539D01*
X4940300Y393683D02*
X4872589D01*
X4906444Y359828D02*
Y427539D01*
X4737166Y376756D02*
X4669454D01*
X4737166Y410611D02*
X4669454D01*
X4534031Y342900D02*
Y444467D01*
X4483248D01*
X4466320Y427539D01*
Y393683D01*
X4483248Y376756D01*
X4534031D01*
X4432464Y444467D02*
X4398608D01*
X4415536D01*
Y342900D01*
X4432464D01*
X4398608D01*
X4347824D02*
Y444467D01*
X4280113Y342900D01*
Y444467D01*
X4144690Y342900D02*
X4110834D01*
X4127762D01*
Y444467D01*
X4144690Y427539D01*
X7302500Y6929939D02*
X7234789Y6862228D01*
X7302500D02*
X7234789Y6929939D01*
X7302500Y6896083D02*
X7234789D01*
X7268644Y6862228D02*
Y6929939D01*
X7099366Y6879156D02*
X7031654D01*
X7099366Y6913011D02*
X7031654D01*
X6896231Y6845300D02*
Y6946867D01*
X6845448D01*
X6828520Y6929939D01*
Y6896083D01*
X6845448Y6879156D01*
X6896231D01*
X6794664Y6946867D02*
X6760808D01*
X6777736D01*
Y6845300D01*
X6794664D01*
X6760808D01*
X6710024D02*
Y6946867D01*
X6642313Y6845300D01*
Y6946867D01*
X6506890Y6845300D02*
X6473034D01*
X6489962D01*
Y6946867D01*
X6506890Y6929939D01*
D23*
X5753100Y533301D02*
Y228600D01*
X5600749D01*
X5549966Y279383D01*
Y330167D01*
X5600749Y380951D01*
X5753100D01*
X5600749D01*
X5549966Y431734D01*
Y482518D01*
X5600749Y533301D01*
X5753100D01*
X5448399Y228600D02*
X5346831D01*
X5397615D01*
Y533301D01*
X5448399Y482518D01*
X7037633Y4296157D02*
X7066655Y4281646D01*
X7095678Y4252623D01*
X7110189Y4223601D01*
X7124700Y4180068D01*
Y4107512D01*
X7110189Y4063978D01*
X7095678Y4034956D01*
X7066655Y4005934D01*
X7037633Y3991422D01*
X6979588D01*
X6950566Y4005934D01*
X6921543Y4034956D01*
X6907032Y4063978D01*
X6892521Y4107512D01*
Y4180068D01*
X6907032Y4223601D01*
X6921543Y4252623D01*
X6950566Y4281646D01*
X6979588Y4296157D01*
X7037633D01*
X6994099Y4049467D02*
X6907032Y3962400D01*
X6821416Y4296157D02*
Y3991422D01*
Y4296157D02*
X6618260Y3991422D01*
Y4296157D02*
Y3991422D01*
X6301916D02*
X6418006Y4296157D01*
X6534095Y3991422D01*
X6490562Y4093000D02*
X6345450D01*
X660400Y7035701D02*
Y6731000D01*
X508049D01*
X457266Y6781783D01*
Y6832567D01*
X508049Y6883351D01*
X660400D01*
X508049D01*
X457266Y6934134D01*
Y6984918D01*
X508049Y7035701D01*
X660400D01*
X152564Y6731000D02*
X355699D01*
X152564Y6934134D01*
Y6984918D01*
X203348Y7035701D01*
X304915D01*
X355699Y6984918D01*
X1206500Y114300D02*
Y317434D01*
X1308067Y419001D01*
X1409634Y317434D01*
Y114300D01*
Y266651D01*
X1206500D01*
X3771966Y6984918D02*
X3822749Y7035701D01*
X3924317D01*
X3975100Y6984918D01*
Y6781783D01*
X3924317Y6731000D01*
X3822749D01*
X3771966Y6781783D01*
%TF.MD5,51f2f84ec2731f7a49f760fecac85113*%
M02*
