%TF.GenerationSoftware,Altium Limited,Altium Designer,24.1.2 (44)*%
G04 Layer_Color=8421504*
%FSLAX45Y45*%
%MOMM*%
%TF.SameCoordinates,7409CC48-22DB-44E9-B9CF-AE3C77DAA70A*%
%TF.FilePolarity,Positive*%
%TF.FileFunction,Paste,Top*%
%TF.Part,Single*%
G01*
G75*
%TA.AperFunction,SMDPad,CuDef*%
%ADD11R,1.00000X1.50000*%
D11*
X284500Y2667000D02*
D03*
X604500D02*
D03*
X919500D02*
D03*
X1239500D02*
D03*
X1554500D02*
D03*
X1874500D02*
D03*
X2189500D02*
D03*
X2509500D02*
D03*
X5395000D02*
D03*
X5715000D02*
D03*
X2824500D02*
D03*
X3144500D02*
D03*
X3459500D02*
D03*
X3779500D02*
D03*
X4094500D02*
D03*
X4414500D02*
D03*
X2761000Y4406900D02*
D03*
X3081000D02*
D03*
X4793000Y2667000D02*
D03*
X5113000D02*
D03*
X6319500D02*
D03*
X5999500D02*
D03*
X6634500D02*
D03*
X6954500D02*
D03*
X246400Y4406900D02*
D03*
X566400D02*
D03*
X3716000D02*
D03*
X3396000D02*
D03*
X2446000D02*
D03*
X2126000D02*
D03*
X4968200D02*
D03*
X4648200D02*
D03*
X5621000D02*
D03*
X5301000D02*
D03*
X6256000D02*
D03*
X5936000D02*
D03*
X6891000D02*
D03*
X6571000D02*
D03*
X7526000D02*
D03*
X7206000D02*
D03*
X1176000D02*
D03*
X856000D02*
D03*
X1785600D02*
D03*
X1465600D02*
D03*
X4351000D02*
D03*
X4031000D02*
D03*
X7236500Y2667000D02*
D03*
X7556500D02*
D03*
%TF.MD5,3e84bcb42039831097a24265516d5635*%
M02*
