%TF.GenerationSoftware,Altium Limited,Altium Designer,24.1.2 (44)*%
G04 Layer_Physical_Order=2*
G04 Layer_Color=16711680*
%FSLAX45Y45*%
%MOMM*%
%TF.SameCoordinates,7409CC48-22DB-44E9-B9CF-AE3C77DAA70A*%
%TF.FilePolarity,Positive*%
%TF.FileFunction,Copper,L2,Bot,Signal*%
%TF.Part,Single*%
G01*
G75*
%TA.AperFunction,Conductor*%
%ADD10C,0.63500*%
%TA.AperFunction,ComponentPad*%
%ADD12C,1.65100*%
%ADD13C,3.14960*%
%ADD14R,1.37000X1.37000*%
%ADD15C,1.37000*%
%ADD16C,1.27000*%
%ADD17C,1.39700*%
%ADD18C,1.90500*%
D10*
X7797800Y6083300D02*
G03*
X7543800Y6337300I-254000J0D01*
G01*
Y787400D02*
G03*
X7797800Y1041400I0J254000D01*
G01*
Y3429000D02*
Y6083300D01*
Y1041400D02*
Y3429000D01*
X7620000D02*
X7797800D01*
X7429500Y6337300D02*
X7543800D01*
X7442200Y787400D02*
X7543800D01*
X6794500Y6337300D02*
X7429500D01*
X6159500D02*
X6794500D01*
X5524500D02*
X6159500D01*
X4889500D02*
X5524500D01*
X4254500D02*
X4889500D01*
X3619500D02*
X4254500D01*
X2984500D02*
X3619500D01*
X2349500D02*
X2984500D01*
X1714500D02*
X2349500D01*
X1079500D02*
X1714500D01*
X444500D02*
X1079500D01*
X6807200Y787400D02*
X7442200D01*
X6172200D02*
X6807200D01*
X5537200D02*
X6172200D01*
X4902200D02*
X5537200D01*
X4267200D02*
X4902200D01*
X3632200D02*
X4267200D01*
X2997200D02*
X3632200D01*
X2362200D02*
X2997200D01*
X1727200D02*
X2362200D01*
X1092200D02*
X1727200D01*
X457200D02*
X1092200D01*
D12*
X2267100Y3390900D02*
D03*
X2544100D02*
D03*
X2821100D02*
D03*
X3098100D02*
D03*
X3375100D02*
D03*
X3652100D02*
D03*
X3929100D02*
D03*
X4206100D02*
D03*
X4483100D02*
D03*
X4760100D02*
D03*
X5037100D02*
D03*
X5314100D02*
D03*
X5591100D02*
D03*
X2405600Y3674900D02*
D03*
X2682600D02*
D03*
X2959600D02*
D03*
X3236600D02*
D03*
X3513600D02*
D03*
X3790600D02*
D03*
X4067600D02*
D03*
X4344600D02*
D03*
X4621600D02*
D03*
X4898600D02*
D03*
X5175600D02*
D03*
X5452600D02*
D03*
D13*
X6281101Y3532900D02*
D03*
X1577100D02*
D03*
D14*
X6883400Y203200D02*
D03*
X1778000Y6908800D02*
D03*
X6096000D02*
D03*
X3556000Y203200D02*
D03*
D15*
X6629400D02*
D03*
X6375400D02*
D03*
X6121400D02*
D03*
X1016000Y6908800D02*
D03*
X1270000D02*
D03*
X1524000D02*
D03*
X4318000D02*
D03*
X4572000D02*
D03*
X4826000D02*
D03*
X5080000D02*
D03*
X5334000D02*
D03*
X5588000D02*
D03*
X5842000D02*
D03*
X1778000Y203200D02*
D03*
X2032000D02*
D03*
X2286000D02*
D03*
X2540000D02*
D03*
X2794000D02*
D03*
X3048000D02*
D03*
X3302000D02*
D03*
D16*
X457200Y787400D02*
D03*
Y1295400D02*
D03*
Y1803400D02*
D03*
Y2311400D02*
D03*
X2349500Y6337300D02*
D03*
Y5829300D02*
D03*
Y5321300D02*
D03*
Y4813300D02*
D03*
X1092200Y2311400D02*
D03*
Y1803400D02*
D03*
Y1295400D02*
D03*
Y787400D02*
D03*
X1727200Y2311400D02*
D03*
Y1803400D02*
D03*
Y1295400D02*
D03*
Y787400D02*
D03*
X2362200Y2311400D02*
D03*
Y1803400D02*
D03*
Y1295400D02*
D03*
Y787400D02*
D03*
X4902200Y2311400D02*
D03*
Y1803400D02*
D03*
Y1295400D02*
D03*
Y787400D02*
D03*
X4267200Y2311400D02*
D03*
Y1803400D02*
D03*
Y1295400D02*
D03*
Y787400D02*
D03*
X3632200Y2311400D02*
D03*
Y1803400D02*
D03*
Y1295400D02*
D03*
Y787400D02*
D03*
X2997200Y2311400D02*
D03*
Y1803400D02*
D03*
Y1295400D02*
D03*
Y787400D02*
D03*
X5537200Y2311400D02*
D03*
Y1803400D02*
D03*
Y1295400D02*
D03*
Y787400D02*
D03*
X6172200Y2311400D02*
D03*
Y1803400D02*
D03*
Y1295400D02*
D03*
Y787400D02*
D03*
X6807200Y2311400D02*
D03*
Y1803400D02*
D03*
Y1295400D02*
D03*
Y787400D02*
D03*
X7442200Y2311400D02*
D03*
Y1803400D02*
D03*
Y1295400D02*
D03*
Y787400D02*
D03*
X444500Y4813300D02*
D03*
Y5321300D02*
D03*
Y5829300D02*
D03*
Y6337300D02*
D03*
X1079500Y4813300D02*
D03*
Y5321300D02*
D03*
Y5829300D02*
D03*
Y6337300D02*
D03*
X1714500Y4813300D02*
D03*
Y5321300D02*
D03*
Y5829300D02*
D03*
Y6337300D02*
D03*
X2984500Y4813300D02*
D03*
Y5321300D02*
D03*
Y5829300D02*
D03*
Y6337300D02*
D03*
X3619500Y4813300D02*
D03*
Y5321300D02*
D03*
Y5829300D02*
D03*
Y6337300D02*
D03*
X4254500Y4813300D02*
D03*
Y5321300D02*
D03*
Y5829300D02*
D03*
Y6337300D02*
D03*
X4889500Y4813300D02*
D03*
Y5321300D02*
D03*
Y5829300D02*
D03*
Y6337300D02*
D03*
X5524500Y4813300D02*
D03*
Y5321300D02*
D03*
Y5829300D02*
D03*
Y6337300D02*
D03*
X6159500Y4813300D02*
D03*
Y5321300D02*
D03*
Y5829300D02*
D03*
Y6337300D02*
D03*
X6794500Y4813300D02*
D03*
Y5321300D02*
D03*
Y5829300D02*
D03*
Y6337300D02*
D03*
X7429500Y4813300D02*
D03*
Y5321300D02*
D03*
Y5829300D02*
D03*
Y6337300D02*
D03*
D17*
X7620000Y3429000D02*
D03*
Y3683000D02*
D03*
D18*
X336550Y3768716D02*
D03*
%TF.MD5,19f1b2d95f346fe39c5a5f2f3ae0a327*%
M02*
