%TF.GenerationSoftware,Altium Limited,Altium Designer,24.1.2 (44)*%
G04 Layer_Color=65535*
%FSLAX45Y45*%
%MOMM*%
%TF.SameCoordinates,7409CC48-22DB-44E9-B9CF-AE3C77DAA70A*%
%TF.FilePolarity,Positive*%
%TF.FileFunction,Legend,Top*%
%TF.Part,Single*%
G01*
G75*
%TA.AperFunction,NonConductor*%
%ADD19C,0.20000*%
%ADD20C,0.50800*%
%ADD21C,0.15240*%
%ADD22C,0.25400*%
D19*
X7085400Y203200D02*
G03*
X7085400Y203200I-10000J0D01*
G01*
X1980000Y6908800D02*
G03*
X1980000Y6908800I-10000J0D01*
G01*
X6298000D02*
G03*
X6298000Y6908800I-10000J0D01*
G01*
X3758000Y203200D02*
G03*
X3758000Y203200I-10000J0D01*
G01*
X7010400Y76200D02*
Y330200D01*
X5994400Y76200D02*
Y330200D01*
Y76200D02*
X7010400D01*
X5994400Y330200D02*
X7010400D01*
X889000Y7035800D02*
X1905000D01*
X889000Y6781800D02*
X1905000D01*
X889000D02*
Y7035800D01*
X1905000Y6781800D02*
Y7035800D01*
X4191000D02*
X6223000D01*
X4191000Y6781800D02*
X6223000D01*
X4191000D02*
Y7035800D01*
X6223000Y6781800D02*
Y7035800D01*
X372000Y2752000D02*
X517000D01*
X372000Y2582000D02*
X517000D01*
X1007000Y2752000D02*
X1152000D01*
X1007000Y2582000D02*
X1152000D01*
X1642000Y2752000D02*
X1787000D01*
X1642000Y2582000D02*
X1787000D01*
X2277000Y2752000D02*
X2422000D01*
X2277000Y2582000D02*
X2422000D01*
X5482500Y2752000D02*
X5627500D01*
X5482500Y2582000D02*
X5627500D01*
X2912000Y2752000D02*
X3057000D01*
X2912000Y2582000D02*
X3057000D01*
X3547000Y2752000D02*
X3692000D01*
X3547000Y2582000D02*
X3692000D01*
X4182000Y2752000D02*
X4327000D01*
X4182000Y2582000D02*
X4327000D01*
X2848500Y4491900D02*
X2993500D01*
X2848500Y4321900D02*
X2993500D01*
X4880500Y2752000D02*
X5025500D01*
X4880500Y2582000D02*
X5025500D01*
X6087000D02*
X6232000D01*
X6087000Y2752000D02*
X6232000D01*
X6722000D02*
X6867000D01*
X6722000Y2582000D02*
X6867000D01*
X333900Y4491900D02*
X478900D01*
X333900Y4321900D02*
X478900D01*
X3483500D02*
X3628500D01*
X3483500Y4491900D02*
X3628500D01*
X2213500Y4321900D02*
X2358500D01*
X2213500Y4491900D02*
X2358500D01*
X4735700Y4321900D02*
X4880700D01*
X4735700Y4491900D02*
X4880700D01*
X5388500Y4321900D02*
X5533500D01*
X5388500Y4491900D02*
X5533500D01*
X6023500Y4321900D02*
X6168500D01*
X6023500Y4491900D02*
X6168500D01*
X6658500Y4321900D02*
X6803500D01*
X6658500Y4491900D02*
X6803500D01*
X7293500Y4321900D02*
X7438500D01*
X7293500Y4491900D02*
X7438500D01*
X943500Y4321900D02*
X1088500D01*
X943500Y4491900D02*
X1088500D01*
X1553100Y4321900D02*
X1698100D01*
X1553100Y4491900D02*
X1698100D01*
X4118500Y4321900D02*
X4263500D01*
X4118500Y4491900D02*
X4263500D01*
X7324000Y2752000D02*
X7469000D01*
X7324000Y2582000D02*
X7469000D01*
X1651000Y330200D02*
X3683000D01*
X1651000Y76200D02*
X3683000D01*
X1651000D02*
Y330200D01*
X3683000Y76200D02*
Y330200D01*
D20*
X7467600Y3683000D02*
G03*
X7467600Y3683000I-38100J0D01*
G01*
D21*
X1257020Y4172860D02*
X6601180D01*
X1257020Y2892700D02*
Y4172860D01*
Y2892700D02*
X6601180D01*
Y4172860D01*
X3916400Y2918100D02*
X3941800D01*
X3916400Y2892700D02*
Y2918100D01*
Y2892700D02*
X3941800D01*
Y2918100D01*
X723900Y586740D02*
Y2512060D01*
X190500D02*
X723900D01*
X190500Y586740D02*
Y2512060D01*
Y586740D02*
X723900D01*
X2082800Y4612640D02*
Y6537960D01*
Y4612640D02*
X2616200D01*
Y6537960D01*
X2082800D02*
X2616200D01*
X825500Y586740D02*
X1358900D01*
X825500D02*
Y2512060D01*
X1358900D01*
Y586740D02*
Y2512060D01*
X1460500Y586740D02*
X1993900D01*
X1460500D02*
Y2512060D01*
X1993900D01*
Y586740D02*
Y2512060D01*
X2095500Y586740D02*
X2628900D01*
X2095500D02*
Y2512060D01*
X2628900D01*
Y586740D02*
Y2512060D01*
X4635500Y586740D02*
X5168900D01*
X4635500D02*
Y2512060D01*
X5168900D01*
Y586740D02*
Y2512060D01*
X4000500Y586740D02*
X4533900D01*
X4000500D02*
Y2512060D01*
X4533900D01*
Y586740D02*
Y2512060D01*
X3365500Y586740D02*
X3898900D01*
X3365500D02*
Y2512060D01*
X3898900D01*
Y586740D02*
Y2512060D01*
X2730500Y586740D02*
X3263900D01*
X2730500D02*
Y2512060D01*
X3263900D01*
Y586740D02*
Y2512060D01*
X5270500Y586740D02*
X5803900D01*
X5270500D02*
Y2512060D01*
X5803900D01*
Y586740D02*
Y2512060D01*
X5905500Y586740D02*
X6438900D01*
X5905500D02*
Y2512060D01*
X6438900D01*
Y586740D02*
Y2512060D01*
X6540500Y586740D02*
X7073900D01*
X6540500D02*
Y2512060D01*
X7073900D01*
Y586740D02*
Y2512060D01*
X7175500Y586740D02*
X7708900D01*
X7175500D02*
Y2512060D01*
X7708900D01*
Y586740D02*
Y2512060D01*
X177800Y6537960D02*
X711200D01*
Y4612640D02*
Y6537960D01*
X177800Y4612640D02*
X711200D01*
X177800D02*
Y6537960D01*
X812800D02*
X1346200D01*
Y4612640D02*
Y6537960D01*
X812800Y4612640D02*
X1346200D01*
X812800D02*
Y6537960D01*
X1447800D02*
X1981200D01*
Y4612640D02*
Y6537960D01*
X1447800Y4612640D02*
X1981200D01*
X1447800D02*
Y6537960D01*
X2717800D02*
X3251200D01*
Y4612640D02*
Y6537960D01*
X2717800Y4612640D02*
X3251200D01*
X2717800D02*
Y6537960D01*
X3352800D02*
X3886200D01*
Y4612640D02*
Y6537960D01*
X3352800Y4612640D02*
X3886200D01*
X3352800D02*
Y6537960D01*
X3987800D02*
X4521200D01*
Y4612640D02*
Y6537960D01*
X3987800Y4612640D02*
X4521200D01*
X3987800D02*
Y6537960D01*
X4622800D02*
X5156200D01*
Y4612640D02*
Y6537960D01*
X4622800Y4612640D02*
X5156200D01*
X4622800D02*
Y6537960D01*
X5257800D02*
X5791200D01*
Y4612640D02*
Y6537960D01*
X5257800Y4612640D02*
X5791200D01*
X5257800D02*
Y6537960D01*
X5892800D02*
X6426200D01*
Y4612640D02*
Y6537960D01*
X5892800Y4612640D02*
X6426200D01*
X5892800D02*
Y6537960D01*
X6527800D02*
X7061200D01*
Y4612640D02*
Y6537960D01*
X6527800Y4612640D02*
X7061200D01*
X6527800D02*
Y6537960D01*
X7162800D02*
X7696200D01*
Y4612640D02*
Y6537960D01*
X7162800Y4612640D02*
X7696200D01*
X7162800D02*
Y6537960D01*
X7493000Y3848100D02*
X7759700D01*
Y3263900D02*
Y3848100D01*
X7493000Y3263900D02*
X7759700D01*
X7493000D02*
Y3848100D01*
X5511940Y3152140D02*
Y3253707D01*
X5579651Y3152140D01*
Y3253707D01*
X5681219Y3236779D02*
X5664291Y3253707D01*
X5630435D01*
X5613507Y3236779D01*
Y3169068D01*
X5630435Y3152140D01*
X5664291D01*
X5681219Y3169068D01*
X2898140Y5628640D02*
Y5696351D01*
X2931996Y5730207D01*
X2965851Y5696351D01*
Y5628640D01*
Y5679423D01*
X2898140D01*
X2999707Y5713279D02*
X3016635Y5730207D01*
X3050491D01*
X3067419Y5713279D01*
Y5645568D01*
X3050491Y5628640D01*
X3016635D01*
X2999707Y5645568D01*
Y5713279D01*
X3545840Y5628640D02*
Y5696351D01*
X3579696Y5730207D01*
X3613551Y5696351D01*
Y5628640D01*
Y5679423D01*
X3545840D01*
X3647407Y5628640D02*
X3681263D01*
X3664335D01*
Y5730207D01*
X3647407Y5713279D01*
X4182548Y5633703D02*
Y5701414D01*
X4216404Y5735270D01*
X4250259Y5701414D01*
Y5633703D01*
Y5684486D01*
X4182548D01*
X4351826Y5633703D02*
X4284115D01*
X4351826Y5701414D01*
Y5718342D01*
X4334899Y5735270D01*
X4301043D01*
X4284115Y5718342D01*
X4804848Y5633703D02*
Y5701414D01*
X4838704Y5735270D01*
X4872559Y5701414D01*
Y5633703D01*
Y5684486D01*
X4804848D01*
X4906415Y5718342D02*
X4923343Y5735270D01*
X4957199D01*
X4974126Y5718342D01*
Y5701414D01*
X4957199Y5684486D01*
X4940271D01*
X4957199D01*
X4974126Y5667558D01*
Y5650631D01*
X4957199Y5633703D01*
X4923343D01*
X4906415Y5650631D01*
X5452548Y5633703D02*
Y5701414D01*
X5486404Y5735270D01*
X5520259Y5701414D01*
Y5633703D01*
Y5684486D01*
X5452548D01*
X5604899Y5633703D02*
Y5735270D01*
X5554115Y5684486D01*
X5621826D01*
X6087548Y5633703D02*
Y5701414D01*
X6121404Y5735270D01*
X6155259Y5701414D01*
Y5633703D01*
Y5684486D01*
X6087548D01*
X6256826Y5735270D02*
X6189115D01*
Y5684486D01*
X6222971Y5701414D01*
X6239899D01*
X6256826Y5684486D01*
Y5650631D01*
X6239899Y5633703D01*
X6206043D01*
X6189115Y5650631D01*
X6709848Y5633703D02*
Y5701414D01*
X6743704Y5735270D01*
X6777559Y5701414D01*
Y5633703D01*
Y5684486D01*
X6709848D01*
X6879126Y5735270D02*
X6845271Y5718342D01*
X6811415Y5684486D01*
Y5650631D01*
X6828343Y5633703D01*
X6862199D01*
X6879126Y5650631D01*
Y5667558D01*
X6862199Y5684486D01*
X6811415D01*
X7355840Y5628640D02*
Y5696351D01*
X7389696Y5730207D01*
X7423551Y5696351D01*
Y5628640D01*
Y5679423D01*
X7355840D01*
X7457407Y5730207D02*
X7525119D01*
Y5713279D01*
X7457407Y5645568D01*
Y5628640D01*
X2225040D02*
Y5696351D01*
X2258896Y5730207D01*
X2292751Y5696351D01*
Y5628640D01*
Y5679423D01*
X2225040D01*
X2326607Y5628640D02*
X2360463D01*
X2343535D01*
Y5730207D01*
X2326607Y5713279D01*
X2411247Y5628640D02*
X2445102D01*
X2428174D01*
Y5730207D01*
X2411247Y5713279D01*
X1602740Y5628640D02*
Y5696351D01*
X1636596Y5730207D01*
X1670451Y5696351D01*
Y5628640D01*
Y5679423D01*
X1602740D01*
X1704307Y5628640D02*
X1738163D01*
X1721235D01*
Y5730207D01*
X1704307Y5713279D01*
X1788947D02*
X1805874Y5730207D01*
X1839730D01*
X1856658Y5713279D01*
Y5645568D01*
X1839730Y5628640D01*
X1805874D01*
X1788947Y5645568D01*
Y5713279D01*
X993140Y5628640D02*
Y5696351D01*
X1026996Y5730207D01*
X1060851Y5696351D01*
Y5628640D01*
Y5679423D01*
X993140D01*
X1094707Y5645568D02*
X1111635Y5628640D01*
X1145491D01*
X1162419Y5645568D01*
Y5713279D01*
X1145491Y5730207D01*
X1111635D01*
X1094707Y5713279D01*
Y5696351D01*
X1111635Y5679423D01*
X1162419D01*
X370840Y5628640D02*
Y5696351D01*
X404696Y5730207D01*
X438551Y5696351D01*
Y5628640D01*
Y5679423D01*
X370840D01*
X472407Y5713279D02*
X489335Y5730207D01*
X523191D01*
X540119Y5713279D01*
Y5696351D01*
X523191Y5679423D01*
X540119Y5662496D01*
Y5645568D01*
X523191Y5628640D01*
X489335D01*
X472407Y5645568D01*
Y5662496D01*
X489335Y5679423D01*
X472407Y5696351D01*
Y5713279D01*
X489335Y5679423D02*
X523191D01*
X6708140Y1526507D02*
Y1424940D01*
X6758923D01*
X6775851Y1441868D01*
Y1509579D01*
X6758923Y1526507D01*
X6708140D01*
X6809707Y1424940D02*
X6843563D01*
X6826635D01*
Y1526507D01*
X6809707Y1509579D01*
X6962058Y1526507D02*
X6928202Y1509579D01*
X6894347Y1475723D01*
Y1441868D01*
X6911274Y1424940D01*
X6945130D01*
X6962058Y1441868D01*
Y1458796D01*
X6945130Y1475723D01*
X6894347D01*
X7343140Y1526507D02*
Y1424940D01*
X7393923D01*
X7410851Y1441868D01*
Y1509579D01*
X7393923Y1526507D01*
X7343140D01*
X7444707Y1424940D02*
X7478563D01*
X7461635D01*
Y1526507D01*
X7444707Y1509579D01*
X7529347Y1526507D02*
X7597058D01*
Y1509579D01*
X7529347Y1441868D01*
Y1424940D01*
X6060440Y1513807D02*
Y1412240D01*
X6111223D01*
X6128151Y1429168D01*
Y1496879D01*
X6111223Y1513807D01*
X6060440D01*
X6162007Y1412240D02*
X6195863D01*
X6178935D01*
Y1513807D01*
X6162007Y1496879D01*
X6314358Y1513807D02*
X6246647D01*
Y1463023D01*
X6280502Y1479951D01*
X6297430D01*
X6314358Y1463023D01*
Y1429168D01*
X6297430Y1412240D01*
X6263574D01*
X6246647Y1429168D01*
X5438140Y1513807D02*
Y1412240D01*
X5488923D01*
X5505851Y1429168D01*
Y1496879D01*
X5488923Y1513807D01*
X5438140D01*
X5539707Y1412240D02*
X5573563D01*
X5556635D01*
Y1513807D01*
X5539707Y1496879D01*
X5675130Y1412240D02*
Y1513807D01*
X5624347Y1463023D01*
X5692058D01*
X4803140Y1513807D02*
Y1412240D01*
X4853923D01*
X4870851Y1429168D01*
Y1496879D01*
X4853923Y1513807D01*
X4803140D01*
X4904707Y1429168D02*
X4921635Y1412240D01*
X4955491D01*
X4972419Y1429168D01*
Y1496879D01*
X4955491Y1513807D01*
X4921635D01*
X4904707Y1496879D01*
Y1479951D01*
X4921635Y1463023D01*
X4972419D01*
X1640840Y1501107D02*
Y1399540D01*
X1691623D01*
X1708551Y1416468D01*
Y1484179D01*
X1691623Y1501107D01*
X1640840D01*
X1793191Y1399540D02*
Y1501107D01*
X1742407Y1450323D01*
X1810119D01*
X4206240Y1513807D02*
Y1412240D01*
X4257023D01*
X4273951Y1429168D01*
Y1496879D01*
X4257023Y1513807D01*
X4206240D01*
X4307807Y1496879D02*
X4324735Y1513807D01*
X4358591D01*
X4375519Y1496879D01*
Y1479951D01*
X4358591Y1463023D01*
X4375519Y1446096D01*
Y1429168D01*
X4358591Y1412240D01*
X4324735D01*
X4307807Y1429168D01*
Y1446096D01*
X4324735Y1463023D01*
X4307807Y1479951D01*
Y1496879D01*
X4324735Y1463023D02*
X4358591D01*
X3571240Y1501107D02*
Y1399540D01*
X3622023D01*
X3638951Y1416468D01*
Y1484179D01*
X3622023Y1501107D01*
X3571240D01*
X3672807D02*
X3740519D01*
Y1484179D01*
X3672807Y1416468D01*
Y1399540D01*
X2910840Y1501107D02*
Y1399540D01*
X2961623D01*
X2978551Y1416468D01*
Y1484179D01*
X2961623Y1501107D01*
X2910840D01*
X3080119D02*
X3046263Y1484179D01*
X3012407Y1450323D01*
Y1416468D01*
X3029335Y1399540D01*
X3063191D01*
X3080119Y1416468D01*
Y1433396D01*
X3063191Y1450323D01*
X3012407D01*
X2288540Y1501107D02*
Y1399540D01*
X2339323D01*
X2356251Y1416468D01*
Y1484179D01*
X2339323Y1501107D01*
X2288540D01*
X2457819D02*
X2390107D01*
Y1450323D01*
X2423963Y1467251D01*
X2440891D01*
X2457819Y1450323D01*
Y1416468D01*
X2440891Y1399540D01*
X2407035D01*
X2390107Y1416468D01*
X1005840Y1501107D02*
Y1399540D01*
X1056623D01*
X1073551Y1416468D01*
Y1484179D01*
X1056623Y1501107D01*
X1005840D01*
X1107407Y1484179D02*
X1124335Y1501107D01*
X1158191D01*
X1175119Y1484179D01*
Y1467251D01*
X1158191Y1450323D01*
X1141263D01*
X1158191D01*
X1175119Y1433396D01*
Y1416468D01*
X1158191Y1399540D01*
X1124335D01*
X1107407Y1416468D01*
X383540Y1501107D02*
Y1399540D01*
X434323D01*
X451251Y1416468D01*
Y1484179D01*
X434323Y1501107D01*
X383540D01*
X552819Y1399540D02*
X485107D01*
X552819Y1467251D01*
Y1484179D01*
X535891Y1501107D01*
X502035D01*
X485107Y1484179D01*
X1124351Y2098040D02*
X1056640D01*
X1124351Y2165751D01*
Y2182679D01*
X1107423Y2199607D01*
X1073568D01*
X1056640Y2182679D01*
X1691640D02*
X1708568Y2199607D01*
X1742423D01*
X1759351Y2182679D01*
Y2165751D01*
X1742423Y2148823D01*
X1725496D01*
X1742423D01*
X1759351Y2131896D01*
Y2114968D01*
X1742423Y2098040D01*
X1708568D01*
X1691640Y2114968D01*
X3029351Y2199607D02*
X2961640D01*
Y2148823D01*
X2995496Y2165751D01*
X3012423D01*
X3029351Y2148823D01*
Y2114968D01*
X3012423Y2098040D01*
X2978568D01*
X2961640Y2114968D01*
X3664351Y2199607D02*
X3630496Y2182679D01*
X3596640Y2148823D01*
Y2114968D01*
X3613568Y2098040D01*
X3647423D01*
X3664351Y2114968D01*
Y2131896D01*
X3647423Y2148823D01*
X3596640D01*
X4231640Y2199607D02*
X4299351D01*
Y2182679D01*
X4231640Y2114968D01*
Y2098040D01*
X4866640Y2182679D02*
X4883568Y2199607D01*
X4917423D01*
X4934351Y2182679D01*
Y2165751D01*
X4917423Y2148823D01*
X4934351Y2131896D01*
Y2114968D01*
X4917423Y2098040D01*
X4883568D01*
X4866640Y2114968D01*
Y2131896D01*
X4883568Y2148823D01*
X4866640Y2165751D01*
Y2182679D01*
X4883568Y2148823D02*
X4917423D01*
X434340Y2098040D02*
X468196D01*
X451268D01*
Y2199607D01*
X434340Y2182679D01*
X2364723Y2098040D02*
Y2199607D01*
X2313940Y2148823D01*
X2381651D01*
X5488940Y2127668D02*
X5505868Y2110740D01*
X5539723D01*
X5556651Y2127668D01*
Y2195379D01*
X5539723Y2212307D01*
X5505868D01*
X5488940Y2195379D01*
Y2178451D01*
X5505868Y2161523D01*
X5556651D01*
X6098540Y2110740D02*
X6132396D01*
X6115468D01*
Y2212307D01*
X6098540Y2195379D01*
X6183179D02*
X6200107Y2212307D01*
X6233963D01*
X6250891Y2195379D01*
Y2127668D01*
X6233963Y2110740D01*
X6200107D01*
X6183179Y2127668D01*
Y2195379D01*
X6758940Y2110740D02*
X6792796D01*
X6775868D01*
Y2212307D01*
X6758940Y2195379D01*
X6843579Y2110740D02*
X6877435D01*
X6860507D01*
Y2212307D01*
X6843579Y2195379D01*
X7355840Y2110740D02*
X7389696D01*
X7372768D01*
Y2212307D01*
X7355840Y2195379D01*
X7508191Y2110740D02*
X7440479D01*
X7508191Y2178451D01*
Y2195379D01*
X7491263Y2212307D01*
X7457407D01*
X7440479Y2195379D01*
X2288540Y4904740D02*
X2322396D01*
X2305468D01*
Y5006307D01*
X2288540Y4989379D01*
X2373179Y5006307D02*
X2440891D01*
Y4989379D01*
X2373179Y4921668D01*
Y4904740D01*
X1640840Y4892040D02*
X1674696D01*
X1657768D01*
Y4993607D01*
X1640840Y4976679D01*
X1793191Y4993607D02*
X1759335Y4976679D01*
X1725479Y4942823D01*
Y4908968D01*
X1742407Y4892040D01*
X1776263D01*
X1793191Y4908968D01*
Y4925896D01*
X1776263Y4942823D01*
X1725479D01*
X993140Y4904740D02*
X1026996D01*
X1010068D01*
Y5006307D01*
X993140Y4989379D01*
X1145491Y5006307D02*
X1077779D01*
Y4955523D01*
X1111635Y4972451D01*
X1128563D01*
X1145491Y4955523D01*
Y4921668D01*
X1128563Y4904740D01*
X1094707D01*
X1077779Y4921668D01*
X370840Y4904740D02*
X404696D01*
X387768D01*
Y5006307D01*
X370840Y4989379D01*
X506263Y4904740D02*
Y5006307D01*
X455479Y4955523D01*
X523191D01*
X4248551Y4904740D02*
X4180840D01*
X4248551Y4972451D01*
Y4989379D01*
X4231623Y5006307D01*
X4197768D01*
X4180840Y4989379D01*
X4282407D02*
X4299335Y5006307D01*
X4333191D01*
X4350119Y4989379D01*
Y4921668D01*
X4333191Y4904740D01*
X4299335D01*
X4282407Y4921668D01*
Y4989379D01*
X3545840Y4904740D02*
X3579696D01*
X3562768D01*
Y5006307D01*
X3545840Y4989379D01*
X3630479Y4921668D02*
X3647407Y4904740D01*
X3681263D01*
X3698191Y4921668D01*
Y4989379D01*
X3681263Y5006307D01*
X3647407D01*
X3630479Y4989379D01*
Y4972451D01*
X3647407Y4955523D01*
X3698191D01*
X2910840Y4904740D02*
X2944696D01*
X2927768D01*
Y5006307D01*
X2910840Y4989379D01*
X2995479D02*
X3012407Y5006307D01*
X3046263D01*
X3063191Y4989379D01*
Y4972451D01*
X3046263Y4955523D01*
X3063191Y4938596D01*
Y4921668D01*
X3046263Y4904740D01*
X3012407D01*
X2995479Y4921668D01*
Y4938596D01*
X3012407Y4955523D01*
X2995479Y4972451D01*
Y4989379D01*
X3012407Y4955523D02*
X3046263D01*
X6775851Y4904740D02*
X6708140D01*
X6775851Y4972451D01*
Y4989379D01*
X6758923Y5006307D01*
X6725068D01*
X6708140Y4989379D01*
X6860491Y4904740D02*
Y5006307D01*
X6809707Y4955523D01*
X6877419D01*
X2580640Y3774440D02*
X2614496D01*
X2597568D01*
Y3876007D01*
X2580640Y3859079D01*
X2732991Y3876007D02*
X2665279D01*
Y3825223D01*
X2699135Y3842151D01*
X2716063D01*
X2732991Y3825223D01*
Y3791368D01*
X2716063Y3774440D01*
X2682207D01*
X2665279Y3791368D01*
X2860040Y3774440D02*
X2893896D01*
X2876968D01*
Y3876007D01*
X2860040Y3859079D01*
X3012391Y3876007D02*
X2978535Y3859079D01*
X2944679Y3825223D01*
Y3791368D01*
X2961607Y3774440D01*
X2995463D01*
X3012391Y3791368D01*
Y3808296D01*
X2995463Y3825223D01*
X2944679D01*
X3418840Y3774440D02*
X3452696D01*
X3435768D01*
Y3876007D01*
X3418840Y3859079D01*
X3503479D02*
X3520407Y3876007D01*
X3554263D01*
X3571191Y3859079D01*
Y3842151D01*
X3554263Y3825223D01*
X3571191Y3808296D01*
Y3791368D01*
X3554263Y3774440D01*
X3520407D01*
X3503479Y3791368D01*
Y3808296D01*
X3520407Y3825223D01*
X3503479Y3842151D01*
Y3859079D01*
X3520407Y3825223D02*
X3554263D01*
X3672840Y3774440D02*
X3706696D01*
X3689768D01*
Y3876007D01*
X3672840Y3859079D01*
X3757479Y3791368D02*
X3774407Y3774440D01*
X3808263D01*
X3825191Y3791368D01*
Y3859079D01*
X3808263Y3876007D01*
X3774407D01*
X3757479Y3859079D01*
Y3842151D01*
X3774407Y3825223D01*
X3825191D01*
X4045351Y3774440D02*
X3977640D01*
X4045351Y3842151D01*
Y3859079D01*
X4028423Y3876007D01*
X3994568D01*
X3977640Y3859079D01*
X4079207D02*
X4096135Y3876007D01*
X4129991D01*
X4146919Y3859079D01*
Y3791368D01*
X4129991Y3774440D01*
X4096135D01*
X4079207Y3791368D01*
Y3859079D01*
X4324751Y3774440D02*
X4257040D01*
X4324751Y3842151D01*
Y3859079D01*
X4307823Y3876007D01*
X4273968D01*
X4257040Y3859079D01*
X4358607Y3774440D02*
X4392463D01*
X4375535D01*
Y3876007D01*
X4358607Y3859079D01*
X2326640Y3774440D02*
X2360496D01*
X2343568D01*
Y3876007D01*
X2326640Y3859079D01*
X2462063Y3774440D02*
Y3876007D01*
X2411279Y3825223D01*
X2478991D01*
X3139440Y3774440D02*
X3173296D01*
X3156368D01*
Y3876007D01*
X3139440Y3859079D01*
X3224079Y3876007D02*
X3291791D01*
Y3859079D01*
X3224079Y3791368D01*
Y3774440D01*
X4604151D02*
X4536440D01*
X4604151Y3842151D01*
Y3859079D01*
X4587223Y3876007D01*
X4553368D01*
X4536440Y3859079D01*
X4705719Y3774440D02*
X4638007D01*
X4705719Y3842151D01*
Y3859079D01*
X4688791Y3876007D01*
X4654935D01*
X4638007Y3859079D01*
X4896251Y3774440D02*
X4828540D01*
X4896251Y3842151D01*
Y3859079D01*
X4879323Y3876007D01*
X4845468D01*
X4828540Y3859079D01*
X4930107D02*
X4947035Y3876007D01*
X4980891D01*
X4997819Y3859079D01*
Y3842151D01*
X4980891Y3825223D01*
X4963963D01*
X4980891D01*
X4997819Y3808296D01*
Y3791368D01*
X4980891Y3774440D01*
X4947035D01*
X4930107Y3791368D01*
X5201051Y3774440D02*
X5133340D01*
X5201051Y3842151D01*
Y3859079D01*
X5184123Y3876007D01*
X5150268D01*
X5133340Y3859079D01*
X5285691Y3774440D02*
Y3876007D01*
X5234907Y3825223D01*
X5302619D01*
X5455051Y3774440D02*
X5387340D01*
X5455051Y3842151D01*
Y3859079D01*
X5438123Y3876007D01*
X5404268D01*
X5387340Y3859079D01*
X5556619Y3876007D02*
X5488907D01*
Y3825223D01*
X5522763Y3842151D01*
X5539691D01*
X5556619Y3825223D01*
Y3791368D01*
X5539691Y3774440D01*
X5505835D01*
X5488907Y3791368D01*
X866140Y6644640D02*
Y6712351D01*
X899996Y6746207D01*
X933851Y6712351D01*
Y6644640D01*
Y6695423D01*
X866140D01*
X967707Y6729279D02*
X984635Y6746207D01*
X1018491D01*
X1035419Y6729279D01*
Y6712351D01*
X1018491Y6695423D01*
X1035419Y6678496D01*
Y6661568D01*
X1018491Y6644640D01*
X984635D01*
X967707Y6661568D01*
Y6678496D01*
X984635Y6695423D01*
X967707Y6712351D01*
Y6729279D01*
X984635Y6695423D02*
X1018491D01*
X1145540Y6644640D02*
Y6712351D01*
X1179396Y6746207D01*
X1213251Y6712351D01*
Y6644640D01*
Y6695423D01*
X1145540D01*
X1247107Y6661568D02*
X1264035Y6644640D01*
X1297891D01*
X1314819Y6661568D01*
Y6729279D01*
X1297891Y6746207D01*
X1264035D01*
X1247107Y6729279D01*
Y6712351D01*
X1264035Y6695423D01*
X1314819D01*
X1399540Y6644640D02*
Y6712351D01*
X1433396Y6746207D01*
X1467251Y6712351D01*
Y6644640D01*
Y6695423D01*
X1399540D01*
X1501107Y6644640D02*
X1534963D01*
X1518035D01*
Y6746207D01*
X1501107Y6729279D01*
X1585747D02*
X1602674Y6746207D01*
X1636530D01*
X1653458Y6729279D01*
Y6661568D01*
X1636530Y6644640D01*
X1602674D01*
X1585747Y6661568D01*
Y6729279D01*
X1729740Y6644640D02*
Y6712351D01*
X1763596Y6746207D01*
X1797451Y6712351D01*
Y6644640D01*
Y6695423D01*
X1729740D01*
X1831307Y6644640D02*
X1865163D01*
X1848235D01*
Y6746207D01*
X1831307Y6729279D01*
X1915947Y6644640D02*
X1949802D01*
X1932874D01*
Y6746207D01*
X1915947Y6729279D01*
X5946140Y472407D02*
Y370840D01*
X5996923D01*
X6013851Y387768D01*
Y455479D01*
X5996923Y472407D01*
X5946140D01*
X6047707Y370840D02*
X6081563D01*
X6064635D01*
Y472407D01*
X6047707Y455479D01*
X6183130Y370840D02*
Y472407D01*
X6132347Y421623D01*
X6200058D01*
X6238240Y472407D02*
Y370840D01*
X6289023D01*
X6305951Y387768D01*
Y455479D01*
X6289023Y472407D01*
X6238240D01*
X6339807Y370840D02*
X6373663D01*
X6356735D01*
Y472407D01*
X6339807Y455479D01*
X6492158Y472407D02*
X6424447D01*
Y421623D01*
X6458302Y438551D01*
X6475230D01*
X6492158Y421623D01*
Y387768D01*
X6475230Y370840D01*
X6441374D01*
X6424447Y387768D01*
X6847840Y472407D02*
Y370840D01*
X6898623D01*
X6915551Y387768D01*
Y455479D01*
X6898623Y472407D01*
X6847840D01*
X6949407Y370840D02*
X6983263D01*
X6966335D01*
Y472407D01*
X6949407Y455479D01*
X7034047Y472407D02*
X7101758D01*
Y455479D01*
X7034047Y387768D01*
Y370840D01*
X6543040Y472407D02*
Y370840D01*
X6593823D01*
X6610751Y387768D01*
Y455479D01*
X6593823Y472407D01*
X6543040D01*
X6644607Y370840D02*
X6678463D01*
X6661535D01*
Y472407D01*
X6644607Y455479D01*
X6796958Y472407D02*
X6763102Y455479D01*
X6729247Y421623D01*
Y387768D01*
X6746174Y370840D01*
X6780030D01*
X6796958Y387768D01*
Y404696D01*
X6780030Y421623D01*
X6729247D01*
X1691640Y459707D02*
Y358140D01*
X1742423D01*
X1759351Y375068D01*
Y442779D01*
X1742423Y459707D01*
X1691640D01*
X1860919Y358140D02*
X1793207D01*
X1860919Y425851D01*
Y442779D01*
X1843991Y459707D01*
X1810135D01*
X1793207Y442779D01*
X1945640Y459707D02*
Y358140D01*
X1996423D01*
X2013351Y375068D01*
Y442779D01*
X1996423Y459707D01*
X1945640D01*
X2047207Y442779D02*
X2064135Y459707D01*
X2097991D01*
X2114919Y442779D01*
Y425851D01*
X2097991Y408923D01*
X2081063D01*
X2097991D01*
X2114919Y391996D01*
Y375068D01*
X2097991Y358140D01*
X2064135D01*
X2047207Y375068D01*
X2504440Y472407D02*
Y370840D01*
X2555223D01*
X2572151Y387768D01*
Y455479D01*
X2555223Y472407D01*
X2504440D01*
X2673719D02*
X2606007D01*
Y421623D01*
X2639863Y438551D01*
X2656791D01*
X2673719Y421623D01*
Y387768D01*
X2656791Y370840D01*
X2622935D01*
X2606007Y387768D01*
X2733040Y472407D02*
Y370840D01*
X2783823D01*
X2800751Y387768D01*
Y455479D01*
X2783823Y472407D01*
X2733040D01*
X2902319D02*
X2868463Y455479D01*
X2834607Y421623D01*
Y387768D01*
X2851535Y370840D01*
X2885391D01*
X2902319Y387768D01*
Y404696D01*
X2885391Y421623D01*
X2834607D01*
X2999740Y472407D02*
Y370840D01*
X3050523D01*
X3067451Y387768D01*
Y455479D01*
X3050523Y472407D01*
X2999740D01*
X3101307D02*
X3169019D01*
Y455479D01*
X3101307Y387768D01*
Y370840D01*
X3228340Y472407D02*
Y370840D01*
X3279123D01*
X3296051Y387768D01*
Y455479D01*
X3279123Y472407D01*
X3228340D01*
X3329907Y455479D02*
X3346835Y472407D01*
X3380691D01*
X3397619Y455479D01*
Y438551D01*
X3380691Y421623D01*
X3397619Y404696D01*
Y387768D01*
X3380691Y370840D01*
X3346835D01*
X3329907Y387768D01*
Y404696D01*
X3346835Y421623D01*
X3329907Y438551D01*
Y455479D01*
X3346835Y421623D02*
X3380691D01*
X2225040Y459707D02*
Y358140D01*
X2275823D01*
X2292751Y375068D01*
Y442779D01*
X2275823Y459707D01*
X2225040D01*
X2377391Y358140D02*
Y459707D01*
X2326607Y408923D01*
X2394319D01*
X3469640Y472407D02*
Y370840D01*
X3520423D01*
X3537351Y387768D01*
Y455479D01*
X3520423Y472407D01*
X3469640D01*
X3571207Y387768D02*
X3588135Y370840D01*
X3621991D01*
X3638919Y387768D01*
Y455479D01*
X3621991Y472407D01*
X3588135D01*
X3571207Y455479D01*
Y438551D01*
X3588135Y421623D01*
X3638919D01*
X6024048Y6649703D02*
Y6717414D01*
X6057904Y6751270D01*
X6091759Y6717414D01*
Y6649703D01*
Y6700486D01*
X6024048D01*
X6125615Y6751270D02*
X6193326D01*
Y6734342D01*
X6125615Y6666631D01*
Y6649703D01*
X5744648D02*
Y6717414D01*
X5778504Y6751270D01*
X5812359Y6717414D01*
Y6649703D01*
Y6700486D01*
X5744648D01*
X5913926Y6751270D02*
X5880071Y6734342D01*
X5846215Y6700486D01*
Y6666631D01*
X5863143Y6649703D01*
X5896999D01*
X5913926Y6666631D01*
Y6683558D01*
X5896999Y6700486D01*
X5846215D01*
X5503348Y6649703D02*
Y6717414D01*
X5537204Y6751270D01*
X5571059Y6717414D01*
Y6649703D01*
Y6700486D01*
X5503348D01*
X5672626Y6751270D02*
X5604915D01*
Y6700486D01*
X5638771Y6717414D01*
X5655699D01*
X5672626Y6700486D01*
Y6666631D01*
X5655699Y6649703D01*
X5621843D01*
X5604915Y6666631D01*
X5249348Y6649703D02*
Y6717414D01*
X5283204Y6751270D01*
X5317059Y6717414D01*
Y6649703D01*
Y6700486D01*
X5249348D01*
X5401699Y6649703D02*
Y6751270D01*
X5350915Y6700486D01*
X5418626D01*
X4995348Y6649703D02*
Y6717414D01*
X5029204Y6751270D01*
X5063059Y6717414D01*
Y6649703D01*
Y6700486D01*
X4995348D01*
X5096915Y6734342D02*
X5113843Y6751270D01*
X5147699D01*
X5164626Y6734342D01*
Y6717414D01*
X5147699Y6700486D01*
X5130771D01*
X5147699D01*
X5164626Y6683558D01*
Y6666631D01*
X5147699Y6649703D01*
X5113843D01*
X5096915Y6666631D01*
X4741348Y6649703D02*
Y6717414D01*
X4775204Y6751270D01*
X4809059Y6717414D01*
Y6649703D01*
Y6700486D01*
X4741348D01*
X4910626Y6649703D02*
X4842915D01*
X4910626Y6717414D01*
Y6734342D01*
X4893699Y6751270D01*
X4859843D01*
X4842915Y6734342D01*
X4485640Y6657340D02*
Y6725051D01*
X4519496Y6758907D01*
X4553351Y6725051D01*
Y6657340D01*
Y6708123D01*
X4485640D01*
X4587207Y6657340D02*
X4621063D01*
X4604135D01*
Y6758907D01*
X4587207Y6741979D01*
X4231640Y6657340D02*
Y6725051D01*
X4265496Y6758907D01*
X4299351Y6725051D01*
Y6657340D01*
Y6708123D01*
X4231640D01*
X4333207Y6741979D02*
X4350135Y6758907D01*
X4383991D01*
X4400919Y6741979D01*
Y6674268D01*
X4383991Y6657340D01*
X4350135D01*
X4333207Y6674268D01*
Y6741979D01*
X4896251Y4904740D02*
X4828540D01*
X4896251Y4972451D01*
Y4989379D01*
X4879323Y5006307D01*
X4845468D01*
X4828540Y4989379D01*
X4930107Y4904740D02*
X4963963D01*
X4947035D01*
Y5006307D01*
X4930107Y4989379D01*
X5505851Y4904740D02*
X5438140D01*
X5505851Y4972451D01*
Y4989379D01*
X5488923Y5006307D01*
X5455068D01*
X5438140Y4989379D01*
X5607419Y4904740D02*
X5539707D01*
X5607419Y4972451D01*
Y4989379D01*
X5590491Y5006307D01*
X5556635D01*
X5539707Y4989379D01*
X6128151Y4904740D02*
X6060440D01*
X6128151Y4972451D01*
Y4989379D01*
X6111223Y5006307D01*
X6077368D01*
X6060440Y4989379D01*
X6162007D02*
X6178935Y5006307D01*
X6212791D01*
X6229719Y4989379D01*
Y4972451D01*
X6212791Y4955523D01*
X6195863D01*
X6212791D01*
X6229719Y4938596D01*
Y4921668D01*
X6212791Y4904740D01*
X6178935D01*
X6162007Y4921668D01*
X7410851Y4917440D02*
X7343140D01*
X7410851Y4985151D01*
Y5002079D01*
X7393923Y5019007D01*
X7360068D01*
X7343140Y5002079D01*
X7512419Y5019007D02*
X7444707D01*
Y4968223D01*
X7478563Y4985151D01*
X7495491D01*
X7512419Y4968223D01*
Y4934368D01*
X7495491Y4917440D01*
X7461635D01*
X7444707Y4934368D01*
X5234940Y3152140D02*
X5268796D01*
X5251868D01*
Y3253707D01*
X5234940Y3236779D01*
X5387291Y3152140D02*
X5319579D01*
X5387291Y3219851D01*
Y3236779D01*
X5370363Y3253707D01*
X5336507D01*
X5319579Y3236779D01*
X4980940Y3152140D02*
X5014796D01*
X4997868D01*
Y3253707D01*
X4980940Y3236779D01*
X5065579Y3152140D02*
X5099435D01*
X5082507D01*
Y3253707D01*
X5065579Y3236779D01*
X4676140Y3152140D02*
X4709996D01*
X4693068D01*
Y3253707D01*
X4676140Y3236779D01*
X4760779D02*
X4777707Y3253707D01*
X4811563D01*
X4828491Y3236779D01*
Y3169068D01*
X4811563Y3152140D01*
X4777707D01*
X4760779Y3169068D01*
Y3236779D01*
X4422140Y3169068D02*
X4439068Y3152140D01*
X4472923D01*
X4489851Y3169068D01*
Y3236779D01*
X4472923Y3253707D01*
X4439068D01*
X4422140Y3236779D01*
Y3219851D01*
X4439068Y3202923D01*
X4489851D01*
X3101323Y3152140D02*
Y3253707D01*
X3050540Y3202923D01*
X3118251D01*
X2237740Y3152140D02*
X2271596D01*
X2254668D01*
Y3253707D01*
X2237740Y3236779D01*
X4168140D02*
X4185068Y3253707D01*
X4218923D01*
X4235851Y3236779D01*
Y3219851D01*
X4218923Y3202923D01*
X4235851Y3185996D01*
Y3169068D01*
X4218923Y3152140D01*
X4185068D01*
X4168140Y3169068D01*
Y3185996D01*
X4185068Y3202923D01*
X4168140Y3219851D01*
Y3236779D01*
X4185068Y3202923D02*
X4218923D01*
X3888740Y3253707D02*
X3956451D01*
Y3236779D01*
X3888740Y3169068D01*
Y3152140D01*
X3651651Y3253707D02*
X3617796Y3236779D01*
X3583940Y3202923D01*
Y3169068D01*
X3600868Y3152140D01*
X3634723D01*
X3651651Y3169068D01*
Y3185996D01*
X3634723Y3202923D01*
X3583940D01*
X3397651Y3253707D02*
X3329940D01*
Y3202923D01*
X3363796Y3219851D01*
X3380723D01*
X3397651Y3202923D01*
Y3169068D01*
X3380723Y3152140D01*
X3346868D01*
X3329940Y3169068D01*
X2771140Y3236779D02*
X2788068Y3253707D01*
X2821923D01*
X2838851Y3236779D01*
Y3219851D01*
X2821923Y3202923D01*
X2804996D01*
X2821923D01*
X2838851Y3185996D01*
Y3169068D01*
X2821923Y3152140D01*
X2788068D01*
X2771140Y3169068D01*
X2559451Y3152140D02*
X2491740D01*
X2559451Y3219851D01*
Y3236779D01*
X2542523Y3253707D01*
X2508668D01*
X2491740Y3236779D01*
D22*
X4102100Y431800D02*
Y513054D01*
X4142727D01*
X4156269Y499511D01*
Y472427D01*
X4142727Y458885D01*
X4102100D01*
X4129185D02*
X4156269Y431800D01*
X4237523Y513054D02*
X4183354D01*
Y431800D01*
X4237523D01*
X4183354Y472427D02*
X4210438D01*
X4264608Y513054D02*
Y431800D01*
X4318777D01*
X4345862D02*
Y485969D01*
X4372946Y513054D01*
X4400031Y485969D01*
Y431800D01*
Y472427D01*
X4345862D01*
X4427115Y513054D02*
Y499511D01*
X4454200Y472427D01*
X4481284Y499511D01*
Y513054D01*
X4454200Y472427D02*
Y431800D01*
X4562538Y499511D02*
X4548996Y513054D01*
X4521911D01*
X4508369Y499511D01*
Y485969D01*
X4521911Y472427D01*
X4548996D01*
X4562538Y458885D01*
Y445342D01*
X4548996Y431800D01*
X4521911D01*
X4508369Y445342D01*
X4711504Y513054D02*
X4684419D01*
X4670877Y499511D01*
Y445342D01*
X4684419Y431800D01*
X4711504D01*
X4725046Y445342D01*
Y499511D01*
X4711504Y513054D01*
X4752131Y431800D02*
Y513054D01*
X4806300Y431800D01*
Y513054D01*
X4914638D02*
Y431800D01*
X4955265D01*
X4968807Y445342D01*
Y458885D01*
X4955265Y472427D01*
X4914638D01*
X4955265D01*
X4968807Y485969D01*
Y499511D01*
X4955265Y513054D01*
X4914638D01*
X4995892Y431800D02*
Y485969D01*
X5022977Y513054D01*
X5050061Y485969D01*
Y431800D01*
Y472427D01*
X4995892D01*
X5131315Y499511D02*
X5117773Y513054D01*
X5090688D01*
X5077146Y499511D01*
Y445342D01*
X5090688Y431800D01*
X5117773D01*
X5131315Y445342D01*
X5158400Y513054D02*
Y431800D01*
Y458885D01*
X5212569Y513054D01*
X5171942Y472427D01*
X5212569Y431800D01*
X5375077Y499511D02*
X5361534Y513054D01*
X5334450D01*
X5320908Y499511D01*
Y485969D01*
X5334450Y472427D01*
X5361534D01*
X5375077Y458885D01*
Y445342D01*
X5361534Y431800D01*
X5334450D01*
X5320908Y445342D01*
X5402161Y513054D02*
X5429246D01*
X5415704D01*
Y431800D01*
X5402161D01*
X5429246D01*
X5469873Y513054D02*
Y431800D01*
X5510500D01*
X5524042Y445342D01*
Y499511D01*
X5510500Y513054D01*
X5469873D01*
X5605296D02*
X5551127D01*
Y431800D01*
X5605296D01*
X5551127Y472427D02*
X5578211D01*
X560329Y3803557D02*
X543401Y3820485D01*
X509545D01*
X492617Y3803557D01*
Y3735846D01*
X509545Y3718918D01*
X543401D01*
X560329Y3735846D01*
Y3769701D01*
X526473D01*
X594184Y3718918D02*
Y3820485D01*
X661896Y3718918D01*
Y3820485D01*
X695752D02*
Y3718918D01*
X746535D01*
X763463Y3735846D01*
Y3803557D01*
X746535Y3820485D01*
X695752D01*
X2307879Y6839886D02*
X2362048D01*
Y6826343D01*
X2307879Y6772174D01*
Y6758632D01*
X2389132Y6826343D02*
X2402675Y6839886D01*
X2429759D01*
X2443301Y6826343D01*
Y6812801D01*
X2429759Y6799259D01*
X2443301Y6785717D01*
Y6772174D01*
X2429759Y6758632D01*
X2402675D01*
X2389132Y6772174D01*
Y6785717D01*
X2402675Y6799259D01*
X2389132Y6812801D01*
Y6826343D01*
X2402675Y6799259D02*
X2429759D01*
X2470386Y6758632D02*
Y6772174D01*
X2483928D01*
Y6758632D01*
X2470386D01*
X2538098Y6839886D02*
X2592267D01*
Y6826343D01*
X2538098Y6772174D01*
Y6758632D01*
X2659978D02*
Y6839886D01*
X2619351Y6799259D01*
X2673520D01*
X2781859Y6758632D02*
Y6812801D01*
X2795401D01*
X2808944Y6799259D01*
Y6758632D01*
Y6799259D01*
X2822486Y6812801D01*
X2836028Y6799259D01*
Y6758632D01*
X2863113D02*
Y6812801D01*
X2876655D01*
X2890197Y6799259D01*
Y6758632D01*
Y6799259D01*
X2903740Y6812801D01*
X2917282Y6799259D01*
Y6758632D01*
X3025621D02*
X3052705D01*
X3039163D01*
Y6812801D01*
X3025621D01*
X3093332Y6758632D02*
Y6812801D01*
X3133959D01*
X3147501Y6799259D01*
Y6758632D01*
X3255840Y6812801D02*
X3310009Y6758632D01*
X3282924Y6785717D01*
X3310009Y6812801D01*
X3255840Y6758632D01*
X3418347Y6839886D02*
X3472516D01*
Y6826343D01*
X3418347Y6772174D01*
Y6758632D01*
X3499601D02*
X3526686D01*
X3513143D01*
Y6839886D01*
X3499601Y6826343D01*
X3567312Y6758632D02*
Y6772174D01*
X3580855D01*
Y6758632D01*
X3567312D01*
X3635024D02*
X3662108D01*
X3648566D01*
Y6839886D01*
X3635024Y6826343D01*
X3756904Y6758632D02*
X3702735D01*
X3756904Y6812801D01*
Y6826343D01*
X3743362Y6839886D01*
X3716277D01*
X3702735Y6826343D01*
X3865243Y6758632D02*
Y6812801D01*
X3878785D01*
X3892327Y6799259D01*
Y6758632D01*
Y6799259D01*
X3905870Y6812801D01*
X3919412Y6799259D01*
Y6758632D01*
X3946497D02*
Y6812801D01*
X3960039D01*
X3973581Y6799259D01*
Y6758632D01*
Y6799259D01*
X3987123Y6812801D01*
X4000666Y6799259D01*
Y6758632D01*
X854269Y2946400D02*
X800100D01*
X854269Y3000569D01*
Y3014111D01*
X840727Y3027654D01*
X813642D01*
X800100Y3014111D01*
X921981Y2946400D02*
Y3027654D01*
X881354Y2987027D01*
X935523D01*
X962608Y3027654D02*
X1016777Y2946400D01*
Y3027654D02*
X962608Y2946400D01*
X2311400Y6951111D02*
X2324942Y6964654D01*
X2352027D01*
X2365569Y6951111D01*
Y6937569D01*
X2352027Y6924027D01*
X2338485D01*
X2352027D01*
X2365569Y6910485D01*
Y6896942D01*
X2352027Y6883400D01*
X2324942D01*
X2311400Y6896942D01*
X2392654Y6883400D02*
Y6896942D01*
X2406196D01*
Y6883400D01*
X2392654D01*
X2460365D02*
X2487450D01*
X2473907D01*
Y6964654D01*
X2460365Y6951111D01*
X2609330Y6883400D02*
X2636415D01*
X2622873D01*
Y6937569D01*
X2609330D01*
X2677042Y6883400D02*
Y6937569D01*
X2717668D01*
X2731211Y6924027D01*
Y6883400D01*
X2839549Y6937569D02*
X2893718Y6883400D01*
X2866634Y6910485D01*
X2893718Y6937569D01*
X2839549Y6883400D01*
X3056226D02*
X3002057D01*
X3056226Y6937569D01*
Y6951111D01*
X3042684Y6964654D01*
X3015599D01*
X3002057Y6951111D01*
X3083311Y6883400D02*
Y6896942D01*
X3096853D01*
Y6883400D01*
X3083311D01*
X3151022Y6951111D02*
X3164564Y6964654D01*
X3191649D01*
X3205191Y6951111D01*
Y6937569D01*
X3191649Y6924027D01*
X3205191Y6910485D01*
Y6896942D01*
X3191649Y6883400D01*
X3164564D01*
X3151022Y6896942D01*
Y6910485D01*
X3164564Y6924027D01*
X3151022Y6937569D01*
Y6951111D01*
X3164564Y6924027D02*
X3191649D01*
X3313530Y6883400D02*
X3340614D01*
X3327072D01*
Y6937569D01*
X3313530D01*
X3381241Y6883400D02*
Y6937569D01*
X3421868D01*
X3435410Y6924027D01*
Y6883400D01*
X3835400Y198923D02*
Y97356D01*
X3886183D01*
X3903111Y114283D01*
Y181995D01*
X3886183Y198923D01*
X3835400D01*
X3936967D02*
Y97356D01*
X3987751D01*
X4004679Y114283D01*
Y131211D01*
X3987751Y148139D01*
X3936967D01*
X3987751D01*
X4004679Y165067D01*
Y181995D01*
X3987751Y198923D01*
X3936967D01*
X4106246Y97356D02*
X4038534D01*
X4106246Y165067D01*
Y181995D01*
X4089318Y198923D01*
X4055462D01*
X4038534Y181995D01*
X4207813Y198923D02*
X4140102D01*
Y148139D01*
X4173957Y165067D01*
X4190885D01*
X4207813Y148139D01*
Y114283D01*
X4190885Y97356D01*
X4157030D01*
X4140102Y114283D01*
X4241669Y148139D02*
X4309380D01*
X4343236Y165067D02*
Y97356D01*
Y131211D01*
X4360164Y148139D01*
X4377092Y165067D01*
X4394020D01*
X4495587Y97356D02*
X4461731D01*
X4444803Y114283D01*
Y148139D01*
X4461731Y165067D01*
X4495587D01*
X4512515Y148139D01*
Y131211D01*
X4444803D01*
X4546371Y97356D02*
X4580226D01*
X4563298D01*
Y198923D01*
X4546371D01*
X4647938Y165067D02*
X4681794D01*
X4698721Y148139D01*
Y97356D01*
X4647938D01*
X4631010Y114283D01*
X4647938Y131211D01*
X4698721D01*
X4732577Y165067D02*
Y114283D01*
X4749505Y97356D01*
X4800289D01*
Y80428D01*
X4783361Y63500D01*
X4766433D01*
X4800289Y97356D02*
Y165067D01*
X4834145Y148139D02*
X4901856D01*
X4935712Y198923D02*
Y97356D01*
Y148139D01*
X5003423D01*
Y198923D01*
Y97356D01*
X5037279Y198923D02*
Y131211D01*
X5071135Y97356D01*
X5104990Y131211D01*
Y198923D01*
X5138846Y148139D02*
X5206558D01*
X5308125Y165067D02*
X5257341D01*
X5240413Y148139D01*
Y114283D01*
X5257341Y97356D01*
X5308125D01*
X5358909D02*
X5392764D01*
X5409692Y114283D01*
Y148139D01*
X5392764Y165067D01*
X5358909D01*
X5341981Y148139D01*
Y114283D01*
X5358909Y97356D01*
X5443548D02*
Y165067D01*
X5494331D01*
X5511259Y148139D01*
Y97356D01*
X5562043Y181995D02*
Y165067D01*
X5545115D01*
X5578971D01*
X5562043D01*
Y114283D01*
X5578971Y97356D01*
X5629755Y165067D02*
Y97356D01*
Y131211D01*
X5646682Y148139D01*
X5663610Y165067D01*
X5680538D01*
X5748250Y97356D02*
X5782105D01*
X5799033Y114283D01*
Y148139D01*
X5782105Y165067D01*
X5748250D01*
X5731322Y148139D01*
Y114283D01*
X5748250Y97356D01*
X5832889D02*
X5866745D01*
X5849817D01*
Y198923D01*
X5832889D01*
X203200Y2946400D02*
X230285D01*
X216742D01*
Y3027654D01*
X203200Y3014111D01*
X352165Y2946400D02*
Y3027654D01*
X379250Y3000569D01*
X406334Y3027654D01*
Y2946400D01*
X474046Y3027654D02*
X446961D01*
X433419Y3014111D01*
Y2959942D01*
X446961Y2946400D01*
X474046D01*
X487588Y2959942D01*
Y3014111D01*
X474046Y3027654D01*
X514673D02*
Y2946400D01*
Y2987027D01*
X568842D01*
Y3027654D01*
Y2946400D01*
X595927D02*
Y3027654D01*
X623011Y3000569D01*
X650096Y3027654D01*
Y2946400D01*
X127000Y3086100D02*
Y3167354D01*
X167627D01*
X181169Y3153811D01*
Y3126727D01*
X167627Y3113185D01*
X127000D01*
X154085D02*
X181169Y3086100D01*
X262423Y3153811D02*
X248881Y3167354D01*
X221796D01*
X208254Y3153811D01*
Y3099642D01*
X221796Y3086100D01*
X248881D01*
X262423Y3099642D01*
X289508Y3086100D02*
X316592D01*
X303050D01*
Y3167354D01*
X289508Y3153811D01*
X411388Y3086100D02*
X357219D01*
X411388Y3140269D01*
Y3153811D01*
X397846Y3167354D01*
X370761D01*
X357219Y3153811D01*
X438473D02*
X452015Y3167354D01*
X479100D01*
X492642Y3153811D01*
Y3099642D01*
X479100Y3086100D01*
X452015D01*
X438473Y3099642D01*
Y3153811D01*
X573896Y3167354D02*
X546811Y3153811D01*
X519727Y3126727D01*
Y3099642D01*
X533269Y3086100D01*
X560353D01*
X573896Y3099642D01*
Y3113185D01*
X560353Y3126727D01*
X519727D01*
X655150Y3167354D02*
X600981D01*
Y3126727D01*
X628065D01*
X600981D01*
Y3086100D01*
X682234D02*
Y3167354D01*
X722861D01*
X736403Y3153811D01*
Y3126727D01*
X722861Y3113185D01*
X682234D01*
X709319D02*
X736403Y3086100D01*
X763488Y3126727D02*
X817657D01*
X844742Y3153811D02*
X858284Y3167354D01*
X885369D01*
X898911Y3153811D01*
Y3099642D01*
X885369Y3086100D01*
X858284D01*
X844742Y3099642D01*
Y3153811D01*
X925996Y3167354D02*
X980165D01*
Y3153811D01*
X925996Y3099642D01*
Y3086100D01*
X1007250D02*
X1034334D01*
X1020792D01*
Y3167354D01*
X1007250Y3153811D01*
X1074961Y3086100D02*
Y3167354D01*
X1102046Y3140269D01*
X1129130Y3167354D01*
Y3086100D01*
X1156215Y3167354D02*
Y3086100D01*
X1210384D01*
X203200Y2806700D02*
X230285D01*
X216742D01*
Y2887954D01*
X203200Y2874411D01*
X325080Y2806700D02*
X270911D01*
X325080Y2860869D01*
Y2874411D01*
X311538Y2887954D01*
X284454D01*
X270911Y2874411D01*
X352165D02*
X365707Y2887954D01*
X392792D01*
X406334Y2874411D01*
Y2820242D01*
X392792Y2806700D01*
X365707D01*
X352165Y2820242D01*
Y2874411D01*
X487588Y2887954D02*
X460504Y2874411D01*
X433419Y2847327D01*
Y2820242D01*
X446961Y2806700D01*
X474046D01*
X487588Y2820242D01*
Y2833785D01*
X474046Y2847327D01*
X433419D01*
X127000Y3307054D02*
Y3293511D01*
X154085Y3266427D01*
X181169Y3293511D01*
Y3307054D01*
X154085Y3266427D02*
Y3225800D01*
X208254D02*
Y3279969D01*
X235338Y3307054D01*
X262423Y3279969D01*
Y3225800D01*
Y3266427D01*
X208254D01*
X343677Y3293511D02*
X330134Y3307054D01*
X303050D01*
X289508Y3293511D01*
Y3239342D01*
X303050Y3225800D01*
X330134D01*
X343677Y3239342D01*
Y3266427D01*
X316592D01*
X424931Y3307054D02*
X370762D01*
Y3225800D01*
X424931D01*
X370762Y3266427D02*
X397846D01*
X492642Y3307054D02*
X465558D01*
X452015Y3293511D01*
Y3239342D01*
X465558Y3225800D01*
X492642D01*
X506184Y3239342D01*
Y3293511D01*
X492642Y3307054D01*
X234548Y624840D02*
X302260Y692551D01*
Y624840D02*
X234548Y692551D01*
X268404Y624840D02*
Y692551D01*
X302260Y658696D02*
X234548D01*
X869548Y624840D02*
X937260Y692552D01*
Y624840D02*
X869548Y692552D01*
X903404Y624840D02*
Y692552D01*
X937260Y658696D02*
X869548D01*
X1504548Y624840D02*
X1572260Y692551D01*
Y624840D02*
X1504548Y692551D01*
X1538404Y624840D02*
Y692551D01*
X1572260Y658696D02*
X1504548D01*
X2139548Y624840D02*
X2207260Y692552D01*
Y624840D02*
X2139548Y692552D01*
X2173404Y624840D02*
Y692552D01*
X2207260Y658696D02*
X2139548D01*
X2774548Y624840D02*
X2842260Y692551D01*
Y624840D02*
X2774548Y692551D01*
X2808404Y624840D02*
Y692551D01*
X2842260Y658696D02*
X2774548D01*
X3409548Y624840D02*
X3477260Y692552D01*
Y624840D02*
X3409548Y692552D01*
X3443404Y624840D02*
Y692552D01*
X3477260Y658696D02*
X3409548D01*
X4044548Y624840D02*
X4112260Y692551D01*
Y624840D02*
X4044548Y692551D01*
X4078404Y624840D02*
Y692551D01*
X4112260Y658696D02*
X4044548D01*
X4679548Y624840D02*
X4747260Y692552D01*
Y624840D02*
X4679548Y692552D01*
X4713404Y624840D02*
Y692552D01*
X4747260Y658696D02*
X4679548D01*
X5314548Y624840D02*
X5382260Y692551D01*
Y624840D02*
X5314548Y692551D01*
X5348404Y624840D02*
Y692551D01*
X5382260Y658696D02*
X5314548D01*
X5949548Y624840D02*
X6017260Y692552D01*
Y624840D02*
X5949548Y692552D01*
X5983404Y624840D02*
Y692552D01*
X6017260Y658696D02*
X5949548D01*
X6584548Y624840D02*
X6652260Y692551D01*
Y624840D02*
X6584548Y692551D01*
X6618404Y624840D02*
Y692551D01*
X6652260Y658696D02*
X6584548D01*
X7219548Y624840D02*
X7287260Y692552D01*
Y624840D02*
X7219548Y692552D01*
X7253404Y624840D02*
Y692552D01*
X7287260Y658696D02*
X7219548D01*
X215900Y6493912D02*
X283611Y6426200D01*
X215900D02*
X283611Y6493912D01*
X215900Y6460056D02*
X283611D01*
X249756Y6426200D02*
Y6493912D01*
X850900D02*
X918611Y6426200D01*
X850900D02*
X918611Y6493912D01*
X850900Y6460056D02*
X918611D01*
X884756Y6426200D02*
Y6493912D01*
X1485900D02*
X1553611Y6426200D01*
X1485900D02*
X1553611Y6493912D01*
X1485900Y6460056D02*
X1553611D01*
X1519756Y6426200D02*
Y6493912D01*
X2120900D02*
X2188611Y6426200D01*
X2120900D02*
X2188611Y6493912D01*
X2120900Y6460056D02*
X2188611D01*
X2154756Y6426200D02*
Y6493912D01*
X2755900D02*
X2823611Y6426200D01*
X2755900D02*
X2823611Y6493912D01*
X2755900Y6460056D02*
X2823611D01*
X2789756Y6426200D02*
Y6493912D01*
X3390900D02*
X3458611Y6426200D01*
X3390900D02*
X3458611Y6493912D01*
X3390900Y6460056D02*
X3458611D01*
X3424756Y6426200D02*
Y6493912D01*
X4025900D02*
X4093611Y6426200D01*
X4025900D02*
X4093611Y6493912D01*
X4025900Y6460056D02*
X4093611D01*
X4059756Y6426200D02*
Y6493912D01*
X4660900D02*
X4728611Y6426200D01*
X4660900D02*
X4728611Y6493912D01*
X4660900Y6460056D02*
X4728611D01*
X4694756Y6426200D02*
Y6493912D01*
X5295900D02*
X5363611Y6426200D01*
X5295900D02*
X5363611Y6493912D01*
X5295900Y6460056D02*
X5363611D01*
X5329756Y6426200D02*
Y6493912D01*
X5930900D02*
X5998611Y6426200D01*
X5930900D02*
X5998611Y6493912D01*
X5930900Y6460056D02*
X5998611D01*
X5964756Y6426200D02*
Y6493912D01*
X6565900D02*
X6633611Y6426200D01*
X6565900D02*
X6633611Y6493912D01*
X6565900Y6460056D02*
X6633611D01*
X6599756Y6426200D02*
Y6493912D01*
X7200900D02*
X7268611Y6426200D01*
X7200900D02*
X7268611Y6493912D01*
X7200900Y6460056D02*
X7268611D01*
X7234756Y6426200D02*
Y6493912D01*
X6438900Y6714039D02*
X6506611Y6646328D01*
X6438900D02*
X6506611Y6714039D01*
X6438900Y6680183D02*
X6506611D01*
X6472756Y6646328D02*
Y6714039D01*
X6642034Y6663256D02*
X6709746D01*
X6642034Y6697111D02*
X6709746D01*
X6845169Y6629400D02*
Y6730967D01*
X6895952D01*
X6912880Y6714039D01*
Y6680183D01*
X6895952Y6663256D01*
X6845169D01*
X6946736Y6730967D02*
X6980592D01*
X6963664D01*
Y6629400D01*
X6946736D01*
X6980592D01*
X7031376D02*
Y6730967D01*
X7099087Y6629400D01*
Y6730967D01*
X7234510Y6629400D02*
X7268366D01*
X7251438D01*
Y6730967D01*
X7234510Y6714039D01*
X2438400Y3962400D02*
Y4047039D01*
X2480720Y4089359D01*
X2523039Y4047039D01*
Y3962400D01*
Y4025879D01*
X2438400D01*
X2649998Y4068199D02*
X2628838Y4089359D01*
X2586519D01*
X2565359Y4068199D01*
Y4047039D01*
X2586519Y4025879D01*
X2628838D01*
X2649998Y4004720D01*
Y3983560D01*
X2628838Y3962400D01*
X2586519D01*
X2565359Y3983560D01*
X2776957Y4068199D02*
X2755797Y4089359D01*
X2713477D01*
X2692318Y4068199D01*
Y4047039D01*
X2713477Y4025879D01*
X2755797D01*
X2776957Y4004720D01*
Y3983560D01*
X2755797Y3962400D01*
X2713477D01*
X2692318Y3983560D01*
X2819277Y3962400D02*
Y4089359D01*
X2861596Y4047039D01*
X2903916Y4089359D01*
Y3962400D01*
X2946235D02*
Y4047039D01*
X2988555Y4089359D01*
X3030875Y4047039D01*
Y3962400D01*
Y4025879D01*
X2946235D01*
X3073194Y3962400D02*
Y4089359D01*
X3157834Y3962400D01*
Y4089359D01*
X3200153Y3962400D02*
Y4089359D01*
X3284793Y3962400D01*
Y4089359D01*
X3454071Y3962400D02*
Y4047039D01*
X3496391Y4089359D01*
X3538710Y4047039D01*
Y3962400D01*
Y4025879D01*
X3454071D01*
X3581030D02*
X3665669D01*
X3707989Y4089359D02*
Y3962400D01*
X3771468D01*
X3792628Y3983560D01*
Y4068199D01*
X3771468Y4089359D01*
X3707989D01*
X3919587D02*
X3834947D01*
Y4025879D01*
X3877267D01*
X3834947D01*
Y3962400D01*
X4173504D02*
X4088865D01*
X4173504Y4047039D01*
Y4068199D01*
X4152345Y4089359D01*
X4110025D01*
X4088865Y4068199D01*
X4300463Y4089359D02*
X4215824D01*
Y4025879D01*
X4258144Y4047039D01*
X4279303D01*
X4300463Y4025879D01*
Y3983560D01*
X4279303Y3962400D01*
X4236984D01*
X4215824Y3983560D01*
X4469742Y3962400D02*
Y4089359D01*
X4533221D01*
X4554381Y4068199D01*
Y4025879D01*
X4533221Y4004720D01*
X4469742D01*
X4596700Y3962400D02*
Y4089359D01*
X4660180D01*
X4681340Y4068199D01*
Y4025879D01*
X4660180Y4004720D01*
X4596700D01*
X4723659Y3962400D02*
X4808299Y4047039D01*
X4850618Y4089359D02*
X4935258D01*
Y4068199D01*
X4850618Y3983560D01*
Y3962400D01*
X4935258D01*
X7560711Y3983539D02*
X7543783Y4000467D01*
X7509928D01*
X7493000Y3983539D01*
Y3915828D01*
X7509928Y3898900D01*
X7543783D01*
X7560711Y3915828D01*
Y3949683D01*
X7526856D01*
X7594567Y3898900D02*
Y4000467D01*
X7662279Y3898900D01*
Y4000467D01*
X7696134D02*
Y3898900D01*
X7746918D01*
X7763846Y3915828D01*
Y3983539D01*
X7746918Y4000467D01*
X7696134D01*
X7493000Y3128428D02*
X7509928Y3111500D01*
X7543783D01*
X7560711Y3128428D01*
Y3196139D01*
X7543783Y3213067D01*
X7509928D01*
X7493000Y3196139D01*
Y3179211D01*
X7509928Y3162283D01*
X7560711D01*
X7594567Y3196139D02*
X7611495Y3213067D01*
X7645351D01*
X7662279Y3196139D01*
Y3128428D01*
X7645351Y3111500D01*
X7611495D01*
X7594567Y3128428D01*
Y3196139D01*
X7696134Y3213067D02*
Y3145356D01*
X7729990Y3111500D01*
X7763846Y3145356D01*
Y3213067D01*
X7023100Y2819400D02*
X7056956D01*
X7040028D01*
Y2920967D01*
X7023100Y2904039D01*
X7107739Y2819400D02*
Y2920967D01*
X7141595Y2887111D01*
X7175451Y2920967D01*
Y2819400D01*
X7742789Y422469D02*
X7729246Y408927D01*
Y381842D01*
X7742789Y368300D01*
X7796958D01*
X7810500Y381842D01*
Y408927D01*
X7796958Y422469D01*
X7729246Y490181D02*
Y463096D01*
X7742789Y449554D01*
X7796958D01*
X7810500Y463096D01*
Y490181D01*
X7796958Y503723D01*
X7742789D01*
X7729246Y490181D01*
X7810500Y530808D02*
X7729246D01*
X7756331Y557892D01*
X7729246Y584977D01*
X7810500D01*
X7729246Y612062D02*
X7796958D01*
X7810500Y625604D01*
Y652688D01*
X7796958Y666231D01*
X7729246D01*
X7742789Y747484D02*
X7729246Y733942D01*
Y706858D01*
X7742789Y693315D01*
X7756331D01*
X7769873Y706858D01*
Y733942D01*
X7783415Y747484D01*
X7796958D01*
X7810500Y733942D01*
Y706858D01*
X7796958Y693315D01*
X7742789Y855823D02*
X7729246Y869365D01*
Y896450D01*
X7742789Y909992D01*
X7756331D01*
X7769873Y896450D01*
Y882908D01*
Y896450D01*
X7783415Y909992D01*
X7796958D01*
X7810500Y896450D01*
Y869365D01*
X7796958Y855823D01*
X7729246Y991246D02*
Y937077D01*
X7769873D01*
X7756331Y964161D01*
Y977704D01*
X7769873Y991246D01*
X7796958D01*
X7810500Y977704D01*
Y950619D01*
X7796958Y937077D01*
X7729246Y1018331D02*
Y1072500D01*
X7742789D01*
X7796958Y1018331D01*
X7810500D01*
X7742789Y1099585D02*
X7729246Y1113127D01*
Y1140211D01*
X7742789Y1153754D01*
X7796958D01*
X7810500Y1140211D01*
Y1113127D01*
X7796958Y1099585D01*
X7742789D01*
X7769873Y1180838D02*
Y1235007D01*
X7810500Y1262092D02*
Y1289177D01*
Y1275634D01*
X7729246D01*
X7742789Y1262092D01*
Y1329804D02*
X7729246Y1343346D01*
Y1370430D01*
X7742789Y1383973D01*
X7756331D01*
X7769873Y1370430D01*
Y1356888D01*
Y1370430D01*
X7783415Y1383973D01*
X7796958D01*
X7810500Y1370430D01*
Y1343346D01*
X7796958Y1329804D01*
X7742789Y1411057D02*
X7729246Y1424600D01*
Y1451684D01*
X7742789Y1465226D01*
X7756331D01*
X7769873Y1451684D01*
Y1438142D01*
Y1451684D01*
X7783415Y1465226D01*
X7796958D01*
X7810500Y1451684D01*
Y1424600D01*
X7796958Y1411057D01*
X7810500Y1492311D02*
Y1519396D01*
Y1505853D01*
X7729246D01*
X7742789Y1492311D01*
X7769873Y1560023D02*
Y1614192D01*
X7742789Y1641276D02*
X7729246Y1654819D01*
Y1681903D01*
X7742789Y1695445D01*
X7796958D01*
X7810500Y1681903D01*
Y1654819D01*
X7796958Y1641276D01*
X7742789D01*
X7729246Y1776699D02*
Y1722530D01*
X7769873D01*
X7756331Y1749615D01*
Y1763157D01*
X7769873Y1776699D01*
X7796958D01*
X7810500Y1763157D01*
Y1736072D01*
X7796958Y1722530D01*
X7810500Y1803784D02*
Y1830869D01*
Y1817326D01*
X7729246D01*
X7742789Y1803784D01*
X7810500Y1952749D02*
X7729246D01*
Y1993376D01*
X7742789Y2006918D01*
X7769873D01*
X7783415Y1993376D01*
Y1952749D01*
Y1979834D02*
X7810500Y2006918D01*
X7729246Y2088172D02*
Y2034003D01*
X7810500D01*
Y2088172D01*
X7769873Y2034003D02*
Y2061088D01*
X7729246Y2115257D02*
X7810500D01*
Y2169426D01*
Y2196511D02*
X7756331D01*
X7729246Y2223595D01*
X7756331Y2250680D01*
X7810500D01*
X7769873D01*
Y2196511D01*
X7729246Y2277765D02*
X7742789D01*
X7769873Y2304849D01*
X7742789Y2331934D01*
X7729246D01*
X7769873Y2304849D02*
X7810500D01*
Y2494441D02*
Y2440272D01*
X7756331Y2494441D01*
X7742789D01*
X7729246Y2480899D01*
Y2453814D01*
X7742789Y2440272D01*
X7810500Y2562153D02*
X7729246D01*
X7769873Y2521526D01*
Y2575695D01*
X7729246Y2602780D02*
X7810500Y2656949D01*
X7729246D02*
X7810500Y2602780D01*
X7035800Y4140200D02*
X7069656D01*
X7052728D01*
Y4241767D01*
X7035800Y4224839D01*
X7120439Y4140200D02*
Y4241767D01*
X7154295Y4207911D01*
X7188151Y4241767D01*
Y4140200D01*
%TF.MD5,60ca309f808db0d7112f18d6fb0b627a*%
M02*
